<svg width="67" height="67" viewBox="0 0 67 67" fill="none" xmlns="http://www.w3.org/2000/svg">
<path d="M67 23.7012V8.21962H51.5089V12.5806H59.5552L53.3512 18.7843C49.4612 11.0778 41.4748 5.77747 32.2693 5.77747C19.2538 5.77747 8.66501 16.3668 8.66501 29.383C8.66501 32.0173 9.10547 34.549 9.90527 36.917L0 46.8223L3.08351 49.9058L11.827 41.162C15.9115 48.2225 23.5418 52.9867 32.269 52.9867C37.9933 52.9867 43.2471 50.9373 47.3386 47.5352L61.026 61.222L64.1095 58.1385L50.4221 44.4516C53.8243 40.3605 55.8739 35.1069 55.8739 29.3827C55.8739 27.2589 55.5876 25.2019 55.059 23.2427L62.6384 15.6638V23.7009L67 23.7012ZM13.0257 29.383C13.0257 18.7715 21.6582 10.1385 32.269 10.1385C40.2921 10.1385 47.1807 15.0751 50.0654 22.0696L39.5089 32.6255L26.8518 19.969L13.4452 33.3765C13.1719 32.0876 13.0257 30.7523 13.0257 29.383ZM51.5132 29.383C51.5132 39.9935 42.8805 48.626 32.2693 48.626C24.7338 48.626 18.1999 44.2702 15.0434 37.9462L26.8524 26.1366L39.5094 38.7925L51.3542 26.9486C51.4551 27.7464 51.5132 28.5579 51.5132 29.383Z" fill="white"/>
</svg>
