<svg width="67" height="67" viewBox="0 0 67 67" fill="none" xmlns="http://www.w3.org/2000/svg">
<path fill-rule="evenodd" clip-rule="evenodd" d="M37.9252 38.5504C38.4777 38.4509 39.038 38.4009 39.5994 38.4011C40.7799 38.4011 41.9095 38.6195 42.9501 39.018L47.0902 33.1308L47.2484 33.2204C45.7135 31.5053 44.8664 29.2837 44.8697 26.9821C44.8697 21.8075 49.0646 17.6127 54.2391 17.6127C59.4137 17.6127 63.6086 21.8075 63.6086 26.9821C63.6086 32.1567 59.4137 36.3516 54.2391 36.3516C53.164 36.3516 52.131 36.1703 51.1692 35.8371L46.9793 41.9969C48.2714 43.6438 48.9721 45.6773 48.9688 47.7706C48.9688 52.9451 44.7739 57.14 39.5994 57.14C34.4248 57.14 30.2299 52.9451 30.2299 47.7706C30.2299 44.9108 31.5112 42.3503 33.5309 40.6316L27.4513 28.5451C26.8242 28.6743 26.1855 28.7393 25.5452 28.7389C24.7389 28.7395 23.9359 28.6361 23.156 28.4314L18.8472 36.0236C20.6292 37.7292 21.7389 40.1315 21.7389 42.793C21.7389 47.9676 17.544 52.1625 12.3694 52.1625C7.19487 52.1625 3 47.9676 3 42.793C3 37.6185 7.19487 33.4236 12.3694 33.4236C13.1468 33.4236 13.9019 33.5182 14.624 33.6965L18.96 26.034C17.241 24.3361 16.1758 21.9774 16.1758 19.3694C16.1758 14.1949 20.3707 10 25.5452 10C30.7198 10 34.9147 14.1949 34.9147 19.3694C34.9147 22.1694 33.6864 24.6825 31.7396 26.3995L37.9252 38.5504ZM54.2391 31.6668C56.8266 31.6668 58.9239 29.5695 58.9239 26.9821C58.9239 24.3947 56.8266 22.2974 54.2391 22.2974C51.6517 22.2974 49.5544 24.3947 49.5544 26.9821C49.5544 29.5695 51.6517 31.6668 54.2391 31.6668ZM12.3694 47.4778C14.9569 47.4778 17.0542 45.3805 17.0542 42.793C17.0542 40.2056 14.9569 38.1083 12.3694 38.1083C9.78201 38.1083 7.68472 40.2056 7.68472 42.793C7.68472 45.3805 9.78201 47.4778 12.3694 47.4778ZM25.5452 24.0542C28.1326 24.0542 30.2299 21.9569 30.2299 19.3694C30.2299 16.782 28.1326 14.6847 25.5452 14.6847C22.9578 14.6847 20.8605 16.782 20.8605 19.3694C20.8605 21.9569 22.9578 24.0542 25.5452 24.0542ZM39.5994 52.4553C42.1868 52.4553 44.2841 50.358 44.2841 47.7706C44.2841 45.1831 42.1868 43.0858 39.5994 43.0858C37.0119 43.0858 34.9147 45.1831 34.9147 47.7706C34.9147 50.358 37.0119 52.4553 39.5994 52.4553Z" fill="white"/>
</svg>
