<svg width="67" height="67" viewBox="0 0 67 67" fill="none" xmlns="http://www.w3.org/2000/svg">
<g clip-path="url(#clip0_101_259)">
<path d="M23.3272 13.9583H19.5696L13.9583 36.2917H16.8282L18.1235 31.0573H24.589L25.8508 36.2917H28.8156L23.3272 13.9583ZM18.5004 28.8156L21.3395 16.6104H21.4651L24.2121 28.8184L18.5004 28.8156ZM31.3728 36.2917V13.9583H34.1644V36.2917H31.3728ZM31.8948 39.0833H11.1667V11.1667H39.0833V24.5108C42.3875 22.3772 46.3841 21.5918 50.25 22.3166V16.75H44.6667V11.1667C44.6623 9.68723 44.0726 8.26966 43.0265 7.22354C41.9803 6.17741 40.5628 5.58775 39.0833 5.58333H33.5V0H27.9167V5.58333H22.3333V0H16.75V5.58333H11.1667C9.68723 5.58775 8.26966 6.17741 7.22354 7.22354C6.17741 8.26966 5.58775 9.68723 5.58333 11.1667V16.75H0V22.3333H5.58333V27.9167H0V33.5H5.58333V39.0833C5.58775 40.5628 6.17741 41.9803 7.22354 43.0265C8.26966 44.0726 9.68723 44.6623 11.1667 44.6667H16.75V50.25H22.3333V44.6667H27.9167V50.25H33.5V44.689C32.6148 42.9389 32.0701 41.0367 31.8948 39.0833ZM37.6875 37.6875C37.6875 35.755 38.2606 33.8659 39.3342 32.2591C40.4078 30.6523 41.9338 29.4 43.7192 28.6604C45.5046 27.9209 47.4692 27.7274 49.3645 28.1044C51.2599 28.4814 53.0009 29.412 54.3674 30.7785C55.7338 32.145 56.6644 33.8859 57.0414 35.7813C57.4184 37.6767 57.2249 39.6413 56.4854 41.4266C55.7459 43.212 54.4935 44.738 52.8867 45.8116C51.2799 46.8853 49.3908 47.4583 47.4583 47.4583C46.1751 47.4587 44.9044 47.2062 43.7188 46.7153C42.5331 46.2244 41.4559 45.5047 40.5485 44.5973C39.6411 43.69 38.9214 42.6127 38.4305 41.4271C37.9396 40.2415 37.6871 38.9707 37.6875 37.6875ZM47.4583 53.0417C40.937 53.0417 27.9167 56.3163 27.9167 62.8125V67H67V62.8125C67 56.3135 53.9797 53.0417 47.4583 53.0417Z" fill="white"/>
</g>
<defs>
<clipPath id="clip0_101_259">
<rect width="67" height="67" fill="white"/>
</clipPath>
</defs>
</svg>
