<svg width="67" height="67" viewBox="0 0 67 67" fill="none" xmlns="http://www.w3.org/2000/svg">
<path d="M23.5002 50.25H10.4688C9.91345 50.25 9.3809 50.0294 8.98825 49.6368C8.59559 49.2441 8.375 48.7115 8.375 48.1562V12.5625H4.1875C3.6322 12.5625 3.09965 12.3419 2.707 11.9493C2.31434 11.5566 2.09375 11.024 2.09375 10.4688C2.09375 9.91345 2.31434 9.3809 2.707 8.98825C3.09965 8.59559 3.6322 8.375 4.1875 8.375H62.8125C63.3678 8.375 63.9004 8.59559 64.293 8.98825C64.6857 9.3809 64.9062 9.91345 64.9062 10.4688C64.9062 11.024 64.6857 11.5566 64.293 11.9493C63.9004 12.3419 63.3678 12.5625 62.8125 12.5625H58.625V48.1562C58.625 48.7115 58.4044 49.2441 58.0118 49.6368C57.6191 50.0294 57.0865 50.25 56.5312 50.25H43.5249L50.7776 62.8125H45.9453L38.6925 50.25H28.3326L21.0799 62.8125H16.2475L23.5002 50.25ZM54.4375 12.5625H12.5625V46.0625H54.4375V12.5625ZM22.4199 34.9824C22.2252 35.177 21.9941 35.3315 21.7398 35.4368C21.4854 35.5422 21.2128 35.5964 20.9375 35.5964C20.6622 35.5964 20.3896 35.5422 20.1352 35.4368C19.8809 35.3315 19.6498 35.177 19.4551 34.9824C19.2605 34.7877 19.106 34.5566 19.0007 34.3023C18.8953 34.0479 18.8411 33.7753 18.8411 33.5C18.8411 33.2247 18.8953 32.9521 19.0007 32.6977C19.106 32.4434 19.2605 32.2123 19.4551 32.0176L29.1157 22.3613L37.3232 28.5169L44.4294 19.631C44.5957 19.4017 44.8068 19.2085 45.05 19.0632C45.2931 18.9179 45.5632 18.8234 45.8439 18.7855C46.1247 18.7476 46.4102 18.767 46.6832 18.8426C46.9561 18.9183 47.2109 19.0485 47.4321 19.2255C47.6533 19.4024 47.8363 19.6224 47.97 19.8721C48.1037 20.1219 48.1854 20.3961 48.21 20.6783C48.2346 20.9605 48.2017 21.2448 48.1133 21.5139C48.0249 21.783 47.8828 22.0314 47.6956 22.244L38.056 34.2998L29.5093 27.8888L22.4199 34.9782V34.9824Z" fill="white"/>
</svg>
