<svg width="67" height="67" viewBox="0 0 67 67" fill="none" xmlns="http://www.w3.org/2000/svg">
<path d="M41.1883 27.9167C43.885 27.9167 46.0737 30.1053 46.0737 32.8021V46.0597C46.0737 49.3922 44.7498 52.5883 42.3934 54.9447C40.0369 57.3012 36.8409 58.625 33.5084 58.625C30.1759 58.625 26.9798 57.3012 24.6234 54.9447C22.2669 52.5883 20.9431 49.3922 20.9431 46.0597V32.8021C20.9431 30.1053 23.129 27.9167 25.8285 27.9167H41.1883ZM41.1883 32.1042H25.8285C25.6434 32.1042 25.4659 32.1777 25.335 32.3086C25.2041 32.4395 25.1306 32.617 25.1306 32.8021V46.0597C25.1306 48.2816 26.0133 50.4126 27.5844 51.9837C29.1555 53.5548 31.2865 54.4375 33.5084 54.4375C35.7303 54.4375 37.8612 53.5548 39.4324 51.9837C41.0035 50.4126 41.8862 48.2816 41.8862 46.0597V32.8021C41.8862 32.617 41.8126 32.4395 41.6818 32.3086C41.5509 32.1777 41.3734 32.1042 41.1883 32.1042ZM10.4688 27.9167H19.9074C18.9225 29.1062 18.321 30.5661 18.1821 32.1042H10.4688C10.2837 32.1042 10.1061 32.1777 9.97526 32.3086C9.84437 32.4395 9.77084 32.617 9.77084 32.8021V41.8722C9.77067 42.9271 10.0095 43.9684 10.4695 44.9177C10.9295 45.8671 11.5986 46.6999 12.4266 47.3535C13.2547 48.0072 14.22 48.4647 15.2502 48.6917C16.2804 48.9188 17.3487 48.9094 18.3748 48.6643C18.6121 50.0713 19.0448 51.4141 19.6394 52.662C17.9847 53.1047 16.2504 53.1608 14.5705 52.8262C12.8907 52.4915 11.3103 51.775 9.9516 50.732C8.59289 49.689 7.49225 48.3476 6.7348 46.8113C5.97735 45.275 5.58338 43.5851 5.58334 41.8722V32.8021C5.58334 30.1053 7.77201 27.9167 10.4688 27.9167ZM47.1094 27.9167H56.5313C59.228 27.9167 61.4167 30.1053 61.4167 32.8021V41.875C61.4171 43.5868 61.0239 45.2757 60.2676 46.8113C59.5113 48.3469 58.4121 49.6881 57.0549 50.7312C55.6977 51.7743 54.1188 52.4915 52.4403 52.8272C50.7618 53.163 49.0286 53.1084 47.3746 52.6676C47.972 51.4169 48.4047 50.0741 48.6448 48.6671C49.6696 48.9093 50.7359 48.9165 51.7638 48.6881C52.7918 48.4597 53.7547 48.0016 54.5805 47.3482C55.4063 46.6949 56.0735 45.8631 56.5322 44.9152C56.9909 43.9674 57.2292 42.928 57.2292 41.875V32.8021C57.2292 32.617 57.1556 32.4395 57.0248 32.3086C56.8939 32.1777 56.7164 32.1042 56.5313 32.1042H48.8346C48.6958 30.5661 48.0943 29.1062 47.1094 27.9167ZM33.5 8.375C35.7212 8.375 37.8514 9.25736 39.422 10.828C40.9926 12.3986 41.875 14.5288 41.875 16.75C41.875 18.9712 40.9926 21.1014 39.422 22.672C37.8514 24.2426 35.7212 25.125 33.5 25.125C31.2788 25.125 29.1486 24.2426 27.578 22.672C26.0074 21.1014 25.125 18.9712 25.125 16.75C25.125 14.5288 26.0074 12.3986 27.578 10.828C29.1486 9.25736 31.2788 8.375 33.5 8.375ZM51.6458 11.1667C53.4968 11.1667 55.272 11.902 56.5809 13.2108C57.8897 14.5197 58.625 16.2948 58.625 18.1458C58.625 19.9968 57.8897 21.772 56.5809 23.0808C55.272 24.3897 53.4968 25.125 51.6458 25.125C49.7949 25.125 48.0197 24.3897 46.7108 23.0808C45.402 21.772 44.6667 19.9968 44.6667 18.1458C44.6667 16.2948 45.402 14.5197 46.7108 13.2108C48.0197 11.902 49.7949 11.1667 51.6458 11.1667ZM15.3542 11.1667C17.2052 11.1667 18.9803 11.902 20.2892 13.2108C21.598 14.5197 22.3333 16.2948 22.3333 18.1458C22.3333 19.9968 21.598 21.772 20.2892 23.0808C18.9803 24.3897 17.2052 25.125 15.3542 25.125C13.5032 25.125 11.728 24.3897 10.4192 23.0808C9.11031 21.772 8.37501 19.9968 8.37501 18.1458C8.37501 16.2948 9.11031 14.5197 10.4192 13.2108C11.728 11.902 13.5032 11.1667 15.3542 11.1667ZM33.5 12.5625C32.3894 12.5625 31.3243 13.0037 30.539 13.789C29.7537 14.5743 29.3125 15.6394 29.3125 16.75C29.3125 17.8606 29.7537 18.9257 30.539 19.711C31.3243 20.4963 32.3894 20.9375 33.5 20.9375C34.6106 20.9375 35.6757 20.4963 36.461 19.711C37.2463 18.9257 37.6875 17.8606 37.6875 16.75C37.6875 15.6394 37.2463 14.5743 36.461 13.789C35.6757 13.0037 34.6106 12.5625 33.5 12.5625ZM51.6458 15.3542C50.9054 15.3542 50.1954 15.6483 49.6718 16.1718C49.1483 16.6954 48.8542 17.4054 48.8542 18.1458C48.8542 18.8862 49.1483 19.5963 49.6718 20.1198C50.1954 20.6434 50.9054 20.9375 51.6458 20.9375C52.3862 20.9375 53.0963 20.6434 53.6199 20.1198C54.1434 19.5963 54.4375 18.8862 54.4375 18.1458C54.4375 17.4054 54.1434 16.6954 53.6199 16.1718C53.0963 15.6483 52.3862 15.3542 51.6458 15.3542ZM15.3542 15.3542C14.6138 15.3542 13.9037 15.6483 13.3802 16.1718C12.8566 16.6954 12.5625 17.4054 12.5625 18.1458C12.5625 18.8862 12.8566 19.5963 13.3802 20.1198C13.9037 20.6434 14.6138 20.9375 15.3542 20.9375C16.0946 20.9375 16.8046 20.6434 17.3282 20.1198C17.8517 19.5963 18.1458 18.8862 18.1458 18.1458C18.1458 17.4054 17.8517 16.6954 17.3282 16.1718C16.8046 15.6483 16.0946 15.3542 15.3542 15.3542Z" fill="white"/>
</svg>
