<svg width="48" height="81" viewBox="0 0 48 81" fill="none" xmlns="http://www.w3.org/2000/svg">
<path d="M24.0495 22.1239C13.7635 22.1561 5.41742 30.5344 5.41742 40.814V78.5422C5.41742 79.3478 6.07157 80.0019 6.87718 80.0019C7.68279 80.0019 8.33694 79.3478 8.33694 78.5422V50.8325C11.6689 56.0593 17.5273 59.5266 24.172 59.5041C34.4773 59.4718 42.8363 51.0581 42.8008 40.7527C42.7686 30.4474 34.3548 22.0884 24.0495 22.1239ZM24.1591 56.591C15.4617 56.6168 8.36272 49.5661 8.33372 40.8655V40.814C8.33372 32.1392 15.3779 25.0692 24.0592 25.037C32.7565 25.0112 39.8555 32.0651 39.8845 40.7624C39.9135 49.4597 32.8596 56.562 24.1591 56.5878V56.591Z" fill="url(#paint0_linear_140_14)"/>
<path d="M47.6087 40.7399V40.7463C47.6474 53.7037 37.139 64.2765 24.1848 64.3184C23.3792 64.3184 22.7219 63.6675 22.7186 62.8619C22.7186 62.0563 23.3664 61.4021 24.1752 61.3989C35.5246 61.3634 44.7311 52.0989 44.6924 40.7463C44.6569 29.3969 35.3925 20.1905 24.0398 20.2291C12.6904 20.2646 3.48397 29.5291 3.52264 40.8817C3.52264 41.6873 2.87493 42.3414 2.06932 42.3447C1.26371 42.3447 0.606339 41.6969 0.603117 40.8913C0.56767 27.934 11.0728 17.3547 24.0334 17.3161C32.8854 17.2871 40.6289 22.1851 44.6569 29.4259L44.5667 1.46816C44.5635 0.659329 45.2144 0.00195312 46.02 0.00195312C46.8256 0.00195312 47.483 0.649661 47.4862 1.45527L47.6119 40.7399H47.6087Z" fill="url(#paint1_linear_140_14)"/>
<path d="M24.1526 55.0989C16.3865 55.1247 10.0512 48.8281 10.0255 41.062C9.99969 33.296 16.2963 26.9607 24.0624 26.9349C31.8284 26.9091 38.1637 33.2057 38.1895 40.9718C38.2153 48.7378 31.9186 55.0731 24.1526 55.0989ZM24.072 29.8512C17.9172 29.8705 12.9224 34.8943 12.9418 41.0523C12.9611 47.2072 17.9849 52.2019 24.1429 52.1826C30.2978 52.1633 35.2925 47.1395 35.2732 40.9815C35.2539 34.8266 30.2301 29.8319 24.072 29.8512Z" fill="url(#paint2_linear_140_14)"/>
<path d="M24.1365 49.9044C19.1256 49.9205 15.0331 45.857 15.017 40.8429C15.0009 35.832 19.0644 31.7395 24.0785 31.7234C29.0894 31.7073 33.1818 35.7708 33.198 40.7849C33.198 41.6034 32.5374 42.2704 31.7189 42.2737C30.9004 42.2769 30.2333 41.6131 30.2301 40.7946C30.2204 37.4207 27.4653 34.6816 24.0882 34.6913C20.7143 34.701 17.9752 37.4561 17.9849 40.8332C17.9945 44.2071 20.7497 46.9462 24.1268 46.9365C24.9453 46.9365 25.6124 47.5971 25.6156 48.4156C25.6156 49.2341 24.955 49.9012 24.1365 49.9044Z" fill="url(#paint3_linear_140_14)"/>
<defs>
<linearGradient id="paint0_linear_140_14" x1="24.1075" y1="74.7816" x2="24.1075" y2="5.82808" gradientUnits="userSpaceOnUse">
<stop stop-color="#009AA2"/>
<stop offset="0.27" stop-color="#006DA5"/>
<stop offset="0.51" stop-color="#47499E"/>
<stop offset="0.75" stop-color="#743293"/>
<stop offset="1" stop-color="#8A2890"/>
</linearGradient>
<linearGradient id="paint1_linear_140_14" x1="24.1075" y1="74.7816" x2="24.1075" y2="5.8281" gradientUnits="userSpaceOnUse">
<stop stop-color="#009AA2"/>
<stop offset="0.27" stop-color="#006DA5"/>
<stop offset="0.51" stop-color="#47499E"/>
<stop offset="0.75" stop-color="#743293"/>
<stop offset="1" stop-color="#8A2890"/>
</linearGradient>
<linearGradient id="paint2_linear_140_14" x1="24.1075" y1="74.7815" x2="24.1075" y2="5.82799" gradientUnits="userSpaceOnUse">
<stop stop-color="#009AA2"/>
<stop offset="0.27" stop-color="#006DA5"/>
<stop offset="0.51" stop-color="#47499E"/>
<stop offset="0.75" stop-color="#743293"/>
<stop offset="1" stop-color="#8A2890"/>
</linearGradient>
<linearGradient id="paint3_linear_140_14" x1="24.1075" y1="74.7815" x2="24.1075" y2="5.828" gradientUnits="userSpaceOnUse">
<stop stop-color="#009AA2"/>
<stop offset="0.27" stop-color="#006DA5"/>
<stop offset="0.51" stop-color="#47499E"/>
<stop offset="0.75" stop-color="#743293"/>
<stop offset="1" stop-color="#8A2890"/>
</linearGradient>
</defs>
</svg>
