<svg width="87" height="76" viewBox="0 0 87 76" fill="none" xmlns="http://www.w3.org/2000/svg">
<g opacity="0.4">
<path d="M11.3006 33.9746L11.3886 33.8769C11.0759 34.17 10.7584 34.5168 10.4653 34.8489C10.9685 33.9746 11.6377 32.9879 12.5951 32.8902C12.4387 32.6068 13.0444 31.8448 13.1128 31.8888C13.2985 31.796 13.4792 31.6934 13.6551 31.586C14.7737 30.8972 15.7701 29.9105 16.8789 28.9385C17.1867 28.6698 17.7875 28.2057 18.403 27.7563C19.0233 27.3216 19.6437 26.882 20.0052 26.6329L20.3129 26.4277C20.2022 26.5124 20.0915 26.5954 19.9808 26.6768C20.479 26.501 20.9381 26.3398 21.3533 26.1933C21.3045 26.2665 21.3094 26.3105 21.1677 26.4521L21.3582 26.3251C21.6024 26.3447 22.0323 26.1346 22.2619 26.0956C22.1886 26.0565 22.3449 25.9637 22.4866 25.8953L22.4475 25.9588C22.9848 25.695 23.654 25.5045 24.1621 25.3287C24.2353 25.3091 24.2793 25.2652 24.3037 25.2358L24.8117 25.1381C24.7482 25.06 25.2025 24.9525 24.9534 24.9623C25.3539 24.9623 25.7203 24.8158 26.1062 24.85C26.7509 24.7278 27.4348 24.6692 28.1138 24.6692C28.783 24.6643 29.5059 24.7278 30.1556 24.8841L30.1214 24.9134C30.5805 25.0258 30.9518 25.2651 31.5086 25.2896C31.8799 25.4703 32.4269 25.612 32.5686 25.8171C33.0278 25.8953 33.2085 26.0027 33.6774 26.0614C33.5553 26.1542 34.1317 26.1737 33.907 26.247C33.5846 26.374 33.57 26.2665 33.2964 26.3593L33.3062 26.33C32.0313 26.3984 30.8345 26.1932 29.7306 26.1444C29.3594 26.0711 28.9979 26.0516 28.6071 26.076C28.2066 26.0907 27.806 26.1298 27.425 26.1591C26.5897 26.2177 25.6861 26.3593 24.9631 26.4961C24.7873 26.5205 24.6896 26.6329 24.5626 26.7208C23.908 26.8869 23.1216 27.2337 22.4084 27.517C22.4182 27.5121 22.4329 27.5023 22.4426 27.4975C22.0665 27.6587 21.8369 27.8834 21.4803 28.0543C21.4706 28.0299 21.412 28.0543 21.3827 28.0543C21.3827 28.1276 20.8355 28.3474 20.2885 28.6014C19.7365 28.8554 19.1796 29.1289 19.1406 29.1973L19.0233 29.2559C18.3395 29.7786 17.7777 30.4918 17.1916 30.9265C17.0304 30.9753 16.8594 31.0535 16.7129 31.0828C16.6445 31.2049 16.5614 31.1414 16.4491 31.2489C16.3026 31.6934 16.0583 31.7618 16.156 31.5664C15.8825 31.7472 15.648 31.9816 15.4233 32.1672C15.311 32.2405 15.1986 32.3138 15.0814 32.3919C14.9788 32.4554 14.9544 32.5238 14.9544 32.6068C14.7101 32.7778 14.8176 32.7681 14.6027 32.9928C14.6027 33.1051 13.9335 33.4226 13.8846 33.5007L13.9286 33.4763C13.6746 33.7352 13.616 34.0185 13.3668 34.2725C13.0347 34.634 12.6635 34.9906 12.2971 35.3423C11.921 35.7038 11.5497 36.0555 11.2078 36.3827C11.1394 36.3192 11.3788 36.2557 11.3104 36.158C10.8952 36.5537 10.5484 36.9884 10.1332 37.3499C10.0746 37.4329 10.0111 37.5453 9.99643 37.5941C9.88408 37.7309 9.88895 37.6283 9.80103 37.7162L9.84011 37.7895C9.65449 37.8579 9.68869 38.0338 9.53726 38.1168C9.50795 38.0973 9.45911 38.1363 9.41514 38.1754C9.46888 38.2438 9.26858 38.2926 9.32719 38.3464H9.32233C9.29303 38.3659 9.27348 38.3806 9.24905 38.4196C9.17578 38.449 8.54566 38.6785 8.45773 38.7079L8.44306 38.742C8.37468 38.8055 8.30142 38.786 8.33073 38.7372L8.24769 38.8202H8.26233L8.1793 38.8983C8.16953 38.9179 8.17929 38.9667 8.22814 38.9716C8.15975 38.996 8.09627 39.0351 8.06207 39.0888C8.14511 38.9276 8.26233 38.7127 8.35025 38.5173C8.26721 38.5467 8.19885 38.6834 8.12558 38.7323C8.0865 38.8446 7.97414 39.0254 7.89598 39.167C7.86667 39.1866 7.77876 39.1377 7.75922 39.2256C7.78365 39.2989 7.70061 39.2891 7.69572 39.3673C7.76899 39.338 7.80318 39.2745 7.84715 39.2207C7.89599 39.2842 7.76898 39.3868 7.74944 39.4406C7.70548 39.4454 7.65663 39.5578 7.59313 39.6017C7.67617 39.6213 7.58825 39.6848 7.62244 39.719C7.61755 39.7483 7.57848 39.7483 7.56383 39.7238C7.52475 39.7092 7.52963 39.675 7.53452 39.6457C7.53452 39.6164 7.55893 39.5724 7.49543 39.5773C7.51009 39.6213 7.4759 39.6652 7.4466 39.6945C7.40752 39.675 7.43194 39.6555 7.3782 39.6555C7.36355 39.6848 7.36844 39.6701 7.35868 39.6701C7.35379 39.6701 7.34892 39.6701 7.36845 39.6701C7.38311 39.6701 7.3782 39.675 7.3782 39.675C7.39286 39.6604 7.42217 39.7385 7.53452 39.6945C7.61267 39.6848 7.74457 39.6359 7.70061 39.6701C7.70061 39.6604 7.6664 39.6652 7.61755 39.6799C7.57847 39.6897 7.53939 39.6946 7.49543 39.7092C7.46612 39.719 7.45148 39.7239 7.4466 39.7092C7.43683 39.6994 7.42705 39.6897 7.4124 39.6848C7.38798 39.6653 7.36845 39.6848 7.36845 39.6701C7.3538 39.6701 7.28053 39.6604 7.27564 39.6506C7.29518 39.6506 7.31472 39.6555 7.33426 39.6603C7.31472 39.6603 7.25122 39.6017 7.21703 39.6017C7.18284 39.6701 7.61756 39.5431 7.53941 39.5822V39.5382C7.48568 39.5578 7.42218 39.6164 7.45149 39.6652C7.42218 39.6359 7.35868 39.6897 7.35868 39.6701H7.36845C7.36845 39.6701 7.34402 39.6653 7.29517 39.6506C7.30983 39.6506 7.20237 39.592 7.08513 39.5871C6.96302 39.5724 6.82134 39.6164 6.85554 39.4796C6.92392 39.6066 6.94349 39.4894 7.0363 39.3771C7.01676 39.3477 6.9972 39.2696 7.04605 39.167C7.10955 39.0986 7.10955 39.1475 7.13886 39.1475C7.15351 39.0937 7.19749 39.0058 7.15353 38.9814C7.25122 38.9667 7.20238 38.869 7.28053 38.8153C7.3538 38.7762 7.29517 38.8397 7.35379 38.8153C7.42706 38.7225 7.54429 38.6004 7.59802 38.5271C7.58825 38.4636 7.61267 38.3268 7.50032 38.3268C7.3782 38.4636 7.63711 38.3659 7.49057 38.488C7.47103 38.3513 7.34891 38.5857 7.26587 38.5515C7.27075 38.4734 7.35867 38.3854 7.44171 38.3219V38.3464C7.51009 38.2926 7.66152 38.1852 7.69083 38.0728C7.64687 38.0582 7.65664 38.0093 7.60291 38.0484L7.69083 37.9556C7.69083 37.9556 7.7299 37.9556 7.71036 37.9849C7.77386 37.9654 7.80808 37.9165 7.82762 37.8677C7.80808 37.8237 8.44309 37.5551 8.4089 37.5502C8.47728 37.4916 8.45284 37.428 8.54565 37.4036C8.57496 37.4183 7.80318 37.8628 7.90087 37.7993C7.92529 37.7065 8.80944 37.2815 8.79967 37.1887C8.8534 37.1496 8.92177 37.1008 8.93642 37.1447C9.0097 37.0568 8.85829 37.1057 8.89737 37.0226C8.90225 37.0226 8.90714 37.0422 8.92667 37.0226L8.95109 36.9347C9.12694 36.8712 9.26859 36.6416 9.46398 36.5928C9.39559 36.5928 9.29789 36.5683 9.18066 36.6123V36.6416C9.18066 36.6416 9.07322 36.6954 9.04879 36.6612C9.11718 36.5684 9.19532 36.5146 9.31256 36.4707C9.32232 36.4462 9.33209 36.4218 9.34186 36.4023C9.34186 36.4023 9.34187 36.412 9.35164 36.4169C9.36629 36.373 9.35651 36.3729 9.33697 36.3681C9.33697 36.3681 9.3321 36.3681 9.32233 36.3681C9.29791 36.2264 9.70821 36.1482 9.82544 35.9675C9.88406 35.9431 9.84498 35.9822 9.91336 35.948C10.0404 35.777 10.1234 35.6549 10.27 35.4937C10.3579 35.4888 10.3725 35.4986 10.3481 35.5963L10.4556 35.4742C10.2553 35.4644 10.5875 35.1762 10.3725 35.1762C10.3872 35.1225 10.4507 35.0541 10.524 35.0101C10.5533 35.0297 10.6021 35.0639 10.6852 34.9857C10.7682 34.8392 10.7535 34.8782 10.8171 34.7512C10.8073 34.6975 10.7584 34.717 10.7389 34.6877C10.9294 34.5851 10.7975 34.4875 10.9441 34.3605C11.0418 34.2823 11.2176 34.1211 11.2811 34.1748C11.3983 34.0576 11.3544 34.0136 11.3006 33.9794V33.9746Z" fill="#8267D7"/>
<path d="M53.4946 57.1038L53.4507 57.2356C53.5386 57.0354 53.6119 56.8058 53.6852 56.5811C53.7487 56.3515 53.8073 56.0926 53.8463 55.8679C53.861 56.4101 53.7731 57.0256 53.5972 57.5043C53.4214 57.9977 53.1381 58.4177 52.7082 58.6424C52.9622 58.8525 52.6398 59.8001 52.5568 59.7757C52.4102 59.9271 52.2686 60.0883 52.1318 60.2495C52.2197 60.142 52.3125 60.0297 52.4102 59.9125C52.3125 60.0297 52.2246 60.1372 52.1318 60.2495C51.2721 61.2655 50.5492 62.4867 49.6699 63.6688C49.4208 63.9814 48.9812 64.5725 48.4829 65.144C47.9945 65.7204 47.4864 66.2821 47.2178 66.5996L46.9784 66.8731C47.0631 66.7657 47.1462 66.6598 47.2276 66.5556C46.8026 66.8487 46.4118 67.1125 46.0601 67.3567C46.0894 67.2737 46.0699 67.2297 46.1627 67.0637L46.0162 67.2346C45.7817 67.2786 45.4349 67.5961 45.2346 67.6987C45.3128 67.7182 45.1906 67.8403 45.0832 67.9527L45.0978 67.8794C44.6826 68.2848 44.1209 68.6658 43.7253 69.0029C43.6666 69.0468 43.6422 69.1006 43.6324 69.1397L43.2075 69.4083C43.2954 69.4572 42.929 69.7258 43.1537 69.6232C42.7971 69.7698 42.5285 70.0433 42.1768 70.1654C41.1461 70.903 39.9787 71.6015 38.7673 72.134L38.777 72.09C38.3472 72.2659 37.9173 72.3147 37.4484 72.6127C37.0478 72.6957 36.5056 72.8667 36.2907 72.7592C35.8755 72.9302 35.6655 72.8911 35.2454 73.0132C35.3187 72.8862 34.8107 73.0621 34.9865 72.9155C35.2063 72.6859 35.2601 72.7836 35.4457 72.598V72.6322C36.4373 72.0802 37.3995 71.4843 38.3667 70.8639C39.0652 70.5367 39.7393 70.0287 40.4085 69.589C41.1266 69.125 41.913 68.6219 42.5627 68.2067C42.719 68.1187 42.7727 67.9771 42.8655 67.8501C43.4273 67.4495 44.072 66.8634 44.6826 66.3847C44.6729 66.3944 44.6631 66.4042 44.6582 66.414C44.9708 66.1453 45.1369 65.8718 45.4398 65.608C45.4544 65.6275 45.5033 65.5885 45.5326 65.5738C45.5033 65.4517 47.3985 64.0987 47.4278 63.9277L47.5255 63.8446C48.0482 63.1754 48.4683 62.345 48.9177 61.8175C49.0593 61.7345 49.2059 61.627 49.3378 61.5635C49.372 61.4316 49.4696 61.4707 49.5478 61.3437C49.5722 60.8845 49.7872 60.7624 49.7432 60.9724C49.9532 60.7282 50.1144 60.4547 50.2707 60.2153C50.3538 60.1176 50.4417 60.015 50.5296 59.9125C50.6078 59.8245 50.6078 59.7561 50.5882 59.6731C50.7641 59.4435 50.6664 59.4826 50.7934 59.2091C50.7543 59.1065 51.277 58.6082 51.2868 58.5154L51.2526 58.5545C51.3991 58.237 51.3454 57.9537 51.4822 57.6411C51.658 57.1966 51.8338 56.7472 52.0097 56.2978C52.1025 56.078 52.1709 55.8679 52.2246 55.6628C52.2832 55.4429 52.3321 55.228 52.3712 55.018C52.464 55.0277 52.3125 55.1987 52.4249 55.2329C52.5226 54.7347 52.4982 54.2022 52.5617 53.6796C52.5519 53.5819 52.5226 53.4598 52.503 53.4109C52.4933 53.24 52.5617 53.3181 52.5665 53.196L52.4884 53.1667C52.5812 52.9957 52.4347 52.8883 52.4884 52.7222C52.5226 52.7222 52.5372 52.6538 52.5421 52.5952C52.4542 52.5805 52.5763 52.4047 52.4933 52.4047H52.4981C52.4981 52.3656 52.5128 52.3412 52.4981 52.2923C52.5372 52.2288 52.8694 51.5938 52.9183 51.5254L52.9085 51.4912C52.928 51.3887 52.9964 51.3593 53.0062 51.418L53.0208 51.2909L53.0111 51.3056L53.0257 51.1786C53.0257 51.1786 52.9866 51.12 52.9427 51.1493C52.9818 51.0858 53.016 51.0076 53.0111 50.9344C53.0257 51.1444 53.0648 51.3935 53.1185 51.6134C53.1576 51.5352 53.1381 51.3789 53.1625 51.2861C53.1234 51.1689 53.1136 50.9344 53.1087 50.7536C53.1185 50.7146 53.2211 50.7097 53.1967 50.612C53.1381 50.5534 53.2211 50.5143 53.1869 50.4313C53.1332 50.5094 53.1332 50.5924 53.1185 50.6804C53.0452 50.6511 53.1088 50.4606 53.1039 50.3873C53.1332 50.3629 53.1478 50.187 53.1967 50.0844C53.1136 50.1138 53.1722 49.9868 53.1478 49.9135C53.1576 49.8402 53.2016 49.7962 53.2211 49.8353C53.3041 49.8353 53.1967 50.1333 53.3041 50.0551C53.2699 50.0209 53.3188 49.8842 53.3481 49.806C53.3921 49.8158 53.3676 49.8646 53.4214 49.8304C53.436 49.7425 53.5142 49.6692 53.4849 49.6106C53.4702 49.6204 53.4653 49.6595 53.4604 49.6839C53.4849 49.5667 53.011 50.2017 53.0794 50.0698C53.1039 50.1137 53.5093 49.508 53.4946 49.5862C53.4946 49.6595 53.5875 49.5667 53.5826 49.6351L53.5093 49.6937C53.4995 49.7914 53.563 49.85 53.6021 49.8304C53.6363 49.6692 53.182 50.1919 53.265 50.0698L53.2748 50.1284C53.3188 50.0796 53.3774 49.933 53.3481 49.8646C53.3921 49.8744 53.4311 49.8011 53.4653 49.7425V49.7181C53.5044 49.6595 53.5239 49.5618 53.5679 49.6253C53.4507 49.9965 54.071 49.5178 53.9929 49.8842C53.9391 49.7083 53.8805 49.9037 53.8268 50.0551C53.8561 50.0796 53.8854 50.1626 53.8854 50.275C53.8561 50.3678 53.8366 50.3238 53.8073 50.3336C53.817 50.3922 53.8073 50.4997 53.8659 50.4948C53.7877 50.5583 53.8805 50.6218 53.8414 50.7048C53.7975 50.7781 53.817 50.695 53.7731 50.7439C53.7535 50.866 53.734 51.0321 53.7291 51.1298C53.7682 51.1737 53.8366 51.3007 53.9245 51.2323C53.944 51.0516 53.7926 51.2812 53.8414 51.0956C53.9342 51.1933 53.9001 50.9344 53.988 50.9197C54.0271 50.9881 54.0075 51.1053 53.9733 51.203L53.9636 51.1786C53.9342 51.2617 53.8805 51.4375 53.9245 51.5401C53.9685 51.5254 53.988 51.5694 54.0075 51.5059L53.9929 51.628C53.9929 51.628 53.9636 51.6573 53.9587 51.6182C53.9196 51.672 53.9294 51.7306 53.944 51.7794C53.9831 51.799 53.6754 52.4047 53.7047 52.39C53.69 52.4779 53.7486 52.5073 53.6949 52.5903C53.6607 52.5903 53.9538 51.7697 53.9245 51.882C53.9538 51.9602 53.5777 52.8541 53.651 52.9176C53.6412 52.9811 53.6168 53.0592 53.5777 53.0397C53.5777 53.152 53.6607 53.0153 53.69 53.1032C53.6851 53.1032 53.6705 53.0934 53.6705 53.1179L53.7145 53.2009C53.6265 53.3621 53.6754 53.6258 53.563 53.7968C53.6168 53.7528 53.7047 53.704 53.7633 53.5917L53.7438 53.5672C53.7438 53.5672 53.7877 53.4598 53.8268 53.4695C53.8366 53.5819 53.817 53.6796 53.7584 53.7871C53.7682 53.8115 53.7731 53.8359 53.7828 53.8554C53.7779 53.8554 53.7731 53.8554 53.7682 53.8554C53.7877 53.8994 53.7926 53.8945 53.8121 53.8847C53.8121 53.8847 53.817 53.8847 53.8219 53.8799C53.9343 53.9678 53.6803 54.3048 53.7047 54.5149C53.6754 54.5735 53.6851 54.5149 53.6461 54.5881C53.6558 54.803 53.6656 54.9545 53.6461 55.1743C53.5777 55.2329 53.5581 55.2329 53.5191 55.1401L53.4995 55.3062C53.6705 55.1841 53.563 55.6432 53.7389 55.5064C53.7584 55.5602 53.7389 55.6628 53.6949 55.7507C53.6558 55.7507 53.5972 55.7507 53.5679 55.8679C53.5679 56.0438 53.5679 55.99 53.5679 56.1512C53.6021 56.1952 53.6363 56.1512 53.6705 56.1659C53.5484 56.3613 53.7144 56.3906 53.6363 56.586C53.5777 56.7032 53.4849 56.9377 53.4067 56.9181C53.3481 57.0793 53.4067 57.0989 53.4702 57.1086L53.4946 57.1038Z" fill="#8267D7"/>
<path d="M36.1344 64.9192V64.758C36.1051 65.2856 36.1052 65.8327 36.1003 66.3749C36.0026 65.7789 35.9049 65.1342 35.9049 64.5187C35.9049 64.2207 35.9293 63.8788 36.0075 63.6101C36.0807 63.3317 36.1882 63.0924 36.3396 62.8726C36.0416 62.7602 35.9 61.6514 35.9733 61.627C36.027 61.3925 36.0661 61.158 36.0954 60.9138C36.1589 60.3765 36.1686 59.8196 36.1344 59.2481L36.1198 59.0283L36.1003 58.8867C36.0856 58.7938 36.066 58.7108 36.0416 58.6473C35.9 58.7108 35.7535 58.8427 35.6704 58.9208C35.6606 58.9306 35.6509 58.9404 35.6362 58.9502C35.6362 58.9502 35.6069 58.9697 35.5727 58.9941C35.5385 59.0136 35.5043 59.0381 35.4701 59.0576C35.3285 59.1455 35.1673 59.2432 34.9963 59.3507C34.6495 59.5607 34.2343 59.805 33.7947 60.0297C33.5749 60.142 33.3453 60.2495 33.1157 60.3472C32.9887 60.396 32.9105 60.4351 32.7493 60.4888C32.554 60.5474 32.3683 60.606 32.1827 60.6647C31.9971 60.7184 31.8164 60.7672 31.6405 60.8161L31.5086 60.8552C31.4647 60.8747 31.4402 60.8112 31.406 60.7966C31.3425 60.7428 31.279 60.6842 31.2204 60.6305C30.9713 60.4156 30.7515 60.2202 30.561 60.059L30.2386 59.805C30.3314 59.8734 30.3803 59.9026 30.4242 59.9368C30.4486 59.9515 30.4731 59.971 30.5024 59.9906C30.5415 60.0199 30.5415 60.0101 30.6587 60.1127C30.4535 59.8733 30.2582 59.6438 30.0725 59.4288C29.8967 59.2237 29.7111 59.0332 29.5255 58.8427C29.628 58.8671 29.6622 58.8427 29.8723 58.9355L29.6476 58.789C29.5401 58.5349 29.0956 58.1881 28.9198 57.9781C28.9198 58.066 28.7488 57.9488 28.5973 57.8413L28.6853 57.8511C28.1089 57.4359 27.4885 56.8839 26.9903 56.4785C26.9219 56.4199 26.8535 56.3954 26.8047 56.3905L26.365 55.9461C26.3406 56.0486 25.9254 55.6578 26.1111 55.9021C25.8326 55.5064 25.4418 55.228 25.2123 54.8177C24.1132 53.6356 23.1705 52.2386 22.4329 50.7829L22.4817 50.7976C22.2277 50.2847 22.13 49.7669 21.7392 49.2052C21.6025 48.7216 21.3338 48.0817 21.4071 47.8228C21.1726 47.3148 21.1531 47.0754 20.9479 46.5625C21.0945 46.6456 20.8111 46.035 20.9968 46.245C21.2752 46.5088 21.1873 46.5772 21.4217 46.8068H21.3875C22.1642 48.0279 22.9165 49.2345 23.7273 50.4019C24.1767 51.247 24.8313 52.0383 25.4321 52.815C25.7593 53.2399 26.0915 53.6502 26.4383 54.041C26.79 54.4318 27.1417 54.803 27.4641 55.1303C27.6106 55.2964 27.7865 55.3355 27.9575 55.4185C28.5778 55.99 29.4717 56.625 30.2142 57.2845C30.1995 57.2747 30.1849 57.2649 30.1751 57.2551C30.5757 57.5971 30.9469 57.7729 31.3279 58.1295C31.3084 58.149 31.367 58.2028 31.3914 58.237C31.4305 58.2272 31.5819 58.364 31.792 58.5789C31.8164 58.6033 31.8457 58.6326 31.8701 58.6619C31.8701 58.6619 31.8799 58.6815 31.8896 58.6913C31.9043 58.7157 31.9238 58.745 31.9434 58.7694C31.9629 58.7938 31.9825 58.8378 32.0069 58.8573H32.1094C32.1436 58.8573 32.1827 58.8573 32.2218 58.8573H32.2853L32.4074 58.8231C32.5686 58.7841 32.72 58.7401 32.8519 58.6961C33.1157 58.6082 33.3062 58.5301 33.3355 58.491L33.482 58.4372C33.9266 58.1832 34.3515 57.8511 34.7814 57.5385C34.8156 57.5092 34.9377 57.4359 35.0207 57.3822C35.1135 57.3235 35.2064 57.2649 35.2992 57.2063C35.4848 57.0891 35.6753 56.9865 35.8609 56.8839C36.2321 56.6885 36.6034 56.5176 36.9453 56.3759C37.0967 56.3515 37.2823 56.288 37.3947 56.3026C37.3898 56.4834 37.38 56.6446 37.3703 56.7911C37.4435 56.9816 37.3605 57.1526 37.3996 57.4359C37.551 57.6997 37.6194 58.0269 37.634 58.1979C37.6438 58.3737 37.5998 58.403 37.5363 58.2223C37.5461 58.3884 37.5559 58.5496 37.5657 58.7108C37.5754 58.8524 37.5901 58.9892 37.5998 59.126C37.6145 59.3263 37.634 59.5217 37.6438 59.7073C37.634 59.8782 37.6243 60.0492 37.6194 60.2251C37.6047 60.3716 37.6487 60.4497 37.7073 60.523C37.6878 60.8991 37.7464 60.7868 37.7855 61.1824C37.8783 61.2752 37.6634 62.1789 37.6829 62.2864L37.6975 62.2229C37.7073 62.6772 37.8685 62.9898 37.8539 63.4441C37.8441 64.6262 37.7562 65.9841 37.6829 67.132C37.5901 67.132 37.722 66.8829 37.6047 66.8585C37.5657 67.5326 37.6096 68.2311 37.5168 68.9247C37.5168 69.0517 37.5461 69.2129 37.5608 69.2764C37.5559 69.506 37.4973 69.3985 37.4777 69.5646L37.5559 69.6037C37.4435 69.8284 37.5803 69.9651 37.4973 70.1898C37.4631 70.1947 37.4387 70.2778 37.424 70.3559C37.468 70.3657 37.4484 70.4292 37.4338 70.4878C37.4142 70.5562 37.3898 70.6343 37.4338 70.6343H37.4289C37.4142 70.693 37.3947 70.7467 37.3898 70.8102C37.3263 70.9421 36.7841 71.665 36.7157 71.7138V71.7578C36.662 71.8702 36.5838 71.8897 36.5985 71.8213L36.5448 71.963L36.5545 71.9483L36.5057 72.0851C36.5057 72.1144 36.5301 72.1535 36.579 72.1339C36.5203 72.1975 36.4715 72.2756 36.4568 72.3586C36.4813 72.1339 36.5203 71.8409 36.535 71.5722C36.4666 71.6552 36.4422 71.8409 36.3933 71.9385C36.3982 72.0802 36.3494 72.3391 36.3249 72.5345C36.3054 72.5736 36.2028 72.5687 36.2175 72.6713C36.2663 72.7348 36.1833 72.769 36.2077 72.8569C36.2712 72.7836 36.2761 72.7006 36.3054 72.6126C36.3738 72.6566 36.2908 72.8373 36.2956 72.9057C36.2614 72.9301 36.2468 73.0913 36.2126 73.1695C36.2956 73.1451 36.2468 73.2477 36.2859 73.2916C36.2859 73.3454 36.2566 73.3649 36.2321 73.3453C36.1442 73.3649 36.2077 73.1304 36.11 73.1939C36.1491 73.2183 36.1149 73.3307 36.1198 73.3698C36.0758 73.3698 36.0856 73.3356 36.0416 73.3698C36.0416 73.4333 36.0026 73.4772 36.0514 73.4968C36.0612 73.487 36.0514 73.4723 36.0514 73.4577C36.0514 73.487 36.1198 73.4088 36.1979 73.316C36.2761 73.2232 36.364 73.1255 36.3445 73.1744C36.325 73.1549 36.237 73.2672 36.1735 73.36C36.1442 73.3991 36.1149 73.443 36.0954 73.4675C36.0758 73.487 36.0612 73.5212 36.0612 73.5017C36.0368 73.4675 35.983 73.5456 35.9635 73.5065L36.0123 73.4577C35.9879 73.4137 35.9146 73.3698 35.8804 73.3991C35.8804 73.5114 36.2126 73.0767 36.1637 73.1744L36.154 73.1255C36.11 73.1744 36.0758 73.2916 36.1198 73.3356C36.0758 73.3356 36.0612 73.3844 36.0416 73.4284C36.0416 73.4284 36.0465 73.4382 36.0514 73.4382C36.0367 73.4723 36.0465 73.5212 35.9879 73.5065C35.983 73.3991 35.8658 73.4284 35.7583 73.4968C35.646 73.5603 35.5336 73.6628 35.4994 73.4675C35.6167 73.614 35.5873 73.4137 35.6167 73.2476C35.5873 73.2281 35.5385 73.1451 35.5434 73.0132C35.5727 72.9008 35.5922 72.9546 35.6215 72.9399C35.6118 72.8764 35.6264 72.7494 35.5727 72.7543C35.6558 72.681 35.5727 72.6029 35.6264 72.5052C35.6802 72.4222 35.6509 72.5198 35.6997 72.4612C35.7388 72.3244 35.7974 72.1291 35.8316 72.0118C35.8023 71.9532 35.773 71.792 35.6655 71.8555C35.5923 72.0704 35.812 71.8213 35.7095 72.0314C35.6411 71.8995 35.6069 72.2121 35.5141 72.2268C35.4897 72.1388 35.5434 71.9972 35.602 71.8799V71.9092C35.6606 71.8115 35.7632 71.6113 35.7583 71.4794C35.7095 71.4892 35.7046 71.4305 35.6655 71.5038L35.7192 71.3573C35.7192 71.3573 35.7583 71.328 35.7486 71.3768C35.8023 71.3231 35.8169 71.2498 35.8169 71.1863C35.7876 71.157 36.2761 70.4976 36.2321 70.5073C36.2712 70.4048 36.2175 70.3608 36.2859 70.2729C36.3445 70.2826 35.8072 71.2058 35.8658 71.0739C35.8658 71.0202 36.027 70.7565 36.1686 70.4829C36.3103 70.2143 36.4031 69.9163 36.3787 69.8772C36.3982 69.7991 36.4275 69.7013 36.4617 69.7307C36.4666 69.589 36.3738 69.7551 36.3543 69.6525C36.3591 69.6525 36.3738 69.6623 36.3787 69.633L36.3445 69.5304C36.4471 69.335 36.4177 69.0126 36.535 68.8026C36.4813 68.8612 36.3933 68.9198 36.3249 69.0566L36.3445 69.0859C36.3445 69.0859 36.2957 69.2178 36.2517 69.208C36.2517 69.0712 36.2761 68.9589 36.3347 68.8221C36.3298 68.7928 36.32 68.7635 36.3152 68.7391C36.32 68.7391 36.3249 68.7391 36.3298 68.7391C36.3103 68.6902 36.3054 68.6951 36.2859 68.7098C36.2859 68.7098 36.281 68.7098 36.2761 68.7195C36.1686 68.617 36.4275 68.2066 36.3933 67.9478C36.4178 67.8794 36.4129 67.9478 36.4471 67.8549C36.4275 67.5961 36.408 67.4202 36.4031 67.1564C36.4617 67.0783 36.4861 67.0734 36.5301 67.1809V66.9806C36.3738 67.1516 36.4275 66.5996 36.2712 66.7852C36.2419 66.7266 36.2468 66.6045 36.2761 66.497C36.3103 66.4872 36.3689 66.4726 36.3787 66.3358C36.3445 66.1355 36.3591 66.1844 36.3249 66.0183C36.281 65.9792 36.2615 66.0378 36.2224 66.0281C36.2957 65.7838 36.1345 65.8034 36.154 65.5689C36.1735 65.4224 36.1931 65.1293 36.2761 65.1244C36.281 64.9241 36.2224 64.9192 36.154 64.9388L36.1344 64.9192Z" fill="#8267D7"/>
<path d="M53.48 7.82689L53.9245 7.59732C52.4689 8.33002 50.9986 9.20927 49.5918 10.1325C50.3392 9.60493 51.106 9.01388 51.9364 8.51565C52.3516 8.26164 52.7668 8.00764 53.1771 7.75363C53.5972 7.5094 54.0271 7.29446 54.452 7.07465C54.877 6.86461 55.2922 6.63991 55.7172 6.46407C56.1422 6.28822 56.5574 6.12214 56.9628 5.9756C57.7688 5.66298 58.5601 5.47246 59.2732 5.35523C59.4296 4.91561 62.7756 3.63582 62.8733 3.70909C63.6011 3.55766 64.3338 3.39647 65.0714 3.22062C67.4454 2.70773 69.9414 2.3658 72.5157 2.21437C73.1605 2.1753 73.8052 2.15088 74.4598 2.13134C74.7919 2.12646 75.129 2.12155 75.466 2.11178C75.7933 2.12155 76.0571 2.11668 76.3697 2.09714C77.5957 2.00434 78.8951 1.80894 80.1358 1.54517C80.3947 1.48655 80.6731 1.42794 80.9808 1.33513C81.1811 1.27652 81.4889 1.12019 81.8601 0.924805C82.2313 0.729417 82.6612 0.494972 83.2132 0.304469C83.3304 0.250737 83.5942 0.206751 83.7944 0.157904C83.9019 0.13348 84.0094 0.138362 84.1168 0.123707C84.2243 0.113938 84.3366 0.104169 84.4392 0.123707C84.8837 0.123707 85.2598 0.299576 85.6311 0.509618C85.9242 0.685467 86.1586 0.910164 86.3101 1.21302C86.4615 1.51587 86.4957 1.8529 86.4371 2.18018C86.3833 2.50745 86.2319 2.8445 86.0121 3.16201C85.9046 3.3232 85.7825 3.47952 85.6555 3.63095L85.382 3.94355C85.0742 4.28059 84.7714 4.58344 84.5271 4.86187C84.4099 4.99864 84.2976 5.13542 84.2536 5.20869L84.2438 5.22822C84.2438 5.22822 84.2438 5.23312 84.2438 5.238C84.2341 5.238 84.2731 5.25753 84.1999 5.22822L84.0533 5.1745H84.0436C84.1315 5.20869 83.8384 5.0768 84.2341 5.25753V5.26731V5.28195L84.1999 5.34545L84.0924 5.60435C83.5746 6.94276 83.389 8.33491 83.2571 9.24835C83.1985 9.6782 83.1448 10.1031 83.0861 10.533C83.1415 10.0543 83.1985 9.57723 83.2571 9.10178C82.8761 10.8603 82.6075 12.5309 82.1776 14.1575C82.1923 13.8595 82.1776 13.796 82.2411 13.1072C82.202 13.3857 82.1532 13.6641 82.0995 13.9425C81.9578 14.304 81.7624 14.9293 81.5426 15.535C81.3374 16.1211 81.1274 16.7268 80.976 17.1078C81.0932 16.9613 80.9076 17.5767 80.7366 18.1189L80.7659 17.8894C80.1162 19.941 79.1979 22.2758 78.4652 24.0587C78.3627 24.3078 78.304 24.5033 78.2796 24.6254C78.0256 25.1871 77.757 25.744 77.4883 26.3008C77.6348 26.208 76.9119 27.732 77.3369 26.9505C76.6628 28.1863 75.9985 29.4417 75.2365 30.5261C72.8088 34.5902 69.5995 38.537 65.9897 41.8097L66.0532 41.7023C64.7881 42.8453 63.5669 43.7392 61.9305 44.9995C60.6752 45.781 58.8776 46.8556 58.2817 47.0071C56.8358 47.8961 56.2057 48.1647 54.7793 49.0391C55.0871 48.7216 53.3628 49.8451 54.0076 49.3273C54.8624 48.5995 54.9747 48.663 55.7123 48.067V48.111C57.5196 46.8703 59.3514 45.6931 61.0757 44.3986C61.9354 43.749 62.7707 43.0798 63.5522 42.3617C64.3436 41.6339 65.1202 40.867 65.8823 40.0903C67.9876 38.0778 69.9854 35.6159 71.7439 33.1589C72.6964 31.8401 73.6294 30.4235 74.4696 29.0118C74.8896 28.3035 75.2902 27.6148 75.6468 26.9358C75.9985 26.2568 76.3257 25.573 76.6237 24.9429C76.9168 24.3372 77.034 23.8634 77.2099 23.3163C78.2357 20.9423 79.2956 17.821 80.2188 15.0269C80.2042 15.0807 80.1895 15.1295 80.1798 15.1637C80.6585 13.7374 80.7366 12.6041 80.9906 11.1094C81.015 11.1192 81.0541 10.8896 81.0834 10.7772C81.0639 10.7088 81.1469 10.1227 81.3032 9.2581C81.4596 8.39839 81.6794 7.26026 82.0506 6.11235C82.1385 5.82415 82.246 5.54085 82.3583 5.26242C82.4121 5.12076 82.4756 4.98887 82.5391 4.85698L82.6319 4.66161L82.6758 4.56391L82.7442 4.43201C82.9494 4.0852 83.1497 3.89469 83.3353 3.69442C83.5209 3.51369 83.6919 3.33784 83.8579 3.17664C84.0191 3.02033 84.1608 2.8787 84.2829 2.74682C84.3269 2.70286 84.3659 2.65888 84.405 2.61492C84.4343 2.58561 84.4588 2.55142 84.4832 2.527C84.576 2.41465 84.62 2.32671 84.6248 2.2974C84.6639 2.22902 84.703 2.14599 84.703 2.06295C84.6932 1.91152 84.5418 1.83336 84.4197 1.77963C84.2536 1.70147 84.0582 1.71125 83.897 1.7601L83.77 1.80404L83.5551 1.88711C83.4085 1.95061 83.2571 2.02388 83.1057 2.10203C82.7833 2.27788 82.4609 2.4586 82.1434 2.63445C81.9676 2.72237 81.7771 2.82009 81.5573 2.89824C81.3326 2.9764 81.1762 3.02035 80.9808 3.07408C79.5154 3.44532 78.1477 3.66026 76.8288 3.75306C76.5113 3.7433 76.1792 3.73839 75.8373 3.7042C75.5344 3.67001 75.2462 3.63095 74.9873 3.60164C74.5135 3.66026 74.411 3.55277 73.8346 3.58208C72.3691 3.87028 71.5094 3.85563 72.2617 3.70909C71.0503 3.75305 69.8437 3.90936 68.7838 4.07055C68.2904 4.12917 67.797 4.20244 67.3037 4.28059C66.8836 4.34898 66.6589 4.43692 66.4635 4.54438C65.3987 4.76908 65.7259 4.74954 64.622 5.09147C64.4999 5.17451 63.7965 5.33569 63.0833 5.50176C62.3799 5.69227 61.6668 5.88279 61.5153 5.94629L61.6961 5.89742C61.0659 6.11235 60.5531 6.33706 60.0597 6.58618C59.5615 6.82553 59.0681 7.06487 58.4673 7.30422C55.1555 8.74032 51.6678 10.5965 48.9323 12.5211C48.8542 12.4625 49.5527 12.1254 49.5185 12.0033C49.1131 12.2866 48.7125 12.5699 48.3022 12.8581C47.9066 13.1561 47.5207 13.4687 47.1299 13.7764C46.3386 14.3773 45.601 15.0465 44.8243 15.6717C44.5557 15.9111 44.2626 16.2432 44.1551 16.3702C43.7008 16.8147 43.8425 16.5852 43.5006 16.8978V17.0004C42.9486 17.3911 42.8216 17.7233 42.3331 18.1385C42.2843 18.1385 42.1133 18.2948 41.9472 18.4511C42.001 18.5244 41.4343 18.9249 41.5125 18.9591H41.5027C41.405 19.0519 41.3269 19.1154 41.2194 19.2424C41.0191 19.4085 39.1092 20.9618 38.9187 21.1475L38.8455 21.25C38.5915 21.5187 38.44 21.5871 38.5719 21.421L38.269 21.7581L38.3081 21.7239L38.0053 22.056C37.9564 22.1244 37.9222 22.2172 38.0346 22.1488C37.8392 22.3149 37.6243 22.5103 37.4729 22.7154C37.9076 22.1537 38.4596 21.4601 38.8992 20.8544C38.6696 21.0595 38.3277 21.4943 38.0932 21.7287C37.8636 22.056 37.3458 22.6861 36.9648 23.1942C36.8671 23.2967 36.7352 23.3016 36.5594 23.5703C36.5105 23.7315 36.3201 23.8389 36.1882 24.0636C36.4129 23.8585 36.5985 23.6289 36.7939 23.3944C36.8183 23.4872 36.3445 23.9903 36.2028 24.1857C36.1051 24.2492 35.7437 24.7182 35.4945 24.9917C35.6557 24.9185 35.3431 25.2506 35.2308 25.446C35.0793 25.6463 34.9524 25.7488 34.9963 25.6511C34.8791 25.6609 35.5923 24.8549 35.3041 25.065C35.2747 25.1627 34.9524 25.529 34.7814 25.7293C34.7423 25.7049 34.8693 25.5681 34.7276 25.6707C34.5469 25.9052 34.3076 26.1054 34.2343 26.2666C34.2783 26.2324 34.3515 26.1347 34.4053 26.0664C34.1659 26.3594 35.9537 24.6645 35.6167 25.0259C35.6704 24.8989 34.0242 26.5255 34.1805 26.3301C34.3124 26.1347 34.0096 26.4083 34.1512 26.2129L34.3662 26.0419C34.5616 25.7781 34.5909 25.6218 34.4932 25.6951C34.1464 26.125 35.7339 24.684 35.3969 25.021L35.5043 24.8598C35.3529 24.9966 34.9914 25.3874 34.8986 25.5779C34.8644 25.5486 34.6788 25.7489 34.5225 25.91L34.4785 25.9736C34.3125 26.1347 34.1171 26.3936 34.1659 26.2373C35.0403 25.1969 33.2427 26.6379 34.0633 25.6072C33.7849 26.0957 34.2587 25.529 34.6397 25.0894C34.6495 25.0259 34.7765 24.7963 35.0256 24.4593C35.2601 24.1857 35.1868 24.3176 35.2503 24.2834C35.3578 24.1125 35.5971 23.8096 35.5238 23.8145C35.7583 23.6435 35.7925 23.4481 36.0319 23.2088C36.2517 23.0036 36.0367 23.243 36.2028 23.1013C36.491 22.7594 36.8965 22.2856 37.126 22.012C37.1847 21.8802 37.4044 21.5138 37.1407 21.6848C36.6864 22.1879 37.4045 21.5773 36.916 22.0853C37.0332 21.7825 36.4813 22.5347 36.3347 22.5738C36.4471 22.3735 36.7402 22.0218 37.0137 21.7532L36.9746 21.8167C37.214 21.5822 37.6927 21.1035 37.8929 20.7958C37.805 20.8299 37.8929 20.6932 37.7171 20.869L38.0297 20.5222C38.0785 20.488 38.1274 20.4538 38.0444 20.5564C38.2153 20.4148 38.3521 20.2438 38.4498 20.107C38.4498 20.0338 40.3109 18.4755 40.2376 18.5146C40.4721 18.2753 40.4965 18.1824 40.7603 17.9919C40.77 17.9919 40.6283 18.1238 40.4085 18.3143C40.1936 18.5097 39.9103 18.7686 39.6319 19.0226C39.0799 19.5257 38.5573 19.9947 38.7185 19.8384C38.8015 19.7211 39.5098 19.0861 40.1985 18.456C40.9068 17.8405 41.6151 17.2446 41.6639 17.142C41.8446 16.9759 42.0693 16.7757 42.0547 16.8489C42.3478 16.551 41.9082 16.8733 42.0987 16.6438C42.1084 16.6438 42.0987 16.6731 42.167 16.6096L42.3478 16.38C42.8851 16.0039 43.5348 15.3054 44.116 14.939C43.9304 15.0269 43.7106 15.11 43.354 15.3689L43.3101 15.4373C43.2563 15.4666 42.973 15.6961 42.9535 15.6571C43.2514 15.364 43.5201 15.1295 43.8816 14.8804C43.9353 14.8218 43.9988 14.7534 44.0476 14.7045C44.0476 14.7094 44.0476 14.7192 44.0525 14.7192C44.1453 14.6068 44.1356 14.6166 44.0818 14.6362C44.077 14.6362 44.0672 14.6362 44.0525 14.6459C44.1844 14.3919 45.3665 13.6641 45.9429 13.1659C46.1334 13.0437 45.9722 13.1659 46.2116 13.0242C46.8124 12.5309 47.208 12.1547 47.8675 11.6809C48.1117 11.5783 48.141 11.5832 47.9115 11.8079L48.4097 11.4513C47.8675 11.6467 49.2889 10.6942 48.6979 10.9238C48.8298 10.7968 49.1326 10.5818 49.4355 10.4109C49.4843 10.4206 49.5625 10.4402 49.9337 10.2155C50.4271 9.85893 50.305 9.94684 50.7153 9.64887C50.7934 9.54629 50.6273 9.62936 50.6273 9.58539C51.321 9.2337 51.1451 9.136 51.7948 8.78919C52.2051 8.57915 53.0013 8.1444 53.055 8.20302C53.5923 7.90017 53.5679 7.85619 53.4849 7.822L53.48 7.82689Z" fill="#8267D7"/>
<path d="M9.92316 37.9899L10.0013 37.9801C9.75219 37.9752 9.48844 38.0339 9.23443 38.0827C9.77175 37.7457 10.4605 37.5112 10.8952 38.0827C10.9392 37.775 11.496 37.6431 11.5058 37.7213C11.6181 37.7799 11.7305 37.8287 11.8477 37.8727C12.5707 38.1462 13.3571 38.112 14.1826 38.0925C14.6418 38.0925 15.863 38.2097 16.3319 38.2097C16.4003 38.2097 16.4686 38.2097 16.537 38.2146C16.4589 38.2211 16.3824 38.226 16.3075 38.2293C16.5712 38.3611 16.8008 38.4882 17.0353 38.5859C16.9864 38.62 16.9669 38.664 16.8594 38.7031H16.9864C17.0744 38.8447 17.3333 38.8887 17.4407 38.9668C17.4261 38.8936 17.5237 38.9033 17.6117 38.9082L17.5677 38.9473C17.8901 38.9864 18.2467 39.1134 18.53 39.1622C18.5691 39.172 18.6033 39.1525 18.6277 39.1329L18.8866 39.2404C18.8866 39.1476 19.1259 39.2111 19.0087 39.1281C19.1894 39.2746 19.4093 39.2551 19.5753 39.4016C20.2592 39.5579 20.9724 39.7728 21.6562 40.0561L21.6318 40.0854C21.8711 40.188 22.0567 40.4029 22.3694 40.4029C22.5648 40.5641 22.8627 40.6716 22.9213 40.8719C23.1705 40.9354 23.2584 41.0477 23.4977 41.1357C23.4196 41.2187 23.7224 41.2871 23.5905 41.3359C23.4049 41.4385 23.4147 41.3262 23.2584 41.4092L23.2682 41.3799C22.5892 41.419 21.9151 41.3799 21.2459 41.2969C20.8209 41.1308 20.3276 41.1063 19.8831 40.9842C19.3995 40.8523 18.8866 40.6814 18.486 40.5202C18.3932 40.4713 18.3053 40.5348 18.2125 40.5593C17.8412 40.442 17.3479 40.3688 16.9278 40.2369C16.9376 40.2369 16.9425 40.2369 16.9474 40.2369C16.7227 40.1783 16.5322 40.2369 16.3124 40.1831C16.3172 40.1587 16.283 40.149 16.2684 40.1343C16.2098 40.2466 15.0033 39.6507 14.9105 39.7142C14.886 39.7045 14.8665 39.6947 14.8421 39.6898C14.3585 39.6751 13.8456 39.8461 13.4499 39.7826C13.3669 39.7142 13.2741 39.6507 13.2106 39.5774C13.1324 39.6214 13.1324 39.5188 13.0445 39.5237C12.8051 39.7533 12.6879 39.641 12.8051 39.5628C12.6293 39.5188 12.4486 39.5237 12.2874 39.5042C12.219 39.4798 12.1457 39.4553 12.0676 39.4309C12.0041 39.4065 11.9698 39.4407 11.9308 39.4993C11.7696 39.4602 11.8135 39.5237 11.6474 39.5432C11.6035 39.6312 11.2274 39.3918 11.1785 39.4211L11.2078 39.4358C11.0125 39.4456 10.8806 39.6068 10.6901 39.6263C10.4263 39.6654 10.1527 39.6702 9.87919 39.6751C9.61053 39.6898 9.34677 39.7044 9.10254 39.7386C9.08788 39.6507 9.20998 39.7484 9.2051 39.6312C8.9169 39.6654 8.64337 39.8119 8.36005 39.8705C8.31121 39.8998 8.25747 39.9585 8.23794 39.9878C8.15001 40.0366 8.17932 39.9536 8.11093 39.9731V40.0561C8.00835 40.0024 7.98883 40.1685 7.89114 40.1441C7.88137 40.1099 7.84716 40.1147 7.81297 40.1196C7.82762 40.2027 7.71528 40.1294 7.72994 40.2076C7.72994 40.2076 7.69575 40.2076 7.67621 40.2222C7.63714 40.1978 7.24634 40.0366 7.19749 40.0073L7.18285 40.0268C7.12912 40.0366 7.09493 39.978 7.12424 39.9536L7.06074 39.9731H7.07049L7.00698 39.9975C6.99721 40.0073 6.99234 40.0512 7.01676 40.0854C6.9728 40.061 6.92884 40.0561 6.89953 40.0806C6.98746 40.0073 7.09493 39.9047 7.18774 39.7973C7.1389 39.7777 7.0705 39.8412 7.02165 39.8412C6.97769 39.9096 6.87024 39.9829 6.79208 40.0366C6.77254 40.0366 6.73347 39.9438 6.69927 39.9927C6.69439 40.0513 6.66019 40.0171 6.63577 40.0366L6.89953 39.4797C6.89953 39.4797 6.86044 39.4651 6.82625 39.4455C6.85556 39.4602 6.87999 39.47 6.89953 39.4797L6.64552 40.061C6.68948 40.0708 6.71881 40.0513 6.75789 40.0415C6.76766 40.105 6.70415 40.1148 6.66019 40.1294L6.89953 39.4797C6.85069 39.4553 6.80672 39.4407 6.77253 39.426C6.73345 39.4114 6.62598 39.3821 6.5576 39.3821C6.48433 39.3821 6.50876 39.4114 6.53807 39.3381C6.51365 39.3869 6.58692 39.2795 6.60157 38.9522C6.60646 38.8203 6.61133 38.7568 6.61621 38.6494C6.61621 38.5028 6.61621 38.5468 6.61621 38.5468C6.61621 38.5565 6.61621 38.5712 6.61621 38.5859C6.61621 38.6054 6.61621 38.62 6.61621 38.6298C6.61621 38.7324 6.60646 38.8154 6.60646 38.8985C6.60646 38.962 6.60156 39.0255 6.59179 39.089C6.57226 39.2844 6.54295 39.3332 6.56738 39.2551C6.57715 39.2209 6.59181 39.1476 6.60646 38.9278C6.60646 38.8496 6.61621 38.7715 6.61621 38.6933C6.61621 38.6933 6.63088 38.6933 6.63577 38.6933C6.63577 38.7373 6.62112 38.7275 6.63577 38.7715C6.66996 38.7617 6.73833 38.8154 6.79694 38.7715C6.7774 38.7568 6.74323 38.7666 6.72369 38.7666C6.77742 38.7666 6.61133 38.6884 6.6211 38.6249C6.61622 38.7373 6.61135 38.8496 6.60646 38.962C6.60158 39.0255 6.59179 39.089 6.5869 39.1476C6.57225 39.2404 6.5625 39.2892 6.54785 39.3234C6.5332 39.3723 6.51365 39.382 6.53807 39.3527C6.53319 39.3576 6.55273 39.343 6.57716 39.2258C6.58693 39.1867 6.5918 39.1525 6.59668 39.1036C6.60645 39.0352 6.61132 38.9669 6.61132 38.8936C6.61621 38.8057 6.62599 38.5468 6.6211 38.6249C6.6211 38.6347 6.63088 38.6396 6.63088 38.6494C6.66996 38.708 6.87021 38.7715 6.82625 38.7763C6.75298 38.7959 6.87021 38.8594 6.79694 38.874C6.76764 38.8545 6.74812 38.835 6.72858 38.8154C6.65531 38.8301 6.65042 38.9131 6.66508 38.9424C6.71392 38.9424 6.62599 38.8643 6.6211 38.791V38.8643V38.9571C6.61622 39.0108 6.60646 39.0743 6.60157 39.1183C6.60157 39.1818 6.57715 39.255 6.57227 39.2746C6.55273 39.3332 6.54295 39.3527 6.56738 39.299C6.55272 39.3332 6.55272 39.343 6.53807 39.3625C6.55272 39.3381 6.58204 39.2795 6.60157 39.1232C6.60646 39.0694 6.61133 39.0206 6.61621 38.9717C6.61621 38.9082 6.62111 38.8496 6.62599 38.7715C6.62599 38.7568 6.62599 38.7421 6.62599 38.7177C6.62599 38.7177 6.62599 38.708 6.62599 38.7031C6.62599 38.747 6.64065 38.7617 6.6895 38.7812L6.70413 38.7715C6.74809 38.791 6.86045 38.791 6.80672 38.8447C6.70414 38.8398 6.69927 38.8692 6.69438 38.9131C6.69438 38.9571 6.71391 39.0157 6.73833 39.0743C6.79206 39.1964 6.8116 39.3137 6.70413 39.3283C6.80183 39.2306 6.65531 39.2257 6.60157 39.216C6.60157 39.2306 6.59181 39.255 6.57716 39.2697C6.5625 39.2941 6.56737 39.2844 6.53318 39.3625C6.50876 39.3967 6.51363 39.382 6.51851 39.3869C6.51851 39.3869 6.55761 39.3723 6.60157 39.3821C6.63088 39.3821 6.58203 39.3723 6.56738 39.3674C6.59669 39.3674 6.59667 39.3527 6.58202 39.3381L6.49409 39.4114C6.49409 39.4114 6.52343 39.3674 6.54785 39.3723C6.59669 39.3918 6.54783 39.3967 6.5869 39.4211C6.65041 39.4016 6.73835 39.3723 6.78719 39.3527C6.79696 39.299 6.84092 39.2062 6.77742 39.1378C6.67972 39.1671 6.8409 39.2502 6.73344 39.2551C6.75298 39.1378 6.63576 39.2453 6.59668 39.1671C6.61622 39.1134 6.6846 39.0987 6.74322 39.0987L6.73344 39.1134C6.78717 39.1134 6.88977 39.1183 6.93373 39.0499C6.91419 39.0157 6.93372 38.9815 6.88975 38.9766L6.95815 38.9571C6.95815 38.9571 6.98257 38.9766 6.95815 38.9913C6.99722 39.0157 7.02653 38.9913 7.04607 38.962C7.04607 38.918 7.44174 39.0548 7.42709 39.0352C7.47593 39.0255 7.47592 38.962 7.53454 38.9962C7.54431 39.0303 7.0363 38.9571 7.10468 38.9571C7.13887 38.9033 7.70062 39.0401 7.72016 38.9717C7.75924 38.9717 7.80319 38.9717 7.80319 39.0157C7.86181 38.9864 7.77389 38.9376 7.80808 38.8936C7.80808 38.8985 7.80809 38.9131 7.82275 38.9131L7.85694 38.8545C7.96441 38.9034 8.0914 38.8008 8.20863 38.874C8.17444 38.835 8.13048 38.7568 8.05721 38.7275L8.04743 38.7519C8.04743 38.7519 7.97906 38.7324 7.97417 38.6933C8.03279 38.6591 8.08652 38.6542 8.15979 38.6884C8.16956 38.6738 8.18422 38.664 8.1891 38.6494C8.1891 38.6542 8.1891 38.6591 8.1891 38.664C8.20864 38.6347 8.20376 38.6298 8.19399 38.6152V38.6054C8.21353 38.4784 8.4431 38.6493 8.55056 38.5663C8.58476 38.581 8.55544 38.5858 8.5994 38.6054C8.71175 38.537 8.78991 38.5028 8.91203 38.4588C8.95599 38.5077 8.96088 38.5272 8.92181 38.5859L9.01462 38.5614C8.91692 38.4295 9.1758 38.4149 9.06834 38.283C9.09276 38.2488 9.15137 38.239 9.2051 38.2537C9.21487 38.2879 9.22466 38.3465 9.29305 38.3367C9.38097 38.283 9.36142 38.3025 9.43469 38.2488C9.44935 38.2 9.42002 38.1853 9.42002 38.1462C9.54214 38.1951 9.51775 38.0388 9.63009 38.0388C9.70336 38.0437 9.84011 38.0388 9.84988 38.1267C9.94269 38.1218 9.94271 38.0632 9.92805 37.9948L9.92316 37.9899Z" fill="#8267D7"/>
<path d="M23.0825 42.5766V42.601C23.1265 42.5375 23.1509 42.4496 23.1704 42.3568C23.2974 42.6645 23.3903 42.9674 22.8188 42.7866C23.0728 42.9625 23.102 43.1921 23.0385 43.153C22.9702 43.153 22.9115 43.1628 22.8578 43.1774C22.892 43.1676 22.9262 43.1579 22.9653 43.1481C22.9262 43.153 22.892 43.1628 22.8578 43.1774C22.5257 43.2653 22.4817 43.5535 22.4524 43.8515C22.428 44.0127 22.2912 44.4132 22.301 44.594C22.301 44.6233 22.301 44.6477 22.301 44.6672C22.2977 44.6347 22.2928 44.6037 22.2863 44.5744C22.1691 44.6233 22.0567 44.6624 21.9688 44.7112C21.9346 44.677 21.9004 44.6575 21.8613 44.594V44.6477C21.7343 44.6233 21.6953 44.7063 21.6318 44.721C21.6953 44.7454 21.6953 44.7796 21.6904 44.8089L21.6562 44.7796C21.6318 44.8919 21.5194 44.9848 21.4803 45.0824C21.4754 45.0971 21.4901 45.1166 21.5096 45.1313L21.4168 45.1948C21.4999 45.229 21.451 45.3023 21.5243 45.2876C21.3973 45.3071 21.4217 45.4 21.2898 45.4146C21.1677 45.6344 20.987 45.8444 20.7379 46.0105L20.7086 45.991C20.6158 46.0447 20.4204 46.0398 20.4252 46.1668C20.2836 46.1864 20.1761 46.2597 19.9905 46.2059C19.927 46.2792 19.8244 46.2694 19.7414 46.328C19.6681 46.2645 19.5997 46.3573 19.5558 46.2841C19.4629 46.1717 19.5656 46.2206 19.4923 46.1278L19.5216 46.1424C19.4972 45.8689 19.5265 45.6198 19.5948 45.3853C19.7365 45.273 19.7512 45.0922 19.8489 44.9506C19.9563 44.804 20.098 44.6526 20.2396 44.55C20.2787 44.5305 20.2201 44.4718 20.1956 44.423C20.2982 44.3155 20.352 44.1348 20.4692 44.0176V44.0273C20.523 43.959 20.4692 43.8564 20.5181 43.788C20.5425 43.8026 20.5473 43.788 20.562 43.788C20.4594 43.7147 21.0212 43.4705 20.9723 43.4119C20.9821 43.407 20.9919 43.4021 20.9967 43.3972C21.0309 43.2165 20.9088 42.9381 21.0016 42.8111C21.07 42.8111 21.1335 42.8013 21.2019 42.8111C21.1677 42.7622 21.2605 42.811 21.2654 42.772C21.0895 42.5766 21.2068 42.5864 21.2605 42.6645C21.324 42.6206 21.3387 42.5522 21.3778 42.5033C21.4071 42.4887 21.4364 42.474 21.4706 42.4594C21.4999 42.4496 21.4755 42.4203 21.4315 42.3763C21.495 42.3421 21.4315 42.3275 21.4413 42.2542C21.3729 42.1956 21.6415 42.1858 21.6318 42.1565H21.6171C21.6415 42.0881 21.5292 41.9562 21.5585 41.8878C21.6122 41.6778 21.7929 41.5215 21.876 41.3456C21.9541 41.3945 21.8369 41.3701 21.9346 41.4385C21.9884 41.3359 21.959 41.1747 22.0128 41.0721C22.003 41.0428 21.9835 40.994 21.9639 40.9695C21.9591 40.9207 22.0128 40.9744 22.0177 40.95L21.9542 40.9011C22.0323 40.906 21.9151 40.7986 21.9639 40.7888C21.9932 40.8083 22.003 40.7986 22.0079 40.7888C21.9395 40.735 22.0372 40.7595 21.9737 40.7106H21.9786C21.9786 40.7106 21.9883 40.7058 21.9835 40.6862C22.0177 40.6911 22.2961 40.7155 22.3351 40.7302V40.7155C22.3351 40.7155 22.3987 40.7302 22.4035 40.7497L22.4182 40.7253H22.4133L22.428 40.7009C22.428 40.6911 22.3987 40.6618 22.3596 40.6471C22.3938 40.652 22.4182 40.6471 22.4133 40.6276C22.428 40.696 22.4573 40.779 22.5012 40.867C22.5354 40.867 22.5159 40.8181 22.5354 40.8083C22.5061 40.7546 22.4963 40.6862 22.4866 40.6325C22.4963 40.6325 22.5745 40.6862 22.555 40.6422C22.5061 40.5934 22.5696 40.6276 22.5403 40.5836C22.5012 40.5739 22.5012 40.5983 22.4964 40.6129C22.4377 40.5592 22.4817 40.5446 22.4719 40.5201C22.4964 40.5299 22.4964 40.4859 22.5257 40.4859C22.4622 40.4469 22.4964 40.442 22.4768 40.4078C22.4768 40.3883 22.5061 40.4029 22.5257 40.4224C22.594 40.4713 22.5257 40.5006 22.6087 40.5397C22.5794 40.5104 22.6087 40.4957 22.6234 40.4859C22.6576 40.5152 22.6429 40.5153 22.682 40.5348C22.682 40.5153 22.7357 40.5348 22.7064 40.4957C22.6966 40.4908 22.6966 40.5006 22.6966 40.5055C22.7064 40.486 22.3938 40.4127 22.428 40.4078C22.4573 40.4371 22.7162 40.4762 22.7064 40.4908C22.7162 40.5152 22.7748 40.5348 22.7797 40.5543L22.7259 40.5299C22.7259 40.5543 22.7846 40.613 22.8139 40.6276C22.8285 40.5983 22.5159 40.5055 22.5696 40.5104L22.5794 40.5348C22.6087 40.5446 22.6478 40.5348 22.6185 40.4957C22.6527 40.525 22.6771 40.5201 22.6966 40.5201V40.5104C22.6966 40.5104 22.721 40.4908 22.765 40.5348C22.7113 40.5885 23.146 40.7839 23.1216 40.8572C23.063 40.7692 23.0385 40.8034 23.0092 40.8181C23.0337 40.8425 23.063 40.8816 23.0679 40.9158C23.0483 40.9256 23.0337 40.9011 23.0092 40.8914C23.019 40.9158 23.019 40.9402 23.063 40.9744C23.0044 40.95 23.0776 41.0184 23.0483 41.0184C23.0141 41.0135 23.0288 40.9988 22.9995 40.9891C22.9897 41.0135 22.9751 41.0428 22.9702 41.0672C23.0044 41.1014 23.0581 41.1747 23.1265 41.2089C23.1411 41.1747 23.019 41.1454 23.0581 41.1258C23.1363 41.2089 23.1021 41.1161 23.1753 41.1649C23.2095 41.204 23.1949 41.2235 23.1704 41.2333L23.1607 41.2186C23.1607 41.2186 23.0972 41.2382 23.1314 41.287C23.1655 41.3066 23.1851 41.331 23.1997 41.3261L23.19 41.3505C23.19 41.3505 23.1656 41.3408 23.1656 41.331C23.1362 41.3212 23.1412 41.3408 23.1558 41.3603C23.1851 41.3847 22.9409 41.3603 22.9604 41.375C22.9506 41.3896 22.9946 41.4287 22.9506 41.4189C22.9213 41.3994 23.1656 41.3652 23.1411 41.3798C23.1704 41.4189 22.8578 41.4189 22.9116 41.4727C22.9018 41.4824 22.8822 41.4873 22.8529 41.4629C22.8529 41.4922 22.9213 41.5069 22.9457 41.541C22.9409 41.541 22.9311 41.5264 22.9262 41.5313L22.9604 41.5752C22.8871 41.5655 22.9262 41.6534 22.8334 41.6339C22.8774 41.6534 22.9506 41.6876 22.9946 41.6925L22.9799 41.6778C22.9799 41.6778 23.0141 41.6778 23.0483 41.7022C23.0581 41.7364 23.0434 41.7462 22.9946 41.7413L23.0141 41.7706L22.9995 41.7609C22.9995 41.7609 23.019 41.7853 23.0337 41.7902H23.0434C23.1362 41.8781 22.9311 41.8195 22.9604 41.8878C22.9409 41.8878 22.9409 41.8781 22.9164 41.8781C22.9311 41.9416 22.9506 41.9856 22.9457 42.0344C22.892 42.0149 22.8774 42.0051 22.8383 41.9611V41.9953C22.9653 42.049 22.9116 42.1174 23.0483 42.1712C23.0679 42.1956 23.063 42.2151 23.0385 42.22C23.0092 42.2005 22.9604 42.1712 22.9457 42.1907C22.9702 42.2444 22.9555 42.2249 22.9799 42.2737C23.0141 42.3031 23.0337 42.3079 23.0679 42.3275C22.9946 42.3275 23.1314 42.4105 23.1069 42.4398C23.0825 42.4496 23.0532 42.4887 22.9848 42.4398C22.9702 42.4691 23.019 42.4984 23.0776 42.5326L23.0825 42.5766Z" fill="#8267D7"/>
<path d="M62.5997 15.7938L62.5216 15.8573C62.7853 15.6766 63.0687 15.5007 63.3569 15.3444C63.0735 15.6033 62.8146 15.9013 62.546 16.126C62.2724 16.3507 61.9891 16.507 61.5837 16.5314C61.7498 16.7805 61.5153 17.3813 61.4469 17.352C61.3395 17.4399 61.2222 17.5328 61.1392 17.6451C61.1929 17.567 61.2613 17.4937 61.3346 17.4253C61.2613 17.4937 61.1978 17.5621 61.1392 17.6451C60.851 17.9919 60.6898 18.456 60.7142 18.9249C60.7142 19.1643 60.7631 19.3889 60.851 19.6527C60.8901 19.7797 60.9243 19.9116 60.9731 20.0386C61.0269 20.1558 61.0806 20.2731 61.1343 20.3952C61.1783 20.5368 61.3004 20.6932 61.403 20.8934C61.5349 21.0693 61.6667 21.2745 61.8426 21.4308C62.1747 21.7629 62.5948 21.9436 62.8342 21.9974L63.0491 22.0365C62.927 22.0218 62.9221 22.0365 62.8049 22.0072C63.054 22.1928 63.3227 22.354 63.6206 22.4272C63.562 22.4663 63.5474 22.5152 63.4106 22.5542C63.4643 22.5542 63.5181 22.5493 63.5718 22.5445C63.6353 22.6128 63.7574 22.6568 63.8795 22.6861C64.0065 22.7056 64.1335 22.7154 64.2214 22.7399C64.1824 22.6764 64.3094 22.6568 64.4217 22.6324L64.3826 22.6812C64.8174 22.6275 65.3303 22.5396 65.7015 22.3881C65.7552 22.3686 65.7846 22.3295 65.7992 22.2953C65.9262 22.266 66.0483 22.2318 66.1656 22.183C66.1021 22.1146 66.4098 21.973 66.2193 22.0023C66.5173 21.9632 66.7224 21.7532 67.0008 21.675C67.7677 21.0888 68.4223 20.2731 68.5737 19.2766L68.6079 19.301C68.647 18.9591 68.7984 18.5781 68.559 18.1629C68.5639 17.9822 68.5151 17.7819 68.4662 17.5963C68.432 17.4058 68.393 17.2397 68.4272 17.1322C68.3148 16.9612 68.2562 16.8196 68.1878 16.6877C68.1145 16.5607 68.0462 16.4288 67.9192 16.2627C68.0608 16.2725 67.7238 15.8915 67.9143 15.9843C68.2025 16.0967 68.1292 16.1895 68.3734 16.292L68.3441 16.3067C68.5688 16.4777 68.7495 16.7219 68.9547 16.9368C69.1257 17.1811 69.3211 17.4204 69.4481 17.7135C69.746 18.2655 69.8877 18.9493 69.8486 19.6234C69.7021 20.5124 69.3357 21.4259 68.7447 22.0658C68.1145 22.7594 67.2597 23.2527 66.5514 23.4872C66.3756 23.5312 66.2877 23.6484 66.1607 23.751C65.5012 23.961 64.622 24.1759 63.816 24.0929C63.8307 24.0929 63.8453 24.0929 63.8551 24.0929C63.645 24.0782 63.4546 24.0734 63.2689 24.0783C63.0784 24.0685 62.8928 24.0441 62.6828 23.9952C62.6925 23.9708 62.629 23.9513 62.5997 23.9268C62.5753 23.9513 62.4141 23.8975 62.1894 23.8047C62.0771 23.7559 61.9549 23.6777 61.8279 23.5995C61.6961 23.5263 61.5642 23.4335 61.4469 23.3211C61.188 23.1257 60.9829 22.8766 60.8168 22.6959C60.6654 22.5054 60.5677 22.3589 60.5286 22.3442L60.4553 22.2318C59.879 21.5919 59.3465 20.7957 59.2293 20.0777C59.2537 19.9116 59.2635 19.7358 59.3123 19.5892C59.2439 19.4622 59.3416 19.4231 59.3123 19.2668C59.0388 18.8663 59.1609 18.6025 59.2439 18.8272C59.2879 18.4902 59.3074 18.1482 59.3905 17.86C59.4442 17.733 59.4882 17.6011 59.5614 17.479C59.6201 17.3764 59.6054 17.3032 59.5712 17.225C59.7178 16.9612 59.6249 17.0199 59.7422 16.7219C59.6933 16.5998 60.2551 16.1064 60.2941 16.038L60.2551 16.0722C60.4504 15.7791 60.4798 15.4861 60.7289 15.2223C61.3834 14.4652 62.3701 13.9425 63.264 13.6592C63.2982 13.7422 63.0589 13.7032 63.0882 13.8204C63.5913 13.6299 64.1286 13.4101 64.7197 13.3954C64.8223 13.371 64.959 13.3319 65.0079 13.3026C65.2033 13.2831 65.1153 13.3563 65.257 13.3563L65.2863 13.2782C65.4817 13.3661 65.6038 13.2294 65.7943 13.3075C65.7943 13.3417 65.8676 13.3612 65.936 13.3759C65.9604 13.2928 66.146 13.4443 66.1558 13.3661C66.1997 13.3857 66.2242 13.4003 66.2828 13.4003C66.317 13.4247 66.4977 13.5664 66.654 13.7129C66.8152 13.8595 66.952 14.0304 66.9764 14.0597H67.0155C67.1083 14.1184 67.1083 14.2063 67.0497 14.1819L67.1571 14.2502L67.1474 14.2356L67.2548 14.3089C67.2548 14.3089 67.3232 14.2991 67.3183 14.2454C67.3623 14.3137 67.4209 14.3723 67.4844 14.4114C67.2842 14.3284 67.0399 14.2356 66.8103 14.2161C66.8738 14.2796 67.0252 14.3235 67.0936 14.387C67.2206 14.4017 67.4356 14.4994 67.5919 14.5922C67.6163 14.6215 67.5723 14.7143 67.67 14.7387C67.7531 14.7192 67.7384 14.812 67.8263 14.8266C67.797 14.7387 67.7238 14.6899 67.6554 14.6361C67.7238 14.5873 67.8508 14.7387 67.9094 14.7778C67.9094 14.8169 68.0462 14.9243 68.1048 15.0171C68.1341 14.9341 68.1976 15.0513 68.266 15.0758C68.3148 15.1246 68.3197 15.1832 68.2806 15.1734C68.2269 15.2418 68.0706 14.9829 68.0657 15.1148C68.1096 15.1099 68.1829 15.2272 68.2269 15.2858C68.1927 15.3151 68.1683 15.2662 68.1634 15.3297C68.222 15.3884 68.2269 15.4861 68.2953 15.4958C68.2953 15.4763 68.2709 15.4568 68.2562 15.4372C68.3295 15.5252 68.139 14.7973 68.1927 14.9243C68.1536 14.9243 68.3588 15.574 68.3099 15.5154C68.2562 15.4763 68.2709 15.5984 68.2171 15.5545V15.4665C68.1488 15.4079 68.0657 15.4275 68.0608 15.4665C68.1585 15.5838 68.0462 14.939 68.0852 15.066L68.0315 15.0416C68.0511 15.1002 68.1145 15.2321 68.1878 15.2467C68.1536 15.276 68.1878 15.3444 68.2074 15.3981L68.2269 15.4128C68.2464 15.4763 68.3099 15.5398 68.2367 15.5398C68.0266 15.2565 68.0022 15.9843 67.7824 15.7352C67.9436 15.784 67.8361 15.6375 67.758 15.5203C67.7238 15.53 67.6505 15.5105 67.5626 15.4519C67.5088 15.3835 67.5528 15.3884 67.5626 15.3591C67.5137 15.3395 67.4356 15.2809 67.4063 15.3249C67.4063 15.2321 67.3037 15.2712 67.2646 15.2028C67.2304 15.1344 67.289 15.1881 67.2646 15.1295C67.1767 15.0611 67.0595 14.9683 66.9862 14.9243C66.9276 14.9439 66.7957 14.9536 66.8103 15.0562C66.9422 15.1392 66.8396 14.9194 66.9569 15.0318C66.8348 15.0709 67.0497 15.1539 67.0155 15.2369C66.9422 15.2418 66.869 15.1686 66.8103 15.11H66.8348C66.781 15.0513 66.6687 14.9439 66.571 14.9488C66.5661 14.9927 66.5221 14.9976 66.5612 15.0367C66.5319 15.0171 66.5026 15.0025 66.4733 14.9878C66.4733 14.9732 66.4635 14.9537 66.4928 14.9585C66.4684 14.9097 66.4147 14.8999 66.3707 14.8999C66.3561 14.9194 65.9506 14.5042 65.9457 14.5384C65.8725 14.514 65.8383 14.5677 65.7797 14.5042C65.7992 14.4554 66.4 14.895 66.3023 14.8559C66.2681 14.8559 66.1021 14.724 65.9213 14.6019C65.7406 14.4896 65.5403 14.3919 65.5061 14.431C65.4524 14.4163 65.384 14.3919 65.4084 14.3528C65.3107 14.3528 65.4231 14.4359 65.3498 14.4603C65.3498 14.4554 65.3596 14.4408 65.3352 14.4359C65.3107 14.4456 65.2863 14.4652 65.2619 14.4798C65.1251 14.3968 64.9053 14.4603 64.7539 14.3773C64.7978 14.4212 64.8467 14.5042 64.9395 14.5482L64.959 14.5287C64.959 14.5287 65.047 14.5677 65.0421 14.6068C64.9542 14.6215 64.876 14.6215 64.7832 14.5726C64.7636 14.5824 64.7441 14.5922 64.7343 14.6068C64.7343 14.6019 64.7343 14.5971 64.7343 14.5922C64.705 14.6166 64.705 14.6215 64.7197 14.6361C64.7197 14.6361 64.7197 14.641 64.7246 14.6459C64.6757 14.768 64.3729 14.5775 64.2166 14.6703C64.1677 14.6606 64.2117 14.6508 64.1482 14.6361C63.987 14.7045 63.8893 14.7778 63.7281 14.8413C63.6597 14.8071 63.6499 14.7876 63.6988 14.7143L63.5767 14.7729C63.7281 14.8706 63.3861 14.9732 63.5522 15.066C63.5278 15.1051 63.4594 15.1392 63.3862 15.1441C63.3666 15.1148 63.3373 15.066 63.2543 15.1002C63.1566 15.1881 63.1761 15.1637 63.1028 15.2467C63.1028 15.3004 63.1419 15.3004 63.1517 15.3346C62.9856 15.3493 63.0735 15.4763 62.9416 15.5398C62.8586 15.574 62.6974 15.6522 62.6535 15.5935C62.5509 15.6668 62.5851 15.7156 62.629 15.7645L62.5997 15.7938Z" fill="#8267D7"/>
<path d="M10.6411 56.0046L11.2713 56.0193C10.7633 55.9997 10.2797 55.9704 9.72771 55.9948C9.1904 56.0095 8.60424 56.0925 8.02296 56.2146C7.94969 56.2293 7.8813 56.2489 7.81292 56.2635L7.67127 56.3026L7.5296 56.3416L7.46124 56.3612L7.43679 56.371C7.37329 56.3954 7.29515 56.4198 7.24631 56.4442C7.13396 56.4931 7.0216 56.5468 6.89948 56.6152C7.06556 56.4931 7.19744 56.4051 7.31467 56.3319L7.41237 56.2733C7.41237 56.2733 7.41725 56.2684 7.44168 56.2586L7.52474 56.2293L7.69569 56.1756C7.78362 56.1414 8.02295 56.0779 8.1988 56.0437L8.78008 55.9216C9.54698 55.8092 10.309 55.7653 10.9929 55.7995C11.3543 55.8092 11.7109 55.8239 12.0626 55.8336C12.4338 55.8483 12.8295 55.863 13.0737 55.8972C12.1554 56.9669 11.2176 58.0464 10.3627 58.9794L10.0501 59.3213L9.91333 59.4776L9.8303 59.5607L9.49815 59.8879C9.27345 60.098 9.05362 60.2934 8.83869 60.4692C8.88754 60.6646 8.49677 61.3729 8.11577 62.0421C7.72499 62.7113 7.33421 63.3463 7.28536 63.3512C6.91413 63.8348 6.53312 64.3233 6.18631 64.841C6.42077 64.4796 6.67478 64.1376 6.9239 63.7957C6.67478 64.1376 6.42077 64.4845 6.18631 64.841C5.0726 66.4725 4.06635 68.2799 3.28479 70.2435C3.08452 70.732 2.8989 71.2302 2.73282 71.7333C2.6449 71.9873 2.55697 72.2365 2.48859 72.4953L2.43486 72.6761L2.42022 72.7347L2.39581 72.847L2.35672 73.062C2.35672 73.0913 2.3323 73.1401 2.35672 73.145L2.47395 73.1157L2.68888 73.062L2.78169 73.0327L2.81588 73.0229L2.91844 73.0033L3.12362 72.9643C4.33503 72.7201 6.57709 72.2365 8.76055 71.5575C10.9538 70.9029 13.0542 70.009 14.1532 69.4375C14.4708 69.2714 14.7883 69.1054 15.1058 68.9393C14.7541 69.1314 14.404 69.3235 14.0556 69.5157C14.7541 69.2275 15.4184 68.9442 16.0388 68.6315L16.156 68.5729C16.2146 68.5436 16.3172 68.4899 16.3807 68.4508C16.5223 68.3726 16.6738 68.2652 16.8154 68.1773C17.0987 67.9916 17.382 67.8109 17.6653 67.6302C17.9389 67.4543 18.2125 67.2785 18.4811 67.1026C18.7742 66.878 19.0673 66.6581 19.3604 66.4334C19.1405 66.6386 18.9891 66.7803 18.7742 66.9805C18.6667 67.0782 18.5495 67.1857 18.3981 67.3224C18.2564 67.4299 18.0903 67.5618 17.8754 67.7279L18.3932 67.3615L18.9647 66.8975C19.2822 66.707 19.7755 66.3651 20.2738 65.9987C20.7427 65.6421 21.2507 65.2611 21.7001 64.9192C21.4461 65.393 21.2165 65.818 21.0358 66.155C21.1823 65.9401 21.1579 66.0329 21.0407 66.2918C20.9235 66.5555 20.7183 66.9854 20.5229 67.3859L20.5864 67.1515C20.2298 67.8988 19.8342 68.6902 19.5216 69.4131C19.375 69.7697 19.2236 70.1312 19.0966 70.4829L18.9012 71.0153L18.784 71.3523C18.7449 71.4744 18.7009 71.5965 18.6618 71.7138C18.6277 71.8212 18.5935 71.9238 18.5641 72.0264C18.5006 72.2316 18.4469 72.4367 18.4078 72.6175C18.3932 72.6907 18.3883 72.7445 18.4274 72.7201C18.4518 72.7005 18.4713 72.6809 18.4909 72.6614C18.6569 72.5833 18.8474 72.5051 19.0428 72.3976C19.0526 72.2853 19.502 72.0118 19.2627 72.0948C19.3066 72.085 19.3555 72.0655 19.4043 72.0411L19.4776 72.002L19.5167 71.9825L19.6046 71.9287C19.8488 71.7773 20.0784 71.6161 20.308 71.4451C20.772 71.1178 21.197 70.7662 21.6415 70.4487C23.0629 69.1689 24.3232 67.5764 24.8068 65.7007C25.051 64.7677 25.0999 63.781 24.9484 62.8041C24.8019 61.8272 24.4844 60.8698 24.0643 59.9563L24.1376 60.0296C23.5612 58.7449 22.9799 57.5921 21.8173 56.283C21.1139 55.2426 19.8977 53.9335 19.6632 53.4548C18.6228 52.4388 18.2515 51.9796 17.1915 51.0222C17.5335 51.1834 16.1951 50.0501 16.7812 50.4409C17.5921 50.9538 17.5677 51.0613 18.2466 51.5156L18.2076 51.5253C19.673 52.7123 21.0944 53.9872 22.384 55.4184C23.6687 56.8545 24.8507 58.4469 25.6616 60.3275C26.1305 61.5976 26.5018 63.0337 26.409 64.5284C26.3601 66.0231 25.8375 67.4885 25.0755 68.6999C24.2548 70.009 23.1264 71.1179 21.9737 72.046C21.6903 72.2853 21.3875 72.4905 21.0993 72.7054C20.9528 72.808 20.8111 72.9203 20.6597 73.0131C20.4838 73.1304 20.308 73.2476 20.1321 73.3599C19.6632 73.6775 19.2089 73.9266 18.7742 74.1757C18.3394 74.4248 17.9242 74.669 17.5139 74.8888C17.0645 75.1282 16.664 75.3822 16.2341 75.6655C16.2586 75.431 16.3025 75.1477 16.3514 74.8644C16.5516 74.0584 16.7324 73.2525 16.9815 72.3635C17.1085 71.9189 17.2404 71.4696 17.3918 71.0104C17.4553 70.8199 17.5237 70.6294 17.5872 70.4389C17.7142 70.0921 17.8656 69.7453 18.0806 69.3594C18.0219 69.4033 17.9633 69.4473 17.9047 69.4864C17.9194 69.4717 17.934 69.462 17.9438 69.4522C17.7777 69.5841 17.5677 69.7404 17.4114 69.8772C17.3332 69.9358 17.2551 69.9944 17.172 70.053C17.1329 70.0774 17.0987 70.1067 17.0596 70.1311C16.9424 70.1946 16.8203 70.263 16.6933 70.3314C16.6884 70.307 16.5028 70.4047 16.41 70.4389C16.3465 70.5659 14.5538 71.4158 12.6732 72.0557C10.7975 72.7151 8.84847 73.1597 8.63354 73.2622C8.50166 73.2916 8.36001 73.3258 8.21836 73.3599C6.88483 73.7556 5.51712 74.1317 4.18848 74.4541C3.85632 74.5323 3.52415 74.6153 3.19687 74.6837C2.94775 74.7325 2.69865 74.7814 2.45442 74.8302C2.18088 74.8791 1.90731 74.923 1.63865 74.9719C1.09157 75.0598 0.554256 75.1477 0.0267086 75.2308C-0.0270233 75.2552 0.0169296 75.1917 0.0169296 75.1673L0.041378 75.0745L0.0902119 74.884L0.187912 74.5078C0.256298 74.2587 0.319782 74.0096 0.383282 73.7605C0.534708 73.316 0.666611 72.8812 0.827806 72.466C0.866884 72.3683 0.901068 72.2755 0.940145 72.1827C0.964569 72.1241 0.993893 72.0655 1.01832 72.0069C1.07205 71.8896 1.1209 71.7822 1.16974 71.6796C1.26255 71.2595 1.38953 71.2156 1.54584 70.7271C1.78031 69.418 2.19551 68.7537 2.005 69.4082C2.45928 68.4362 2.89404 67.4543 3.33855 66.619C3.55836 66.238 3.77329 65.857 4.01264 65.4858C4.21291 65.1683 4.28616 64.968 4.32524 64.7726C4.8479 63.9618 4.64274 64.1718 5.15075 63.2975C5.1996 63.0386 6.64058 61.2459 6.79689 61.0114L6.68944 61.1384C7.34399 60.1761 7.66639 59.4532 8.36978 58.5447C8.46748 58.4079 8.57005 58.2711 8.67263 58.1343C8.74102 58.0415 8.8094 57.9585 8.88267 57.8754C8.97059 57.8071 8.83382 57.8364 8.78986 57.8266C8.72636 57.8266 8.66285 57.8266 8.59935 57.8266C8.47235 57.8315 8.35025 57.8461 8.22325 57.8754L8.00343 57.9292L7.92526 57.9487C7.92526 57.9487 7.87154 57.9634 7.81292 57.9829L7.51985 58.0806C7.14373 58.1881 6.71875 58.4079 6.28889 58.6179C6.04955 58.7693 5.80532 58.9256 5.56597 59.0771C5.50247 59.121 5.4585 59.1406 5.37546 59.2041L5.12634 59.3995L4.62809 59.7951C3.827 60.4399 3.03079 61.0798 2.24435 61.7099C2.30785 61.4901 2.36649 61.2801 2.42022 61.07C2.43488 60.9772 2.44463 60.8844 2.45928 60.7916C2.57651 60.6646 2.55699 60.7769 2.53745 60.8844C2.53745 60.9088 2.52767 60.9382 2.52767 60.9577C2.5179 61.0065 2.50815 61.0554 2.51303 61.0847C2.51303 61.1482 2.5521 61.1531 2.65468 61.0505L2.69377 60.86L2.7084 60.7721V60.733L2.69377 60.5767C2.69377 60.5034 2.66444 60.5327 2.64979 60.5083C2.63025 60.4985 2.62048 60.4692 2.59118 60.479L2.51792 60.5034H2.49837L2.48859 60.5132C2.48859 60.5132 2.49837 60.4839 2.50325 60.4692L2.57654 60.2689L2.86961 59.4923C3.06499 58.9989 3.23597 58.5397 3.45578 58.0366C3.51439 57.9096 3.56323 57.7875 3.62673 57.6556L3.84655 57.2502C3.97843 56.9864 4.18847 56.6836 4.35943 56.4003C4.61832 55.9851 4.95539 55.438 5.1117 55.2231C5.7174 54.4269 5.5855 54.7199 5.86393 54.3927L5.83951 54.295C6.31333 53.8846 6.40125 53.572 6.85065 53.191C6.89461 53.191 7.0558 53.0542 7.20722 52.9077C7.15837 52.8344 7.69568 52.4925 7.62241 52.4486H7.63219C7.72988 52.3704 7.80316 52.3167 7.91062 52.2043C8.0132 52.1408 8.54074 51.8038 9.09271 51.5058C9.64468 51.2078 10.2162 50.9489 10.3334 50.9099L10.4262 50.8415C10.7242 50.6803 10.8805 50.6705 10.7144 50.778C10.8317 50.7096 10.9587 50.651 11.0808 50.5875L11.0368 50.6021C11.1589 50.5386 11.281 50.4751 11.408 50.4165C11.4764 50.3774 11.5399 50.3042 11.4129 50.3188C11.6425 50.2455 11.8916 50.1625 12.1163 50.0648C11.5057 50.3432 10.8121 50.7731 10.2797 51.1883C10.5288 51.0759 10.944 50.7975 11.2224 50.6754C11.5204 50.4654 12.1847 50.1185 12.7513 49.9183C12.8783 49.8841 12.9907 49.9574 13.2691 49.845C13.3961 49.7424 13.6013 49.7815 13.8406 49.6887C13.5476 49.7033 13.2691 49.7669 12.9907 49.8499C13.0053 49.8059 13.1714 49.7473 13.3668 49.6985C13.5671 49.6594 13.782 49.6154 13.9042 49.591C13.9628 49.5959 14.1337 49.5763 14.3389 49.5568C14.5489 49.5519 14.7883 49.5373 14.9739 49.5568C14.8127 49.4738 15.2816 49.5177 15.5161 49.5177C15.7799 49.5519 15.9362 49.6105 15.8287 49.6203C15.8629 49.6691 15.604 49.6349 15.3842 49.6154C15.1644 49.6154 14.9837 49.6154 15.1546 49.6692C15.2474 49.6252 15.7457 49.7033 16.0046 49.7815C15.9948 49.8255 15.8189 49.7668 15.9753 49.8548C16.2683 49.9134 16.5419 50.0843 16.7177 50.1088C16.6689 50.0746 16.5517 50.0355 16.4686 50.0062C16.5614 50.0404 16.4881 49.9915 16.3367 49.9036C16.1804 49.8352 15.9362 49.7082 15.6822 49.6399C15.179 49.4738 14.671 49.42 14.925 49.4347C14.8567 49.4542 15.4233 49.5324 15.9411 49.718C16.4637 49.9036 16.9082 50.2016 16.791 50.143C16.5663 50.0746 16.9082 50.2797 16.6787 50.2016L16.4491 50.0502C16.1316 49.9427 15.9801 50.0062 16.0827 50.0599C16.3416 50.1381 16.0045 49.928 15.6187 49.7961C15.2328 49.6496 14.8176 49.591 15.0569 49.6203L14.8615 49.6301C14.9592 49.6496 15.1449 49.6789 15.3256 49.6936C15.5112 49.7229 15.6919 49.7522 15.8043 49.7473C15.7994 49.7815 16.0583 49.8743 16.2732 49.9525C16.2976 49.9573 16.3269 49.9622 16.3514 49.972C16.5614 50.0795 16.8692 50.1967 16.7031 50.1918C16.0681 49.9329 16.2488 50.1283 16.41 50.3188C16.5712 50.5093 16.7031 50.6949 16.156 50.4898C16.6493 50.5875 16.0436 50.2993 15.5161 50.2162C15.4868 50.2309 15.4135 50.2358 15.3012 50.2407C15.1888 50.2504 15.0374 50.2602 14.8518 50.2602C14.5343 50.2602 14.6662 50.226 14.6027 50.2016C14.4219 50.2162 14.0898 50.2797 14.1386 50.3237C13.8846 50.2797 13.7576 50.4214 13.4645 50.4458C13.2056 50.48 13.4743 50.4165 13.2887 50.4312C12.9077 50.5191 12.3996 50.7145 12.1163 50.8366C12.0186 50.9196 11.7305 51.1492 11.9991 51.115C12.5267 50.8903 11.7451 51.0759 12.3117 50.8757C12.1066 51.0662 12.8197 50.7194 12.9516 50.778C12.7807 50.8757 12.4241 51.0027 12.1212 51.1101L12.175 51.0711C11.9063 51.159 11.3787 51.3788 11.1345 51.5791C11.2175 51.5791 11.1101 51.667 11.3006 51.5791C11.1834 51.6377 11.0759 51.7061 10.9636 51.7696C10.9147 51.7842 10.8659 51.794 10.9587 51.7354C10.7828 51.794 10.6314 51.9063 10.5239 51.9991C10.5142 52.0285 10.0501 52.258 9.61049 52.512C9.16598 52.766 8.75078 53.0396 8.78497 53.0298C8.56516 53.2105 8.55052 53.2985 8.31117 53.445C8.3014 53.445 8.42838 53.3376 8.62865 53.191C8.82404 53.0396 9.09759 52.8589 9.36136 52.683C9.89379 52.3411 10.4165 52.0675 10.2504 52.1603C10.1625 52.2434 9.46394 52.6293 8.81428 53.0885C8.15973 53.5378 7.55893 54.0556 7.52474 54.1435C7.37331 54.2901 7.18767 54.461 7.19255 54.3927C6.9532 54.6564 7.32445 54.3731 7.17303 54.5783C7.16326 54.5783 7.17303 54.549 7.1193 54.6076L6.9874 54.8176C6.77736 54.9837 6.53312 55.2621 6.34262 55.4868C6.14235 55.7164 5.96162 55.946 5.73692 56.1609C5.89812 56.0339 6.0984 55.902 6.32798 55.7018L6.33773 55.6529C6.37681 55.6236 6.54291 55.4526 6.57222 55.4868C6.42568 55.7018 6.28889 55.8483 6.06419 56.0681C6.04465 56.1072 6.02513 56.1511 6.02024 56.1804C6.01536 56.1804 6.01045 56.1804 6.00068 56.1804C5.98603 56.2488 6.00069 56.2342 6.03977 56.2098C6.04466 56.2098 6.05442 56.2 6.06419 56.1951C6.10815 56.244 5.95186 56.4149 5.75159 56.664C5.55132 56.9034 5.30217 57.2404 5.26798 57.387C5.16052 57.5384 5.21427 57.4309 5.07261 57.6263C5.02376 57.7973 4.99934 57.9243 4.98469 58.0562C4.98469 58.0855 4.96515 58.1294 4.9798 58.1441C5.02865 58.1001 5.07749 58.0611 5.13122 58.0171C5.22892 57.9341 5.32661 57.8461 5.43407 57.768C5.41942 57.807 5.395 57.8364 5.10192 58.0855C5.21915 57.9927 5.33637 57.8999 5.4536 57.8217C5.46337 57.768 5.6832 57.5921 5.86393 57.4456C6.05443 57.2991 6.20584 57.1769 6.21561 57.1183C6.26934 57.0744 6.32797 57.0304 6.38171 56.9962C6.44521 56.9571 6.50871 56.9229 6.56244 56.9083C6.53313 56.9571 6.48427 57.0353 6.67478 56.9425C6.9532 56.7813 6.87995 56.8204 7.11441 56.6836C7.16814 56.6152 7.10465 56.6201 7.1193 56.5761C7.23653 56.5614 7.32932 56.5126 7.37328 56.4638C7.38305 56.4442 7.46123 56.4051 7.54916 56.371C7.59312 56.3514 7.64685 56.3319 7.70547 56.3172C7.76409 56.2977 7.88131 56.2635 8.00343 56.2439C8.64821 56.0974 9.82053 56.0534 9.7668 56.1462C10.5044 56.1316 10.563 56.0925 10.563 56.0193L10.6411 56.0046Z" fill="#8267D7"/>
</g>
</svg>
