<svg width="173" height="22" viewBox="0 0 173 22" fill="none" xmlns="http://www.w3.org/2000/svg">
<path d="M0.611908 17.9608L3.42187 14.9188C3.92456 15.4601 4.59483 15.9918 5.43588 16.5139C6.27694 17.0359 7.25655 17.2969 8.37796 17.2969C8.82265 17.2969 9.25768 17.2131 9.68304 17.0488C10.1084 16.8845 10.4629 16.6428 10.74 16.3238C11.0171 16.0047 11.1589 15.6245 11.1589 15.1798C11.1589 14.4644 10.8109 13.9037 10.1148 13.4977C9.4188 13.0917 8.31995 12.705 6.81186 12.3376C5.34243 11.9703 4.12757 11.3225 3.16085 10.3945C2.19412 9.46643 1.71075 8.27091 1.71075 6.80148C1.71075 5.71875 1.97177 4.72946 2.4938 3.8304C3.01584 2.93134 3.79889 2.2063 4.84295 1.65526C5.88702 1.10423 7.19855 0.830322 8.78399 0.830322C10.0987 0.830322 11.204 1.00111 12.1031 1.33624C13.0021 1.6746 13.7207 2.04518 14.2621 2.4512C14.8035 2.85723 15.1805 3.18592 15.3932 3.43727L12.8732 6.21822C12.4479 5.88953 11.8872 5.51895 11.1911 5.10326C10.4951 4.68757 9.67337 4.48133 8.72598 4.48133C8.10727 4.48133 7.53368 4.66179 7.00198 5.01626C6.47028 5.37395 6.20604 5.80253 6.20604 6.30523C6.20604 6.9626 6.55406 7.4943 7.25011 7.90033C7.94615 8.30635 8.90322 8.64471 10.1181 8.91539C11.0655 9.14741 11.9774 9.49543 12.8571 9.95946C13.7369 10.4235 14.4555 11.0712 15.0162 11.9026C15.5769 12.734 15.8572 13.8135 15.8572 15.1476C15.8572 16.3076 15.5285 17.342 14.8712 18.2475C14.2138 19.153 13.3244 19.8717 12.2062 20.3905C11.0848 20.9125 9.83127 21.1735 8.43918 21.1735C7.1631 21.1735 6.03525 21.0188 5.04919 20.7095C4.06313 20.4001 3.20274 20.0005 2.46802 19.5075C1.73331 19.0145 1.11461 18.4989 0.615129 17.9575L0.611908 17.9608Z" fill="white"/>
<path d="M22.1442 20.687L17.3041 1.35889H21.9992L24.8381 15.3539L28.2281 1.8777H32.1981L35.6171 15.3539L38.4271 1.35889H42.9482L38.0211 20.687H33.413L30.11 8.05187L26.749 20.687H22.1409H22.1442Z" fill="white"/>
<path d="M45.2103 20.687V1.35889H49.5864V20.687H45.2103Z" fill="white"/>
<path d="M58.7735 20.687L51.6745 1.35889H56.5146L61.2387 15.4699L65.8467 1.35889H70.4838L63.3848 20.687H58.7767H58.7735Z" fill="white"/>
<path d="M72.5655 20.687V1.35889H86.4187V5.18391H76.9415V8.95093H86.4187V12.6599H76.9415V16.833H86.4187V20.687H72.5655Z" fill="white"/>
<path d="M89.3737 20.687V1.35889H93.7498V16.804H102.995V20.687H89.3737Z" fill="white"/>
<path d="M110.5 20.687V2.60596H102.995V1.35889H119.397V2.60596H111.892V20.687H110.503H110.5Z" fill="white"/>
<path d="M122.61 20.687V1.35889H134.201V2.66397H124.002V9.96599H131.971V11.2711H124.002V19.3851H134.955V20.6902H122.61V20.687Z" fill="white"/>
<path d="M152.053 16.7459L153.097 17.4709C152.981 17.6643 152.765 17.9575 152.446 18.3539C152.127 18.7502 151.683 19.1659 151.112 19.601C150.542 20.036 149.843 20.4034 149.011 20.703C148.18 21.0027 147.194 21.151 146.056 21.151C144.203 21.151 142.573 20.7063 141.174 19.8169C139.772 18.9275 138.683 17.7223 137.9 16.1949C137.117 14.6707 136.727 12.9402 136.727 11.0068C136.727 9.59533 136.95 8.27736 137.394 7.05284C137.839 5.82509 138.471 4.75524 139.292 3.83685C140.114 2.91846 141.1 2.19986 142.247 1.67783C143.398 1.15579 144.667 0.894775 146.059 0.894775C147.2 0.894775 148.183 1.04301 149.014 1.34269C149.846 1.64238 150.545 2.00973 151.115 2.44476C151.686 2.87979 152.13 3.29548 152.45 3.69184C152.769 4.0882 152.984 4.38144 153.1 4.57479L152.056 5.29983C151.94 5.14516 151.75 4.90348 151.492 4.57479C151.231 4.2461 150.864 3.89808 150.39 3.53072C149.917 3.16336 149.333 2.85079 148.637 2.58977C147.941 2.32876 147.1 2.19986 146.117 2.19986C144.474 2.19986 143.066 2.58977 141.886 3.37282C140.707 4.15587 139.805 5.20961 139.176 6.5308C138.548 7.85522 138.235 9.3472 138.235 11.0068C138.235 12.6663 138.554 14.1422 139.192 15.4827C139.831 16.8265 140.742 17.8866 141.932 18.6697C143.121 19.4527 144.545 19.8427 146.208 19.8427C147.116 19.8427 147.912 19.7105 148.599 19.4527C149.285 19.1917 149.865 18.8791 150.339 18.5118C150.813 18.1444 151.19 17.7964 151.47 17.4677C151.75 17.139 151.947 16.8974 152.063 16.7427L152.053 16.7459Z" fill="white"/>
<path d="M157.067 20.687V1.35889H158.459V9.96599H170.63V1.35889H172.023V20.687H170.63V11.2679H158.459V20.687H157.067Z" fill="white"/>
</svg>
