<svg width="205" height="22" viewBox="0 0 205 22" fill="none" xmlns="http://www.w3.org/2000/svg">
<path d="M0.760651 17.956L3.56999 14.9144C4.07315 15.4563 4.74404 15.9853 5.58587 16.5078C6.42448 17.0303 7.40501 17.2916 8.52745 17.2916C8.97256 17.2916 9.40799 17.2109 9.83052 17.0464C10.2563 16.8819 10.6078 16.64 10.8885 16.3207C11.1691 16.0014 11.3078 15.6208 11.3078 15.1757C11.3078 14.4597 10.9594 13.9017 10.2627 13.4953C9.56604 13.0889 8.46617 12.7018 6.9599 12.3373C5.48911 11.9696 4.27313 11.3246 3.30873 10.3956C2.3411 9.46994 1.86051 8.27008 1.86051 6.80252C1.86051 5.722 2.12178 4.7318 2.64429 3.83191C3.16681 2.93202 3.94736 2.20953 4.9924 1.65798C6.0342 1.10643 7.35018 0.832275 8.93386 0.832275C10.2466 0.832275 11.3529 1.00322 12.2528 1.33867C13.1495 1.67733 13.8687 2.04826 14.4106 2.45466C14.9525 2.86106 15.3299 3.19005 15.5395 3.44164L13.0205 6.22195C12.5947 5.89295 12.0335 5.52203 11.34 5.10595C10.6433 4.68987 9.82407 4.48345 8.8758 4.48345C8.25652 4.48345 7.68239 4.66084 7.15342 5.01886C6.62123 5.37689 6.35675 5.80587 6.35675 6.30903C6.35675 6.96702 6.70509 7.49598 7.39856 7.90239C8.09525 8.30879 9.04997 8.64746 10.2692 8.91517C11.2142 9.1474 12.1302 9.49574 13.0076 9.95698C13.8849 10.4214 14.6074 11.0697 15.1654 11.8987C15.7266 12.7276 16.0072 13.8114 16.0072 15.1434C16.0072 16.3014 15.6782 17.3367 15.0202 18.2431C14.3622 19.1526 13.4752 19.8655 12.3528 20.388C11.2336 20.9105 9.97566 21.1717 8.58551 21.1717C7.31147 21.1717 6.17935 21.0169 5.1956 20.7073C4.20862 20.3977 3.35066 19.9977 2.61527 19.5042C1.8831 19.0107 1.26382 18.4947 0.760651 17.9528V17.956Z" fill="white"/>
<path d="M22.2903 20.6815L17.449 1.35156H22.1419L24.9803 15.3466L28.3702 1.87085H32.3407L35.7597 15.3466L38.569 1.35156H43.091L38.1658 20.6815H33.5567L30.2539 8.04752L26.893 20.6815H22.2871H22.2903Z" fill="white"/>
<path d="M45.3585 20.6815V1.35156H49.7354V20.6815H45.3585Z" fill="white"/>
<path d="M58.9214 20.6815L51.8222 1.35156H56.6603L61.3856 15.4628L65.9915 1.35156H70.6296L63.5305 20.6815H58.9246H58.9214Z" fill="white"/>
<path d="M72.7132 20.6815V1.35156H86.5664V5.1769H77.0901V8.94419H86.5664V12.6534H77.0901V16.8271H86.5664V20.6815H72.7132Z" fill="white"/>
<path d="M89.5209 20.6815V1.35156H93.8978V16.7981H103.142V20.6815H89.5209Z" fill="white"/>
<path d="M110.622 20.617V2.59335H103.142V1.35156H119.488V2.59335H112.008V20.617H110.622Z" fill="white"/>
<path d="M117.469 20.617L125.355 1.35156H126.742L134.628 20.617H133.038L130.526 14.408H121.456L118.972 20.617H117.469ZM121.975 13.1082H130.006L125.991 3.11586L121.975 13.1082Z" fill="white"/>
<path d="M137.686 20.617V1.35156H139.073V19.3171H149.991V20.617H137.686Z" fill="white"/>
<path d="M153.284 20.617V1.35156H164.838V2.6514H154.671V9.93117H162.615V11.231H154.671V19.3171H165.589V20.617H153.284Z" fill="white"/>
<path d="M169.369 20.617V1.35156H170.814L183.177 18.5366V1.35156H184.535V20.617H183.09L170.727 3.66096V20.617H169.369Z" fill="white"/>
<path d="M195.221 20.617V2.59335H187.741V1.35156H204.088V2.59335H196.608V20.617H195.221Z" fill="white"/>
</svg>
