<svg width="48" height="80" viewBox="0 0 48 80" fill="none" xmlns="http://www.w3.org/2000/svg">
<path d="M23.4672 22.1292C13.1817 22.1591 4.83688 30.5412 4.83688 40.8193V78.5427C4.83688 79.3489 5.49372 79.9982 6.29238 79.9982C7.09104 79.9982 7.74787 79.3414 7.74787 78.5427V50.8361C11.0769 56.0609 16.9362 59.5317 23.5866 59.5093C33.8945 59.4795 42.2468 51.0675 42.217 40.7596C42.1871 30.4517 33.7751 22.0994 23.4672 22.1292ZM23.5792 56.5909C14.8835 56.6207 7.78519 49.5672 7.75534 40.8641V40.8118C7.75534 32.1386 14.8014 25.0701 23.4822 25.0402C32.1778 25.0104 39.2761 32.0714 39.306 40.767C39.3359 49.4627 32.2823 56.5685 23.5792 56.5909Z" fill="url(#paint0_linear_140_38)"/>
<path d="M47.024 40.7371C47.0613 53.7022 36.5519 64.2713 23.6017 64.3161C22.7956 64.3161 22.1387 63.6667 22.1387 62.8606C22.1387 62.0545 22.7881 61.4051 23.5942 61.3977C34.9471 61.3603 44.1503 52.0974 44.113 40.7446C44.0756 29.3917 34.8127 20.1885 23.4599 20.2258C12.107 20.2631 2.90379 29.526 2.94111 40.8789C2.94111 41.685 2.29173 42.3344 1.48561 42.3419C0.679491 42.3419 0.0226517 41.6925 0.0226517 40.8864C-0.0146687 27.9287 10.4873 17.3521 23.4449 17.3148C32.2973 17.285 40.0376 22.1814 44.0682 29.4216L43.9786 1.46111C43.9786 0.662454 44.628 0.00561523 45.4341 0.00561523C46.2402 0.00561523 46.8971 0.65499 46.8971 1.46111L47.024 40.7446V40.7371Z" fill="url(#paint1_linear_140_38)"/>
<path d="M23.5717 55.0981C15.8091 55.1205 9.47209 48.8282 9.44223 41.0656C9.41984 33.303 15.7121 26.966 23.4747 26.9361C31.2373 26.9137 37.5743 33.2059 37.6042 40.9686C37.6266 48.7312 31.3344 55.0682 23.5717 55.0981ZM23.4896 29.8545C17.3318 29.8769 12.3383 34.9003 12.3607 41.0581C12.3831 47.216 17.4064 52.2095 23.5643 52.1871C29.7221 52.1647 34.7156 47.1414 34.6932 40.9835C34.6708 34.8256 29.6475 29.8322 23.4896 29.8545Z" fill="url(#paint2_linear_140_38)"/>
<path d="M23.5493 49.903C18.5409 49.9179 14.4506 45.8575 14.4282 40.8416C14.4133 35.8332 18.4738 31.7429 23.4896 31.7205C28.498 31.7056 32.5883 35.766 32.6107 40.7819C32.6107 41.6029 31.9539 42.2672 31.1328 42.2672C30.3118 42.2672 29.6475 41.6104 29.6475 40.7894C29.64 37.4156 26.8783 34.6763 23.5046 34.6912C20.1308 34.6987 17.3915 37.4604 17.4064 40.8341C17.4139 44.2079 20.1756 46.9472 23.5493 46.9323C24.3704 46.9323 25.0347 47.5891 25.0347 48.4102C25.0347 49.2312 24.3779 49.8955 23.5568 49.8955L23.5493 49.903Z" fill="url(#paint3_linear_140_38)"/>
<defs>
<linearGradient id="paint0_linear_140_38" x1="13.1295" y1="81.394" x2="30.8343" y2="12.2617" gradientUnits="userSpaceOnUse">
<stop stop-color="#040F9A"/>
<stop offset="0.48" stop-color="#1EC9E9"/>
<stop offset="1" stop-color="#FADE2B"/>
</linearGradient>
<linearGradient id="paint1_linear_140_38" x1="13.1296" y1="81.3939" x2="30.8344" y2="12.2616" gradientUnits="userSpaceOnUse">
<stop stop-color="#040F9A"/>
<stop offset="0.52" stop-color="#1EC9E9"/>
<stop offset="1" stop-color="#FADE2B"/>
</linearGradient>
<linearGradient id="paint2_linear_140_38" x1="13.1817" y1="81.4015" x2="30.8865" y2="12.2766" gradientUnits="userSpaceOnUse">
<stop stop-color="#040F9A"/>
<stop offset="0.52" stop-color="#1EC9E9"/>
<stop offset="1" stop-color="#FADE2B"/>
</linearGradient>
<linearGradient id="paint3_linear_140_38" x1="13.0175" y1="81.3641" x2="30.7149" y2="12.2318" gradientUnits="userSpaceOnUse">
<stop stop-color="#040F9A"/>
<stop offset="0.52" stop-color="#1EC9E9"/>
<stop offset="1" stop-color="#FADE2B"/>
</linearGradient>
</defs>
</svg>
