<svg width="48" height="81" viewBox="0 0 48 81" fill="none" xmlns="http://www.w3.org/2000/svg">
<path d="M24.1989 22.1251C13.913 22.1573 5.56564 30.537 5.56564 40.8164V78.5441C5.56564 79.3504 6.2204 80.002 7.02353 80.002C7.82666 80.002 8.48142 79.3472 8.48142 78.5441V50.8345C11.8133 56.0629 17.6706 59.527 24.3182 59.5077C34.6234 59.4754 42.9805 51.0635 42.9482 40.7551C42.916 30.4499 34.5041 22.0928 24.1956 22.1251H24.1989ZM24.3085 56.5919C15.6128 56.6177 8.51044 49.5669 8.48464 40.868V40.8164C8.48464 32.14 15.529 25.0699 24.2085 25.0409C32.9075 25.0151 40.0066 32.0691 40.0324 40.7648C40.0615 49.4637 33.0075 56.5661 24.3085 56.5919Z" fill="url(#paint0_linear_140_185)"/>
<path d="M47.7605 40.739V40.7454C47.7992 53.7019 37.2908 64.2748 24.3376 64.3167C23.5312 64.3167 22.8764 63.6652 22.8732 62.8621C22.8732 62.0557 23.5215 61.4042 24.3279 61.401C35.6781 61.3655 44.8835 52.0989 44.848 40.7486C44.8125 29.3984 35.5459 20.1931 24.1956 20.2285C12.8454 20.264 3.64007 29.5306 3.67555 40.8809C3.67555 41.6872 3.02724 42.3388 2.22411 42.342C1.41775 42.342 0.762994 41.6937 0.759769 40.8906C0.717838 27.9341 11.223 17.3547 24.1827 17.316C33.0365 17.287 40.7775 22.1864 44.8061 29.4274L44.7157 1.46952C44.7157 0.659938 45.3641 0.00195312 46.1704 0.00195312C46.9768 0.00195312 47.6315 0.650262 47.6347 1.45339L47.7573 40.739H47.7605Z" fill="url(#paint1_linear_140_185)"/>
<path d="M24.3053 55.0985C16.5417 55.1243 10.2038 48.8283 10.178 41.0615C10.1522 33.2979 16.4514 26.96 24.215 26.9342C31.9786 26.9084 38.3165 33.2076 38.3423 40.9712C38.3681 48.7347 32.0721 55.0727 24.3053 55.0985ZM24.2247 29.8532C18.0674 29.8725 13.0744 34.8977 13.097 41.055C13.1163 47.2124 18.1415 52.2053 24.2989 52.1827C30.4562 52.1634 35.4491 47.1382 35.4265 40.9808C35.4072 34.8235 30.382 29.8306 24.2247 29.8532Z" fill="url(#paint2_linear_140_185)"/>
<path d="M24.2892 49.9055C19.2769 49.9217 15.1871 45.8576 15.1709 40.8454C15.1548 35.8331 19.2188 31.7432 24.2311 31.7271C29.2434 31.711 33.3333 35.775 33.3494 40.7873C33.3494 41.6065 32.6882 42.2742 31.8689 42.2774C31.0497 42.2807 30.382 41.6162 30.3788 40.797C30.3691 37.42 27.6146 34.6848 24.2376 34.6945C20.8606 34.7042 18.1254 37.4587 18.1351 40.8357C18.1448 44.2095 20.8993 46.9478 24.2763 46.9382C25.0955 46.9382 25.7632 47.5994 25.7664 48.4186C25.7664 49.2379 25.1052 49.9055 24.286 49.9088L24.2892 49.9055Z" fill="url(#paint3_linear_140_185)"/>
<defs>
<linearGradient id="paint0_linear_140_185" x1="24.2569" y1="74.78" x2="24.2569" y2="5.82707" gradientUnits="userSpaceOnUse">
<stop stop-color="#4AC3DE"/>
<stop offset="0.49" stop-color="#277AB9"/>
<stop offset="1" stop-color="#063897"/>
</linearGradient>
<linearGradient id="paint1_linear_140_185" x1="24.2569" y1="0.00195312" x2="24.2569" y2="5.82705" gradientUnits="userSpaceOnUse">
<stop stop-color="#4AC3DE"/>
<stop offset="0.49" stop-color="#277AB9"/>
<stop offset="1" stop-color="#063897"/>
</linearGradient>
<linearGradient id="paint2_linear_140_185" x1="24.2602" y1="74.78" x2="24.2602" y2="5.82703" gradientUnits="userSpaceOnUse">
<stop stop-color="#4AC3DE"/>
<stop offset="0.49" stop-color="#277AB9"/>
<stop offset="1" stop-color="#063897"/>
</linearGradient>
<linearGradient id="paint3_linear_140_185" x1="24.2602" y1="74.78" x2="24.2602" y2="5.82701" gradientUnits="userSpaceOnUse">
<stop stop-color="#4AC3DE"/>
<stop offset="0.49" stop-color="#277AB9"/>
<stop offset="1" stop-color="#063897"/>
</linearGradient>
</defs>
</svg>
