<svg width="117" height="40" viewBox="0 0 117 40" fill="none" xmlns="http://www.w3.org/2000/svg">
<path d="M0.00390625 12.7542H0.982051C1.74807 16.3801 3.83794 17.6489 7.03951 17.6489C10.2411 17.6489 11.9067 15.9283 11.9067 13.4967C11.9067 11.0651 9.44756 10.2165 6.67025 9.68622C3.7083 9.13233 0.824921 8.09918 0.824921 5.08224C0.824921 2.51706 2.91478 0.348633 6.30098 0.348633C9.68719 0.348633 11.8045 1.80211 12.6491 6.03682H11.671C10.9285 2.1478 8.83867 1.14215 6.27348 1.14215C3.49617 1.14215 1.77557 2.78418 1.77557 5.05868C1.77557 7.5178 4.28969 8.36631 7.067 8.86913C10.0014 9.39946 12.8613 10.4287 12.8613 13.4731C12.8613 16.2504 10.7714 18.4464 6.98844 18.4464C2.94228 18.4464 0.875991 16.7257 0.00390625 12.7582V12.7542Z" fill="white"/>
<path d="M14.2871 5.69507H15.2142L18.5454 16.4861L22.2498 5.69507H23.1219L26.8499 16.5686L30.1811 5.69507H31.0807L27.1641 18.1792H26.5278L22.6937 6.88535L18.8322 18.1792H18.1958L14.2793 5.69507H14.2871Z" fill="white"/>
<path d="M33.147 1.93567H34.3648V3.23201H33.147V1.93567ZM33.3041 5.69113H34.2312V18.1753H33.3041V5.69113Z" fill="white"/>
<path d="M36.3721 5.69507H37.2992L41.691 16.9654L46.0828 5.69507H46.9824L41.9817 18.3403H41.3453L36.3721 5.69507Z" fill="white"/>
<path d="M47.615 11.9607C47.615 8.0992 50.0741 5.42795 53.6214 5.42795C57.1686 5.42795 59.176 7.836 59.176 11.8311V12.1493H48.5421C48.5931 15.3234 50.4473 17.6764 53.6489 17.6764C56.5322 17.6764 57.9621 16.1954 58.5946 14.5023L59.3371 14.7655C58.6771 16.6983 56.9565 18.4424 53.6489 18.4424C49.8659 18.4424 47.6189 15.7162 47.6189 11.9607H47.615ZM58.1978 11.4068C58.1703 8.15419 56.3987 6.19397 53.6214 6.19397C50.8441 6.19397 48.7267 8.28383 48.5421 11.4068H58.1978Z" fill="white"/>
<path d="M62.032 0.348633H62.9316V18.1792H62.032V0.348633Z" fill="white"/>
<path d="M0.875977 21.7933H12.2524V23.4589H2.7812V29.4653H9.92287V31.1309H2.7812V39.3567H0.875977V21.7933Z" fill="white"/>
<path d="M11.6396 33.1146C11.6396 29.2806 14.1538 26.6329 17.8307 26.6329C21.5076 26.6329 23.9667 29.2767 23.9667 33.1146C23.9667 36.9526 21.4526 39.5964 17.7757 39.5964C14.0988 39.5964 11.6396 36.9762 11.6396 33.1146ZM22.1165 33.1932V33.0871C22.1165 30.1252 20.4783 28.1925 17.8307 28.1925C15.183 28.1925 13.4938 30.1252 13.4938 33.0871V33.1932C13.4938 36.1552 15.1319 38.0329 17.7796 38.0329C20.4273 38.0329 22.1165 36.1277 22.1165 33.1932Z" fill="white"/>
<path d="M26.033 34.6781V26.8765H27.9107V34.576C27.9107 36.8505 28.8103 37.9897 30.7155 37.9897C33.2296 37.9897 34.5496 35.7938 34.5496 32.329V26.8804H36.3998V39.3646H34.5731V36.5087C33.8857 38.52 32.4833 39.6042 30.3148 39.6042C27.565 39.6042 26.0291 37.8051 26.0291 34.686L26.033 34.6781Z" fill="white"/>
<path d="M39.4678 26.8726H41.2944V29.807C41.9544 27.7682 43.3568 26.6054 45.5252 26.6054C48.169 26.6054 49.8385 28.3771 49.8385 31.5512V39.3528H47.9883V31.6533C47.9883 29.4063 46.9316 28.2396 45.0538 28.2396C42.5672 28.2396 41.3259 30.302 41.3259 33.9514V39.3489H39.4756V26.8647L39.4678 26.8726Z" fill="white"/>
<path d="M51.9282 33.1421C51.9282 29.1745 54.2577 26.6094 57.64 26.6094C59.5727 26.6094 61.1048 27.56 62.0044 29.1235V21.5301H63.8035V39.3607H62.0044V37.1137C61.1323 38.6732 59.5688 39.6278 57.6125 39.6278C54.2813 39.6278 51.9243 37.1687 51.9243 33.1461L51.9282 33.1421ZM62.0869 33.1932V32.9811C62.0869 30.1252 60.5509 28.1925 58.0132 28.1925C55.4755 28.1925 53.861 30.0427 53.861 33.0321V33.2443C53.861 36.2612 55.448 38.0329 58.0132 38.0329C60.5784 38.0329 62.0869 36.0216 62.0869 33.1932Z" fill="white"/>
<path d="M66.0782 36.1041C66.0782 33.4054 68.2466 32.7179 70.8118 32.164C72.7445 31.7162 74.304 31.5276 74.7519 30.7105V30.5534C74.7519 29.0174 73.8248 28.1454 71.6838 28.1454C69.6725 28.1454 68.3251 28.9389 68.2701 30.7655V30.8991H66.3924C66.4435 28.0943 68.6158 26.6408 71.6838 26.6408C74.7519 26.6408 76.5235 28.0432 76.5235 31.0052V37.8836L76.551 39.3646H74.7243V37.1687C73.7462 38.9953 72.0256 39.6553 70.2814 39.6553C67.6613 39.6553 66.0742 38.2018 66.0742 36.112L66.0782 36.1041ZM74.7558 34.7567V32.219C74.0133 32.879 72.5088 33.1186 71.0514 33.4643C69.4093 33.861 67.9834 34.3914 67.9834 36.0295C67.9834 37.3258 68.883 38.1979 70.5761 38.1979C72.6659 38.1979 74.304 37.1137 74.7558 34.7606V34.7567Z" fill="white"/>
<path d="M80.1767 36.3948V28.4596H77.9297V26.8726H80.1767V24.2524L81.9758 23.0346V26.8686H84.9378V28.4557H81.9484V36.1787C81.9484 37.2904 82.3451 37.7383 83.4293 37.7658H84.8828V39.3528H83.0051C80.8366 39.3017 80.2002 38.3472 80.1727 36.3909L80.1767 36.3948Z" fill="white"/>
<path d="M87.0789 22.5632H89.1687V24.6531H87.0789V22.5632ZM87.1849 26.8765H89.0626V39.3607H87.1849V26.8765Z" fill="white"/>
<path d="M91.3372 33.1146C91.3372 29.2806 93.8513 26.6329 97.5282 26.6329C101.205 26.6329 103.664 29.2767 103.664 33.1146C103.664 36.9526 101.15 39.5964 97.4732 39.5964C93.7963 39.5964 91.3372 36.9762 91.3372 33.1146ZM101.814 33.1932V33.0871C101.814 30.1252 100.176 28.1925 97.5282 28.1925C94.8805 28.1925 93.1913 30.1252 93.1913 33.0871V33.1932C93.1913 36.1552 94.8294 38.0329 97.4771 38.0329C100.125 38.0329 101.814 36.1277 101.814 33.1932Z" fill="white"/>
<path d="M105.938 26.8726H107.765V29.807C108.425 27.7682 109.828 26.6054 111.996 26.6054C114.64 26.6054 116.309 28.3771 116.309 31.5512V39.3528H114.459V31.6533C114.459 29.4063 113.402 28.2396 111.525 28.2396C109.038 28.2396 107.797 30.302 107.797 33.9514V39.3489H105.946V26.8647L105.938 26.8726Z" fill="white"/>
</svg>
