<svg width="86" height="108" viewBox="0 0 86 108" fill="none" xmlns="http://www.w3.org/2000/svg">
<g opacity="0.4">
<path d="M26.5069 68.0506C26.6804 67.9803 26.8605 67.9183 27.0449 67.8646C26.6013 68.003 26.1642 68.1725 25.8282 68.439C25.6503 68.5794 25.5054 68.7116 25.4153 68.8728C25.3209 69.0339 25.2682 69.2219 25.2528 69.4264C25.2176 69.8396 25.3143 70.3003 25.4197 70.7693C25.5207 71.2424 25.6481 71.7113 25.7579 72.1844C25.6481 71.6679 25.5229 71.1432 25.4197 70.6123C25.3165 70.0917 25.2352 69.5649 25.3648 69.1538C25.4307 68.9472 25.5317 68.7881 25.7074 68.6373C25.8897 68.4782 26.0896 68.3398 26.3202 68.2303C26.7858 68.0113 27.3217 67.8688 27.8663 67.7613C28.411 67.6498 28.9689 67.5713 29.5245 67.4762C29.8013 67.4287 30.0978 67.3688 30.3525 67.311C30.6161 67.2531 30.8752 67.1953 31.13 67.1375C32.1491 66.9102 33.1001 66.6953 33.9368 66.4826C34.1345 66.5135 35.3007 66.3565 36.434 66.1871C37.5651 66.0177 38.6588 65.8173 38.6984 65.7946C39.5813 65.6046 40.4729 65.4104 41.3734 65.2162C40.7519 65.3484 40.1347 65.4806 39.522 65.6108C40.1347 65.4806 40.7541 65.3484 41.3734 65.2162C44.2242 64.5985 47.1847 63.9353 50.2595 63.4023C53.3497 62.8735 56.5145 62.2558 59.732 61.6732C60.6259 61.51 61.8954 61.2827 63.3735 61.0286C64.1158 60.8943 64.8889 60.7373 65.6861 60.6237C66.0771 60.5679 66.4988 60.5183 66.8743 60.5059C67.2499 60.4915 67.5508 60.5597 67.7484 60.727C67.9527 60.8964 68.1086 61.2207 68.2228 61.5699C68.3392 61.9211 68.4249 62.2971 68.5149 62.6772C68.6906 63.4312 68.8488 64.1667 68.9959 64.8629C69.288 66.2533 69.5516 67.4763 69.7668 68.3398C69.8876 68.8356 70.0106 69.3294 70.1336 69.8293C70.0003 69.2756 69.8678 68.7213 69.7361 68.1663C70.3027 70.2425 70.8232 72.1162 71.2976 73.9383C71.2361 73.6119 71.2427 73.552 71.078 72.7835L71.2976 73.7173C71.5678 74.554 72.0356 76.5145 72.2662 77.4359C72.1915 77.2438 72.3518 77.973 72.4858 78.6155L72.4507 78.3573C72.712 79.5782 72.9865 80.8983 73.2259 82.1916C73.2852 82.5159 73.3423 82.8361 73.3994 83.1543C73.4565 83.4786 73.529 83.7968 73.6037 84.1025C73.7508 84.7161 73.9134 85.2945 73.988 85.8234C74.032 86.1188 74.021 86.3337 74.0056 86.4597C73.9946 86.7799 73.9156 87.0774 73.7311 87.3191C73.5532 87.567 73.2743 87.7571 72.9646 87.9099C73.0305 87.8624 72.6351 88.036 72.3057 88.1227C72.1432 88.1682 72.0026 88.2033 71.9653 88.2074C71.9279 88.2095 72.0004 88.1971 72.2442 88.1165C71.8599 88.2426 71.4623 88.3273 71.0406 88.4099C70.6234 88.4884 70.2061 88.569 69.791 88.6475C68.9608 88.8003 68.1372 88.947 67.3443 89.1123C65.9189 89.3664 64.4694 89.6453 63.0177 89.9696C61.5659 90.294 60.1142 90.6514 58.6471 90.9654C57.1756 91.2753 55.6975 91.5872 54.2216 91.8971C52.7479 92.2132 51.2764 92.5293 49.8115 92.8226L49.9586 92.8102C48.9352 93.023 47.9644 93.1986 46.9497 93.4424C45.9351 93.682 44.8743 93.9506 43.629 94.2109C42.7483 94.432 41.6765 94.6716 40.7321 94.8658C39.7877 95.062 38.9729 95.2128 38.6303 95.3265C36.579 95.7376 35.7751 95.9979 33.7238 96.2974C33.9917 96.2809 33.4954 96.3615 33.0539 96.4173C32.6125 96.4751 32.2391 96.5164 32.7443 96.4854C33.4339 96.4462 33.7963 96.3966 34.1301 96.3512C34.4639 96.3036 34.7692 96.2623 35.3512 96.1797L35.3139 96.1735C36.6602 95.9566 37.9846 95.655 39.3001 95.4401C40.6399 95.2315 41.984 94.9897 43.3149 94.7108C44.6481 94.4361 45.9746 94.12 47.2946 93.8452C47.624 93.7771 47.9556 93.7151 48.2851 93.6552L49.2954 93.4754C49.9696 93.3536 50.6439 93.2275 51.3181 93.0974C53.1125 92.7276 54.9749 92.3268 56.8571 91.9529C57.7993 91.767 58.7525 91.5748 59.6947 91.3662C60.6391 91.1596 61.5747 90.9406 62.4972 90.7299C64.4804 90.2692 66.5625 89.8746 68.5874 89.511C69.5999 89.3271 70.5948 89.1453 71.5524 88.9532C72.0443 88.8541 72.5253 88.7301 72.9865 88.54C73.4412 88.352 73.8914 88.0897 74.2011 87.6889C74.3482 87.5009 74.4515 87.2984 74.5151 87.1042C74.581 86.908 74.6162 86.7179 74.6315 86.5382C74.6645 86.1746 74.6337 85.8399 74.581 85.4929C74.4317 84.714 74.1857 83.9414 74.0407 83.1295C73.8914 82.3011 73.7377 81.4272 73.5598 80.5533C73.2106 78.7994 72.8043 77.0103 72.3914 75.3349C72.4067 75.3989 72.4199 75.4588 72.4287 75.5002C71.9938 73.7194 71.7017 72.3807 71.2537 70.6495C71.2449 70.6598 71.1746 70.3933 71.1351 70.2631C71.1285 70.1846 70.9572 69.5112 70.7002 68.5319C70.4345 67.5589 70.127 66.2801 69.8305 64.9765C69.6768 64.3258 69.523 63.673 69.3781 63.0532C69.2221 62.4355 69.0904 61.8529 68.9081 61.3302C68.8136 61.0699 68.706 60.8282 68.5654 60.6154C68.4271 60.4047 68.2514 60.225 68.0647 60.1155C67.8824 60.0039 67.7089 59.944 67.5793 59.913C67.4475 59.88 67.3575 59.8676 67.3114 59.8614C67.0896 59.8345 66.8699 59.8449 66.6503 59.8593C65.629 59.9316 64.6297 60.1196 63.6436 60.2952C62.6575 60.4605 61.6736 60.6258 60.7094 60.7869C58.7767 61.1154 56.9186 61.4583 55.2407 61.7847C54.5159 61.9479 53.7055 62.1318 53.0905 62.2702C52.4909 62.3591 52.3855 62.4231 51.6673 62.547C49.8291 62.766 48.7595 63.0036 49.7127 62.8693C48.2126 63.1523 46.7082 63.4395 45.3816 63.7143C44.7689 63.8486 44.1583 63.9808 43.5411 64.1171C43.0162 64.2328 42.7197 64.2783 42.4496 64.3072C41.1055 64.5943 41.4964 64.489 40.082 64.7575C39.7328 64.7947 36.5438 65.4847 36.1375 65.5364L36.3681 65.4909C34.7253 65.774 33.6162 65.8897 32.0085 66.1913C31.4507 66.2946 30.8862 66.4041 30.3174 66.5177L29.8935 66.6044C29.7595 66.6313 29.6212 66.6561 29.4806 66.6788C29.1951 66.7243 28.9074 66.7697 28.6219 66.8152C28.0399 66.9081 27.4469 67.0135 26.8561 67.185C26.5618 67.2717 26.2675 67.3792 25.9798 67.5155C25.6942 67.656 25.4131 67.8357 25.1759 68.0485C24.9233 68.2551 24.7059 68.5732 24.6093 68.8914C24.5061 69.2116 24.4929 69.5318 24.5148 69.8293C24.5368 70.1268 24.5917 70.4077 24.651 70.6784C24.7125 70.9469 24.7696 71.2072 24.8377 71.4675C25.1034 72.5026 25.3406 73.5045 25.5581 74.4714C25.6064 74.5023 25.3538 73.6223 25.3933 73.5665C25.9226 75.841 26.3553 78.1569 26.8341 80.4707C26.911 80.8901 26.9988 81.4024 27.0252 81.5966C27.1657 82.3382 27.1372 82.0284 27.247 82.5717L27.2272 82.6523C27.4271 83.4373 27.4359 83.8154 27.6138 84.557C27.6379 84.5942 27.6994 84.8648 27.7565 85.1293C27.7214 85.1499 27.9432 85.9432 27.8993 85.9102L27.9037 85.9164C27.9388 86.0754 27.9674 86.1891 28.0047 86.3833C28.0442 86.532 28.2529 87.3067 28.4593 88.0835C28.6636 88.8582 28.8503 89.635 28.8876 89.7878L28.9096 89.9324C28.9908 90.3518 29.0523 90.5295 29.0128 90.2816L29.1072 90.8125L29.0919 90.7505C29.1248 90.9282 29.1621 91.1038 29.1995 91.2794C29.2171 91.3765 29.2236 91.4901 29.1731 91.3435C29.2544 91.6389 29.3422 91.9715 29.4147 92.269C29.3159 91.8558 29.2193 91.3889 29.138 90.9137C29.0677 90.4448 28.9974 89.9717 28.9315 89.5358C29.0194 89.8849 29.105 90.5192 29.1907 90.9137C29.2566 91.3827 29.4608 92.3289 29.6695 93.0602C29.7222 93.2193 29.7969 93.3164 29.9001 93.682C29.933 93.8659 30.0429 94.0869 30.1461 94.3906C29.9901 94.0539 29.8759 93.7171 29.7639 93.3659C29.7464 93.4362 30.0297 94.2233 30.1461 94.4981C30.179 94.56 30.2625 94.7584 30.3855 94.9959C30.5063 95.2397 30.7171 95.5207 30.9082 95.6901C30.8159 95.6219 30.8818 95.7025 31.0092 95.8182C31.1344 95.9359 31.3343 96.0723 31.4638 96.159C31.7691 96.3408 31.9953 96.3945 31.8636 96.3346C31.9229 96.3408 31.6 96.2066 31.354 96.033C31.1059 95.8636 30.9301 95.6839 31.1234 95.8285C31.1651 95.8781 31.3233 96 31.5231 96.1177C31.723 96.2334 31.9668 96.3305 32.1425 96.3863C32.1513 96.3718 31.9119 96.2912 32.1425 96.3512C32.3336 96.4173 32.5422 96.4544 32.7289 96.4772C32.9178 96.4958 33.0847 96.502 33.2033 96.5061C33.1264 96.5164 32.9551 96.5102 32.8365 96.4958C33.1088 96.5123 32.3599 96.5412 31.7054 96.2458C31.0422 95.9731 30.5787 95.4174 30.8203 95.6818C30.794 95.6446 30.9126 95.7686 31.1366 95.9277C31.3584 96.0888 31.6966 96.2665 32.0502 96.3759C32.4038 96.4896 32.7728 96.5268 33.0254 96.5226C33.1506 96.5247 33.2494 96.5102 33.3021 96.5082C33.3548 96.502 33.3614 96.4999 33.3219 96.502C32.9946 96.5061 33.5503 96.4586 33.2143 96.4648C33.0913 96.4792 32.9661 96.4813 32.8409 96.4772C32.6125 96.4544 32.4588 96.4049 32.3819 96.3759C32.305 96.347 32.3028 96.3346 32.3819 96.345C32.7487 96.4193 32.2084 96.3842 31.6988 96.1611C31.1827 95.9504 30.772 95.531 31.0136 95.7583C30.9521 95.6963 30.8884 95.6343 30.8313 95.5661C30.9301 95.6612 31.1146 95.8347 31.3299 95.9731C31.5407 96.1156 31.7713 96.2251 31.8987 96.2913C31.9097 96.2747 32.2567 96.4111 32.5664 96.4524L32.674 96.4731C32.9924 96.5226 33.4493 96.4854 33.2362 96.4731C32.999 96.4854 32.8453 96.4607 32.7487 96.4462C32.652 96.4297 32.6169 96.4131 32.6169 96.4049C32.6191 96.3883 32.775 96.3883 32.9288 96.3759C33.0825 96.3594 33.234 96.3284 33.2384 96.3078C33.245 96.2809 33.1045 96.3036 32.6894 96.2417C33.0364 96.3057 32.9793 96.3057 32.7355 96.2871C32.4939 96.2623 32.0766 96.159 31.7494 95.9834C31.6966 95.9359 31.398 95.7789 31.0487 95.4009C30.8972 95.2377 30.8643 95.1798 30.8445 95.1695C30.8291 95.155 30.8379 95.1777 30.8072 95.1467C30.6644 94.936 30.4953 94.5167 30.5392 94.5642C30.3767 94.2688 30.3437 94.0684 30.201 93.6965C30.0736 93.3701 30.1966 93.7234 30.1022 93.492C29.933 92.992 29.7376 92.2834 29.6431 91.8765C29.6234 91.7153 29.5509 91.2298 29.6651 91.5707C29.8518 92.3413 29.5355 91.2897 29.7464 92.0892C29.7024 91.7339 29.9484 92.7916 30.0363 92.9239C29.9814 92.6656 29.8364 92.1553 29.7244 91.7236L29.7398 91.8124C29.6343 91.4344 29.4586 90.67 29.4191 90.2465C29.4543 90.3415 29.4345 90.1576 29.4894 90.4407L29.395 89.9077C29.3774 89.8415 29.3576 89.7734 29.384 89.9263C29.3225 89.6783 29.2807 89.4263 29.2522 89.2321C29.2566 89.2011 29.0919 88.4987 28.9184 87.819C28.7449 87.1394 28.5714 86.4783 28.5867 86.5196C28.4989 86.1395 28.5055 86.0424 28.4022 85.6767C28.4 85.6726 28.411 85.7263 28.433 85.8213C28.455 85.9164 28.4901 86.0548 28.5296 86.2201C28.6109 86.5485 28.7207 86.9865 28.8239 87.41C29.0348 88.257 29.2171 89.0503 29.1621 88.7983C29.127 88.4636 28.0948 84.5095 28.086 84.2636C28.0223 83.9827 27.9454 83.6418 27.941 83.7121C27.8466 83.2348 28.0069 83.8484 27.9498 83.5055C27.9454 83.4993 27.9476 83.5344 27.9235 83.427L27.8773 83.0964C27.6885 82.361 27.4974 81.2681 27.2953 80.4996C27.3634 80.7207 27.4513 80.9706 27.5742 81.4664L27.583 81.5553C27.6028 81.6255 27.6972 82.0346 27.7126 82.0201C27.6248 81.5449 27.5347 81.138 27.4117 80.6422C27.3985 80.5492 27.381 80.4418 27.37 80.3674C27.37 80.3695 27.3678 80.3777 27.3634 80.3756C27.3414 80.2104 27.3458 80.2269 27.3656 80.2847C27.3678 80.293 27.3722 80.3013 27.3766 80.3178C27.3678 80.01 26.9527 78.4626 26.7946 77.5908C26.7331 77.3367 26.7792 77.5681 26.7023 77.252C26.5332 76.3637 26.4168 75.7501 26.2213 74.8246C26.1313 74.5333 26.1181 74.5127 26.173 74.8742L26.0215 74.1759C26.2323 74.7978 25.7777 72.862 26.0017 73.5479C25.9666 73.3413 25.8743 72.9219 25.7667 72.5356C25.7404 72.5005 25.703 72.4427 25.5822 71.9551C25.4351 71.2713 25.4592 71.4345 25.3494 70.8684C25.3384 70.73 25.3955 70.9366 25.4043 70.9098C25.2879 70.478 25.2638 70.2941 25.2506 70.1144C25.2418 69.9388 25.2176 69.7611 25.2462 69.4017C25.2528 69.288 25.2813 69.1579 25.3275 69.0277C25.3758 68.8996 25.4548 68.7798 25.5383 68.6765C25.6327 68.5753 25.736 68.4844 25.8128 68.4162C25.8875 68.3481 25.9424 68.3129 25.9402 68.3005C26.2191 68.1208 26.3905 68.065 26.4651 68.0423C26.5398 68.0196 26.531 68.0382 26.5047 68.065L26.5069 68.0506Z" fill="#8267D7"/>
<path d="M74.6052 61.8426C74.5612 61.6071 74.5195 61.3695 74.48 61.1298C74.5788 61.7124 74.6908 62.2785 74.8292 62.8693C74.9653 63.456 75.1037 64.0469 75.2421 64.6398C75.5254 65.8256 75.8285 67.0197 76.1447 68.1993C75.8219 66.9102 75.5034 65.557 75.2003 64.1936C75.051 63.5118 74.8973 62.8197 74.7589 62.1463C74.6271 61.4748 74.5283 60.7869 74.4097 60.1052C74.2911 59.4213 74.1571 58.7417 73.9573 58.0785C73.8562 57.748 73.742 57.4216 73.5971 57.1055C73.529 56.9464 73.4477 56.7935 73.3665 56.6448C73.3269 56.5704 73.2742 56.4919 73.2303 56.4155C73.182 56.339 73.1424 56.2626 73.0787 56.1903C72.8635 55.8908 72.5714 55.6408 72.2551 55.4486C71.9367 55.2545 71.5831 55.1532 71.2471 55.0871C70.5684 54.9694 69.9447 55.0396 69.3934 55.1346C69.2682 55.1119 68.8158 55.1491 68.2404 55.24C67.6693 55.3185 66.9446 55.4259 66.233 55.5354C64.8076 55.7544 63.4305 55.9982 63.3778 56.025C62.2621 56.2564 61.1332 56.4981 59.9978 56.7625C59.0995 56.9712 58.1924 57.1985 57.2876 57.436C56.3871 57.6715 55.469 57.8864 54.5422 58.095C52.6842 58.5082 50.7778 58.8718 48.8385 59.2292C46.8992 59.5866 44.9247 59.942 42.9349 60.3407C40.9517 60.7538 38.9509 61.1257 36.9149 61.481C35.7883 61.6814 34.174 61.9603 32.3181 62.3177C31.3891 62.4954 30.403 62.6978 29.3861 62.921C28.3758 63.1544 27.337 63.394 26.296 63.6337C25.2571 63.8733 24.2183 64.115 23.208 64.3485C22.9554 64.4063 22.7051 64.4642 22.4569 64.522C22.2197 64.5737 21.9627 64.6232 21.7036 64.6873C21.1852 64.8133 20.6581 65.0178 20.2167 65.3195C19.9971 65.4723 19.795 65.6417 19.6193 65.8235C19.5315 65.9186 19.4524 66.0033 19.3711 66.1107C19.2899 66.2222 19.2108 66.3338 19.1559 66.4536C18.9077 66.935 18.8945 67.4308 18.9209 67.846C18.9516 68.2675 19.0417 68.6331 19.1164 68.9616C19.1954 69.2901 19.2679 69.5773 19.314 69.8314C19.4216 70.4656 19.571 71.1163 19.7379 71.7506C19.6017 71.2217 19.5424 70.9531 19.4853 70.6846C19.459 70.5482 19.4282 70.4181 19.3975 70.2445C19.3821 70.1598 19.3645 70.0648 19.3448 69.9574C19.3294 69.8603 19.3118 69.7508 19.2833 69.6268C19.325 69.7859 19.3448 69.9264 19.3843 70.1041C19.4194 70.2755 19.4568 70.4429 19.4963 70.6061C19.5732 70.9345 19.6588 71.2568 19.7467 71.5729C19.9224 72.2071 20.1157 72.8166 20.298 73.4136C20.4824 74.0107 20.6581 74.5932 20.8119 75.1737C20.9634 75.7481 21.0952 76.3368 21.2336 76.9132C21.1611 76.5021 21.1655 76.4215 20.9722 75.4568L21.227 76.6385C21.5257 77.7045 22.0879 80.1877 22.3822 81.3507C22.2944 81.107 22.5008 82.0263 22.6853 82.8382L22.6304 82.5138C23.3332 85.5941 24.2139 89.1536 24.8991 91.895C24.9936 92.2772 25.0573 92.5664 25.0902 92.74L25.7842 95.3595C25.6898 95.1674 26.3179 97.5411 25.9643 96.2974L26.375 97.7642C26.509 98.2518 26.6276 98.7476 26.8033 99.2475C26.889 99.4954 26.9988 99.7475 27.1437 99.9871C27.2887 100.229 27.4973 100.454 27.7477 100.63C27.8817 100.704 28.0135 100.789 28.1606 100.83C28.3034 100.888 28.4483 100.913 28.5933 100.937C28.7382 100.968 28.8788 100.958 29.0215 100.968C29.1621 100.97 29.2983 100.954 29.4344 100.948C29.9242 100.902 30.3657 100.809 30.8203 100.733C31.2727 100.654 31.7274 100.576 32.1842 100.497C33.0978 100.34 34.0159 100.181 34.9383 100.022C36.7832 99.702 38.65 99.357 40.508 98.9769C44.2263 98.2332 47.9929 97.5514 51.7002 96.8408L51.5158 96.8594C52.8138 96.6094 54.0305 96.3594 55.3175 96.095C55.961 95.9628 56.6221 95.8285 57.3183 95.6859C58.0145 95.5393 58.7437 95.3823 59.5299 95.217C61.7592 94.686 64.9394 93.9754 65.8113 93.7068C68.4051 93.1759 69.4307 92.9383 71.9608 92.3785C71.6292 92.4301 72.242 92.2875 72.7757 92.1533C73.305 92.019 73.7706 91.8909 73.1468 92.0293C71.4711 92.3578 71.381 92.4115 69.9447 92.6677L69.9908 92.6718L67.4826 93.1573C66.6503 93.3184 65.8025 93.4734 64.9701 93.651C63.3009 93.9981 61.6296 94.3472 59.956 94.6964C59.1192 94.872 58.2825 95.0476 57.4435 95.2232C56.6023 95.3822 55.7611 95.5413 54.9178 95.7025C53.2288 96.0082 51.5333 96.314 49.8356 96.6218C47.5669 97.0412 45.2037 97.4791 42.8163 97.9212C41.6238 98.1423 40.4224 98.3778 39.232 98.6092C38.0438 98.8385 36.8534 99.0554 35.674 99.262C34.4024 99.483 33.1066 99.7082 31.8064 99.9355C31.1563 100.051 30.5062 100.165 29.8605 100.28C29.709 100.299 29.5574 100.326 29.4081 100.34C29.2609 100.342 29.1072 100.367 28.9688 100.351C28.6789 100.349 28.4242 100.28 28.2133 100.163C28.0025 100.045 27.8356 99.859 27.6994 99.6297C27.5676 99.3963 27.4666 99.1298 27.3743 98.8571C27.203 98.3055 27.0625 97.7229 26.9065 97.163C26.6056 96.0433 26.3179 94.9649 26.0456 93.9547C25.7864 92.99 25.6437 92.2834 25.457 91.4529C24.5016 87.724 23.3881 82.9539 22.4042 78.7271C22.4217 78.8076 22.4393 78.8841 22.4503 78.9337C22.1911 77.8098 21.9781 76.8244 21.7673 75.8451C21.563 74.8556 21.2885 73.8805 20.9656 72.8021C20.9568 72.8166 20.858 72.4819 20.8053 72.3207C20.7987 72.2236 20.5286 71.3849 20.2606 70.1619C20.1991 69.8727 20.1376 69.5008 20.041 69.1496C19.9509 68.7963 19.8499 68.4348 19.7884 68.0692C19.7291 67.7056 19.7116 67.3337 19.8082 66.999C19.8543 66.8317 19.9378 66.6809 20.0388 66.5383C20.1574 66.3896 20.2914 66.2408 20.4407 66.1148C20.735 65.8545 21.0886 65.6603 21.473 65.524C21.8573 65.3835 22.2658 65.3071 22.6919 65.2079C23.5133 65.0075 24.2886 64.8174 24.9672 64.6522C26.3267 64.3216 27.3063 64.0861 27.5127 64.0448C27.7521 63.987 28.0025 63.925 28.2572 63.863C30.6929 63.2846 33.2076 62.8404 35.6411 62.4252C38.0746 62.012 40.4268 61.6071 42.5418 61.1505C43.4489 60.9336 44.4789 60.7084 45.2454 60.5328C45.9987 60.413 46.1327 60.3407 47.0398 60.1775C49.3568 59.8552 50.6943 59.5598 49.4996 59.7436C51.3862 59.378 53.2859 59.0185 54.9573 58.6466C55.7304 58.4669 56.4969 58.2851 57.2722 58.0806C57.9311 57.9112 58.2956 57.8306 58.6339 57.779C59.4706 57.5724 59.7693 57.5104 60.079 57.4484C60.3887 57.3864 60.7093 57.3245 61.5966 57.1489C61.8163 57.122 62.9276 56.8865 64.0543 56.6655C65.181 56.4423 66.3186 56.2254 66.5734 56.1841L66.2813 56.2399C66.7996 56.1552 67.2762 56.0767 67.7308 56.0002C68.1877 55.9321 68.6225 55.8515 69.0398 55.7916C69.4593 55.7337 69.8766 55.6924 70.3005 55.6986C70.7221 55.7048 71.1504 55.7627 71.5501 55.9321C71.8269 56.0519 72.0663 56.2275 72.2639 56.4485C72.4572 56.6758 72.6022 56.9505 72.7515 57.2501C73.0238 57.843 73.2083 58.4917 73.3533 59.159C73.4982 59.8242 73.608 60.508 73.7266 61.198C73.8387 61.886 73.9902 62.5904 74.1483 63.2618C74.4624 64.6191 74.7962 65.9578 75.141 67.2593C75.3146 67.9101 75.4903 68.5505 75.666 69.1806C75.8482 69.8086 76.0064 70.4181 76.1579 71.0254C76.2128 71.0626 75.8724 69.9636 75.9097 69.8954C76.6718 72.736 77.2143 75.6572 77.7941 78.5742C77.8864 79.1031 78.0006 79.7518 78.0445 79.9976C78.2356 80.9334 78.1851 80.545 78.3344 81.2289L78.3191 81.328C78.5804 82.3176 78.6221 82.7886 78.8571 83.7183C78.8835 83.7637 78.9648 84.1046 79.0416 84.4351C79.0087 84.4599 79.2788 85.4536 79.2305 85.4123L79.2349 85.4205C79.2788 85.6209 79.314 85.7614 79.3579 86.0073C79.4062 86.1952 79.6478 87.1724 79.852 88.1537C79.9004 88.3996 79.9487 88.6454 79.9948 88.8768C80.008 88.9801 80.0212 89.0813 80.0343 89.1784C80.0409 89.2734 80.0321 89.3602 80.0343 89.4449C80.0168 89.606 79.9926 89.7424 79.9443 89.8353C79.9135 89.9366 79.863 89.9965 79.8433 90.0275C79.8125 90.0647 79.7906 90.1039 79.7488 90.1328C79.7093 90.17 79.6741 90.2051 79.6412 90.2382C79.6061 90.2692 79.5665 90.2919 79.5358 90.3167C79.4743 90.3642 79.426 90.4014 79.3908 90.4221C79.3249 90.4634 79.3491 90.4654 79.4743 90.3973C79.3886 90.4468 79.2964 90.4923 79.2042 90.5377C79.1031 90.5749 79.0087 90.6204 78.9033 90.6534C78.9274 90.6452 78.9516 90.6369 78.9735 90.6266L78.6617 90.7257L78.3344 90.8104C78.2092 90.8352 78.0665 90.8497 78.251 90.7919C77.8798 90.8931 77.4362 90.9798 77.0364 91.0563C77.5921 90.9509 78.2136 90.8683 78.7825 90.7051C79.0702 90.6286 79.3359 90.5212 79.5577 90.3828C79.6741 90.3188 79.7598 90.232 79.852 90.1514C79.9223 90.0564 80.0036 89.9717 80.0453 89.8643C79.9882 90.044 79.8147 90.2547 79.5687 90.4097C79.3228 90.5667 79.0241 90.6844 78.7869 90.7526C78.5035 90.8311 78.0533 90.922 77.5394 91.0088C77.2824 91.0542 77.0145 91.0997 76.7399 91.1575C76.4632 91.2092 76.2128 91.2794 75.969 91.3331C75.7582 91.3868 75.6242 91.4633 75.1389 91.5604C74.8973 91.5872 74.5964 91.6884 74.1901 91.7587C74.6469 91.6409 75.0971 91.5438 75.5605 91.4323C75.4727 91.4219 74.4251 91.6781 74.0517 91.7484C73.8826 91.7979 72.9777 91.9839 72.4111 92.1099C72.6505 92.0273 71.9477 92.1863 71.605 92.2359C71.2207 92.3103 70.9769 92.3723 71.135 92.3516C71.0186 92.4115 72.668 92.0603 72.1409 92.2049C71.996 92.2173 71.2449 92.3764 70.8407 92.459C70.8407 92.4797 71.1219 92.4177 70.8627 92.4879C70.4103 92.5747 69.9359 92.6925 69.6723 92.7235C69.7558 92.7007 69.9425 92.6677 70.0742 92.6429C69.4878 92.7627 73.2281 91.8785 72.4682 92.0417C72.6724 92.0252 69.1518 92.8288 69.5428 92.7482C69.9029 92.6863 69.2946 92.833 69.6657 92.7668L70.072 92.6615C70.5816 92.5685 70.7946 92.5582 70.6211 92.6078C69.7734 92.7772 73.0019 91.9942 72.2793 92.1574L72.5758 92.1058C72.2727 92.1822 71.4535 92.3599 71.1329 92.4053C71.1329 92.4239 70.7221 92.5148 70.3795 92.5892L70.2565 92.6098C69.9029 92.6904 69.4044 92.7834 69.6416 92.7627C71.7258 92.3454 68.3128 93.2234 70.3334 92.833C69.4769 92.959 70.6101 92.7358 71.4952 92.552C71.5853 92.5478 71.985 92.49 72.6241 92.3661C73.1754 92.2462 72.9448 92.2834 73.048 92.2504C73.3555 92.1946 73.9419 92.0748 73.8694 92.1119C74.2911 91.9921 74.559 91.9756 75.0686 91.8475C75.5166 91.7298 75.0356 91.8434 75.3519 91.7566C75.6901 91.674 76.0964 91.5748 76.4852 91.4819C76.8761 91.3868 77.2561 91.3166 77.5284 91.2649C77.7436 91.2443 78.3915 91.1472 77.9325 91.2753C76.8937 91.4777 78.3169 91.1472 77.2385 91.3682C77.4757 91.3455 77.2385 91.3951 76.9178 91.4633C76.5972 91.5294 76.2018 91.6409 76.1096 91.6802C76.2831 91.6513 76.5401 91.581 76.8278 91.5232C77.1177 91.4633 77.4361 91.3971 77.7261 91.3372L77.6075 91.3538C77.8644 91.3001 78.251 91.2236 78.6353 91.1183C79.0219 91.017 79.404 90.8745 79.6588 90.7381C79.5468 90.8146 79.7796 90.7092 79.4304 90.8931C79.65 90.7836 79.8718 90.6638 80.0453 90.4861C80.109 90.4179 80.1749 90.3477 80.019 90.4923C80.2649 90.2485 80.4341 89.9386 80.4824 89.6845C80.4824 89.6763 80.5109 89.6102 80.5175 89.5027C80.5197 89.449 80.5219 89.385 80.5263 89.3127C80.5263 89.2755 80.5285 89.2383 80.5307 89.197C80.5263 89.1577 80.5219 89.1143 80.5175 89.071C80.5087 88.9842 80.4978 88.8912 80.4868 88.7921C80.4692 88.697 80.4494 88.5958 80.4319 88.4925C80.3945 88.2859 80.3506 88.067 80.3067 87.85C80.1288 86.9824 79.9289 86.1457 79.9443 86.1994C79.8411 85.718 79.8433 85.5982 79.7203 85.1334C79.7181 85.1272 79.7313 85.1954 79.7598 85.3152C79.7884 85.435 79.8279 85.6106 79.8762 85.8193C79.9706 86.2366 80.098 86.7902 80.2078 87.3294C80.3221 87.8686 80.4165 88.3913 80.4802 88.7384C80.5263 89.0937 80.5417 89.2755 80.5263 89.1082C80.5461 88.8788 80.2759 87.5195 79.9706 86.1725C79.6632 84.8276 79.3227 83.5075 79.3052 83.3547C79.2195 83.0014 79.1141 82.5737 79.1163 82.6605C78.9823 82.0593 79.1932 82.832 79.1097 82.4023C79.1053 82.394 79.1097 82.4395 79.0768 82.3031L79.0021 81.8879C78.7517 80.9644 78.4794 79.5927 78.251 78.6176C78.3278 78.8985 78.4267 79.2146 78.5804 79.8406L78.5936 79.9521C78.6177 80.041 78.7407 80.5554 78.7561 80.5368C78.6331 79.9377 78.5211 79.4295 78.3762 78.8035C78.3586 78.6857 78.3366 78.5494 78.3234 78.4585C78.3234 78.4606 78.3234 78.4709 78.3191 78.4688C78.2883 78.2602 78.2949 78.2829 78.3191 78.3552C78.3213 78.3655 78.3256 78.3779 78.3322 78.3986C78.3125 78.0123 77.8249 76.0517 77.6184 74.9548C77.5416 74.6345 77.6031 74.9258 77.5064 74.5271C77.2846 73.4074 77.1287 72.6348 76.8563 71.4696C76.7421 71.1039 76.7246 71.0771 76.8124 71.5295L76.5994 70.6515C76.8717 71.4324 76.2282 69.0029 76.5203 69.8665C76.4676 69.6041 76.3182 69.0856 76.1755 68.6021C76.1469 68.5567 76.0986 68.4865 75.9317 67.875C75.7231 67.0176 75.7692 67.2221 75.6045 66.5115C75.5803 66.34 75.6572 66.5962 75.6638 66.5631C75.3563 65.4765 75.4617 65.6004 75.2047 64.5695C75.04 63.925 74.7413 62.6441 74.7018 62.6193C74.5107 61.7496 74.5524 61.7455 74.592 61.826L74.6052 61.8426Z" fill="#8267D7"/>
<path d="M50.6789 103.173L51.2126 103.069C49.4863 103.41 47.6722 103.768 45.8823 104.119C49.7938 103.439 54.4126 102.636 57.3666 101.791C57.7224 101.859 61.5131 101.146 61.5812 101.094C62.3609 100.906 63.1472 100.718 63.9422 100.526C63.3931 100.656 62.8485 100.785 62.3082 100.913C62.8507 100.785 63.3953 100.656 63.9422 100.526C66.4503 99.9272 69.099 99.4231 71.829 98.8736C72.5099 98.7311 73.1973 98.5885 73.8891 98.446C74.5722 98.2993 75.2903 98.1423 75.9646 97.9811C77.3351 97.6857 78.7692 97.477 80.2056 97.2126C80.6053 97.1403 81.0885 97.0473 81.6376 96.9317C82.1734 96.8139 82.784 96.7147 83.4605 96.5268C83.7965 96.4317 84.1479 96.3078 84.4905 96.1363C84.664 96.0537 84.8309 95.9504 84.9935 95.8409C85.0747 95.7872 85.1582 95.719 85.2394 95.6591C85.3185 95.5847 85.3954 95.5062 85.4701 95.4298C85.76 95.1116 85.9598 94.6778 85.9906 94.2481C86.0279 93.8204 85.9488 93.4196 85.8478 93.056C85.7446 92.6883 85.6172 92.3474 85.5052 92.021L85.4086 91.7298C85.3602 91.5707 85.3119 91.4137 85.2636 91.2546L85.2263 91.1368C85.1955 91.1224 85.1428 91.1368 85.1033 91.1368L84.8441 91.1513L84.585 91.1658L84.3631 91.1844C83.5966 91.2525 82.8828 91.393 82.2218 91.5294C81.5585 91.6678 80.9611 91.7959 80.4098 91.8971C79.8564 92.0004 79.3666 92.0934 78.9603 92.1698C78.4881 92.2586 78.0203 92.3474 77.5437 92.4363C78.0694 92.3399 78.5957 92.2435 79.1228 92.1471C77.1506 92.5706 75.365 92.9569 73.6365 93.3287C73.9462 93.2874 74.0033 93.2936 74.7347 93.1759L73.8474 93.3391C73.0523 93.5519 71.1899 93.9217 70.3224 94.1241C70.5047 94.058 69.8128 94.1923 69.2067 94.3142L69.4505 94.2832C67.1444 94.748 64.4803 95.3389 62.4224 95.7706C62.1369 95.8305 61.9194 95.8657 61.7855 95.8843L59.8198 96.3202C59.9626 96.252 58.177 96.6259 59.1126 96.4069C57.6455 96.7561 56.1432 97.0349 54.742 97.3552C49.6972 98.3427 44.3361 99.4149 39.1331 100.493L39.2649 100.483C37.4442 100.863 35.8519 101.249 33.6249 101.658C32.0501 102.016 29.8034 102.483 29.1884 102.683C28.2748 102.867 27.6378 103.003 27.0053 103.14C26.375 103.272 25.7578 103.441 24.8486 103.613C25.0858 103.59 24.6509 103.687 24.2512 103.743C24.0491 103.772 23.8603 103.786 23.7878 103.797C23.7109 103.807 23.7395 103.811 23.9657 103.805C24.607 103.778 24.9189 103.706 25.2176 103.656C25.5119 103.6 25.7842 103.543 26.2915 103.458L26.2586 103.452C30.974 102.58 35.7091 101.704 40.4882 100.791C43.6684 100.138 47.1319 99.4913 50.4439 98.8385C52.2251 98.4811 54.0809 98.1092 55.8731 97.7498C57.6653 97.38 59.3871 97.0081 60.9091 96.6714C61.6339 96.5081 62.1676 96.4296 62.7936 96.316C65.5938 95.7066 69.1627 94.9567 72.3276 94.3018C72.2683 94.3142 72.2112 94.3245 72.1716 94.3307C73.854 93.9878 75.1278 93.7791 76.7706 93.4465C76.7596 93.4362 77.0144 93.3866 77.1374 93.3556C77.2121 93.3556 77.8534 93.2275 78.7824 93.0354C79.7092 92.8391 80.9347 92.5995 82.1581 92.3103C82.7664 92.1719 83.3748 92.0396 83.9502 91.9529C84.0952 91.9322 84.2357 91.9116 84.3763 91.8971C84.429 91.8909 84.4795 91.8868 84.53 91.8806L84.6267 91.8723L84.675 91.8682C84.6904 91.8682 84.6882 91.8909 84.6948 91.9012C84.7036 91.9301 84.7123 91.957 84.7211 91.9839C84.7563 92.083 84.7892 92.178 84.8221 92.2689C84.9847 92.7131 85.123 93.0829 85.1933 93.3597C85.2614 93.6366 85.2856 93.8225 85.2812 93.8845C85.2856 93.9588 85.2965 94.0332 85.29 94.1076C85.29 94.182 85.2856 94.2584 85.268 94.3307C85.2087 94.6881 84.9847 94.9959 84.6816 95.2273C84.3631 95.4649 83.9832 95.6446 83.5856 95.7748C83.1881 95.909 82.7642 95.9979 82.336 96.0826C81.9033 96.1673 81.4728 96.252 81.0468 96.3346C79.349 96.661 77.6909 96.8903 76.1864 97.2085C75.8636 97.2891 75.5144 97.382 75.1915 97.4771C74.8687 97.5638 74.559 97.6485 74.2932 97.7208C73.7639 97.8159 73.6739 97.8799 73.0414 98.0101C71.4117 98.2476 70.4783 98.4728 71.3173 98.3427C69.9951 98.6236 68.6598 98.8715 67.4804 99.1091C66.9357 99.2269 66.3932 99.3446 65.842 99.4624C65.3764 99.5677 65.1106 99.607 64.869 99.6318C63.6765 99.8983 64.0213 99.8012 62.7672 100.061C62.4575 100.097 59.6397 100.78 59.2817 100.838L59.486 100.791C58.0342 101.08 57.0525 101.204 55.6315 101.483C51.6782 102.241 47.3713 103.123 43.7167 103.867C43.6882 103.912 44.5206 103.693 44.5755 103.735C42.4187 104.168 40.2357 104.584 38.0657 105.032C37.6726 105.104 37.1894 105.183 37.0071 105.208C36.3109 105.336 36.603 105.309 36.0935 105.406L36.0166 105.385C35.2809 105.559 34.9229 105.561 34.2267 105.703C34.1915 105.724 33.9367 105.774 33.6886 105.815C33.6688 105.782 32.9221 105.953 32.9528 105.912L32.9462 105.916C32.7969 105.941 32.6893 105.962 32.5048 105.986C32.3642 106.017 31.6285 106.166 30.8905 106.303C30.1526 106.441 29.4102 106.563 29.2653 106.588L29.1291 106.598C28.7272 106.648 28.5581 106.695 28.7931 106.674L28.2945 106.73L28.3516 106.722L27.8553 106.774C27.763 106.78 27.6576 106.774 27.7982 106.743C27.5061 106.79 27.2359 106.823 26.9812 106.8C27.1569 106.815 27.3413 106.817 27.5412 106.802C27.7542 106.786 27.9761 106.771 28.1979 106.755C28.6415 106.72 29.0896 106.687 29.5003 106.654C29.1664 106.705 28.5603 106.763 28.1957 106.805C28.0859 106.811 27.9475 106.821 27.7916 106.829C27.6334 106.842 27.4599 106.856 27.2974 106.856C26.9614 106.86 26.6012 106.809 26.3113 106.714C26.1861 106.672 26.0719 106.693 25.8171 106.534C25.7095 106.439 25.5316 106.356 25.3845 106.17C25.5821 106.358 25.8018 106.515 26.0719 106.627C26.0565 106.602 25.894 106.534 25.7381 106.424C25.5777 106.319 25.4328 106.172 25.3647 106.092C25.3471 106.073 25.3142 106.034 25.2725 105.982C25.2329 105.924 25.1824 105.848 25.1341 105.767C25.0375 105.608 24.9584 105.396 24.8969 105.224C24.976 105.365 24.8266 104.941 24.8025 104.72C24.7519 104.476 24.7124 104.319 24.719 104.423C24.6926 104.385 24.7322 104.633 24.7783 104.842C24.8244 105.051 24.8727 105.224 24.8047 105.063C24.7915 104.974 24.6729 104.497 24.6333 104.233C24.6114 104.233 24.6487 104.414 24.6004 104.247C24.5565 103.954 24.4994 103.642 24.5125 103.476C24.5213 103.53 24.5257 103.65 24.5345 103.735C24.5191 103.542 24.5894 104.061 24.7256 104.551C24.853 105.046 25.0506 105.47 24.965 105.249C24.976 105.313 24.7761 104.819 24.6663 104.294C24.5433 103.77 24.506 103.268 24.5104 103.394C24.5104 103.621 24.4664 103.231 24.4708 103.468C24.484 103.555 24.4994 103.644 24.5169 103.733C24.5433 104.063 24.5367 104.204 24.5038 104.09C24.4686 103.811 24.5477 104.206 24.6619 104.598C24.7739 104.993 24.932 105.365 24.8508 105.148L24.8991 105.329C24.8156 105.154 24.6751 104.633 24.6641 104.423C24.6443 104.423 24.5872 104.158 24.5543 103.933L24.5477 103.852C24.506 103.619 24.5016 103.305 24.4818 103.454C24.5016 103.788 24.5125 103.906 24.4906 103.908C24.473 103.91 24.4313 103.799 24.3939 103.687C24.3566 103.573 24.3237 103.458 24.3039 103.454C24.2841 103.45 24.2666 103.559 24.3039 103.896C24.2951 103.326 24.3478 104.084 24.4818 104.666C24.4818 104.724 24.506 104.991 24.6311 105.402C24.7651 105.749 24.7278 105.598 24.7629 105.662C24.8266 105.854 25.0462 106.185 24.9979 106.154C25.1956 106.367 25.2856 106.526 25.5953 106.714C25.8764 106.86 25.5799 106.699 25.7842 106.792C25.9928 106.902 26.2674 106.995 26.5397 107.046C26.812 107.1 27.0778 107.11 27.2711 107.106C27.4204 107.129 27.8838 107.11 27.5544 107.178C27.1788 107.205 27.2491 107.176 27.3172 107.168C27.3831 107.152 27.4468 107.15 27.0602 107.152C27.2271 107.176 27.0558 107.187 26.823 107.166C26.5902 107.15 26.3047 107.083 26.2322 107.077C26.3486 107.123 26.5331 107.17 26.7462 107.197C26.957 107.222 27.192 107.226 27.405 107.209C27.3765 107.209 27.3479 107.209 27.3194 107.209C27.5083 107.199 27.7828 107.162 28.0617 107.133C28.3406 107.104 28.6262 107.077 28.826 107.065C28.7338 107.092 28.9095 107.083 28.6393 107.121L29.1467 107.063C29.2104 107.05 29.2763 107.036 29.1291 107.05C29.3663 107.009 29.6057 106.988 29.7902 106.972C29.8187 106.976 30.4886 106.873 31.1365 106.755C31.7822 106.637 32.3313 106.538 32.3752 106.53C32.7376 106.468 32.8298 106.48 33.1768 106.404C33.1812 106.402 33.1307 106.41 33.0407 106.424C32.9506 106.441 32.8188 106.464 32.6607 106.493C32.3466 106.548 31.9294 106.623 31.5252 106.695C30.717 106.836 29.9615 106.951 30.2009 106.916C30.359 106.908 31.3847 106.74 32.395 106.557C33.4052 106.373 34.4002 106.168 34.5166 106.162C34.7823 106.11 35.1052 106.048 35.0371 106.042C35.4895 105.964 34.9097 106.102 35.2325 106.057C35.2391 106.053 35.204 106.053 35.3072 106.034L35.6191 105.997C36.3131 105.836 37.3432 105.662 38.0635 105.474C37.8571 105.536 37.6243 105.621 37.1565 105.732L37.073 105.741C37.0071 105.759 36.6228 105.844 36.636 105.858C37.0862 105.78 37.4662 105.699 37.9318 105.584C38.0196 105.571 38.1206 105.555 38.1909 105.544C38.1887 105.544 38.1799 105.542 38.1821 105.538C38.3381 105.517 38.3227 105.522 38.2678 105.54C38.2612 105.542 38.2524 105.546 38.237 105.551C38.5292 105.544 39.9787 105.15 40.8001 105.005C41.0373 104.947 40.8199 104.993 41.1164 104.918C41.9531 104.761 42.5308 104.654 43.4027 104.491C43.675 104.412 43.6948 104.398 43.3544 104.445L44.0132 104.317C43.429 104.499 45.2541 104.121 44.6084 104.315C44.8039 104.288 45.197 104.212 45.5638 104.125C45.5967 104.102 45.6495 104.067 46.1129 103.974C46.763 103.863 46.607 103.89 47.1451 103.797C47.2769 103.79 47.0814 103.838 47.1078 103.848C47.927 103.658 47.8369 103.745 48.6122 103.584C49.0976 103.481 50.0596 103.286 50.0749 103.247C50.7316 103.117 50.736 103.142 50.6789 103.183V103.173Z" fill="#8267D7"/>
<path d="M54.2743 100.652L54.3577 100.638C54.092 100.696 53.8108 100.743 53.5319 100.807C54.1491 100.723 54.8694 100.636 55.3043 100.415C55.3702 100.468 55.961 100.376 55.9676 100.359C56.0862 100.322 56.2048 100.287 56.3278 100.254C56.7121 100.148 57.1228 100.053 57.5401 99.9727C57.9596 99.8983 58.4076 99.8425 58.8623 99.7227C58.9875 99.6876 59.1697 99.638 59.374 99.5409C59.475 99.4913 59.5848 99.4355 59.6903 99.3508C59.7913 99.2703 59.8813 99.1897 59.9692 99.074C60.0109 99.0182 60.0526 98.95 60.0812 98.8695C60.1098 98.7868 60.1163 98.6753 60.0834 98.5782C60.0483 98.4811 59.978 98.4005 59.9143 98.3489C59.8506 98.2993 59.7847 98.2642 59.7254 98.2373C59.486 98.1361 59.2927 98.1134 59.1544 98.0927C59.0753 98.0824 58.9962 98.0741 58.915 98.0679C59.0468 98.0803 59.0468 98.0803 59.1807 98.101C58.8403 98.0824 58.5482 98.1051 58.2605 98.1443C58.3132 98.1485 58.322 98.1567 58.4428 98.1609L58.2956 98.165C58.2319 98.1836 58.1199 98.2022 58.0101 98.229C57.9047 98.2518 57.7993 98.2745 57.7334 98.2931C57.7597 98.2745 57.6521 98.291 57.5577 98.3055H57.5972C57.237 98.3675 56.8241 98.4625 56.5035 98.5245C56.4595 98.5327 56.4244 98.5348 56.4024 98.5348L56.0994 98.6071C56.1191 98.5844 55.8424 98.6422 55.9852 98.6009C55.7611 98.6691 55.5261 98.7042 55.3131 98.7724C54.5334 98.9356 53.7076 99.1236 52.9082 99.3136H52.9301C52.6512 99.3839 52.4096 99.4706 52.0626 99.5223C51.821 99.5905 51.4696 99.669 51.3971 99.7475C51.1336 99.8466 51.0457 99.9293 50.7712 100.028C50.8503 100.028 50.5098 100.132 50.6504 100.107C50.8459 100.078 50.8503 100.051 51.0128 100.014L51.0062 100.01C51.1885 99.9458 51.3532 99.8735 51.5179 99.8322C51.6014 99.8095 51.6827 99.797 51.7727 99.7826L52.0494 99.7392C52.4206 99.6793 52.7896 99.6153 53.1607 99.545C53.6505 99.4314 54.1908 99.3343 54.7003 99.2227C55.2494 99.1009 55.8446 98.9645 56.3124 98.8529C56.4244 98.824 56.5101 98.824 56.6067 98.8137C57.0394 98.7187 57.595 98.6154 58.0848 98.5183C58.076 98.5183 58.0672 98.5203 58.0628 98.5224C58.3066 98.4749 58.5043 98.4852 58.7525 98.4831C58.7525 98.4769 58.7898 98.477 58.8096 98.4749C58.8249 98.4914 59.2137 98.4687 59.5365 98.5658C59.6134 98.5906 59.6815 98.6278 59.7078 98.6608C59.7386 98.6918 59.743 98.7249 59.732 98.7724C59.699 98.8695 59.6288 98.948 59.6112 98.9583C59.5958 98.9769 59.5826 98.9955 59.5629 99.0141C59.3872 99.1835 59.1456 99.2744 58.8974 99.3426C58.6492 99.4107 58.4011 99.4541 58.1748 99.5016C58.0782 99.5326 57.9684 99.5657 57.8871 99.5946C57.8037 99.5987 57.7927 99.6215 57.6917 99.638C57.4303 99.6297 57.2832 99.6834 57.4193 99.6752C57.2129 99.7227 57.0064 99.764 56.8241 99.8033C56.7407 99.8239 56.6572 99.8466 56.5716 99.8694C56.4991 99.888 56.4574 99.89 56.4178 99.8859C56.2333 99.9313 56.286 99.9086 56.0906 99.9437C56.0401 99.9355 55.6096 100.074 55.5525 100.08L55.5832 100.072C55.357 100.115 55.1989 100.113 54.9793 100.157C54.3665 100.268 53.6922 100.425 53.141 100.545C53.141 100.566 53.264 100.516 53.275 100.539C52.9455 100.607 52.6051 100.644 52.2713 100.69C52.2098 100.694 52.1351 100.692 52.1065 100.69C51.9989 100.696 52.045 100.706 51.966 100.712L51.9528 100.696C51.8408 100.723 51.7837 100.694 51.6783 100.708C51.6739 100.714 51.6343 100.721 51.597 100.721C51.5948 100.702 51.4806 100.727 51.4872 100.71C51.4652 100.712 51.4477 100.714 51.4213 100.71C51.4015 100.712 51.2895 100.733 51.1841 100.739C51.0765 100.749 50.9711 100.749 50.9535 100.747L50.9359 100.741C50.8854 100.731 50.8591 100.741 50.8876 100.749C50.8656 100.745 50.8459 100.737 50.8239 100.731H50.8327C50.8107 100.725 50.791 100.718 50.7712 100.71C50.7602 100.704 50.7514 100.692 50.7712 100.692C50.7339 100.685 50.6943 100.671 50.6658 100.652C50.7449 100.71 50.8678 100.764 50.9733 100.801C50.9271 100.797 50.8481 100.774 50.7998 100.758C50.747 100.729 50.6394 100.671 50.5801 100.617C50.5669 100.607 50.5406 100.617 50.5208 100.584C50.5186 100.563 50.4923 100.555 50.4901 100.53C50.512 100.547 50.5274 100.572 50.556 100.597C50.556 100.582 50.5055 100.528 50.5055 100.518C50.4945 100.514 50.4945 100.489 50.4945 100.473C50.5098 100.481 50.5055 100.464 50.523 100.46C50.5362 100.448 50.5362 100.433 50.5274 100.435C50.523 100.427 50.5077 100.444 50.4967 100.454C50.4901 100.462 50.4835 100.471 50.4769 100.458C50.4857 100.458 50.4989 100.429 50.523 100.406C50.5164 100.4 50.5011 100.415 50.5099 100.396C50.534 100.373 50.5626 100.34 50.5867 100.336C50.5823 100.342 50.5692 100.351 50.5582 100.357C50.5801 100.342 50.5252 100.398 50.5142 100.44C50.4989 100.481 50.5252 100.483 50.5208 100.479C50.5186 100.479 50.4967 100.471 50.5252 100.417C50.5516 100.367 50.6153 100.318 50.5955 100.328C50.567 100.342 50.6043 100.301 50.5757 100.318L50.5538 100.349C50.5142 100.371 50.4945 100.373 50.4989 100.357C50.5274 100.332 50.4923 100.382 50.4835 100.421C50.4703 100.46 50.4879 100.477 50.4835 100.466L50.4769 100.475C50.4659 100.464 50.4835 100.431 50.5077 100.419C50.4989 100.413 50.5208 100.39 50.5362 100.369L50.545 100.365C50.567 100.345 50.6043 100.32 50.5801 100.322C50.5055 100.376 50.512 100.34 50.523 100.301C50.534 100.262 50.5516 100.218 50.4637 100.276C50.5516 100.243 50.4462 100.307 50.4022 100.373C50.3912 100.376 50.3561 100.396 50.3385 100.454C50.3341 100.504 50.3451 100.483 50.3495 100.493C50.3407 100.52 50.3583 100.572 50.3451 100.568C50.3759 100.599 50.3693 100.632 50.411 100.667C50.4484 100.696 50.4132 100.661 50.4418 100.679C50.4923 100.729 50.5801 100.78 50.6306 100.807C50.646 100.826 50.7031 100.871 50.6482 100.865C50.545 100.816 50.6987 100.861 50.5911 100.813C50.6241 100.859 50.4945 100.77 50.4681 100.768C50.4923 100.799 50.5604 100.84 50.6241 100.863L50.6131 100.855C50.6658 100.88 50.7778 100.911 50.8349 100.937C50.8173 100.942 50.8437 100.954 50.7998 100.946C50.8261 100.954 50.8525 100.958 50.8788 100.964C50.8898 100.964 50.9008 100.964 50.8788 100.956C50.9184 100.956 50.9535 100.968 50.982 100.977C50.9864 100.981 51.0941 100.987 51.1973 100.979C51.3005 100.977 51.3993 100.96 51.3949 100.964C51.4521 100.964 51.4652 100.977 51.5223 100.964C51.5223 100.962 51.4916 100.964 51.4411 100.968C51.3928 100.97 51.3269 100.975 51.261 100.979C51.1336 100.985 51.0106 100.979 51.0501 100.981C51.0743 100.989 51.239 100.991 51.3993 100.977C51.5597 100.964 51.7156 100.944 51.7354 100.95C51.7771 100.946 51.8276 100.939 51.8166 100.931C51.8891 100.931 51.7969 100.95 51.8496 100.954C51.8496 100.954 51.8452 100.95 51.8606 100.95L51.9111 100.956C52.0209 100.931 52.1834 100.929 52.2954 100.896C52.2647 100.911 52.2273 100.931 52.1549 100.95H52.1417C52.1417 100.95 52.0714 100.962 52.0736 100.97C52.1461 100.966 52.2054 100.958 52.2778 100.939C52.291 100.939 52.3064 100.939 52.3196 100.939C52.3196 100.939 52.3196 100.939 52.3196 100.935C52.3437 100.935 52.3415 100.939 52.335 100.944C52.335 100.944 52.3328 100.944 52.3306 100.946C52.3789 100.966 52.6051 100.888 52.7347 100.88C52.772 100.869 52.7369 100.875 52.783 100.861C52.9148 100.849 53.007 100.838 53.1432 100.818C53.1849 100.797 53.1871 100.793 53.1322 100.793L53.2354 100.774C53.1498 100.824 53.4331 100.762 53.3386 100.811C53.3694 100.811 53.4331 100.799 53.488 100.782C53.4924 100.774 53.499 100.76 53.5693 100.743C53.6725 100.729 53.6417 100.733 53.7318 100.721C53.7537 100.725 53.7252 100.737 53.7318 100.743C53.8548 100.7 53.8482 100.739 53.9668 100.712C54.0415 100.694 54.1886 100.663 54.1886 100.644C54.2896 100.623 54.294 100.636 54.2874 100.652H54.2743Z" fill="#8267D7"/>
<path d="M61.5483 23.9709C61.5527 23.9833 61.5527 23.9895 61.5439 24.0102C61.522 24.0783 61.4714 24.1754 61.3814 24.2353C61.2935 24.2932 61.164 24.32 60.9685 24.1899C60.9597 24.1858 60.9334 24.161 60.9268 24.1465C60.8148 23.785 60.7686 23.4317 60.7401 23.0867C60.6984 22.5744 60.694 22.0703 60.6698 21.5786C60.6632 21.4547 60.6566 21.3328 60.6478 21.2129L60.6369 21.0787L60.4502 21.0374C60.3162 21.0043 60.1844 20.965 60.0505 20.9279C58.9984 20.6118 57.9794 20.0643 57.2568 19.2256C56.8988 18.8062 56.6221 18.3207 56.4617 17.798C56.308 17.2733 56.2773 16.7176 56.3651 16.1825C56.5518 15.1041 57.2063 14.1621 58.0167 13.4514C58.423 13.094 58.8733 12.7841 59.3411 12.5135C59.8177 12.247 60.3184 12.026 60.8345 11.8442C61.3528 11.6686 61.8843 11.5363 62.4224 11.4351C62.9627 11.3463 63.5052 11.2822 64.0521 11.2636C65.1436 11.2265 66.2417 11.3173 67.3047 11.5611C68.3677 11.7966 69.4 12.1809 70.3422 12.718C71.2822 13.2551 72.1256 13.9638 72.7625 14.8252C73.0853 15.2529 73.3335 15.726 73.5422 16.2135C73.742 16.7031 73.8672 17.2175 73.9463 17.7319C74.0187 18.2484 74.0363 18.7855 73.9375 19.3185C73.8364 19.8515 73.5993 20.3783 73.2325 20.8122C72.8591 21.2398 72.3803 21.5745 71.8664 21.7997C71.3525 22.031 70.8144 22.1798 70.2719 22.2748C69.1869 22.469 68.0954 22.4855 67.0192 22.438C66.7491 22.4256 66.4811 22.4091 66.2132 22.3884C65.9343 22.3678 65.6839 22.3389 65.4335 22.3285C64.9372 22.312 64.4562 22.376 64.0191 22.5558L63.8588 22.6301C63.8127 22.6487 63.7292 22.6983 63.7446 22.688L63.7138 22.7045L63.6523 22.7396C63.6106 22.7624 63.5689 22.7851 63.5294 22.814C63.4503 22.8698 63.3668 22.9152 63.2878 22.9772C63.2878 22.9772 63.0923 23.097 62.8265 23.2788C62.563 23.4606 62.227 23.7044 61.9349 23.8883C60.9531 24.5225 61.2255 24.1259 61.7108 23.6238C61.6801 23.6445 61.9766 23.347 62.2885 23.0433C62.4444 22.8905 62.6113 22.7396 62.7409 22.6281C62.8749 22.5186 62.9649 22.4442 62.9649 22.4442C63.0572 22.3843 63.145 22.3244 63.2394 22.2666L63.3844 22.1839L63.4217 22.1633L63.4371 22.155C63.4679 22.1385 63.4964 22.1199 63.5294 22.1054L63.7226 22.0166C63.984 21.905 64.2629 21.8203 64.5462 21.7769L64.7593 21.7439L64.9701 21.7294C65.1129 21.715 65.2512 21.7191 65.3918 21.7212C65.5323 21.7191 65.6663 21.7336 65.8025 21.746L66.1934 21.779C66.7052 21.8203 67.2213 21.8472 67.7352 21.8534C68.7587 21.8637 69.7887 21.8017 70.7485 21.5476C71.7039 21.3039 72.5846 20.808 73.015 20.0209C73.2281 19.6305 73.3335 19.1842 73.3555 18.7277C73.3796 18.2711 73.3115 17.8001 73.2237 17.3394C73.1095 16.8849 72.9689 16.4346 72.7493 16.0131C72.5297 15.5958 72.2793 15.1888 71.9586 14.8273C71.6446 14.4658 71.2954 14.1228 70.9022 13.8315C70.5135 13.534 70.0962 13.2675 69.6504 13.0444C67.8758 12.1396 65.7959 11.7574 63.7731 11.8896C63.268 11.9247 62.7629 11.9846 62.2709 12.0921C62.0227 12.1354 61.7811 12.2077 61.5373 12.2677C61.3001 12.3462 61.0564 12.4123 60.8257 12.5073C60.3557 12.6788 59.9121 12.8978 59.4904 13.1539C59.0687 13.4101 58.669 13.6972 58.3198 14.0278C57.9706 14.3583 57.6653 14.7261 57.4347 15.1289C57.2041 15.5318 57.0525 15.9697 56.9954 16.416C56.8703 17.3105 57.2019 18.2277 57.8322 18.9136C58.4626 19.6078 59.3542 20.085 60.3052 20.3618C60.426 20.3928 60.5424 20.4341 60.6654 20.4589L60.9092 20.5126L61.1003 20.5539L61.1947 20.5746L61.2408 20.5849L61.2452 20.6304L61.2848 20.996L61.3023 21.1985L61.3243 21.5745C61.3485 22.0724 61.3528 22.562 61.3924 23.0371C61.4187 23.3615 61.4649 23.6817 61.5549 23.9709H61.5483Z" fill="#8267D7"/>
<path d="M71.4315 11.9846C71.4249 11.995 71.4206 11.9991 71.3986 12.0074C71.3239 12.0342 71.2185 12.0631 71.1109 12.0384C71.0077 12.0136 70.9 11.9351 70.8781 11.714C70.8781 11.7057 70.8781 11.6706 70.8847 11.6562C71.1021 11.3401 71.3613 11.0839 71.5963 10.8339L71.8159 10.5964L71.8313 10.5798L71.605 10.4455C71.1987 10.2018 70.8188 9.91668 70.474 9.5944C69.7909 8.95191 69.2397 8.15241 69.0003 7.24342C68.8795 6.79099 68.8377 6.31584 68.8905 5.84689C68.9388 5.37793 69.0969 4.9193 69.3297 4.50406C69.7975 3.66531 70.5706 3.03521 71.4052 2.59105C72.2485 2.14068 73.1798 1.87418 74.1198 1.7337C75.062 1.60768 76.0217 1.59116 76.9617 1.70685C77.9039 1.81634 78.8308 2.03739 79.7115 2.38239C80.5922 2.71913 81.4224 3.19635 82.1384 3.80372C82.4963 4.10947 82.8126 4.45654 83.0959 4.8284C83.3639 5.21059 83.5967 5.61757 83.7636 6.05141C84.0886 6.91908 84.1721 7.86112 84.0272 8.75978C83.9635 9.21428 83.8229 9.67498 83.5747 10.0944C83.3331 10.5158 82.9642 10.8814 82.5381 11.1418C82.112 11.4041 81.6376 11.5694 81.1632 11.6727C80.6866 11.776 80.2078 11.8214 79.7334 11.84C78.7847 11.8731 77.8512 11.7966 76.9332 11.7119C76.4742 11.6706 76.0173 11.6231 75.5627 11.5901C75.1125 11.557 74.6557 11.5301 74.2318 11.5529C74.1791 11.5549 74.1264 11.5632 74.0736 11.5673C74.0275 11.5694 73.9441 11.5818 73.9594 11.5797L73.9221 11.5859L73.8496 11.5962C73.8013 11.6024 73.753 11.6128 73.7047 11.621C73.608 11.6376 73.5114 11.6624 73.4126 11.683C73.4126 11.683 73.182 11.7223 72.8613 11.7925C72.5407 11.8607 72.1234 11.9557 71.7698 11.9991C71.1724 12.0797 70.9857 12.026 71.0362 11.9619C71.0867 11.8917 71.3635 11.7946 71.6951 11.6686C71.6578 11.6727 72.0553 11.5343 72.4682 11.3731C72.6746 11.2946 72.8899 11.2161 73.0546 11.1604C73.2215 11.1066 73.3357 11.0736 73.3357 11.0736C73.4411 11.0488 73.5487 11.0281 73.6586 11.0075C73.7135 10.9971 73.7684 10.9909 73.8233 10.9827L73.865 10.9765H73.8804C73.9111 10.9703 73.9397 10.9662 73.9704 10.9641L74.1527 10.9455C74.3987 10.931 74.6359 10.929 74.8665 10.9393C75.7977 10.9744 76.6938 11.086 77.5899 11.1562C78.4838 11.2265 79.3754 11.2781 80.2408 11.1975C81.0995 11.119 81.9539 10.8959 82.5337 10.3691C83.1223 9.85057 83.3793 9.0676 83.4276 8.25984C83.5022 7.45415 83.3463 6.64638 83.0059 5.91506C82.6479 5.18993 82.101 4.54744 81.429 4.03717C80.7657 3.5145 79.9816 3.13024 79.169 2.83275C78.3476 2.55179 77.4867 2.3576 76.6125 2.28323C75.7384 2.20679 74.8533 2.22332 73.9946 2.37413C73.1336 2.51461 72.3057 2.78937 71.5699 3.20668C70.832 3.61986 70.2016 4.19211 69.8414 4.89658C69.4834 5.59898 69.4219 6.41707 69.6482 7.17525C69.8722 7.9355 70.351 8.6317 70.9615 9.19362C71.2668 9.47665 71.6072 9.72662 71.9718 9.94354C72.075 10.0035 72.1102 10.0303 72.3452 10.1543L72.6329 10.3092L72.7757 10.3877C72.7976 10.3918 72.7691 10.4063 72.7669 10.4166L72.7427 10.4476L72.6944 10.5117L72.4989 10.7637L72.3079 10.9909L72.0794 11.2388C71.8378 11.493 71.6028 11.7305 71.4315 11.9846Z" fill="#8267D7"/>
<path d="M57.9025 10.5034C57.9113 10.5158 57.9135 10.5199 57.9135 10.5447C57.9135 10.7038 57.8322 10.9889 57.4105 10.8649C57.4017 10.8629 57.371 10.8484 57.36 10.8381L56.767 9.99312L56.4529 9.54482L56.1696 9.13991L56.1301 9.08413C56.1301 9.08413 56.1081 9.06347 56.1191 9.05727L56.1455 9.03455L56.2531 8.94572L56.4661 8.76805L56.7253 8.55939L56.9471 8.38586L57.382 8.04499C57.9508 7.59256 58.4472 7.10087 58.7349 6.49557C58.8117 6.34683 58.8645 6.18775 58.9238 6.03487C58.9655 5.8758 59.016 5.71879 59.0314 5.55766C59.0643 5.39652 59.0555 5.23332 59.0621 5.07218C59.0467 4.91104 59.038 4.74783 58.9984 4.58875C58.8666 3.94833 58.4955 3.35749 58.0013 2.88027C57.7487 2.64682 57.4764 2.42577 57.1711 2.25224C57.0196 2.16134 56.8615 2.08077 56.6989 2.00433L56.2026 1.78535C55.5283 1.52918 54.8145 1.36804 54.092 1.33085C52.6446 1.23995 51.1797 1.71511 50.1013 2.60964C49.561 3.05587 49.1086 3.60126 48.7989 4.2169C48.7045 4.36151 48.654 4.52884 48.5837 4.68585L48.4827 4.92549C48.4519 5.00606 48.4256 5.0887 48.397 5.16927C48.2916 5.49362 48.2213 5.82416 48.1994 6.1547C48.151 6.81578 48.318 7.47687 48.6979 8.02433C49.0735 8.57385 49.6423 9.00563 50.2858 9.29485C50.9293 9.58614 51.6475 9.74521 52.3679 9.78033C52.7325 9.79686 53.0839 9.78653 53.4594 9.73902C53.8635 9.70596 54.2567 9.6977 54.6586 9.72042L54.9595 9.74521L55.0429 9.75554L55.2077 9.7762C55.3175 9.79273 55.4273 9.80926 55.5349 9.82992C55.5349 9.82992 55.7875 9.88982 56.1125 10.0076C56.4376 10.1233 56.8285 10.2989 57.1316 10.4683C57.6521 10.7451 57.7751 10.8814 57.6938 10.9104C57.6104 10.9414 57.3183 10.867 56.9713 10.772C57.0042 10.7926 56.5957 10.6583 56.1762 10.5612C55.7589 10.4579 55.3285 10.4125 55.3285 10.4125C55.2318 10.398 55.1352 10.3794 55.0363 10.3691L54.8892 10.3505L54.6388 10.3299C54.4609 10.3195 54.283 10.3154 54.1029 10.3175C53.9206 10.3216 53.7449 10.3299 53.5714 10.3423C53.3848 10.3608 53.1915 10.3836 52.9938 10.3918C52.6007 10.4104 52.2054 10.396 51.8122 10.3464C51.0304 10.2493 50.2595 10.0179 49.572 9.62746C48.8868 9.24113 48.2872 8.67715 47.9292 7.97888C47.5646 7.28267 47.4768 6.48111 47.5954 5.73739C47.6525 5.36347 47.7645 5.00194 47.9007 4.659L48.1159 4.14459C48.1972 3.97725 48.2982 3.81612 48.3882 3.65085C48.7792 3.00629 49.2975 2.42578 49.9168 1.96095C51.1599 1.02097 52.7983 0.618119 54.3643 0.742072C55.1506 0.799917 55.9171 1.0127 56.6308 1.31019C57.3424 1.59735 58.0408 2.01259 58.5767 2.57451C59.1214 3.12817 59.5233 3.82851 59.6573 4.59289C59.8001 5.3552 59.6441 6.15677 59.2883 6.83438C58.9391 7.53058 58.3549 8.08424 57.7729 8.54287L57.338 8.88374L56.9647 9.17916L57.3095 9.67084L57.9025 10.5158V10.5034Z" fill="#8267D7"/>
<path d="M61.0102 14.6851C60.9971 14.6872 60.9927 14.6872 60.9729 14.6768C60.9399 14.6603 60.9026 14.6396 60.8785 14.6066C60.8741 14.6004 60.8763 14.6066 60.8675 14.588C60.8587 14.5652 60.8455 14.5404 60.8367 14.5239L60.8323 14.5156V14.5115C60.7994 14.4598 60.8785 14.5797 60.8697 14.5673H60.8653L60.8609 14.5611L60.8411 14.5673C60.8411 14.5673 60.806 14.5756 60.784 14.5756C60.7247 14.5673 60.7357 14.5507 60.7247 14.5383C60.7225 14.5259 60.7203 14.5135 60.7181 14.5011C60.7159 14.4495 60.7313 14.3957 60.7664 14.344C60.7664 14.3461 60.7774 14.2965 60.7621 14.3916C60.7599 14.4102 60.7621 14.4288 60.7621 14.4247C60.7621 14.4247 60.7621 14.4288 60.7621 14.4226C60.7599 14.4143 60.7555 14.4081 60.7511 14.3999C60.7467 14.3937 60.7423 14.3854 60.7357 14.3792H60.7335V14.3751C60.7159 14.3503 60.7686 14.4267 60.6962 14.3213V14.3192C60.6984 14.2986 60.7269 14.2676 60.7379 14.249C60.7686 14.2056 60.8038 14.1642 60.8455 14.1229C60.8521 14.1167 60.8806 14.0939 60.8982 14.0877L61.0432 14.0671L61.2013 14.0485L61.4978 14.0547C61.6823 14.0547 61.8668 14.065 62.0491 14.0795C63.8127 14.2014 65.4972 14.6045 67.1774 14.9331L67.7616 15.0468C67.7616 15.0468 68.6642 15.2866 69.3736 15.4747C70.5113 15.7434 70.0435 15.8261 69.299 15.8054C69.3363 15.8178 68.897 15.7868 68.449 15.7372C68.0032 15.6876 67.5485 15.6256 67.5485 15.6256L67.0412 15.5264C65.3523 15.1936 63.6809 14.7988 62.0029 14.6872C61.8294 14.6748 61.6537 14.6644 61.4802 14.6644L61.2386 14.6582L61.131 14.6706L61.0102 14.6892V14.6851Z" fill="#8267D7"/>
<path d="M60.4348 16.009C60.4194 16.0049 60.4128 16.0049 60.3974 15.9863C60.2744 15.8747 60.1207 15.6185 60.5094 15.4243C60.516 15.4202 60.549 15.4099 60.5644 15.4099L61.6164 15.6061C63.5249 15.9553 65.4467 16.2693 67.3618 16.6474L67.9504 16.7651C67.9504 16.7651 68.9058 17.0233 69.5559 17.2754C70.6628 17.6762 70.1665 17.6948 69.4483 17.5977C69.4834 17.6142 69.0551 17.5398 68.6181 17.4758C68.1788 17.4097 67.733 17.3436 67.733 17.3436L67.2322 17.2423C65.3325 16.8663 63.4129 16.5544 61.4956 16.2032L60.437 16.0049L60.4348 16.009Z" fill="#8267D7"/>
<path d="M60.224 17.5584C60.224 17.5584 60.2174 17.5584 60.213 17.5419C60.1823 17.4489 60.1625 17.2175 60.3294 16.982C60.3316 16.9779 60.3448 16.9634 60.3514 16.9614C60.358 16.9614 60.4853 16.9862 60.6742 17.0192C60.8631 17.0523 61.1135 17.0915 61.366 17.1308C61.8756 17.2072 62.3807 17.2836 62.3807 17.2836C62.3807 17.2836 62.7014 17.3973 62.9144 17.5316C63.279 17.7319 63.0901 17.8332 62.8397 17.8621C62.8507 17.8704 62.7036 17.8724 62.552 17.8766C62.3983 17.8786 62.2468 17.8807 62.2468 17.8807C62.2468 17.8807 61.7504 17.8063 61.2518 17.7319C60.9993 17.6948 60.7467 17.6534 60.5534 17.6204C60.3601 17.5853 60.2306 17.5625 60.224 17.5605V17.5584Z" fill="#8267D7"/>
<path d="M72.6021 4.22102C72.5868 4.21689 72.5802 4.2169 72.5648 4.1983C72.4418 4.08674 72.2881 3.83057 72.6768 3.63638C72.6834 3.63225 72.7163 3.62192 72.7317 3.62192L73.7859 3.82025C75.4243 4.126 77.0693 4.42762 78.7078 4.76849L79.2942 4.89244C79.2942 4.89244 80.2474 5.16101 80.8953 5.41305C82 5.81796 81.5036 5.83449 80.7854 5.73532C80.8206 5.75185 80.3923 5.67748 79.9552 5.60724C79.516 5.537 79.0702 5.46675 79.0702 5.46675L78.5694 5.3614C76.942 5.02466 75.3014 4.7251 73.6607 4.41935L72.6043 4.21896L72.6021 4.22102Z" fill="#8267D7"/>
<path d="M72.1804 5.72944C72.1651 5.72531 72.1585 5.7253 72.1431 5.7067C72.0201 5.59508 71.8664 5.34084 72.2551 5.14447C72.2617 5.14034 72.2946 5.13 72.31 5.13L73.362 5.32224C74.8797 5.59095 76.4083 5.83072 77.9369 6.0891L78.5277 6.18832C78.5277 6.18832 79.4896 6.41569 80.1507 6.6348C81.2774 6.97999 80.7854 7.02339 80.0585 6.96138C80.0936 6.97585 79.6631 6.92418 79.2217 6.87457C78.778 6.82496 78.33 6.77328 78.33 6.77328L77.8249 6.68854C76.3006 6.43222 74.772 6.19245 73.2434 5.92374L72.1826 5.72944H72.1804Z" fill="#8267D7"/>
<path d="M71.8312 7.19592C71.8158 7.19179 71.8093 7.18972 71.7917 7.17112C71.7609 7.14013 71.728 7.10089 71.7016 7.05337C71.6819 7.00792 71.6401 6.94595 71.6643 6.89223C71.6775 6.84265 71.717 6.7972 71.7609 6.76001C71.7939 6.71043 71.8532 6.66292 71.9476 6.6216C71.9542 6.61954 71.985 6.60921 72.0003 6.60921C72.332 6.69184 72.6856 6.76621 73.0326 6.84059L74.335 7.10915L74.9214 7.22691C74.9214 7.22691 75.8724 7.47894 76.5312 7.70206C77.6535 8.05119 77.166 8.09458 76.4368 8.02847C76.5093 8.05739 74.7061 7.80535 74.7061 7.80535L74.201 7.70413L72.892 7.43556C72.5384 7.36119 72.1914 7.28681 71.8312 7.19798V7.19592Z" fill="#8267D7"/>
<path d="M49.4864 6.22082C49.4732 6.22908 49.4688 6.23114 49.4425 6.23114C49.2755 6.23114 48.9659 6.16297 49.0933 5.76425C49.0955 5.75599 49.1108 5.72707 49.1218 5.71674C49.4227 5.52255 49.7346 5.34074 50.0464 5.16514C51.0414 4.61149 52.0758 4.13427 53.1256 3.7025L53.6791 3.47732C53.6791 3.47732 54.6213 3.17363 55.3021 3.02075C56.4464 2.73566 56.0598 3.02282 55.4141 3.34303C55.4515 3.33683 55.0583 3.51244 54.6608 3.6963C54.2611 3.88017 53.857 4.06816 53.857 4.06816L53.387 4.26028C52.3525 4.68586 51.3422 5.15275 50.3781 5.68988C50.075 5.85928 49.7763 6.03488 49.4842 6.22288L49.4864 6.22082Z" fill="#8267D7"/>
<path d="M50.321 7.10501C50.3078 7.11328 50.3034 7.11534 50.2792 7.11327C50.1211 7.10501 49.8048 7.03064 49.952 6.63192C49.9542 6.62366 49.9717 6.59473 49.9827 6.5844C50.3012 6.40467 50.6196 6.24353 50.9403 6.08239C51.4586 5.82622 51.9791 5.58039 52.4997 5.33661L53.0377 5.08664C53.0377 5.08664 53.9558 4.73337 54.6191 4.53091C55.7326 4.15905 55.3768 4.47513 54.7574 4.84286C54.8321 4.82427 53.2486 5.66715 53.2486 5.66715L52.7874 5.882C52.2691 6.12371 51.7529 6.36956 51.2434 6.62159C50.9293 6.7786 50.6175 6.93767 50.321 7.10501Z" fill="#8267D7"/>
<path d="M50.6504 8.14417C50.6504 8.14417 50.6438 8.1483 50.6306 8.13797C50.5427 8.08839 50.3407 7.94585 50.3011 7.65869C50.3011 7.65249 50.3011 7.63183 50.3033 7.6277C50.3099 7.62357 50.4439 7.543 50.646 7.44177C50.848 7.34054 51.1182 7.22485 51.3905 7.12362C51.6606 7.02239 51.9308 6.93149 52.1306 6.86539C52.3283 6.79928 52.4601 6.75383 52.4601 6.75383C52.4601 6.75383 52.8225 6.69805 53.0948 6.69391C53.545 6.65879 53.4484 6.84266 53.22 7.00999C53.2354 7.00999 53.0948 7.09677 52.9477 7.17734C52.7983 7.25791 52.649 7.33641 52.649 7.33641C52.649 7.33641 52.5172 7.37979 52.3217 7.44797C52.1263 7.51408 51.8671 7.60084 51.6167 7.69587C51.3641 7.7909 51.1226 7.8942 50.9469 7.98303C50.7712 8.0698 50.6591 8.14004 50.6526 8.1421L50.6504 8.14417Z" fill="#8267D7"/>
<path d="M17.4845 86.0217C17.4845 86.0217 17.4933 86.0217 17.4999 86.0486C17.546 86.2014 17.6646 86.5939 17.4779 87.0505C17.4736 87.0588 17.4582 87.0898 17.4494 87.0939C17.4384 87.0939 17.221 87.0918 16.9201 87.0505C16.6192 87.0113 16.2349 86.9348 15.8637 86.8295C15.4925 86.7262 15.1345 86.596 14.8688 86.4886C14.6052 86.3812 14.4339 86.2965 14.4339 86.2965C14.4339 86.2965 14.3351 86.218 14.2099 86.1002C14.0869 85.9825 13.9419 85.8213 13.8475 85.6643C13.5093 85.1644 13.8695 85.1148 14.2033 85.1747C14.1967 85.1561 14.3856 85.216 14.5833 85.2656C14.7787 85.3152 14.9786 85.3585 14.9786 85.3585C14.9786 85.3585 15.1235 85.4288 15.3498 85.5218C15.576 85.6127 15.8878 85.7242 16.2041 85.8089C16.5204 85.8978 16.841 85.9597 17.0804 85.9887C17.2012 86.0052 17.2978 86.0114 17.3681 86.0176C17.4384 86.0217 17.4779 86.0217 17.4823 86.0217H17.4845Z" fill="#8267D7"/>
<path d="M10.3334 82.4271C10.3334 82.4271 10.34 82.4312 10.3334 82.4581C10.3027 82.6151 10.2082 83.0076 9.84585 83.3485C9.83926 83.3547 9.81071 83.3753 9.80412 83.3774C9.79533 83.3733 9.62622 83.2927 9.39781 83.1563C9.1672 83.0221 8.88168 82.8279 8.61374 82.6213C8.07346 82.2081 7.61663 81.7268 7.61663 81.7268C7.61663 81.7268 7.4014 81.3384 7.35747 81.0058C7.25205 80.4728 7.59247 80.5182 7.86701 80.6587C7.86701 80.6401 8.01416 80.7413 8.1679 80.8405C8.32383 80.9376 8.47757 81.0347 8.47757 81.0347C8.47757 81.0347 8.87949 81.452 9.3451 81.8053C9.57571 81.9829 9.81729 82.1461 10.0062 82.2536C10.1929 82.363 10.3246 82.4271 10.3312 82.4291L10.3334 82.4271Z" fill="#8267D7"/>
<path d="M4.9218 76.7727C4.9218 76.7727 4.92839 76.7789 4.9196 76.8037C4.89325 76.8822 4.83834 77.0144 4.73951 77.1611C4.63848 77.3078 4.49353 77.471 4.26292 77.5929C4.25414 77.597 4.22119 77.6115 4.21021 77.6094C4.19923 77.6032 4.00815 77.4627 3.77096 77.2314C3.53156 77.0021 3.25483 76.6777 3.01544 76.341C2.53226 75.6696 2.18525 74.961 2.18525 74.961C2.18525 74.961 2.1523 74.8349 2.12156 74.6593C2.09081 74.4837 2.06665 74.2606 2.07543 74.0685C2.06006 73.4343 2.3917 73.5727 2.65964 73.8495C2.66403 73.8289 2.8002 74.0044 2.94076 74.1801C3.08352 74.3557 3.22409 74.5313 3.22409 74.5313C3.22409 74.5313 3.54913 75.182 3.96862 75.7563C4.17507 76.0455 4.40568 76.31 4.59236 76.4877C4.77685 76.6695 4.91521 76.7665 4.9218 76.7727Z" fill="#8267D7"/>
<path d="M1.82499 69.9844C1.82499 69.9844 1.82938 69.9927 1.80742 70.0134C1.68662 70.129 1.37256 70.4183 0.845453 70.4451C0.836668 70.4451 0.799332 70.4431 0.790547 70.4369C0.786154 70.4265 0.678538 70.2158 0.568724 69.9101C0.456715 69.6043 0.342508 69.1994 0.259049 68.7965C0.0855439 67.9908 0.0262451 67.1893 0.0262451 67.1893C0.0262451 67.1893 0.0987213 66.6563 0.265638 66.2927C0.498443 65.6771 0.753211 65.9312 0.895968 66.2886C0.909146 66.27 0.966249 66.4869 1.02994 66.7059C1.09583 66.9248 1.16172 67.1459 1.16172 67.1459C1.16172 67.1459 1.22102 67.8876 1.37915 68.6065C1.45602 68.9659 1.55704 69.3172 1.64929 69.5692C1.73933 69.8233 1.8206 69.9782 1.82499 69.9865V69.9844Z" fill="#8267D7"/>
<path d="M1.12229 61.7539C1.12229 61.7539 1.1201 61.7663 1.08935 61.7725C0.915845 61.8242 0.485376 61.882 0.0395329 61.6052C0.0307479 61.601 0.00219627 61.5783 0 61.568C0 61.5556 0.0439261 61.3222 0.120796 60.9834C0.197665 60.6446 0.309675 60.2025 0.434862 59.7686C0.683041 58.8989 0.955378 58.0601 0.955378 58.0601C0.955378 58.0601 1.24089 57.5416 1.52641 57.2028C1.95907 56.614 2.1216 56.9384 2.12819 57.3805C2.16552 57.3453 2.03155 58.4093 2.03155 58.4093C2.03155 58.4093 1.7658 59.2397 1.5286 60.0682C1.41001 60.4834 1.30459 60.8987 1.23431 61.2147C1.16402 61.5308 1.12449 61.7436 1.12229 61.756V61.7539Z" fill="#8267D7"/>
<path d="M4.40572 52.8789C4.40572 52.8789 4.39913 52.8892 4.36838 52.8871C4.18829 52.883 3.75123 52.8293 3.41959 52.4306C3.413 52.4223 3.39324 52.3934 3.39543 52.3831C3.40202 52.3707 3.52281 52.1475 3.72926 51.8356C3.93352 51.5216 4.23221 51.1249 4.57044 50.7613C4.90427 50.3957 5.27544 50.061 5.56755 49.8276C5.85965 49.5941 6.0661 49.4536 6.0661 49.4536C6.0661 49.4536 6.21544 49.3813 6.42848 49.3028C6.64152 49.2243 6.91605 49.1437 7.15545 49.1086C7.94391 48.9702 7.76821 49.3235 7.45414 49.6313C7.4805 49.6313 7.27624 49.7966 7.08297 49.9722C6.98634 50.061 6.8919 50.1519 6.81942 50.2201C6.74914 50.2903 6.70302 50.3378 6.70302 50.3378C6.70302 50.3378 6.52512 50.4597 6.27474 50.6642C6.02217 50.8667 5.70371 51.158 5.416 51.4761C5.12609 51.7943 4.86913 52.1372 4.69343 52.4079C4.51553 52.6785 4.41231 52.8706 4.40791 52.8809L4.40572 52.8789Z" fill="#8267D7"/>
<path d="M11.3635 47.4869C11.3635 47.4869 11.3503 47.4931 11.3283 47.4745C11.1768 47.3753 10.8715 47.084 10.8495 46.5779C10.8495 46.5696 10.8517 46.5325 10.8583 46.5263C10.8715 46.5201 11.0999 46.4168 11.4382 46.2618C11.7786 46.111 12.2288 45.9168 12.6878 45.735C13.1469 45.5532 13.6125 45.388 13.9661 45.2723C14.3197 45.1566 14.5612 45.0884 14.5612 45.0884C14.5612 45.0884 14.726 45.0677 14.9522 45.0595C15.1784 45.0492 15.4661 45.0512 15.7055 45.0863C16.5071 45.1731 16.2282 45.4623 15.8241 45.6689C15.8483 45.6751 15.6001 45.7784 15.3475 45.89C15.0971 46.0057 14.8446 46.1234 14.8446 46.1234C14.8446 46.1234 14.6249 46.1854 14.2977 46.2949C13.9705 46.4023 13.5356 46.5593 13.1029 46.7308C12.6703 46.9022 12.2398 47.0861 11.9169 47.2328C11.5941 47.3795 11.3745 47.4807 11.3613 47.4869H11.3635Z" fill="#8267D7"/>
<path d="M20.8229 44.731C20.8229 44.731 20.8119 44.731 20.7965 44.7083C20.6999 44.5719 20.5 44.2104 20.5945 43.7249C20.5945 43.7166 20.6077 43.6836 20.6142 43.6774C20.6252 43.6753 20.8471 43.634 21.1677 43.5948C21.4906 43.5534 21.9122 43.5142 22.3317 43.4894C23.1707 43.4398 23.9877 43.4398 23.9877 43.4398C23.9877 43.4398 24.5236 43.5452 24.8926 43.7084C25.5229 43.9356 25.2703 44.1732 24.8816 44.3013C24.9014 44.3137 24.6686 44.3633 24.4314 44.4129C24.1942 44.4604 23.9548 44.5079 23.9548 44.5079C23.9548 44.5079 23.1619 44.512 22.38 44.5595C21.9891 44.5823 21.6026 44.6194 21.3127 44.6566C21.0228 44.6938 20.8317 44.7289 20.8207 44.731H20.8229Z" fill="#8267D7"/>
<path d="M29.7705 44.5038C29.7705 44.5038 29.7617 44.5038 29.7529 44.4769C29.6892 44.3261 29.5991 43.9357 29.7485 43.475C29.7507 43.4667 29.7639 43.4357 29.7705 43.4316C29.7792 43.4316 29.9549 43.4316 30.2119 43.4316C30.4689 43.4316 30.8115 43.4357 31.1563 43.444C31.5011 43.4522 31.8459 43.4688 32.1073 43.4894C32.3686 43.508 32.5443 43.5287 32.5443 43.5287C32.5443 43.5287 32.9924 43.6857 33.2691 43.9088C33.7435 44.2414 33.4536 44.4211 33.1373 44.4872C33.1505 44.5017 32.9616 44.5182 32.7706 44.5389C32.5773 44.5616 32.384 44.5864 32.384 44.5864C32.384 44.5864 32.2281 44.5699 31.9909 44.5534C31.7537 44.5368 31.433 44.5224 31.108 44.5141C30.7829 44.5058 30.4535 44.5038 30.2031 44.5038C29.9505 44.5038 29.7792 44.5038 29.7705 44.5038Z" fill="#8267D7"/>
<path d="M38.1316 45.2495C38.1316 45.2495 38.1206 45.2495 38.1074 45.2268C38.013 45.0884 37.8219 44.7269 37.9032 44.2435C37.9032 44.2352 37.9142 44.2021 37.9208 44.1959C37.9317 44.1939 38.1382 44.1567 38.4413 44.1174C38.7444 44.0761 39.1419 44.0389 39.5372 44.0141C40.3279 43.9625 41.101 43.9604 41.101 43.9604C41.101 43.9604 41.6061 44.0637 41.9553 44.2269C42.5483 44.4542 42.3111 44.6918 41.9443 44.8198C41.9641 44.8322 41.7445 44.8818 41.5226 44.9314C41.2986 44.9789 41.0746 45.0285 41.0746 45.0285C41.0746 45.0285 40.3301 45.0347 39.5965 45.0822C39.2297 45.107 38.8652 45.1421 38.5928 45.1793C38.3205 45.2144 38.1404 45.2475 38.1294 45.2495H38.1316Z" fill="#8267D7"/>
<path d="M46.4752 44.4335C46.4752 44.4335 46.4621 44.4377 46.4423 44.417C46.3061 44.2993 46.0492 43.9687 46.1019 43.4667C46.1019 43.4584 46.1107 43.4233 46.1194 43.4151C46.1458 43.4068 47.0748 43.1238 47.9973 42.8428C48.4541 42.7003 48.9043 42.5536 49.2381 42.4379C49.5698 42.3201 49.7894 42.2396 49.7894 42.2396C49.7894 42.2396 50.4 42.1301 50.8656 42.1053C51.6321 42.0123 51.4915 42.3408 51.116 42.6486C51.1445 42.6486 50.9095 42.8077 50.6613 42.9585C50.4132 43.1093 50.1562 43.2519 50.1562 43.2519C50.1562 43.2519 49.93 43.3366 49.5874 43.4543C49.2447 43.5741 48.7879 43.7229 48.3311 43.8654C47.4218 44.1443 46.5038 44.4253 46.4774 44.4335H46.4752Z" fill="#8267D7"/>
<path d="M54.9858 40.153C54.9858 40.153 54.9814 40.1634 54.9528 40.1654C54.7749 40.182 54.3423 40.1696 53.9426 39.8452C53.936 39.839 53.9096 39.8142 53.9096 39.8039C53.914 39.7936 53.9887 39.587 54.1117 39.2895C54.2347 38.992 54.4126 38.6057 54.6058 38.2318C54.9924 37.4798 55.4338 36.7794 55.4338 36.7794C55.4338 36.7794 55.8182 36.3766 56.1674 36.1452C56.7164 35.7279 56.7955 36.0646 56.7011 36.4592C56.723 36.4489 56.644 36.672 56.5605 36.8972C56.477 37.1224 56.3936 37.3496 56.3936 37.3496C56.3936 37.3496 55.9741 38.021 55.6205 38.7152C55.4426 39.0622 55.2801 39.4155 55.1703 39.6861C55.0583 39.9568 54.9924 40.1427 54.988 40.153H54.9858Z" fill="#8267D7"/>
<path d="M52.8269 38.0851C52.8005 38.0975 52.7896 38.1016 52.7413 38.0933C52.5809 38.0809 52.3745 38.021 52.2581 37.8805C52.1395 37.7401 52.1153 37.517 52.2581 37.1988C52.2625 37.1864 52.291 37.141 52.3108 37.1265C52.8225 36.8786 53.3079 36.5604 53.7625 36.201C54.4587 35.6494 55.0891 35.0028 55.6579 34.3107L55.7106 34.2466L55.7611 34.1847L55.8138 34.1165L56.0269 33.8376C56.1696 33.6537 56.3124 33.4657 56.4529 33.2674L56.8746 32.6869L57.0833 32.3997L57.136 32.3274C57.147 32.3378 57.1514 32.3791 57.1579 32.4018L57.1997 32.5691L57.5313 33.9161C57.5862 34.1413 57.6433 34.3623 57.707 34.5793L57.7575 34.7569L57.8059 34.916C57.8871 35.1866 57.975 35.4552 58.0716 35.7196C58.1814 36.0212 58.2978 36.3208 58.4296 36.6121C58.4296 36.6121 58.5548 36.986 58.7678 37.4756C58.9765 37.9673 59.2883 38.5706 59.5848 39.0581C59.8418 39.4671 60.0263 39.7295 60.1163 39.8989C60.2042 40.0683 60.1998 40.1427 60.1229 40.1427C59.9736 40.1427 59.5167 39.8493 59.0621 39.3907C59.0929 39.4506 58.5592 38.8928 58.1221 38.2441C57.8981 37.9239 57.6982 37.5831 57.5555 37.3269C57.4149 37.0687 57.3249 36.891 57.3249 36.891C57.2085 36.6183 57.0986 36.3415 56.9998 36.0646C56.8988 35.7816 56.8043 35.4965 56.7187 35.2114L56.6243 34.8933L56.5628 34.9676C55.9544 35.7072 55.2779 36.4055 54.5005 37.0232C53.9931 37.424 53.4397 37.7896 52.8291 38.0851H52.8269Z" fill="#8267D7"/>
</g>
</svg>
