<svg width="96" height="84" viewBox="0 0 96 84" fill="none" xmlns="http://www.w3.org/2000/svg">
<g opacity="0.4">
<path d="M64.0104 8.86874C64.0104 8.86874 64.0157 8.88109 63.9895 8.90579C63.8477 9.05643 63.4538 9.37995 62.8159 9.37007C62.8054 9.37007 62.7607 9.36512 62.7502 9.35524C62.745 9.34042 62.6268 9.08112 62.4824 8.69339C62.3354 8.30566 62.1647 7.79199 62.0151 7.27831C61.7158 6.25095 61.4874 5.23348 61.4874 5.23348C61.4874 5.23348 61.469 4.54198 61.5714 4.04065C61.6817 3.20098 62.0466 3.45782 62.3118 3.90976C62.3196 3.8826 62.4483 4.15919 62.5743 4.44319C62.7003 4.7272 62.8264 5.01368 62.8264 5.01368C62.8264 5.01368 63.0495 6.00151 63.3331 6.96466C63.4749 7.44624 63.6324 7.92041 63.7663 8.27109C63.8975 8.62425 64.0026 8.85392 64.0078 8.86626L64.0104 8.86874Z" fill="#8267D7"/>
<path d="M40.3996 61.8938L40.3523 61.8444C40.5203 61.9926 40.691 62.1679 40.8485 62.3358C40.5781 61.8938 40.2184 61.3949 39.7038 61.3455C39.7878 61.2023 39.4623 60.817 39.4255 60.8392C39.3258 60.7923 39.2286 60.7405 39.1341 60.6861C38.5329 60.3379 37.9973 59.8391 37.4013 59.3476C37.2359 59.2118 36.9129 58.9772 36.5821 58.75C36.2487 58.5302 35.9153 58.3079 35.721 58.1819L35.5556 58.0782C35.6151 58.121 35.6746 58.163 35.7341 58.2042C35.4663 58.1153 35.2195 58.0338 34.9963 57.9597C35.0226 57.9967 35.02 58.019 35.0961 58.0906L34.9937 58.0264C34.8624 58.0362 34.6314 57.9301 34.508 57.9103C34.5474 57.8905 34.4634 57.8436 34.3872 57.809L34.4082 57.8411C34.1194 57.7078 33.7597 57.6115 33.4867 57.5226C33.4473 57.5127 33.4237 57.4905 33.4106 57.4756L33.1375 57.4262C33.1716 57.3867 32.9275 57.3324 33.0614 57.3373C32.8461 57.3373 32.6492 57.2633 32.4418 57.2805C32.0952 57.2188 31.7276 57.1892 31.3627 57.1892C31.003 57.1867 30.6144 57.2188 30.2652 57.2978L30.2836 57.3126C30.0368 57.3694 29.8373 57.4905 29.538 57.5028C29.3384 57.5942 29.0444 57.6658 28.9683 57.7695C28.7215 57.809 28.6243 57.8634 28.3723 57.893C28.4379 57.9399 28.1281 57.9498 28.2489 57.9869C28.4222 58.0511 28.43 57.9967 28.5771 58.0436L28.5718 58.0288C29.2571 58.0634 29.9003 57.9597 30.4937 57.935C30.6932 57.8979 30.8875 57.8881 31.0975 57.9004C31.3128 57.9078 31.5281 57.9276 31.7329 57.9424C32.1818 57.972 32.6676 58.0437 33.0561 58.1128C33.1506 58.1252 33.2031 58.1819 33.2714 58.2264C33.6232 58.3104 34.0459 58.4857 34.4292 58.6289C34.424 58.6265 34.4161 58.6215 34.4109 58.6191C34.613 58.7006 34.7364 58.8142 34.9281 58.9006C34.9333 58.8883 34.9648 58.9006 34.9806 58.9006C34.9806 58.9377 35.2746 59.0488 35.5687 59.1772C35.8654 59.3056 36.1647 59.4439 36.1857 59.4785L36.2487 59.5081C36.6163 59.7724 36.9182 60.1329 37.2332 60.3527C37.3199 60.3774 37.4118 60.4169 37.4905 60.4318C37.5273 60.4935 37.5719 60.4614 37.6323 60.5157C37.7111 60.7405 37.8424 60.775 37.7898 60.6763C37.9369 60.7676 38.0629 60.8862 38.1837 60.98C38.2441 61.0171 38.3044 61.0541 38.3675 61.0936C38.4226 61.1257 38.4357 61.1603 38.4357 61.2023C38.567 61.2887 38.5092 61.2838 38.6247 61.3974C38.6247 61.4542 38.9844 61.6147 39.0107 61.6542L38.9871 61.6419C39.1236 61.7728 39.1551 61.916 39.289 62.0444C39.4675 62.2272 39.6671 62.4075 39.864 62.5853C40.0661 62.768 40.2657 62.9458 40.4494 63.1113C40.4862 63.0792 40.3576 63.0471 40.3943 62.9977C40.6175 63.1977 40.8039 63.4175 41.0271 63.6003C41.0586 63.6423 41.0927 63.6991 41.1006 63.7238C41.1609 63.7929 41.1583 63.741 41.2056 63.7855L41.1846 63.8225C41.2843 63.8571 41.266 63.946 41.3474 63.988C41.3631 63.9781 41.3894 63.9979 41.413 64.0176C41.3841 64.0522 41.4918 64.0769 41.4603 64.1041H41.4629C41.4786 64.1139 41.4891 64.1214 41.5023 64.1411C41.5416 64.1559 41.8803 64.272 41.9276 64.2868L41.9355 64.3041C41.9722 64.3362 42.0116 64.3263 41.9959 64.3016L42.0405 64.3436H42.0326L42.0772 64.3831C42.0825 64.393 42.0773 64.4177 42.051 64.4202C42.0878 64.4325 42.1219 64.4523 42.1403 64.4795C42.0956 64.398 42.0326 64.2893 41.9854 64.1905C42.03 64.2053 42.0667 64.2745 42.1061 64.2992C42.1271 64.356 42.1875 64.4474 42.2295 64.519C42.2453 64.5289 42.2925 64.5042 42.303 64.5486C42.2899 64.5857 42.3345 64.5807 42.3372 64.6202C42.2978 64.6054 42.2794 64.5733 42.2558 64.5461C42.2295 64.5782 42.2978 64.6301 42.3083 64.6573C42.3319 64.6597 42.3582 64.7165 42.3923 64.7388C42.3477 64.7486 42.3949 64.7807 42.3766 64.798C42.3792 64.8128 42.4002 64.8128 42.4081 64.8005C42.4291 64.7931 42.4264 64.7758 42.4238 64.761C42.4238 64.7462 42.4107 64.7239 42.4448 64.7264C42.4369 64.7486 42.4553 64.7709 42.4711 64.7857C42.4921 64.7758 42.4789 64.7659 42.5078 64.7659C42.5157 64.7808 42.5131 64.7733 42.5183 64.7733C42.521 64.7733 42.5236 64.7733 42.5131 64.7733C42.5052 64.7733 42.5078 64.7758 42.5078 64.7758C42.5 64.7684 42.4842 64.8079 42.4238 64.7857C42.3818 64.7807 42.3109 64.7561 42.3345 64.7733C42.3345 64.7684 42.3529 64.7709 42.3792 64.7783C42.4002 64.7832 42.4212 64.7857 42.4448 64.7931C42.4606 64.798 42.4684 64.8005 42.4711 64.7931C42.4763 64.7882 42.4816 64.7832 42.4894 64.7808C42.5026 64.7709 42.5131 64.7807 42.5131 64.7733C42.5209 64.7733 42.5603 64.7684 42.563 64.7635C42.5525 64.7635 42.542 64.7659 42.5314 64.7684C42.542 64.7684 42.5761 64.7388 42.5945 64.7388C42.6128 64.7733 42.3792 64.7091 42.4212 64.7289V64.7067C42.4501 64.7165 42.4842 64.7462 42.4684 64.7709C42.4842 64.756 42.5183 64.7832 42.5183 64.7733H42.5131C42.5131 64.7733 42.5262 64.7709 42.5525 64.7635C42.5446 64.7635 42.6023 64.7338 42.6653 64.7314C42.731 64.7239 42.8071 64.7462 42.7888 64.677C42.752 64.7412 42.7415 64.682 42.6916 64.6252C42.7021 64.6103 42.7126 64.5708 42.6864 64.519C42.6522 64.4844 42.6522 64.5091 42.6365 64.5091C42.6286 64.4819 42.605 64.4375 42.6286 64.4251C42.5761 64.4177 42.6023 64.3683 42.5603 64.3412C42.5209 64.3214 42.5525 64.3535 42.521 64.3412C42.4816 64.2942 42.4186 64.2325 42.3897 64.1955C42.3949 64.1634 42.3818 64.0942 42.4422 64.0942C42.5078 64.1633 42.3687 64.114 42.4474 64.1757C42.4579 64.1065 42.5236 64.2251 42.5682 64.2078C42.5656 64.1683 42.5183 64.1238 42.4737 64.0917V64.1041C42.4369 64.0769 42.3555 64.0226 42.3398 63.9658C42.3634 63.9584 42.3582 63.9337 42.3871 63.9534L42.3398 63.9065C42.3398 63.9065 42.3188 63.9065 42.3293 63.9213C42.2952 63.9114 42.2768 63.8867 42.2663 63.8621C42.2768 63.8398 41.9355 63.704 41.9538 63.7015C41.9171 63.6719 41.9302 63.6398 41.8803 63.6274C41.8646 63.6348 42.2794 63.8596 42.2269 63.8275C42.2138 63.7805 41.7386 63.5657 41.7438 63.5188C41.7149 63.499 41.6782 63.4743 41.6703 63.4966C41.6309 63.4521 41.7123 63.4768 41.6913 63.4348C41.6887 63.4348 41.686 63.4447 41.6755 63.4348L41.6624 63.3904C41.5679 63.3583 41.4918 63.2422 41.3867 63.2175C41.4235 63.2175 41.476 63.2051 41.539 63.2274V63.2422C41.539 63.2422 41.5968 63.2694 41.6099 63.2521C41.5731 63.2051 41.5311 63.178 41.4681 63.1557C41.4629 63.1434 41.4576 63.131 41.4524 63.1212C41.4524 63.1212 41.4524 63.1261 41.4471 63.1286C41.4392 63.1064 41.4445 63.1063 41.455 63.1039C41.455 63.1039 41.4576 63.1039 41.4629 63.1039C41.476 63.0323 41.2555 62.9927 41.1925 62.9014C41.161 62.889 41.182 62.9088 41.1452 62.8915C41.0769 62.8051 41.0323 62.7433 40.9535 62.6618C40.9063 62.6594 40.8984 62.6643 40.9115 62.7137L40.8538 62.652C40.9614 62.647 40.7829 62.5013 40.8984 62.5013C40.8905 62.4741 40.8564 62.4396 40.817 62.4173C40.8013 62.4272 40.775 62.4445 40.7304 62.405C40.6857 62.3309 40.6936 62.3506 40.6595 62.2864C40.6647 62.2593 40.691 62.2691 40.7015 62.2543C40.5991 62.2025 40.67 62.1531 40.5912 62.0889C40.5387 62.0494 40.4442 61.9679 40.4101 61.995C40.3471 61.9358 40.3707 61.9135 40.3996 61.8962V61.8938Z" fill="#8267D7"/>
<path d="M17.7207 73.5874L17.7443 73.6541C17.6971 73.5528 17.6577 73.4367 17.6183 73.3231C17.5842 73.2071 17.5527 73.0762 17.5317 72.9626C17.5238 73.2367 17.571 73.5479 17.6656 73.7899C17.7601 74.0393 17.9123 74.2517 18.1434 74.3653C18.0069 74.4715 18.1802 74.9506 18.2248 74.9383C18.3035 75.0148 18.3797 75.0963 18.4532 75.1778C18.4059 75.1235 18.3561 75.0667 18.3035 75.0074C18.3561 75.0667 18.4033 75.121 18.4532 75.1778C18.9153 75.6915 19.3038 76.3089 19.7764 76.9065C19.9103 77.0646 20.1466 77.3634 20.4144 77.6524C20.677 77.9438 20.95 78.2278 21.0944 78.3883L21.2231 78.5266C21.1776 78.4723 21.1329 78.4188 21.0892 78.3661C21.3176 78.5143 21.5276 78.6476 21.7167 78.7711C21.7009 78.7291 21.7114 78.7069 21.6615 78.6229L21.7403 78.7094C21.8663 78.7316 22.0527 78.8921 22.1604 78.944C22.1184 78.9538 22.184 79.0156 22.2418 79.0724L22.2339 79.0353C22.457 79.2403 22.759 79.4329 22.9716 79.6034C23.0031 79.6256 23.0163 79.6528 23.0215 79.6725L23.2499 79.8083C23.2027 79.833 23.3996 79.9689 23.2788 79.917C23.4705 79.9911 23.6149 80.1294 23.8039 80.1911C24.3579 80.564 24.9854 80.9172 25.6365 81.1864L25.6312 81.1641C25.8623 81.2531 26.0933 81.2778 26.3454 81.4284C26.5607 81.4704 26.8521 81.5568 26.9676 81.5025C27.1908 81.5889 27.3037 81.5692 27.5295 81.6309C27.4901 81.5667 27.7631 81.6556 27.6686 81.5815C27.5505 81.4654 27.5216 81.5148 27.4218 81.421V81.4383C26.8888 81.1592 26.3716 80.8579 25.8518 80.5443C25.4763 80.3788 25.114 80.122 24.7543 79.8997C24.3684 79.6651 23.9457 79.4107 23.5965 79.2008C23.5125 79.1564 23.4836 79.0847 23.4337 79.0205C23.1318 78.818 22.7852 78.5217 22.457 78.2796C22.4623 78.2846 22.4675 78.2895 22.4702 78.2945C22.3021 78.1586 22.2129 78.0203 22.0501 77.887C22.0422 77.8968 22.016 77.8771 22.0002 77.8697C22.016 77.808 20.9973 77.1239 20.9815 77.0374L20.929 76.9954C20.6481 76.6571 20.4223 76.2373 20.1807 75.9706C20.1046 75.9286 20.0259 75.8742 19.955 75.8421C19.9366 75.7755 19.8841 75.7952 19.8421 75.731C19.8289 75.4989 19.7134 75.4371 19.737 75.5433C19.6241 75.4198 19.5375 75.2815 19.4535 75.1605C19.4089 75.1111 19.3616 75.0593 19.3143 75.0074C19.2723 74.963 19.2723 74.9284 19.2828 74.8864C19.1883 74.7703 19.2408 74.7901 19.1726 74.6518C19.1936 74.5999 18.9127 74.348 18.9074 74.3011L18.9258 74.3209C18.847 74.1603 18.8759 74.0171 18.8024 73.859C18.7079 73.6343 18.6134 73.4071 18.5188 73.1799C18.469 73.0688 18.4322 72.9626 18.4033 72.8588C18.3718 72.7477 18.3455 72.6391 18.3245 72.5329C18.2747 72.5378 18.356 72.6242 18.2957 72.6415C18.2432 72.3896 18.2563 72.1204 18.2222 71.8562C18.2274 71.8068 18.2432 71.7451 18.2537 71.7204C18.2589 71.6339 18.2222 71.6734 18.2195 71.6117L18.2615 71.5969C18.2116 71.5104 18.2904 71.4561 18.2615 71.3722C18.2432 71.3722 18.2353 71.3376 18.2327 71.3079C18.2799 71.3005 18.2143 71.2116 18.2589 71.2116H18.2563C18.2563 71.1919 18.2484 71.1795 18.2563 71.1548C18.2353 71.1227 18.0567 70.8017 18.0305 70.7671L18.0357 70.7498C18.0252 70.6979 17.9885 70.6831 17.9832 70.7128L17.9754 70.6485L17.9806 70.656L17.9727 70.5917C17.9727 70.5917 17.9937 70.5621 18.0174 70.5769C17.9964 70.5448 17.978 70.5053 17.9806 70.4683C17.9727 70.5745 17.9517 70.7004 17.9228 70.8115C17.9018 70.772 17.9123 70.693 17.8992 70.6461C17.9202 70.5868 17.9255 70.4683 17.9281 70.3769C17.9229 70.3571 17.8677 70.3547 17.8808 70.3053C17.9123 70.2756 17.8677 70.2559 17.8861 70.2139C17.915 70.2534 17.915 70.2954 17.9228 70.3398C17.9622 70.325 17.9281 70.2287 17.9307 70.1917C17.915 70.1793 17.9071 70.0904 17.8808 70.0386C17.9255 70.0534 17.894 69.9892 17.9071 69.9521C17.9018 69.9151 17.8782 69.8928 17.8677 69.9126C17.8231 69.9126 17.8808 70.0633 17.8231 70.0237C17.8415 70.0065 17.8152 69.9373 17.7994 69.8978C17.7758 69.9027 17.789 69.9274 17.7601 69.9101C17.7522 69.8657 17.7102 69.8286 17.7259 69.799C17.7338 69.8039 17.7364 69.8237 17.7391 69.836C17.7259 69.7768 17.9806 70.0978 17.9439 70.0311C17.9307 70.0534 17.7128 69.7471 17.7207 69.7867C17.7207 69.8237 17.6708 69.7768 17.6734 69.8114L17.7128 69.841C17.7181 69.8904 17.6839 69.92 17.6629 69.9101C17.6446 69.8286 17.8887 70.0929 17.8441 70.0311L17.8388 70.0608C17.8152 70.0361 17.7837 69.962 17.7994 69.9274C17.7758 69.9324 17.7548 69.8953 17.7364 69.8657V69.8533C17.7154 69.8237 17.7049 69.7743 17.6813 69.8064C17.7443 69.9941 17.4109 69.7521 17.4529 69.9373C17.4818 69.8484 17.5133 69.9472 17.5422 70.0237C17.5264 70.0361 17.5106 70.0781 17.5106 70.1349C17.5264 70.1818 17.5369 70.1596 17.5526 70.1645C17.5474 70.1941 17.5526 70.2485 17.5211 70.246C17.5632 70.2781 17.5133 70.3102 17.5343 70.3522C17.5579 70.3892 17.5474 70.3473 17.571 70.3719C17.5815 70.4337 17.592 70.5177 17.5947 70.5671C17.5737 70.5893 17.5369 70.6535 17.4896 70.6189C17.4791 70.5275 17.5605 70.6436 17.5343 70.5498C17.4844 70.5992 17.5028 70.4683 17.4555 70.4609C17.4345 70.4954 17.445 70.5547 17.4634 70.6041L17.4686 70.5917C17.4844 70.6337 17.5133 70.7226 17.4896 70.7745C17.466 70.7671 17.4555 70.7893 17.445 70.7572L17.4529 70.8189C17.4529 70.8189 17.4686 70.8338 17.4713 70.814C17.4923 70.8412 17.487 70.8708 17.4791 70.8955C17.4581 70.9054 17.6235 71.2116 17.6078 71.2042C17.6157 71.2487 17.5842 71.2635 17.613 71.3055C17.6314 71.3055 17.4739 70.8906 17.4896 70.9474C17.4739 70.9869 17.676 71.4388 17.6367 71.4709C17.6419 71.503 17.655 71.5425 17.6761 71.5327C17.6761 71.5895 17.6314 71.5203 17.6157 71.5648C17.6183 71.5648 17.6262 71.5598 17.6262 71.5722L17.6025 71.6142C17.6498 71.6957 17.6235 71.829 17.6839 71.9155C17.655 71.8932 17.6078 71.8685 17.5763 71.8117L17.5868 71.7994C17.5868 71.7994 17.5632 71.7451 17.5422 71.75C17.5369 71.8068 17.5474 71.8562 17.5789 71.9105C17.5737 71.9229 17.571 71.9352 17.5658 71.9451C17.5684 71.9451 17.571 71.9451 17.5737 71.9451C17.5632 71.9673 17.5605 71.9648 17.55 71.9599C17.55 71.9599 17.5474 71.9599 17.5448 71.9574C17.4844 72.0019 17.6209 72.1723 17.6078 72.2785C17.6235 72.3081 17.6183 72.2785 17.6393 72.3155C17.634 72.4242 17.6288 72.5008 17.6393 72.6119C17.676 72.6415 17.6866 72.6415 17.7076 72.5946L17.7181 72.6786C17.6262 72.6168 17.6839 72.849 17.5894 72.7798C17.5789 72.807 17.5894 72.8588 17.613 72.9033C17.634 72.9033 17.6656 72.9033 17.6813 72.9626C17.6813 73.0515 17.6813 73.0243 17.6813 73.1058C17.6629 73.128 17.6445 73.1058 17.6262 73.1132C17.6918 73.212 17.6025 73.2268 17.6445 73.3256C17.6761 73.3849 17.7259 73.5034 17.7679 73.4935C17.7994 73.575 17.7679 73.5849 17.7338 73.5899L17.7207 73.5874Z" fill="#8267D7"/>
<path d="M27.0516 77.5388V77.4573C27.0674 77.724 27.0674 78.0006 27.07 78.2747C27.1225 77.9734 27.175 77.6474 27.175 77.3362C27.175 77.1856 27.1619 77.0127 27.1199 76.8769C27.0805 76.7361 27.0227 76.6151 26.9413 76.504C27.1015 76.4472 27.1776 75.8866 27.1383 75.8742C27.1094 75.7557 27.0884 75.6372 27.0726 75.5137C27.0385 75.242 27.0333 74.9605 27.0516 74.6715L27.0595 74.5604L27.07 74.4888C27.0779 74.4419 27.0884 74.3999 27.1015 74.3678C27.1777 74.3999 27.2564 74.4666 27.301 74.5061C27.3063 74.511 27.3115 74.516 27.3194 74.5209C27.3194 74.5209 27.3352 74.5308 27.3536 74.5431C27.3719 74.553 27.3903 74.5653 27.4087 74.5752C27.4848 74.6197 27.5715 74.6691 27.6634 74.7234C27.8498 74.8296 28.0729 74.9531 28.3092 75.0667C28.4274 75.1235 28.5508 75.1778 28.6742 75.2272C28.7424 75.2519 28.7844 75.2717 28.8711 75.2988C28.9761 75.3285 29.0759 75.3581 29.1756 75.3877C29.2754 75.4149 29.3725 75.4396 29.4671 75.4643L29.5379 75.484C29.5616 75.4939 29.5747 75.4618 29.5931 75.4544C29.6272 75.4272 29.6614 75.3976 29.6929 75.3704C29.8268 75.2618 29.9449 75.163 30.0473 75.0815L30.2206 74.9531C30.1707 74.9877 30.1444 75.0025 30.1208 75.0198C30.1077 75.0272 30.0945 75.037 30.0788 75.0469C30.0578 75.0617 30.0578 75.0568 29.9948 75.1087C30.105 74.9876 30.2101 74.8716 30.3098 74.7629C30.4044 74.6592 30.5041 74.5629 30.6039 74.4666C30.5488 74.4789 30.5304 74.4666 30.4175 74.5135L30.5383 74.4394C30.596 74.311 30.8349 74.1356 30.9294 74.0294C30.9294 74.0739 31.0213 74.0146 31.1027 73.9603L31.0555 73.9652C31.3653 73.7553 31.6987 73.4763 31.9665 73.2713C32.0033 73.2416 32.04 73.2293 32.0663 73.2268L32.3026 73.0021C32.3157 73.0539 32.5389 72.8564 32.4391 72.9799C32.5887 72.7798 32.7988 72.6391 32.9222 72.4316C33.5129 71.834 34.0196 71.1276 34.4161 70.3917L34.3898 70.3991C34.5263 70.1398 34.5789 69.878 34.7889 69.594C34.8624 69.3495 35.0068 69.026 34.9674 68.8951C35.0934 68.6383 35.104 68.5173 35.2142 68.258C35.1355 68.2999 35.2877 67.9912 35.188 68.0974C35.0383 68.2308 35.0856 68.2654 34.9596 68.3814H34.9779C34.5605 68.9988 34.1562 69.6088 33.7203 70.1991C33.4788 70.6263 33.127 71.0264 32.804 71.4191C32.6281 71.6339 32.4496 71.8414 32.2632 72.0389C32.0742 72.2365 31.8851 72.4242 31.7118 72.5897C31.6331 72.6736 31.5386 72.6934 31.4467 72.7354C31.1132 73.0243 30.6328 73.3454 30.2337 73.6788C30.2416 73.6738 30.2494 73.6689 30.2547 73.6639C30.0394 73.8368 29.8399 73.9257 29.6351 74.106C29.6456 74.1159 29.6141 74.143 29.601 74.1603C29.58 74.1554 29.4986 74.2245 29.3857 74.3332C29.3725 74.3456 29.3568 74.3604 29.3437 74.3752C29.3437 74.3752 29.3384 74.3851 29.3332 74.39C29.3253 74.4024 29.3148 74.4172 29.3043 74.4295C29.2938 74.4419 29.2833 74.4641 29.2701 74.474H29.215C29.1966 74.474 29.1756 74.474 29.1546 74.474H29.1205L29.0549 74.4567C28.9682 74.4369 28.8868 74.4147 28.8159 74.3925C28.6742 74.348 28.5718 74.3085 28.556 74.2888L28.4773 74.2616C28.2383 74.1332 28.0099 73.9652 27.7789 73.8072C27.7605 73.7924 27.6949 73.7553 27.6502 73.7282C27.6003 73.6985 27.5505 73.6689 27.5006 73.6392C27.4008 73.58 27.2984 73.5281 27.1987 73.4762C26.9991 73.3775 26.7996 73.291 26.6158 73.2194C26.5344 73.2071 26.4346 73.175 26.3743 73.1824C26.3769 73.2737 26.3821 73.3552 26.3874 73.4293C26.348 73.5256 26.3926 73.6121 26.3716 73.7553C26.2902 73.8887 26.2535 74.0541 26.2456 74.1406C26.2404 74.2295 26.264 74.2443 26.2981 74.1529C26.2929 74.2369 26.2876 74.3184 26.2824 74.3999C26.2771 74.4715 26.2692 74.5407 26.264 74.6098C26.2561 74.7111 26.2456 74.8098 26.2404 74.9037C26.2456 74.9901 26.2509 75.0766 26.2535 75.1655C26.2614 75.2396 26.2377 75.2791 26.2062 75.3161C26.2167 75.5063 26.1852 75.4495 26.1642 75.6495C26.1143 75.6964 26.2298 76.1533 26.2193 76.2076L26.2115 76.1755C26.2062 76.4052 26.1196 76.5633 26.1275 76.7929C26.1327 77.3906 26.18 78.0771 26.2193 78.6575C26.2692 78.6575 26.1983 78.5315 26.2614 78.5192C26.2824 78.86 26.2587 79.2132 26.3086 79.5638C26.3086 79.6281 26.2929 79.7095 26.285 79.7416C26.2876 79.8577 26.3191 79.8034 26.3296 79.8874L26.2876 79.9071C26.348 80.0207 26.2745 80.0899 26.3191 80.2035C26.3375 80.2059 26.3506 80.2479 26.3585 80.2874C26.3349 80.2924 26.3454 80.3245 26.3532 80.3541C26.3637 80.3887 26.3769 80.4282 26.3532 80.4282H26.3559C26.3638 80.4578 26.3743 80.485 26.3769 80.5171C26.411 80.5838 26.7024 80.9493 26.7392 80.974V80.9962C26.7681 81.053 26.8101 81.0629 26.8022 81.0283L26.8311 81.0999L26.8258 81.0925L26.8521 81.1617C26.8521 81.1765 26.839 81.1963 26.8127 81.1864C26.8442 81.2185 26.8705 81.258 26.8783 81.3C26.8652 81.1864 26.8442 81.0382 26.8363 80.9024C26.8731 80.9444 26.8862 81.0382 26.9125 81.0876C26.9098 81.1592 26.9361 81.2901 26.9492 81.3889C26.9597 81.4086 27.0149 81.4062 27.007 81.458C26.9807 81.4901 27.0254 81.5074 27.0122 81.5519C26.9781 81.5148 26.9755 81.4728 26.9597 81.4284C26.923 81.4506 26.9676 81.542 26.965 81.5766C26.9834 81.5889 26.9912 81.6704 27.0096 81.7099C26.965 81.6976 26.9912 81.7494 26.9702 81.7717C26.9702 81.7988 26.986 81.8087 26.9991 81.7988C27.0464 81.8087 27.0122 81.6902 27.0648 81.7223C27.0438 81.7346 27.0621 81.7914 27.0595 81.8112C27.0831 81.8112 27.0779 81.7939 27.1015 81.8112C27.1015 81.8433 27.1225 81.8655 27.0963 81.8754C27.091 81.8705 27.0963 81.863 27.0963 81.8556C27.0963 81.8705 27.0595 81.8309 27.0175 81.784C26.9755 81.7371 26.9282 81.6877 26.9387 81.7124C26.9492 81.7025 26.9965 81.7593 27.0306 81.8063C27.0464 81.826 27.0621 81.8482 27.0726 81.8606C27.0831 81.8705 27.091 81.8877 27.091 81.8779C27.1041 81.8606 27.133 81.9001 27.1435 81.8803L27.1173 81.8556C27.1304 81.8334 27.1698 81.8112 27.1881 81.826C27.1881 81.8828 27.0096 81.663 27.0359 81.7124L27.0411 81.6877C27.0647 81.7124 27.0831 81.7717 27.0595 81.7939C27.0831 81.7939 27.091 81.8186 27.1015 81.8408C27.1015 81.8408 27.0989 81.8458 27.0963 81.8458C27.1041 81.863 27.0989 81.8877 27.1304 81.8803C27.133 81.826 27.196 81.8408 27.2538 81.8754C27.3142 81.9075 27.3746 81.9594 27.3929 81.8606C27.3299 81.9347 27.3457 81.8334 27.3299 81.7494C27.3457 81.7396 27.3719 81.6976 27.3693 81.6309C27.3536 81.5741 27.3431 81.6013 27.3273 81.5939C27.3326 81.5617 27.3247 81.4975 27.3536 81.5C27.3089 81.463 27.3536 81.4235 27.3247 81.3741C27.2958 81.3321 27.3115 81.3815 27.2853 81.3518C27.2643 81.2827 27.2328 81.1839 27.2144 81.1246C27.2302 81.095 27.2459 81.0135 27.3037 81.0456C27.343 81.1543 27.2249 81.0283 27.28 81.1345C27.3168 81.0678 27.3352 81.2259 27.3851 81.2333C27.3982 81.1888 27.3693 81.1172 27.3378 81.058V81.0728C27.3063 81.0234 27.2512 80.9221 27.2538 80.8554C27.28 80.8604 27.2827 80.8307 27.3037 80.8678L27.2748 80.7937C27.2748 80.7937 27.2538 80.7789 27.259 80.8036C27.2302 80.7764 27.2223 80.7394 27.2223 80.7073C27.238 80.6925 26.9755 80.3591 26.9991 80.364C26.9781 80.3121 27.007 80.2899 26.9702 80.2455C26.9387 80.2504 27.2275 80.7171 27.196 80.6505C27.196 80.6233 27.1094 80.4899 27.0333 80.3516C26.9571 80.2158 26.9072 80.0652 26.9204 80.0454C26.9099 80.0059 26.8941 79.9565 26.8757 79.9713C26.8731 79.8997 26.923 79.9837 26.9335 79.9318C26.9309 79.9318 26.923 79.9368 26.9204 79.9219L26.9387 79.8701C26.8836 79.7713 26.8994 79.6083 26.8363 79.5021C26.8652 79.5317 26.9125 79.5614 26.9492 79.6305L26.9387 79.6453C26.9387 79.6453 26.965 79.712 26.9886 79.7071C26.9886 79.6379 26.9755 79.5811 26.944 79.512C26.9466 79.4972 26.9519 79.4823 26.9545 79.47C26.9519 79.47 26.9492 79.47 26.9466 79.47C26.9571 79.4453 26.9597 79.4478 26.9702 79.4552C26.9702 79.4552 26.9729 79.4552 26.9755 79.4601C27.0332 79.4083 26.8941 79.2008 26.9125 79.0699C26.8993 79.0353 26.902 79.0699 26.8836 79.023C26.8941 78.8921 26.9046 78.8032 26.9072 78.6698C26.8757 78.6303 26.8626 78.6279 26.839 78.6822V78.5809C26.923 78.6674 26.8941 78.3883 26.9781 78.4822C26.9939 78.4525 26.9912 78.3908 26.9755 78.3364C26.9571 78.3315 26.9256 78.3241 26.9204 78.255C26.9387 78.1537 26.9309 78.1784 26.9492 78.0944C26.9729 78.0747 26.9834 78.1043 27.0044 78.0994C26.965 77.9759 27.0516 77.9858 27.0411 77.8672C27.0306 77.7931 27.0201 77.6449 26.9755 77.6425C26.9729 77.5412 27.0044 77.5388 27.0411 77.5486L27.0516 77.5388Z" fill="#8267D7"/>
<path d="M17.7286 48.674L17.4897 48.5579C18.2721 48.9283 19.0623 49.3729 19.8185 49.8396C19.4168 49.5729 19.0046 49.2741 18.5583 49.0222C18.3351 48.8938 18.1119 48.7653 17.8914 48.6369C17.6656 48.5134 17.4346 48.4048 17.2062 48.2936C16.9777 48.1874 16.7546 48.0738 16.5261 47.9849C16.2977 47.896 16.0746 47.8121 15.8567 47.738C15.4234 47.5799 14.9981 47.4836 14.6148 47.4243C14.5308 47.2021 12.7323 46.555 12.6798 46.5921C12.2886 46.5155 11.8948 46.434 11.4984 46.3451C10.2224 46.0858 8.88076 45.9129 7.49713 45.8364C7.15057 45.8166 6.80401 45.8043 6.4522 45.7944C6.27367 45.7919 6.09251 45.7894 5.91135 45.7845C5.73545 45.7894 5.59368 45.787 5.42565 45.7771C4.76665 45.7302 4.06827 45.6314 3.4014 45.498C3.26225 45.4684 3.1126 45.4388 2.9472 45.3918C2.83956 45.3622 2.67414 45.2832 2.4746 45.1844C2.27507 45.0856 2.04403 44.9671 1.74736 44.8708C1.68434 44.8436 1.54257 44.8214 1.43492 44.7967C1.37716 44.7843 1.31939 44.7868 1.26163 44.7794C1.20387 44.7744 1.14349 44.7695 1.08836 44.7794C0.849441 44.7794 0.647279 44.8683 0.447743 44.9745C0.290215 45.0634 0.164188 45.177 0.0827985 45.3301C0.00140879 45.4832 -0.0169721 45.6536 0.0145336 45.8191C0.0434138 45.9845 0.124802 46.155 0.242949 46.3155C0.300709 46.397 0.366357 46.476 0.434619 46.5526L0.581645 46.7106C0.74705 46.881 0.909829 47.0341 1.0411 47.1749C1.10411 47.244 1.1645 47.3132 1.18813 47.3502L1.19337 47.3601C1.19337 47.3601 1.19337 47.3626 1.19337 47.3651C1.19862 47.3651 1.17762 47.3749 1.21701 47.3601L1.29577 47.333H1.30102C1.25376 47.3502 1.41129 47.2836 1.19862 47.3749V47.3799V47.3873L1.21701 47.4194L1.27476 47.5503C1.55306 48.227 1.65283 48.9308 1.72372 49.3926C1.75523 49.6099 1.78412 49.8248 1.81562 50.0421C1.78587 49.8001 1.75523 49.5589 1.72372 49.3185C1.92851 50.2076 2.07291 51.0522 2.30396 51.8746C2.29608 51.7239 2.30395 51.6918 2.26982 51.3436C2.29083 51.4844 2.31708 51.6251 2.34596 51.7659C2.42209 51.9487 2.52712 52.2648 2.64526 52.571C2.75553 52.8674 2.86842 53.1736 2.94981 53.3662C2.8868 53.2921 2.98658 53.6033 3.07847 53.8774L3.06272 53.7614C3.41191 54.7986 3.90549 55.9791 4.29931 56.8805C4.35444 57.0064 4.38595 57.1052 4.39908 57.1669C4.5356 57.4509 4.68 57.7325 4.8244 58.014C4.74564 57.9671 5.13421 58.7376 4.90579 58.3425C5.26811 58.9673 5.62517 59.602 6.03474 60.1502C7.3396 62.205 9.06455 64.2004 11.0048 65.855L10.9706 65.8007C11.6506 66.3786 12.307 66.8305 13.1865 67.4677C13.8613 67.8628 14.8275 68.4061 15.1478 68.4827C15.9249 68.9322 16.2636 69.068 17.0302 69.5101C16.8648 69.3495 17.7916 69.9175 17.4451 69.6558C16.9856 69.2878 16.9252 69.3199 16.5288 69.0186V69.0408C15.5573 68.4136 14.5728 67.8184 13.646 67.1639C13.1839 66.8355 12.735 66.4971 12.3149 66.1341C11.8896 65.7661 11.4721 65.3784 11.0625 64.9857C9.93095 63.9682 8.85713 62.7236 7.91196 61.4813C7.4 60.8146 6.89853 60.0984 6.44695 59.3846C6.22115 59.0266 6.00587 58.6783 5.81421 58.3351C5.62518 57.9918 5.44927 57.646 5.28912 57.3275C5.13159 57.0212 5.06858 56.7817 4.97406 56.5051C4.42271 55.3049 3.85299 53.7268 3.35677 52.3142C3.36465 52.3413 3.37251 52.366 3.37777 52.3833C3.12047 51.6622 3.07847 51.0892 2.94194 50.3335C2.92882 50.3385 2.90781 50.2224 2.89206 50.1656C2.90256 50.131 2.85792 49.8347 2.77391 49.3975C2.68989 48.9629 2.57176 48.3875 2.37222 47.8071C2.32496 47.6614 2.2672 47.5182 2.20681 47.3774C2.17793 47.3058 2.1438 47.2391 2.10967 47.1724L2.05979 47.0736L2.03615 47.0243L1.99939 46.9576C1.88912 46.7822 1.78149 46.6859 1.68172 46.5847C1.58195 46.4933 1.49006 46.4044 1.40079 46.3229C1.31415 46.2438 1.23801 46.1722 1.17238 46.1056C1.14875 46.0833 1.12774 46.0611 1.10674 46.0389C1.09099 46.0241 1.07785 46.0068 1.06472 45.9944C1.01484 45.9376 0.991216 45.8932 0.98859 45.8783C0.967586 45.8438 0.946574 45.8018 0.946574 45.7598C0.951825 45.6833 1.03322 45.6437 1.09886 45.6166C1.18812 45.5771 1.29314 45.582 1.37978 45.6067L1.44805 45.6289L1.56357 45.6709C1.64233 45.703 1.72372 45.7401 1.80511 45.7796C1.97839 45.8685 2.15168 45.9598 2.32234 46.0488C2.41685 46.0932 2.51923 46.1426 2.63738 46.1821C2.75815 46.2216 2.84218 46.2439 2.9472 46.271C3.73484 46.4587 4.46997 46.5674 5.17885 46.6143C5.34951 46.6094 5.52803 46.6069 5.71182 46.5896C5.8746 46.5723 6.0295 46.5526 6.16865 46.5377C6.42332 46.5674 6.47845 46.513 6.78825 46.5279C7.5759 46.6736 8.03799 46.6662 7.63366 46.5921C8.28478 46.6143 8.93327 46.6933 9.503 46.7748C9.76817 46.8045 10.0334 46.8415 10.2985 46.881C10.5243 46.9156 10.6451 46.96 10.7501 47.0144C11.3225 47.128 11.1466 47.1181 11.7399 47.291C11.8055 47.333 12.1836 47.4144 12.5669 47.4984C12.945 47.5947 13.3283 47.6911 13.4097 47.7232L13.3126 47.6985C13.6513 47.8071 13.9269 47.9207 14.1921 48.0467C14.4599 48.1677 14.7251 48.2887 15.048 48.4097C16.8281 49.1358 18.7027 50.0742 20.1729 51.0472C20.2149 51.0176 19.8395 50.8472 19.8579 50.7855C20.0758 50.9287 20.2911 51.0719 20.5116 51.2176C20.7243 51.3683 20.9317 51.5263 21.1417 51.6819C21.5671 51.9857 21.9635 52.324 22.3809 52.6401C22.5253 52.7612 22.6829 52.9291 22.7406 52.9933C22.9848 53.218 22.9087 53.102 23.0925 53.26V53.3119C23.3891 53.5095 23.4574 53.6774 23.7199 53.8873C23.7462 53.8873 23.8381 53.9663 23.9274 54.0454C23.8985 54.0824 24.203 54.2849 24.161 54.3022H24.1663C24.2188 54.3491 24.2608 54.3812 24.3186 54.4454C24.4262 54.5294 25.4528 55.3147 25.5552 55.4086L25.5945 55.4604C25.7311 55.5963 25.8124 55.6308 25.7416 55.5469L25.9043 55.7173L25.8833 55.7L26.0461 55.8679C26.0724 55.9025 26.0907 55.9494 26.0304 55.9149C26.1354 55.9988 26.2509 56.0976 26.3323 56.2013C26.0986 55.9173 25.8019 55.5666 25.5656 55.2604C25.689 55.3641 25.8728 55.5839 25.9989 55.7025C26.1223 55.8679 26.4006 56.1865 26.6053 56.4433C26.6579 56.4952 26.7287 56.4977 26.8233 56.6335C26.8495 56.715 26.9519 56.7693 27.0228 56.8829C26.902 56.7792 26.8022 56.6631 26.6972 56.5446C26.6841 56.5915 26.9388 56.8459 27.0149 56.9447C27.0674 56.9768 27.2617 57.2139 27.3956 57.3522C27.309 57.3151 27.477 57.4831 27.5374 57.5818C27.6188 57.6831 27.687 57.7349 27.6634 57.6856C27.7264 57.6905 27.3431 57.283 27.498 57.3892C27.5137 57.4386 27.687 57.6238 27.7789 57.7251C27.7999 57.7127 27.7317 57.6436 27.8078 57.6954C27.905 57.814 28.0336 57.9152 28.073 57.9967C28.0493 57.9794 28.01 57.9301 27.9811 57.8955C28.1097 58.0437 27.1488 57.1867 27.33 57.3695C27.3011 57.3052 28.1859 58.1276 28.1019 58.0288C28.031 57.9301 28.1938 58.0684 28.1176 57.9696L28.0021 57.8831C27.8971 57.7498 27.8813 57.6707 27.9338 57.7078C28.1202 57.9251 27.267 57.1966 27.4481 57.367L27.3904 57.2855C27.4717 57.3546 27.666 57.5522 27.7159 57.6485C27.7343 57.6337 27.8341 57.735 27.9181 57.8165L27.9417 57.8486C28.031 57.9301 28.136 58.0609 28.1097 57.9819C27.6398 57.4559 28.606 58.1844 28.1649 57.6633C28.3145 57.9103 28.0599 57.6238 27.8551 57.4016C27.8498 57.3695 27.7815 57.2534 27.6476 57.083C27.5216 56.9447 27.561 57.0114 27.5269 56.9941C27.4691 56.9076 27.3405 56.7545 27.3799 56.757C27.2538 56.6705 27.2354 56.5718 27.1068 56.4508C26.9887 56.347 27.1042 56.468 27.0149 56.3964C26.86 56.2236 26.6421 55.984 26.5187 55.8457C26.4872 55.779 26.3691 55.5938 26.5108 55.6802C26.755 55.9346 26.369 55.6259 26.6316 55.8827C26.5686 55.7296 26.8653 56.1099 26.944 56.1297C26.8836 56.0285 26.7261 55.8506 26.5791 55.7148L26.6001 55.7469C26.4714 55.6284 26.2141 55.3863 26.1065 55.2308C26.1538 55.248 26.1065 55.1789 26.201 55.2678L26.033 55.0925C26.0067 55.0752 25.9805 55.0579 26.0251 55.1098C25.9332 55.0381 25.8597 54.9517 25.8072 54.8826C25.8072 54.8455 24.8069 54.0577 24.8463 54.0775C24.7202 53.9564 24.7071 53.9095 24.5653 53.8132C24.5601 53.8132 24.6362 53.8799 24.7544 53.9762C24.8699 54.075 25.0222 54.2059 25.1718 54.3343C25.4685 54.5887 25.7494 54.8258 25.6628 54.7467C25.6182 54.6875 25.2375 54.3664 24.8673 54.0478C24.4866 53.7367 24.1059 53.4354 24.0796 53.3835C23.9825 53.2995 23.8617 53.1983 23.8696 53.2353C23.7121 53.0847 23.9484 53.2477 23.846 53.1316C23.8407 53.1316 23.846 53.1464 23.8092 53.1143L23.7121 52.9982C23.4233 52.8081 23.0741 52.4549 22.7616 52.2697C22.8614 52.3142 22.9796 52.3561 23.1712 52.487L23.1949 52.5216C23.2237 52.5364 23.376 52.6525 23.3865 52.6327C23.2264 52.4846 23.0819 52.366 22.8877 52.2401C22.8588 52.2104 22.8247 52.1759 22.7984 52.1512C22.7984 52.1536 22.7984 52.1586 22.7958 52.1586C22.7459 52.1018 22.7511 52.1067 22.78 52.1166C22.7826 52.1166 22.7879 52.1166 22.7958 52.1215C22.7249 51.9931 22.0895 51.6251 21.7797 51.3732C21.6773 51.3115 21.764 51.3732 21.6353 51.3016C21.3124 51.0522 21.0997 50.862 20.7453 50.6225C20.614 50.5706 20.5982 50.5731 20.7216 50.6867L20.4539 50.5064C20.7453 50.6052 19.9813 50.1236 20.299 50.2397C20.2281 50.1755 20.0653 50.0668 19.9025 49.9804C19.8762 49.9853 19.8342 49.9952 19.6347 49.8816C19.3695 49.7013 19.4352 49.7458 19.2146 49.5951C19.1726 49.5432 19.2619 49.5852 19.2619 49.563C18.8891 49.3852 18.9836 49.3358 18.6344 49.1605C18.4139 49.0543 17.9859 48.8345 17.957 48.8641C17.6682 48.711 17.6814 48.6888 17.726 48.6715L17.7286 48.674Z" fill="#8267D7"/>
<path d="M41.1399 63.9238L41.0979 63.9188C41.2318 63.9164 41.3736 63.946 41.5101 63.9707C41.2213 63.8003 40.8511 63.6818 40.6174 63.9707C40.5938 63.8151 40.2945 63.7485 40.2892 63.788C40.2289 63.8176 40.1685 63.8423 40.1055 63.8645C39.7169 64.0028 39.2942 63.9855 38.8505 63.9757C38.6037 63.9757 37.9473 64.0349 37.6953 64.0349C37.6585 64.0349 37.6218 64.0349 37.585 64.0374C37.627 64.0407 37.6681 64.0432 37.7084 64.0448C37.5666 64.1115 37.4432 64.1757 37.3172 64.2251C37.3435 64.2424 37.354 64.2646 37.4117 64.2844H37.3435C37.2962 64.356 37.157 64.3782 37.0993 64.4177C37.1072 64.3807 37.0547 64.3856 37.0074 64.3881L37.031 64.4078C36.8577 64.4276 36.6661 64.4918 36.5138 64.5165C36.4928 64.5214 36.4744 64.5116 36.4613 64.5017L36.3222 64.556C36.3222 64.5091 36.1935 64.5412 36.2565 64.4992C36.1594 64.5733 36.0412 64.5634 35.952 64.6375C35.5844 64.7165 35.2011 64.8252 34.8335 64.9684L34.8466 64.9832C34.718 65.0351 34.6182 65.1438 34.4502 65.1438C34.3452 65.2253 34.185 65.2796 34.1535 65.3809C34.0196 65.413 33.9724 65.4698 33.8437 65.5142C33.8857 65.5562 33.7229 65.5908 33.7938 65.6155C33.8936 65.6673 33.8883 65.6105 33.9724 65.6525L33.9671 65.6377C34.332 65.6575 34.6944 65.6377 35.054 65.5957C35.2825 65.5118 35.5476 65.4994 35.7866 65.4377C36.0465 65.371 36.3222 65.2845 36.5374 65.203C36.5873 65.1784 36.6346 65.2105 36.6845 65.2228C36.884 65.1635 37.1492 65.1265 37.375 65.0598C37.3697 65.0598 37.3671 65.0598 37.3645 65.0598C37.4852 65.0302 37.5876 65.0598 37.7058 65.0326C37.7031 65.0203 37.7215 65.0154 37.7294 65.008C37.7609 65.0648 38.4094 64.7635 38.4593 64.7956C38.4724 64.7906 38.4829 64.7857 38.496 64.7832C38.756 64.7758 39.0316 64.8622 39.2443 64.8301C39.2889 64.7956 39.3388 64.7635 39.373 64.7264C39.415 64.7486 39.415 64.6968 39.4622 64.6993C39.5909 64.8153 39.6539 64.7585 39.5909 64.719C39.6854 64.6968 39.7825 64.6993 39.8692 64.6894C39.9059 64.677 39.9453 64.6647 39.9873 64.6523C40.0214 64.64 40.0398 64.6573 40.0608 64.6869C40.1475 64.6672 40.1238 64.6992 40.2131 64.7091C40.2367 64.7536 40.4389 64.6326 40.4651 64.6474L40.4494 64.6548C40.5544 64.6597 40.6253 64.7412 40.7277 64.7511C40.8695 64.7709 41.0165 64.7733 41.1635 64.7758C41.3079 64.7832 41.4497 64.7906 41.581 64.8079C41.5889 64.7635 41.5232 64.8128 41.5258 64.7536C41.6808 64.7709 41.8278 64.845 41.9801 64.8746C42.0063 64.8894 42.0352 64.9191 42.0457 64.9339C42.0929 64.9586 42.0772 64.9166 42.114 64.9265V64.9684C42.1691 64.9413 42.1796 65.0252 42.2321 65.0129C42.2373 64.9956 42.2557 64.9981 42.2741 65.0005C42.2662 65.0425 42.3266 65.0055 42.3187 65.045C42.3187 65.045 42.3371 65.045 42.3476 65.0524C42.3686 65.0401 42.5787 64.9586 42.6049 64.9437L42.6128 64.9536C42.6417 64.9586 42.66 64.9289 42.6443 64.9166L42.6784 64.9265H42.6732L42.7073 64.9388C42.7126 64.9437 42.7152 64.966 42.7021 64.9832C42.7257 64.9709 42.7493 64.9684 42.7651 64.9808C42.7178 64.9437 42.66 64.8919 42.6102 64.8376C42.6364 64.8277 42.6732 64.8598 42.6994 64.8598C42.7231 64.8943 42.7808 64.9314 42.8228 64.9586C42.8333 64.9586 42.8543 64.9116 42.8727 64.9363C42.8753 64.966 42.8937 64.9487 42.9068 64.9586L42.7651 64.677C42.7651 64.677 42.7861 64.6696 42.8045 64.6597C42.7887 64.6671 42.7756 64.6721 42.7651 64.677L42.9016 64.9709C42.878 64.9758 42.8622 64.966 42.8412 64.961C42.8359 64.9931 42.8701 64.9981 42.8937 65.0055L42.7651 64.677C42.7913 64.6647 42.815 64.6573 42.8333 64.6499C42.8543 64.6424 42.9121 64.6276 42.9489 64.6276C42.9882 64.6276 42.9751 64.6425 42.9593 64.6054C42.9725 64.6301 42.9331 64.5758 42.9252 64.4103C42.9226 64.3436 42.92 64.3115 42.9173 64.2572C42.9173 64.1831 42.9173 64.2053 42.9173 64.2053C42.9173 64.2103 42.9173 64.2177 42.9173 64.2251C42.9173 64.235 42.9173 64.2424 42.9173 64.2473C42.9173 64.2992 42.9226 64.3412 42.9226 64.3831C42.9226 64.4152 42.9252 64.4473 42.9305 64.4795C42.941 64.5782 42.9567 64.6029 42.9436 64.5634C42.9383 64.5461 42.9305 64.5091 42.9226 64.398C42.9226 64.3584 42.9173 64.3189 42.9173 64.2794C42.9173 64.2794 42.9095 64.2794 42.9068 64.2794C42.9068 64.3016 42.9147 64.2967 42.9068 64.3189C42.8885 64.314 42.8517 64.3412 42.8202 64.3189C42.8307 64.3115 42.8491 64.3165 42.8596 64.3165C42.8307 64.3165 42.92 64.2769 42.9147 64.2448C42.9173 64.3016 42.92 64.3584 42.9226 64.4152C42.9252 64.4473 42.9305 64.4795 42.9331 64.5091C42.941 64.556 42.9462 64.5807 42.9541 64.598C42.962 64.6227 42.9725 64.6276 42.9593 64.6128C42.962 64.6153 42.9515 64.6079 42.9383 64.5486C42.9331 64.5289 42.9305 64.5116 42.9278 64.4869C42.9226 64.4523 42.92 64.4177 42.92 64.3807C42.9174 64.3362 42.9121 64.2053 42.9147 64.2448C42.9147 64.2498 42.9095 64.2523 42.9095 64.2572C42.8885 64.2868 42.7808 64.3189 42.8045 64.3214C42.8438 64.3313 42.7808 64.3634 42.8202 64.3708C42.836 64.3609 42.8464 64.351 42.857 64.3412C42.8963 64.3486 42.899 64.3906 42.8911 64.4054C42.8648 64.4054 42.9121 64.3659 42.9147 64.3288V64.3658V64.4128C42.9173 64.4399 42.9226 64.472 42.9252 64.4943C42.9252 64.5264 42.9383 64.5634 42.941 64.5733C42.9515 64.6029 42.9567 64.6128 42.9436 64.5856C42.9515 64.6029 42.9515 64.6079 42.9593 64.6178C42.9515 64.6054 42.9357 64.5758 42.9252 64.4967C42.9226 64.4696 42.92 64.4449 42.9173 64.4202C42.9173 64.3881 42.9147 64.3585 42.9121 64.3189C42.9121 64.3115 42.9121 64.3041 42.9121 64.2918C42.9121 64.2918 42.9121 64.2868 42.9121 64.2844C42.9121 64.3066 42.9042 64.314 42.878 64.3239L42.8701 64.3189C42.8465 64.3288 42.7861 64.3288 42.815 64.356C42.8701 64.3535 42.8727 64.3683 42.8753 64.3906C42.8753 64.4128 42.8648 64.4424 42.8517 64.4721C42.8228 64.5338 42.8123 64.5931 42.8701 64.6005C42.8176 64.5511 42.8963 64.5486 42.9252 64.5437C42.9252 64.5511 42.9305 64.5634 42.9383 64.5708C42.9462 64.5832 42.9436 64.5782 42.962 64.6178C42.9751 64.635 42.9725 64.6276 42.9699 64.6301C42.9699 64.6301 42.9488 64.6227 42.9252 64.6276C42.9095 64.6276 42.9357 64.6227 42.9436 64.6202C42.9278 64.6202 42.9279 64.6128 42.9357 64.6054L42.983 64.6425C42.983 64.6425 42.9672 64.6202 42.9541 64.6227C42.9278 64.6326 42.9541 64.635 42.9331 64.6474C42.899 64.6375 42.8517 64.6227 42.8254 64.6128C42.8202 64.5856 42.7966 64.5387 42.8307 64.5042C42.8832 64.519 42.7966 64.561 42.8543 64.5634C42.8438 64.5042 42.9068 64.5585 42.9278 64.519C42.9173 64.4918 42.8806 64.4844 42.8491 64.4844L42.8543 64.4918C42.8255 64.4918 42.7703 64.4943 42.7467 64.4597C42.7572 64.4424 42.7467 64.4251 42.7703 64.4227L42.7336 64.4128C42.7336 64.4128 42.7204 64.4226 42.7336 64.4301C42.7126 64.4424 42.6968 64.4301 42.6863 64.4152C42.6863 64.393 42.4736 64.4622 42.4815 64.4523C42.4553 64.4474 42.4553 64.4152 42.4238 64.4325C42.4185 64.4498 42.6916 64.4128 42.6548 64.4128C42.6364 64.3856 42.3345 64.4548 42.324 64.4202C42.303 64.4202 42.2794 64.4202 42.2794 64.4424C42.2479 64.4276 42.2951 64.4029 42.2767 64.3807C42.2767 64.3831 42.2767 64.3906 42.2688 64.3906L42.2505 64.3609C42.1927 64.3856 42.1245 64.3337 42.0614 64.3708C42.0798 64.351 42.1034 64.3115 42.1428 64.2967L42.1481 64.3091C42.1481 64.3091 42.1848 64.2992 42.1875 64.2794C42.156 64.2621 42.1271 64.2597 42.0877 64.2769C42.0824 64.2695 42.0746 64.2646 42.0719 64.2572C42.0719 64.2597 42.0719 64.2621 42.0719 64.2646C42.0614 64.2498 42.0641 64.2473 42.0693 64.2399V64.235C42.0588 64.1708 41.9354 64.2572 41.8777 64.2152C41.8593 64.2226 41.875 64.2251 41.8514 64.235C41.791 64.2004 41.749 64.1831 41.6834 64.1609C41.6597 64.1856 41.6571 64.1955 41.6781 64.2251L41.6282 64.2127C41.6807 64.1461 41.5416 64.1387 41.5994 64.072C41.5862 64.0547 41.5547 64.0497 41.5258 64.0571C41.5206 64.0744 41.5153 64.1041 41.4786 64.0991C41.4313 64.072 41.4418 64.0819 41.4024 64.0547C41.3946 64.03 41.4103 64.0226 41.4103 64.0028C41.3447 64.0275 41.3578 63.9485 41.2974 63.9485C41.258 63.951 41.1845 63.9485 41.1793 63.9929C41.1294 63.9905 41.1294 63.9608 41.1373 63.9263L41.1399 63.9238Z" fill="#8267D7"/>
<path d="M34.0669 66.2427V66.2551C34.0432 66.223 34.0301 66.1785 34.0196 66.1316C33.9514 66.2872 33.9015 66.4403 34.2086 66.3489C34.0721 66.4378 34.0564 66.5539 34.0905 66.5341C34.1273 66.5341 34.1588 66.5391 34.1877 66.5465C34.1693 66.5415 34.1509 66.5366 34.1299 66.5317C34.1509 66.5341 34.1693 66.5391 34.1877 66.5465C34.3662 66.5909 34.3898 66.7366 34.4056 66.8873C34.4187 66.9688 34.4922 67.1713 34.4869 67.2627C34.4869 67.2775 34.4869 67.2898 34.4869 67.2997C34.4887 67.2833 34.4913 67.2676 34.4948 67.2528C34.5578 67.2775 34.6182 67.2973 34.6655 67.3219C34.6839 67.3047 34.7022 67.2948 34.7232 67.2627V67.2898C34.7915 67.2775 34.8125 67.3195 34.8467 67.3269C34.8125 67.3392 34.8125 67.3565 34.8151 67.3713L34.8335 67.3565C34.8466 67.4133 34.907 67.4602 34.928 67.5096C34.9307 67.5171 34.9228 67.5269 34.9123 67.5343L34.9622 67.5664C34.9175 67.5837 34.9438 67.6208 34.9044 67.6134C34.9727 67.6232 34.9595 67.6702 35.0304 67.6776C35.0961 67.7887 35.1932 67.8949 35.3271 67.9789L35.3429 67.969C35.3927 67.9962 35.4978 67.9937 35.4951 68.0579C35.5713 68.0678 35.629 68.1048 35.7288 68.0776C35.7629 68.1147 35.8181 68.1098 35.8627 68.1394C35.9021 68.1073 35.9389 68.1542 35.9625 68.1172C36.0124 68.0604 35.9572 68.0851 35.9966 68.0381L35.9808 68.0455C35.994 67.9072 35.9782 67.7813 35.9415 67.6628C35.8653 67.606 35.8575 67.5146 35.8049 67.443C35.7472 67.3689 35.671 67.2923 35.5949 67.2404C35.5739 67.2306 35.6054 67.2009 35.6185 67.1762C35.5634 67.1219 35.5345 67.0305 35.4715 66.9713V66.9762C35.4426 66.9416 35.4715 66.8898 35.4453 66.8552C35.4321 66.8626 35.4295 66.8552 35.4216 66.8552C35.4768 66.8181 35.1748 66.6947 35.2011 66.665C35.1958 66.6626 35.1906 66.6601 35.188 66.6576C35.1696 66.5662 35.2352 66.4255 35.1853 66.3613C35.1486 66.3613 35.1144 66.3563 35.0777 66.3613C35.0961 66.3366 35.0462 66.3613 35.0436 66.3415C35.1381 66.2427 35.0751 66.2477 35.0462 66.2872C35.012 66.265 35.0042 66.2304 34.9832 66.2057C34.9674 66.1983 34.9517 66.1909 34.9333 66.1835C34.9175 66.1785 34.9307 66.1637 34.9543 66.1415C34.9202 66.1242 34.9543 66.1168 34.949 66.0797C34.9858 66.0501 34.8414 66.0452 34.8467 66.0303H34.8545C34.8414 65.9958 34.9018 65.9291 34.886 65.8945C34.8571 65.7883 34.76 65.7093 34.7154 65.6204C34.6734 65.6451 34.7364 65.6327 34.6839 65.6673C34.655 65.6154 34.6707 65.5339 34.6419 65.4821C34.6471 65.4673 34.6576 65.4426 34.6681 65.4302C34.6707 65.4055 34.6419 65.4327 34.6392 65.4203L34.6734 65.3957C34.6314 65.3981 34.6944 65.3438 34.6681 65.3388C34.6524 65.3487 34.6471 65.3438 34.6445 65.3388C34.6812 65.3117 34.6287 65.324 34.6629 65.2993H34.6602C34.6602 65.2993 34.655 65.2969 34.6576 65.287C34.6392 65.2895 34.4896 65.3018 34.4686 65.3092V65.3018C34.4686 65.3018 34.4344 65.3092 34.4318 65.3191L34.4239 65.3068H34.4266L34.4187 65.2944C34.4187 65.2895 34.4344 65.2746 34.4554 65.2672C34.4371 65.2697 34.4239 65.2672 34.4266 65.2574C34.4187 65.2919 34.4029 65.3339 34.3793 65.3784C34.3609 65.3784 34.3714 65.3537 34.3609 65.3487C34.3767 65.3216 34.3819 65.287 34.3872 65.2598C34.3819 65.2598 34.3399 65.287 34.3504 65.2648C34.3767 65.2401 34.3426 65.2574 34.3583 65.2351C34.3793 65.2302 34.3793 65.2425 34.3819 65.2499C34.4134 65.2228 34.3898 65.2154 34.3951 65.203C34.3819 65.208 34.3819 65.1857 34.3662 65.1857C34.4003 65.166 34.3819 65.1635 34.3924 65.1462C34.3924 65.1363 34.3767 65.1437 34.3662 65.1536C34.3294 65.1783 34.3662 65.1932 34.3216 65.2129C34.3373 65.1981 34.3216 65.1907 34.3137 65.1857C34.2953 65.2005 34.3032 65.2006 34.2822 65.2104C34.2822 65.2006 34.2533 65.2104 34.269 65.1907C34.2743 65.1882 34.2743 65.1931 34.2743 65.1956C34.269 65.1857 34.4371 65.1487 34.4187 65.1462C34.4029 65.161 34.2638 65.1808 34.269 65.1882C34.2638 65.2005 34.2323 65.2104 34.2297 65.2203L34.2585 65.208C34.2585 65.2203 34.227 65.2499 34.2113 65.2574C34.2034 65.2425 34.3714 65.1956 34.3426 65.1981L34.3373 65.2104C34.3216 65.2154 34.3005 65.2104 34.3163 65.1907C34.2979 65.2055 34.2848 65.203 34.2743 65.203V65.1981C34.2743 65.1981 34.2612 65.1882 34.2375 65.2104C34.2664 65.2376 34.0327 65.3364 34.0459 65.3734C34.0774 65.329 34.0905 65.3463 34.1063 65.3537C34.0931 65.366 34.0774 65.3858 34.0748 65.4031C34.0853 65.408 34.0931 65.3957 34.1063 65.3907C34.101 65.4031 34.101 65.4154 34.0774 65.4327C34.1089 65.4203 34.0695 65.4549 34.0853 65.4549C34.1036 65.4525 34.0958 65.445 34.1115 65.4401C34.1168 65.4525 34.1246 65.4673 34.1273 65.4796C34.1089 65.4969 34.08 65.534 34.0433 65.5512C34.0354 65.534 34.101 65.5191 34.08 65.5092C34.038 65.5512 34.0564 65.5043 34.017 65.529C33.9986 65.5488 34.0065 65.5586 34.0196 65.5636L34.0249 65.5562C34.0249 65.5562 34.059 65.5661 34.0406 65.5907C34.0223 65.6006 34.0117 65.613 34.0039 65.6105L34.0091 65.6229C34.0091 65.6229 34.0223 65.6179 34.0223 65.613C34.038 65.608 34.0354 65.6179 34.0275 65.6278C34.0117 65.6401 34.143 65.6278 34.1325 65.6352C34.1378 65.6426 34.1141 65.6624 34.1378 65.6574C34.1535 65.6476 34.0222 65.6303 34.0354 65.6377C34.0196 65.6574 34.1876 65.6574 34.1588 65.6846C34.164 65.6895 34.1745 65.692 34.1903 65.6797C34.1903 65.6945 34.1535 65.7019 34.1404 65.7192C34.143 65.7192 34.1483 65.7118 34.1509 65.7142L34.1325 65.7365C34.1719 65.7315 34.1509 65.776 34.2008 65.7661C34.1772 65.776 34.1378 65.7933 34.1141 65.7957L34.122 65.7883C34.122 65.7883 34.1036 65.7883 34.0853 65.8007C34.08 65.818 34.0879 65.8229 34.1141 65.8204L34.1036 65.8352L34.1115 65.8303C34.1115 65.8303 34.101 65.8427 34.0931 65.8451H34.0879C34.038 65.8896 34.1483 65.8599 34.1325 65.8945C34.143 65.8945 34.143 65.8896 34.1562 65.8896C34.1483 65.9217 34.1378 65.9439 34.1404 65.9686C34.1693 65.9587 34.1771 65.9538 34.1982 65.9316V65.9488C34.1299 65.976 34.1588 66.0106 34.0853 66.0377C34.0748 66.0501 34.0774 66.06 34.0905 66.0625C34.1063 66.0526 34.1325 66.0378 34.1404 66.0476C34.1273 66.0748 34.1351 66.0649 34.122 66.0896C34.1036 66.1044 34.0931 66.1069 34.0748 66.1168C34.1141 66.1168 34.0406 66.1588 34.0538 66.1736C34.0669 66.1785 34.0826 66.1983 34.1194 66.1736C34.1273 66.1884 34.101 66.2032 34.0695 66.2205L34.0669 66.2427Z" fill="#8267D7"/>
<path d="M12.8268 52.7019L12.8688 52.734C12.727 52.6426 12.5748 52.5537 12.4199 52.4747C12.5721 52.6056 12.7113 52.7562 12.8557 52.8698C13.0027 52.9834 13.155 53.0624 13.3729 53.0748C13.2836 53.2007 13.4097 53.5045 13.4464 53.4897C13.5042 53.5341 13.5672 53.5811 13.6118 53.6379C13.583 53.5984 13.5462 53.5613 13.5068 53.5267C13.5462 53.5613 13.5803 53.5959 13.6118 53.6379C13.7667 53.8132 13.8534 54.0478 13.8402 54.2849C13.8402 54.4059 13.814 54.5195 13.7667 54.6529C13.7457 54.7171 13.7273 54.7838 13.7011 54.848C13.6722 54.9072 13.6433 54.9665 13.6144 55.0282C13.5908 55.0999 13.5252 55.1789 13.47 55.2802C13.3992 55.3691 13.3283 55.4728 13.2338 55.5518C13.0552 55.7198 12.8294 55.8111 12.7008 55.8383L12.5853 55.858C12.6509 55.8506 12.6535 55.858 12.7165 55.8432C12.5826 55.9371 12.4382 56.0186 12.2781 56.0556C12.3096 56.0754 12.3175 56.1001 12.391 56.1198C12.3621 56.1198 12.3332 56.1174 12.3043 56.1149C12.2702 56.1495 12.2046 56.1717 12.1389 56.1865C12.0707 56.1964 12.0024 56.2013 11.9552 56.2137C11.9762 56.1816 11.9079 56.1717 11.8475 56.1593L11.8685 56.184C11.6348 56.1569 11.3592 56.1124 11.1596 56.0359C11.1308 56.026 11.115 56.0062 11.1071 55.9889C11.0389 55.9741 10.9732 55.9568 10.9102 55.9321C10.9443 55.8976 10.7789 55.8259 10.8813 55.8408C10.7212 55.821 10.6109 55.7148 10.4613 55.6753C10.0491 55.3789 9.69724 54.9665 9.61585 54.4627L9.59747 54.4751C9.57647 54.3022 9.49509 54.1096 9.62374 53.8996C9.62111 53.8083 9.64737 53.707 9.67362 53.6132C9.692 53.5169 9.71299 53.4329 9.69461 53.3785C9.755 53.2921 9.78652 53.2205 9.82328 53.1538C9.86266 53.0896 9.89941 53.0229 9.96767 52.939C9.89153 52.9439 10.0727 52.7513 9.9703 52.7982C9.8154 52.855 9.85478 52.9019 9.72351 52.9538L9.73926 52.9612C9.61849 53.0476 9.52134 53.1711 9.41107 53.2798C9.31918 53.4033 9.21416 53.5243 9.1459 53.6724C8.98574 53.9515 8.9096 54.2973 8.93061 54.6381C9.00937 55.0875 9.20629 55.5493 9.52397 55.8729C9.86265 56.2235 10.3221 56.473 10.7028 56.5915C10.7973 56.6137 10.8446 56.673 10.9128 56.7249C11.2673 56.8311 11.7399 56.9397 12.1731 56.8977C12.1652 56.8977 12.1573 56.8977 12.1521 56.8977C12.265 56.8903 12.3673 56.8879 12.4671 56.8903C12.5695 56.8854 12.6693 56.8731 12.7822 56.8484C12.7769 56.836 12.811 56.8261 12.8268 56.8138C12.8399 56.8261 12.9266 56.799 13.0473 56.752C13.1077 56.7273 13.1734 56.6878 13.2416 56.6483C13.3125 56.6113 13.3834 56.5644 13.4464 56.5076C13.5856 56.4088 13.6958 56.2828 13.7851 56.1914C13.8665 56.0951 13.919 56.021 13.94 56.0136L13.9794 55.9568C14.2892 55.6333 14.5754 55.2308 14.6384 54.8677C14.6253 54.7838 14.62 54.6949 14.5938 54.6208C14.6305 54.5566 14.578 54.5368 14.5938 54.4578C14.7408 54.2553 14.6752 54.1219 14.6305 54.2355C14.6069 54.0651 14.5964 53.8922 14.5517 53.7465C14.5229 53.6823 14.4992 53.6156 14.4599 53.5539C14.4283 53.502 14.4362 53.465 14.4546 53.4255C14.3758 53.2921 14.4257 53.3218 14.3627 53.1711C14.389 53.1094 14.087 52.8599 14.066 52.8254L14.087 52.8426C13.982 52.6945 13.9663 52.5463 13.8324 52.4129C13.4805 52.0301 12.9502 51.7659 12.4697 51.6227C12.4514 51.6646 12.58 51.6449 12.5643 51.7042C12.2938 51.6078 12.005 51.4967 11.6874 51.4893C11.6322 51.477 11.5587 51.4572 11.5324 51.4424C11.4274 51.4325 11.4747 51.4695 11.3986 51.4695L11.3828 51.43C11.2778 51.4745 11.2121 51.4053 11.1097 51.4449C11.1097 51.4621 11.0704 51.472 11.0336 51.4794C11.0205 51.4374 10.9207 51.514 10.9155 51.4745C10.8918 51.4844 10.8787 51.4918 10.8472 51.4918C10.8288 51.5041 10.7317 51.5757 10.6477 51.6498C10.561 51.7239 10.4875 51.8104 10.4744 51.8252H10.4534C10.4035 51.8548 10.4035 51.8993 10.435 51.8869L10.3772 51.9215L10.3825 51.9141L10.3247 51.9511C10.3247 51.9511 10.288 51.9462 10.2906 51.919C10.267 51.9536 10.2355 51.9832 10.2013 52.003C10.309 51.961 10.4402 51.9141 10.5636 51.9042C10.5295 51.9363 10.4481 51.9585 10.4114 51.9906C10.3431 51.998 10.2276 52.0474 10.1436 52.0944C10.1304 52.1092 10.1541 52.1561 10.1016 52.1684C10.0569 52.1586 10.0648 52.2055 10.0176 52.2129C10.0333 52.1684 10.0727 52.1437 10.1094 52.1166C10.0727 52.0919 10.0044 52.1684 9.97291 52.1882C9.97291 52.208 9.89941 52.2623 9.8679 52.3092C9.85215 52.2672 9.81802 52.3265 9.78126 52.3389C9.755 52.3635 9.75239 52.3932 9.77339 52.3882C9.80227 52.4228 9.88629 52.2919 9.88891 52.3586C9.86528 52.3561 9.8259 52.4154 9.80227 52.445C9.82065 52.4599 9.83377 52.4352 9.8364 52.4673C9.80489 52.4969 9.80226 52.5463 9.76551 52.5512C9.76551 52.5414 9.77864 52.5315 9.78651 52.5216C9.74713 52.5661 9.84953 52.1981 9.82065 52.2623C9.84165 52.2623 9.73138 52.5907 9.75764 52.5611C9.78652 52.5414 9.77863 52.6031 9.80751 52.5809V52.5364C9.84426 52.5068 9.8889 52.5167 9.89152 52.5364C9.83901 52.5957 9.8994 52.2697 9.8784 52.3339L9.90728 52.3216C9.89677 52.3512 9.86266 52.4179 9.82328 52.4253C9.84165 52.4401 9.82327 52.4747 9.81276 52.5018L9.80227 52.5093C9.79177 52.5414 9.75763 52.5735 9.79701 52.5735C9.90991 52.4302 9.92303 52.7982 10.0412 52.6722C9.95454 52.6969 10.0123 52.6229 10.0543 52.5636C10.0727 52.5685 10.1121 52.5586 10.1593 52.529C10.1882 52.4944 10.1646 52.4969 10.1593 52.4821C10.1856 52.4722 10.2276 52.4426 10.2433 52.4648C10.2433 52.4179 10.2985 52.4376 10.3195 52.4031C10.3379 52.3685 10.3064 52.3957 10.3195 52.366C10.3667 52.3314 10.4297 52.2845 10.4691 52.2623C10.5006 52.2722 10.5715 52.2771 10.5636 52.329C10.4928 52.3709 10.5479 52.2598 10.4849 52.3166C10.5505 52.3364 10.435 52.3784 10.4534 52.4203C10.4928 52.4228 10.5321 52.3858 10.5636 52.3561H10.5505C10.5794 52.3265 10.6398 52.2722 10.6923 52.2746C10.6949 52.2969 10.7186 52.2993 10.6975 52.3191C10.7133 52.3092 10.7291 52.3018 10.7448 52.2944C10.7448 52.287 10.7501 52.2771 10.7343 52.2796C10.7474 52.2549 10.7763 52.2499 10.7999 52.2499C10.8078 52.2598 11.0257 52.0499 11.0284 52.0672C11.0677 52.0548 11.0861 52.082 11.1176 52.0499C11.1071 52.0252 10.7842 52.2475 10.8367 52.2277C10.8551 52.2277 10.9443 52.161 11.0415 52.0993C11.1386 52.0425 11.2463 51.9931 11.2647 52.0129C11.2935 52.0055 11.3303 51.9931 11.3172 51.9733C11.3697 51.9733 11.3093 52.0153 11.3487 52.0277C11.3487 52.0252 11.3434 52.0178 11.3565 52.0153C11.3697 52.0203 11.3828 52.0301 11.3959 52.0376C11.4694 51.9956 11.5876 52.0277 11.669 51.9857C11.6453 52.0079 11.6191 52.0499 11.5692 52.0721L11.5587 52.0623C11.5587 52.0623 11.5114 52.082 11.5141 52.1018C11.5613 52.1092 11.6033 52.1092 11.6532 52.0845C11.6637 52.0894 11.6742 52.0944 11.6795 52.1018C11.6795 52.0993 11.6795 52.0968 11.6795 52.0944C11.6952 52.1067 11.6952 52.1092 11.6874 52.1166C11.6874 52.1166 11.6874 52.1191 11.6847 52.1215C11.711 52.1833 11.8738 52.0869 11.9578 52.1339C11.984 52.1289 11.9604 52.124 11.9945 52.1166C12.0812 52.1512 12.1337 52.1882 12.2203 52.2203C12.2571 52.203 12.2623 52.1931 12.2361 52.1561L12.3017 52.1857C12.2203 52.2351 12.4041 52.287 12.3148 52.3339C12.328 52.3537 12.3647 52.3709 12.4041 52.3734C12.4146 52.3586 12.4304 52.3339 12.475 52.3512C12.5275 52.3957 12.517 52.3833 12.5564 52.4253C12.5564 52.4524 12.5354 52.4524 12.5301 52.4697C12.6194 52.4771 12.5721 52.5413 12.643 52.5735C12.6877 52.5907 12.7743 52.6303 12.7979 52.6006C12.8531 52.6377 12.8347 52.6624 12.8111 52.6871L12.8268 52.7019Z" fill="#8267D7"/>
<path d="M40.754 73.0317L40.4153 73.0391C40.6883 73.0292 40.9483 73.0144 41.2449 73.0267C41.5337 73.0342 41.8488 73.0761 42.1612 73.1379C42.2006 73.1453 42.2374 73.1552 42.2741 73.1626L42.3502 73.1823L42.4264 73.2021L42.4631 73.212L42.4763 73.2169C42.5104 73.2293 42.5524 73.2416 42.5787 73.254C42.639 73.2787 42.6994 73.3058 42.7651 73.3404C42.6758 73.2786 42.6049 73.2342 42.5419 73.1971L42.4894 73.1675C42.4894 73.1675 42.4868 73.1651 42.4737 73.1601L42.429 73.1453L42.3371 73.1181C42.2899 73.1008 42.1612 73.0687 42.0667 73.0514L41.7543 72.9897C41.3421 72.9329 40.9325 72.9107 40.5649 72.928C40.3706 72.9329 40.179 72.9403 39.9899 72.9453C39.7904 72.9527 39.5777 72.9601 39.4465 72.9774C39.9401 73.5182 40.4441 74.064 40.9036 74.5357L41.0716 74.7085L41.1452 74.7876L41.1898 74.8296L41.3683 74.995C41.4891 75.1012 41.6072 75.2 41.7228 75.2889C41.6965 75.3877 41.9065 75.7458 42.1113 76.0841C42.3214 76.4225 42.5314 76.7435 42.5577 76.746C42.7572 76.9905 42.962 77.2374 43.1484 77.4992C43.0224 77.3165 42.8859 77.1436 42.752 76.9707C42.8859 77.1436 43.0224 77.3189 43.1484 77.4992C43.747 78.3241 44.2879 79.2378 44.7079 80.2306C44.8156 80.4776 44.9153 80.7295 45.0046 80.9838C45.0519 81.1123 45.0991 81.2382 45.1359 81.3691L45.1648 81.4605L45.1726 81.4901L45.1858 81.5469L45.2068 81.6556C45.2068 81.6704 45.2199 81.6951 45.2068 81.6976L45.1438 81.6827L45.0282 81.6556L44.9783 81.6407L44.96 81.6358L44.9048 81.6259L44.7946 81.6062C44.1434 81.4827 42.9384 81.2382 41.7648 80.8949C40.5859 80.564 39.457 80.1121 38.8663 79.8231C38.6956 79.7391 38.5249 79.6552 38.3543 79.5712C38.5433 79.6683 38.7315 79.7655 38.9188 79.8626C38.5433 79.7169 38.1862 79.5737 37.8528 79.4156L37.7898 79.386C37.7583 79.3712 37.7032 79.344 37.669 79.3242C37.5929 79.2847 37.5115 79.2304 37.4354 79.186C37.2831 79.0921 37.1308 79.0007 36.9785 78.9094C36.8315 78.8204 36.6845 78.7316 36.5401 78.6426C36.3825 78.529 36.225 78.4179 36.0675 78.3043C36.1856 78.408 36.267 78.4797 36.3825 78.5809C36.4403 78.6303 36.5033 78.6846 36.5847 78.7538C36.6609 78.8081 36.7501 78.8748 36.8656 78.9588L36.5873 78.7735L36.2802 78.5389C36.1095 78.4426 35.8443 78.2697 35.5765 78.0845C35.3245 77.9042 35.0514 77.7116 34.8099 77.5387C34.9464 77.7783 35.0698 77.9931 35.167 78.1635C35.0882 78.0549 35.1013 78.1018 35.1643 78.2327C35.2273 78.366 35.3376 78.5834 35.4426 78.7859L35.4085 78.6673C35.6002 79.0452 35.8128 79.4453 35.9808 79.8108C36.0596 79.9911 36.141 80.1738 36.2093 80.3516L36.3143 80.6208L36.3773 80.7912C36.3983 80.8529 36.4219 80.9147 36.4429 80.9739C36.4613 81.0283 36.4797 81.0801 36.4954 81.132C36.5296 81.2357 36.5585 81.3395 36.5795 81.4308C36.5873 81.4679 36.59 81.495 36.569 81.4827C36.5558 81.4728 36.5453 81.4629 36.5348 81.4531C36.4456 81.4135 36.3432 81.374 36.2382 81.3197C36.2329 81.2629 35.9914 81.1246 36.12 81.1666C36.0964 81.1616 36.0701 81.1518 36.0439 81.1394L36.0045 81.1197L35.9835 81.1098L35.9362 81.0826C35.8049 81.0061 35.6815 80.9246 35.5581 80.8381C35.3087 80.6727 35.0803 80.4949 34.8414 80.3343C34.0774 79.6873 33.4 78.8822 33.1401 77.9339C33.0088 77.4622 32.9826 76.9633 33.0639 76.4694C33.1427 75.9755 33.3134 75.4914 33.5392 75.0296L33.4998 75.0666C33.8096 74.4171 34.122 73.8343 34.7469 73.1725C35.125 72.6464 35.7787 71.9846 35.9047 71.7426C36.4639 71.2289 36.6635 70.9967 37.2332 70.5127C37.0494 70.5942 37.7688 70.0212 37.4537 70.2188C37.0179 70.4781 37.031 70.5324 36.6661 70.7621L36.6871 70.7671C35.8995 71.3672 35.1354 72.0117 34.4423 72.7353C33.7518 73.4614 33.1165 74.2665 32.6806 75.2173C32.4286 75.8594 32.229 76.5855 32.2789 77.3412C32.3052 78.0969 32.5861 78.8377 32.9957 79.4502C33.4368 80.1121 34.0433 80.6727 34.6629 81.1419C34.8151 81.2629 34.9779 81.3666 35.1328 81.4753C35.2116 81.5271 35.2877 81.5839 35.3691 81.6309C35.4636 81.6901 35.5581 81.7494 35.6527 81.8062C35.9047 81.9667 36.1489 82.0927 36.3825 82.2186C36.6162 82.3446 36.8394 82.4681 37.0599 82.5792C37.3015 82.7002 37.5168 82.8286 37.7478 82.9719C37.7347 82.8533 37.711 82.7101 37.6848 82.5668C37.5771 82.1594 37.48 81.7519 37.3461 81.3024C37.2778 81.0777 37.207 80.8505 37.1256 80.6183C37.0914 80.522 37.0547 80.4257 37.0205 80.3294C36.9523 80.154 36.8709 79.9787 36.7554 79.7836C36.7869 79.8058 36.8184 79.828 36.8499 79.8478C36.842 79.8404 36.8341 79.8355 36.8289 79.8305C36.9181 79.8972 37.031 79.9762 37.1151 80.0454C37.1571 80.075 37.1991 80.1047 37.2437 80.1343C37.2647 80.1466 37.2831 80.1614 37.3041 80.1738C37.3671 80.2059 37.4327 80.2405 37.501 80.2751C37.5036 80.2627 37.6034 80.3121 37.6533 80.3294C37.6874 80.3936 38.651 80.8233 39.6618 81.1468C40.6699 81.4802 41.7175 81.705 41.833 81.7568C41.9039 81.7716 41.9801 81.7889 42.0562 81.8062C42.7729 82.0063 43.5081 82.1964 44.2222 82.3594C44.4007 82.3989 44.5793 82.4409 44.7552 82.4755C44.8891 82.5002 45.023 82.5249 45.1543 82.5496C45.3013 82.5743 45.4483 82.5965 45.5927 82.6212C45.8868 82.6656 46.1756 82.7101 46.4591 82.7521C46.488 82.7644 46.4644 82.7323 46.4644 82.72L46.4512 82.673L46.425 82.5767L46.3725 82.3866C46.3357 82.2606 46.3016 82.1347 46.2675 82.0087C46.1861 81.784 46.1152 81.5642 46.0285 81.3543C46.0075 81.3049 45.9892 81.258 45.9682 81.211C45.955 81.1814 45.9393 81.1518 45.9261 81.1221C45.8973 81.0629 45.871 81.0085 45.8448 80.9567C45.7949 80.7443 45.7266 80.7221 45.6426 80.4751C45.5166 79.8132 45.2934 79.4774 45.3958 79.8083C45.1516 79.3168 44.918 78.8204 44.679 78.3981C44.5609 78.2055 44.4454 78.0129 44.3167 77.8252C44.2091 77.6647 44.1697 77.5634 44.1487 77.4646C43.8678 77.0547 43.978 77.1609 43.705 76.7188C43.6787 76.5879 42.9042 75.6816 42.8202 75.563L42.878 75.6272C42.5262 75.1407 42.3529 74.7752 41.9748 74.3159C41.9223 74.2467 41.8672 74.1776 41.812 74.1084C41.7753 74.0615 41.7385 74.0195 41.6991 73.9776C41.6519 73.943 41.7254 73.9578 41.749 73.9528C41.7831 73.9528 41.8173 73.9528 41.8514 73.9528C41.9197 73.9553 41.9853 73.9627 42.0536 73.9776L42.1717 74.0047L42.2137 74.0146C42.2137 74.0146 42.2426 74.022 42.2741 74.0319L42.4316 74.0813C42.6338 74.1356 42.8622 74.2467 43.0933 74.3529C43.2219 74.4295 43.3532 74.5085 43.4818 74.5851C43.516 74.6073 43.5396 74.6172 43.5842 74.6493L43.7181 74.7481L43.9859 74.9481C44.4165 75.2741 44.8445 75.5976 45.2672 75.9162C45.233 75.8051 45.2015 75.6989 45.1726 75.5927C45.1648 75.5457 45.1595 75.4988 45.1516 75.4519C45.0886 75.3877 45.0991 75.4445 45.1096 75.4988C45.1096 75.5112 45.1149 75.526 45.1149 75.5359C45.1201 75.5606 45.1254 75.5853 45.1227 75.6001C45.1227 75.6322 45.1017 75.6347 45.0466 75.5828L45.0256 75.4865L45.0177 75.442V75.4223L45.0256 75.3432C45.0256 75.3062 45.0414 75.321 45.0492 75.3087C45.0597 75.3037 45.065 75.2889 45.0807 75.2938L45.1201 75.3062H45.1306L45.1359 75.3111C45.1359 75.3111 45.1306 75.2963 45.128 75.2889L45.0886 75.1877L44.9311 74.795C44.8261 74.5456 44.7342 74.3134 44.616 74.059C44.5845 73.9948 44.5583 73.9331 44.5241 73.8664L44.406 73.6614C44.3351 73.5281 44.2222 73.375 44.1303 73.2317C43.9912 73.0218 43.81 72.7452 43.726 72.6366C43.4004 72.234 43.4713 72.3822 43.3217 72.2167L43.3348 72.1673C43.0801 71.9599 43.0329 71.8018 42.7913 71.6092C42.7677 71.6092 42.6811 71.54 42.5997 71.4659C42.6259 71.4289 42.3371 71.256 42.3765 71.2338H42.3713C42.3187 71.1943 42.2794 71.1671 42.2216 71.1103C42.1665 71.0782 41.8829 70.9078 41.5862 70.7572C41.2896 70.6065 40.9824 70.4756 40.9194 70.4559L40.8695 70.4213C40.7093 70.3398 40.6253 70.3349 40.7146 70.3892C40.6516 70.3546 40.5833 70.325 40.5177 70.2929L40.5413 70.3003C40.4757 70.2682 40.41 70.2361 40.3418 70.2065C40.305 70.1867 40.2709 70.1496 40.3391 70.1571C40.2157 70.12 40.0818 70.078 39.9611 70.0286C40.2893 70.1694 40.6621 70.3867 40.9483 70.5967C40.8144 70.5399 40.5912 70.3991 40.4415 70.3373C40.2814 70.2312 39.9243 70.0558 39.6198 69.9545C39.5515 69.9373 39.4911 69.9743 39.3415 69.9175C39.2732 69.8656 39.1629 69.8854 39.0343 69.8385C39.1918 69.8459 39.3415 69.878 39.4911 69.92C39.4832 69.8978 39.394 69.8681 39.289 69.8434C39.1813 69.8237 39.0658 69.8014 39.0001 69.7891C38.9686 69.7916 38.8768 69.7817 38.7665 69.7718C38.6536 69.7693 38.5249 69.7619 38.4252 69.7718C38.5118 69.7298 38.2598 69.7521 38.1337 69.7521C37.992 69.7693 37.9079 69.799 37.9657 69.8039C37.9473 69.8286 38.0865 69.8113 38.2046 69.8014C38.3228 69.8014 38.4199 69.8014 38.328 69.8286C38.2781 69.8064 38.0103 69.8459 37.8712 69.8854C37.8764 69.9076 37.971 69.878 37.8869 69.9224C37.7294 69.9521 37.5824 70.0385 37.4879 70.0509C37.5141 70.0336 37.5771 70.0138 37.6218 69.999C37.5719 70.0163 37.6113 69.9916 37.6927 69.9471C37.7767 69.9126 37.908 69.8484 38.0445 69.8138C38.3149 69.7298 38.5879 69.7026 38.4514 69.7101C38.4882 69.7199 38.1836 69.7595 37.9053 69.8533C37.6244 69.9471 37.3855 70.0978 37.4485 70.0682C37.5693 70.0336 37.3855 70.1373 37.5089 70.0978L37.6323 70.0212C37.8029 69.9669 37.8843 69.999 37.8292 70.0262C37.69 70.0657 37.8712 69.9595 38.0786 69.8928C38.286 69.8187 38.5092 69.7891 38.3805 69.8039L38.4856 69.8088C38.433 69.8187 38.3333 69.8335 38.2361 69.841C38.1364 69.8558 38.0392 69.8706 37.9788 69.8681C37.9815 69.8854 37.8423 69.9323 37.7268 69.9718C37.7137 69.9743 37.6979 69.9768 37.6848 69.9817C37.5719 70.0361 37.4065 70.0953 37.4957 70.0928C37.8371 69.962 37.7399 70.0607 37.6533 70.1571C37.5666 70.2534 37.4957 70.3472 37.7898 70.2435C37.5246 70.2929 37.8502 70.1472 38.1337 70.1052C38.1495 70.1126 38.1889 70.1151 38.2493 70.1175C38.3096 70.1225 38.391 70.1274 38.4908 70.1274C38.6615 70.1274 38.5906 70.1101 38.6247 70.0978C38.7218 70.1052 38.9004 70.1373 38.8741 70.1595C39.0106 70.1373 39.0789 70.2089 39.2364 70.2213C39.3756 70.2386 39.2312 70.2065 39.331 70.2139C39.5357 70.2583 39.8088 70.3571 39.9611 70.4188C40.0136 70.4608 40.1685 70.5769 40.0241 70.5596C39.7405 70.446 40.1606 70.5398 39.856 70.4386C39.9663 70.5349 39.583 70.3596 39.5121 70.3892C39.604 70.4386 39.7957 70.5028 39.9584 70.5571L39.9296 70.5374C40.074 70.5818 40.3575 70.693 40.4888 70.7942C40.4442 70.7942 40.5019 70.8387 40.3995 70.7942C40.4625 70.8239 40.5203 70.8584 40.5807 70.8905C40.6069 70.8979 40.6332 70.9029 40.5833 70.8732C40.6778 70.9029 40.7592 70.9597 40.817 71.0066C40.8222 71.0214 41.0716 71.1375 41.3079 71.2659C41.5469 71.3943 41.77 71.5326 41.7516 71.5277C41.8698 71.6191 41.8777 71.6635 42.0063 71.7376C42.0116 71.7376 41.9433 71.6833 41.8357 71.6092C41.7306 71.5326 41.5836 71.4413 41.4418 71.3524C41.1557 71.1795 40.8747 71.0412 40.964 71.0881C41.0113 71.1301 41.3867 71.3252 41.7359 71.5573C42.0877 71.7845 42.4106 72.0463 42.429 72.0908C42.5104 72.1649 42.6102 72.2513 42.6076 72.2167C42.7362 72.3501 42.5367 72.2068 42.618 72.3106C42.6233 72.3106 42.618 72.2957 42.6469 72.3254L42.7178 72.4316C42.8307 72.5155 42.962 72.6563 43.0644 72.7699C43.172 72.886 43.2692 73.0021 43.3899 73.1107C43.3033 73.0465 43.1956 72.9798 43.0723 72.8786L43.067 72.8539C43.046 72.8391 42.9567 72.7526 42.941 72.7699C43.0197 72.8786 43.0933 72.9527 43.214 73.0638C43.2245 73.0835 43.235 73.1058 43.2377 73.1206C43.2403 73.1206 43.2429 73.1206 43.2482 73.1206C43.256 73.1552 43.2482 73.1478 43.2272 73.1354C43.2245 73.1354 43.2193 73.1305 43.214 73.128C43.1904 73.1527 43.2744 73.2391 43.3821 73.3651C43.4897 73.4861 43.6236 73.6565 43.642 73.7306C43.6998 73.8071 43.6709 73.7528 43.747 73.8516C43.7733 73.938 43.7864 74.0022 43.7943 74.0689C43.7943 74.0837 43.8048 74.106 43.7969 74.1134C43.7706 74.0912 43.7444 74.0714 43.7155 74.0492C43.663 74.0072 43.6105 73.9627 43.5527 73.9232C43.5606 73.943 43.5737 73.9578 43.7312 74.0837C43.6682 74.0368 43.6052 73.9899 43.5422 73.9504C43.537 73.9232 43.4188 73.8343 43.3217 73.7602C43.2193 73.6861 43.1379 73.6244 43.1326 73.5948C43.1038 73.5725 43.0723 73.5503 43.0434 73.533C43.0092 73.5133 42.9751 73.496 42.9462 73.4886C42.962 73.5133 42.9882 73.5528 42.8859 73.5058C42.7362 73.4244 42.7756 73.4441 42.6496 73.375C42.6207 73.3404 42.6548 73.3429 42.6469 73.3206C42.5839 73.3132 42.534 73.2885 42.5104 73.2638C42.5052 73.254 42.4631 73.2342 42.4159 73.2169C42.3923 73.207 42.3634 73.1972 42.3319 73.1897C42.3004 73.1799 42.2374 73.1626 42.1717 73.1527C41.8252 73.0786 41.195 73.0564 41.2239 73.1033C40.8275 73.0959 40.796 73.0761 40.796 73.0391L40.754 73.0317Z" fill="#8267D7"/>
<path d="M77.0879 83.2485C77.0879 83.2485 77.0722 83.2534 77.0459 83.2312C76.87 83.1028 76.5602 82.7175 76.5707 82.1199C76.5707 82.11 76.5759 82.068 76.5838 82.0581C76.5969 82.0532 76.8569 81.9594 77.2271 81.8038C77.5999 81.6482 78.0777 81.4259 78.5424 81.1789C79.4745 80.69 80.312 80.0701 80.312 80.0701C80.312 80.0701 80.4695 80.0009 80.6927 79.9022C80.9159 79.8083 81.1994 79.6898 81.4541 79.6083C82.2758 79.2798 82.2391 79.6947 81.9372 80.1516C81.9687 80.1442 81.7665 80.3911 81.546 80.6356C81.3254 80.8801 81.0865 81.1197 81.0865 81.1197C81.0865 81.1197 80.1886 81.7766 79.1857 82.3051C78.6868 82.5718 78.1722 82.8114 77.7732 82.9768C77.3767 83.1423 77.101 83.2435 77.0853 83.2485H77.0879Z" fill="#8267D7"/>
<path d="M86.9335 76.8646C86.9335 76.8646 86.923 76.8744 86.8915 76.8621C86.6893 76.8028 86.2246 76.5929 85.9384 76.0669C85.9332 76.057 85.9174 76.0199 85.92 76.0076C85.9305 75.9977 86.1064 75.81 86.3769 75.5458C86.6473 75.2815 87.0122 74.9457 87.3824 74.6221C87.7526 74.2986 88.1228 73.9875 88.4011 73.7578C88.6768 73.5281 88.8606 73.375 88.8606 73.375C88.8606 73.375 89.4303 73.0762 89.9003 72.9354C90.6564 72.6539 90.638 73.054 90.3965 73.4688C90.4542 73.459 89.7217 74.3628 89.7217 74.3628C89.7217 74.3628 88.9892 74.9654 88.2908 75.5779C87.9417 75.8841 87.603 76.1978 87.3562 76.4423C87.1094 76.6843 86.9466 76.8572 86.9387 76.8646H86.9335Z" fill="#8267D7"/>
<path d="M94.8861 69.1445C94.8861 69.1445 94.8861 69.1445 94.8546 69.1445C94.76 69.147 94.5867 69.1915 94.3715 69.2507C94.1588 69.3001 93.891 69.3791 93.5812 69.184C93.5707 69.1766 93.5287 69.1396 93.5234 69.1198C93.5234 69.11 93.5339 69.0161 93.5471 68.8556C93.5707 68.7173 93.6048 68.5296 93.66 68.3296C93.765 67.927 93.9251 67.4356 94.08 66.9515C94.2376 66.4675 94.3872 65.9933 94.4922 65.6377C94.5946 65.2821 94.6576 65.0474 94.6576 65.0474C94.6576 65.0474 94.9569 64.4671 95.2352 64.0596C95.6369 63.3508 95.8942 63.662 95.9756 64.1905C95.9914 64.1658 96.0071 64.4745 95.9966 64.7832C95.9914 65.0944 95.9625 65.408 95.9625 65.408C95.9625 65.408 95.8969 65.655 95.7892 66.0229C95.6816 66.3884 95.5293 66.8725 95.3744 67.3491C95.2221 67.8258 95.0698 68.2999 94.9832 68.6383C94.9386 68.8087 94.9149 68.9371 94.8992 69.026C94.8939 69.0951 94.8887 69.1371 94.8887 69.1421L94.8861 69.1445Z" fill="#8267D7"/>
<path d="M92.783 46.634C92.783 46.634 92.7935 46.6464 92.7751 46.676C92.6859 46.8637 92.3971 47.2712 91.7774 47.4194C91.7669 47.4218 91.7223 47.4268 91.7092 47.4218C91.6987 47.4095 91.5175 47.1897 91.2523 46.8637C90.9898 46.5402 90.6459 46.1204 90.2941 45.7129C89.9422 45.3054 89.5825 44.9152 89.3042 44.6336C89.0259 44.3521 88.8317 44.1768 88.8317 44.1768C88.8317 44.1768 88.7371 44.0409 88.598 43.8458C88.4641 43.6532 88.2961 43.4112 88.1622 43.1914C87.9127 42.8481 87.876 42.6629 87.9889 42.5839C88.0965 42.5073 88.3591 42.5345 88.6348 42.6407C88.619 42.6135 88.9314 42.7592 89.2334 42.9346C89.3856 43.021 89.5327 43.1173 89.6456 43.1865C89.7558 43.2605 89.8293 43.3075 89.8293 43.3075C89.8293 43.3075 90.0394 43.5001 90.3361 43.7989C90.6301 44.1002 91.0082 44.5077 91.3679 44.9275C91.7302 45.3449 92.0767 45.7697 92.3367 46.0883C92.5966 46.4044 92.7725 46.6167 92.7804 46.6291L92.783 46.634Z" fill="#8267D7"/>
<path d="M83.9037 39.1092C83.9037 39.1092 83.9115 39.119 83.8958 39.1487C83.8144 39.3388 83.4836 39.6895 82.9191 39.9192C82.9086 39.9241 82.8692 39.9365 82.8614 39.9365C82.8561 39.9291 82.7406 39.7957 82.5437 39.6228C82.3468 39.45 82.0527 39.2475 81.7245 39.0795C81.3963 38.9116 81.0366 38.7733 80.761 38.6794C80.4827 38.5856 80.2884 38.5313 80.2884 38.5313C80.2884 38.5313 80.1755 38.4621 80.018 38.3609C79.8631 38.2596 79.6662 38.1238 79.5086 37.983C78.9573 37.5632 79.2802 37.3508 79.716 37.3014C79.7003 37.2841 79.9497 37.2841 80.2096 37.294C80.4696 37.3039 80.7374 37.3261 80.7374 37.3261C80.7374 37.3261 80.9448 37.3854 81.2572 37.4891C81.5696 37.5953 81.9871 37.7558 82.3967 37.9657C82.8062 38.1732 83.1974 38.4424 83.4652 38.6794C83.7356 38.9141 83.8932 39.0993 83.9037 39.1092Z" fill="#8267D7"/>
<path d="M74.4362 36.4296C74.4362 36.4296 74.4493 36.4296 74.4598 36.4617C74.5438 36.6445 74.6278 37.1112 74.4257 37.6595C74.4231 37.6693 74.4047 37.7064 74.3968 37.7113C74.3863 37.7113 74.1815 37.7039 73.8743 37.7113C73.5671 37.7163 73.1576 37.7385 72.7375 37.7706C72.3122 37.8052 71.8895 37.8373 71.5718 37.8644C71.2488 37.8867 71.0336 37.9015 71.0336 37.9015C71.0336 37.9015 70.4586 37.8076 70.0595 37.6199C69.3874 37.3582 69.6604 37.0717 70.0516 36.9112C70.0306 36.8964 70.2669 36.8321 70.5058 36.763C70.7474 36.6939 70.9889 36.6247 70.9889 36.6247C70.9889 36.6247 71.8186 36.5605 72.6509 36.4938C73.0762 36.4617 73.5146 36.437 73.8507 36.4321C74.1868 36.4247 74.4204 36.4321 74.4335 36.4321L74.4362 36.4296Z" fill="#8267D7"/>
<path d="M62.4141 39.5117C62.4141 39.5117 62.4272 39.5117 62.4456 39.5364C62.5769 39.6944 62.758 40.1316 62.7344 40.7045C62.7344 40.7144 62.7292 40.7539 62.7265 40.7589C62.7187 40.7589 62.5532 40.7934 62.3117 40.87C62.0702 40.9441 61.7577 41.075 61.4532 41.233C60.8441 41.5491 60.2953 41.9862 60.2953 41.9862C60.2953 41.9862 59.849 42.1641 59.4604 42.248C58.8461 42.4357 58.7857 42.0924 58.9485 41.7294C58.9222 41.7319 59.043 41.5417 59.1769 41.3491C59.3134 41.1589 59.4657 40.9737 59.4657 40.9737C59.4657 40.9737 60.0774 40.4847 60.8099 40.1044C61.1722 39.9142 61.5634 39.7512 61.8733 39.6549C62.1831 39.5561 62.4036 39.5092 62.4141 39.5068V39.5117Z" fill="#8267D7"/>
<path d="M56.6696 48.5949C56.6696 48.5949 56.6722 48.585 56.7064 48.5825C56.9138 48.5504 57.41 48.5998 57.9456 48.8641C57.9561 48.869 57.9902 48.8888 57.9955 48.8962C57.9955 48.9036 57.9561 49.0616 57.901 49.2938C57.8485 49.5358 57.7828 49.8544 57.7146 50.1705C57.6516 50.4891 57.5885 50.8077 57.5413 51.0447C57.4993 51.2744 57.473 51.4275 57.473 51.4275C57.473 51.4275 57.4704 51.4325 57.4651 51.4424C57.4651 51.4448 57.4599 51.4498 57.4546 51.4547C57.4546 51.4572 57.452 51.4547 57.4494 51.4572H57.4153C57.3654 51.4498 57.3155 51.4448 57.2656 51.4424C57.1947 51.4325 57.1186 51.4275 57.0424 51.4226C57.0031 51.4226 56.9663 51.4201 56.9269 51.4176C56.9007 51.4152 56.8797 51.4127 56.856 51.4127L56.7983 51.4176C56.7983 51.4176 56.7773 51.3954 56.7589 51.3979C56.6434 51.3559 56.5147 51.3213 56.2601 51.2497L56.218 51.2374L56.197 51.2324L56.2023 51.23C56.2049 51.2275 56.2102 51.225 56.2154 51.2176C56.2338 51.1979 56.2522 51.1707 56.2758 51.1411C56.3677 51.02 56.4911 50.862 56.625 50.736C57.0162 50.2989 57.2682 50.5484 57.3601 50.8892C57.3785 50.8768 57.4021 51.0719 57.4153 51.2744C57.4179 51.3263 57.4205 51.3781 57.4231 51.4275C57.4231 51.4547 57.4231 51.4819 57.4231 51.5066C57.4231 51.5214 57.4231 51.5337 57.4205 51.5535C57.4205 51.5658 57.4205 51.5708 57.4126 51.588L57.4021 51.6251V51.635L57.3969 51.6424C57.389 51.6597 57.3811 51.6745 57.3733 51.6918C57.3391 51.7585 57.2866 51.8202 57.2315 51.8696L57.2105 51.8869L57.2 51.8943C57.2 51.8943 57.1685 51.9165 57.1448 51.9313C57.0976 51.9585 57.0293 51.9955 56.9112 52.0153C56.7983 52.0375 56.6197 52.0252 56.4806 51.9461C56.3388 51.8696 56.26 51.7634 56.2207 51.6918C56.1813 51.6152 56.1682 51.5634 56.1603 51.5214L56.155 51.4967C56.1524 51.4769 56.1498 51.4572 56.1498 51.4374V51.3707V51.3312C56.1498 51.3164 56.1498 51.3041 56.1498 51.2917C56.1498 51.272 56.1472 51.2547 56.1445 51.2423C56.1445 51.2176 56.1419 51.2028 56.1419 51.2028C56.1419 51.2028 56.1708 51.0398 56.2154 50.7928C56.2627 50.5533 56.3257 50.2322 56.3861 49.9112C56.5121 49.2716 56.6644 48.6196 56.6749 48.5924L56.6696 48.5949Z" fill="#8267D7"/>
<path d="M63.1125 57.0614C63.1125 57.0614 63.0994 57.0564 63.0994 57.0218C63.0784 56.8167 63.1886 56.3522 63.6139 55.9247C63.6218 55.9173 63.6533 55.8901 63.6638 55.8877C63.6743 55.8926 63.8765 55.9816 64.1863 56.0779C64.4961 56.1768 64.9188 56.2756 65.3546 56.33C66.2237 56.4461 67.1216 56.3621 67.1216 56.3621C67.1216 56.3621 67.266 56.3868 67.4734 56.4189C67.6782 56.456 67.9407 56.5005 68.1691 56.5622C68.9332 56.7031 68.7257 57.0317 68.282 57.2615C68.3083 57.2714 68.0405 57.3776 67.7569 57.4691C67.4734 57.5605 67.1741 57.6346 67.1741 57.6346C67.1741 57.6346 66.1738 57.7261 65.1472 57.5902C64.6353 57.5259 64.1259 57.4098 63.7505 57.2887C63.3724 57.1701 63.1256 57.0638 63.1125 57.0564V57.0614Z" fill="#8267D7"/>
<path d="M76.3554 56.3939C76.3554 56.3939 76.3501 56.4013 76.316 56.3915C76.2189 56.3643 76.0508 56.3075 75.8565 56.2062C75.6649 56.1025 75.4443 55.9543 75.2658 55.7123C75.2606 55.7024 75.2396 55.6679 75.2396 55.658C75.2474 55.6456 75.3945 55.4481 75.6203 55.2036C75.8461 54.9566 76.1506 54.6528 76.463 54.3639C77.0853 53.786 77.739 53.2625 77.739 53.2625C77.739 53.2625 78.2536 53.0155 78.6894 52.9389C79.3852 52.7636 79.3616 53.1439 79.1541 53.4946C79.1804 53.4946 79.036 53.6798 78.889 53.8725C78.742 54.0651 78.5949 54.2553 78.5949 54.2553C78.5949 54.2553 77.9779 54.7541 77.4056 55.29C77.1194 55.5567 76.8437 55.8309 76.6547 56.0408C76.5602 56.147 76.484 56.2334 76.4368 56.2951C76.3843 56.3569 76.3606 56.3939 76.358 56.3964L76.3554 56.3939Z" fill="#8267D7"/>
<path d="M84.9118 48.1405C84.9118 48.1405 84.9118 48.1504 84.8829 48.1677C84.707 48.2689 84.2476 48.4764 83.6358 48.4072C83.6253 48.4072 83.5833 48.3974 83.5754 48.39C83.5754 48.3776 83.5282 48.1677 83.4757 47.8516C83.4258 47.5355 83.3759 47.1107 83.3706 46.676C83.3628 46.2414 83.4074 45.7993 83.4757 45.4709C83.5413 45.1399 83.6174 44.9251 83.6174 44.9251C83.6174 44.9251 83.691 44.7917 83.8249 44.6287C83.9509 44.4657 84.1425 44.2781 84.3316 44.157C84.6283 43.9372 84.8068 43.9471 84.8987 44.041C84.9932 44.1373 85.0011 44.3176 84.988 44.5052C85.009 44.4954 84.9617 44.7053 84.9354 44.9127C84.9118 45.1227 84.9066 45.3301 84.9066 45.3301C84.9066 45.3301 84.8541 45.4882 84.8068 45.7376C84.7595 45.9845 84.7254 46.3278 84.7333 46.681C84.7385 47.0341 84.7832 47.3947 84.8252 47.6688C84.8724 47.9429 84.9118 48.1331 84.9144 48.143L84.9118 48.1405Z" fill="#8267D7"/>
<path d="M85.5026 33.6809C85.5026 33.6809 85.5052 33.6982 85.4763 33.718C85.3109 33.8612 84.862 34.1107 84.2319 33.9699C84.2214 33.9674 84.1767 33.9526 84.1689 33.9427C84.1662 33.9279 84.1006 33.634 84.0035 33.2043C83.9063 32.7746 83.7777 32.2091 83.6411 31.6509C83.5046 31.0928 83.3576 30.5396 83.2394 30.1296C83.1213 29.7197 83.0347 29.4505 83.0347 29.4505C83.0347 29.4505 82.948 28.7121 82.9559 28.1589C82.9034 27.2402 83.3103 27.4526 83.6726 27.9391C83.6753 27.907 83.8564 28.2058 84.0271 28.517C84.1977 28.8282 84.3579 29.1542 84.3579 29.1542C84.3579 29.1542 84.4472 29.4332 84.5653 29.853C84.6861 30.2729 84.8357 30.8335 84.9749 31.3965C85.114 31.9596 85.2427 32.5252 85.3398 32.9524C85.4343 33.3797 85.5 33.6686 85.5026 33.6859V33.6809Z" fill="#8267D7"/>
<path d="M81.0471 24.0865C81.0471 24.0865 81.0524 24.1013 81.0287 24.126C80.9001 24.2989 80.4984 24.5878 79.8683 24.6199C79.8578 24.6199 79.8132 24.6199 79.8053 24.6125C79.8 24.6002 79.7029 24.3853 79.5217 24.0816C79.3432 23.7778 79.0754 23.3876 78.7682 23.0246C78.4637 22.6591 78.1223 22.3183 77.8545 22.0762C77.5868 21.8342 77.3977 21.6811 77.3977 21.6811C77.3977 21.6811 77.3032 21.5576 77.1667 21.3823C77.0328 21.2069 76.8647 20.9822 76.7335 20.7772C76.2399 20.1302 76.6547 20.0487 77.1824 20.2092C77.1693 20.1845 77.4607 20.3031 77.7522 20.4463C78.0436 20.5895 78.3324 20.755 78.3324 20.755C78.3324 20.755 78.5398 20.9229 78.8391 21.1921C79.1332 21.4638 79.5138 21.8416 79.8578 22.2565C80.2043 22.6665 80.5115 23.1135 80.7189 23.4666C80.929 23.8198 81.0471 24.0742 81.0524 24.089L81.0471 24.0865Z" fill="#8267D7"/>
<path d="M72.3122 16.6135C72.3122 16.6135 72.3227 16.6209 72.3122 16.6505C72.2702 16.8431 72.0943 17.2877 71.6191 17.6556C71.6112 17.6631 71.5745 17.6853 71.5666 17.6853C71.5298 17.6631 68.7914 15.9689 68.7914 15.9689C68.7914 15.9689 68.4213 15.5836 68.2217 15.228C67.8489 14.6724 68.227 14.5662 68.6444 14.6427C68.626 14.5983 69.5738 14.9267 69.5738 14.9267C69.5738 14.9267 72.2754 16.5912 72.3148 16.6135H72.3122Z" fill="#8267D7"/>
<path d="M58.4497 10.3555C58.4313 10.3826 58.4234 10.3925 58.3736 10.4123C58.0401 10.5703 57.4074 10.6419 57.2866 9.78991C57.2866 9.77509 57.284 9.70841 57.2945 9.68124C57.6778 9.10088 58.0296 8.4983 58.3525 7.87843C59.282 6.09537 59.9987 4.17895 60.8625 2.28229L61.4611 1.02526L61.7945 0.33871L61.8786 0.165842L61.9206 0.0794039L61.9416 0.0374172L61.9521 0.0151916C61.9521 0.0151916 61.9599 0.000379102 61.9626 0.0127272L62.1752 0.318956L62.5979 0.933887C62.7371 1.12158 62.8894 1.3957 63.0364 1.60315L63.3751 2.05016L63.6166 2.32181C64.2625 3.04293 65.0501 3.65787 65.9218 4.17155C66.2579 4.37406 66.607 4.55681 66.9615 4.73709C66.9615 4.73709 67.0691 4.79635 67.2477 4.89761C67.4262 5.00133 67.6835 5.13964 67.9802 5.29523C68.5788 5.6064 69.3559 5.97436 70.0018 6.288C71.1123 6.78686 71.4327 7.00913 71.2673 7.09557C71.1045 7.17707 70.4691 7.10545 69.7104 6.94245C69.7812 6.9795 68.8859 6.7597 67.9802 6.46582C67.7517 6.39667 67.526 6.31763 67.3133 6.23861C67.1006 6.16452 66.9011 6.09044 66.7331 6.01882C66.5624 5.94967 66.4206 5.89286 66.3235 5.85335C66.2263 5.80889 66.1686 5.78421 66.1686 5.78421L65.675 5.52736L65.1919 5.2483C64.2284 4.68276 63.3278 3.98385 62.5769 3.14666L62.296 2.83302L62.1647 2.66014L62.107 2.78609C61.2668 4.63089 60.5474 6.56708 59.5708 8.44398C59.2295 9.09596 58.8566 9.73559 58.4471 10.3579L58.4497 10.3555Z" fill="#8267D7"/>
</g>
</svg>
