<svg width="117" height="40" viewBox="0 0 117 40" fill="none" xmlns="http://www.w3.org/2000/svg">
<path d="M0.0915833 12.7542H1.06973C1.83575 16.3801 3.92561 17.6489 7.12718 17.6489C10.3288 17.6489 11.9944 15.9283 11.9944 13.4967C11.9944 11.0651 9.53524 10.2165 6.75792 9.68622C3.79598 9.13233 0.912598 8.09918 0.912598 5.08224C0.912598 2.51706 3.00246 0.348633 6.38866 0.348633C9.77486 0.348633 11.8922 1.80211 12.7368 6.03682H11.7587C11.0162 2.1478 8.92634 1.14215 6.36116 1.14215C3.58385 1.14215 1.86325 2.78418 1.86325 5.05868C1.86325 7.5178 4.37737 8.36631 7.15468 8.86913C10.0891 9.39946 12.9489 10.4287 12.9489 13.4731C12.9489 16.2504 10.8591 18.4464 7.07611 18.4464C3.02996 18.4464 0.963668 16.7257 0.0915833 12.7582V12.7542Z" fill="white"/>
<path d="M14.3749 5.69507H15.302L18.6332 16.4861L22.3376 5.69507H23.2097L26.9377 16.5686L30.2689 5.69507H31.1684L27.2519 18.1792H26.6155L22.7815 6.88535L18.92 18.1792H18.2836L14.3671 5.69507H14.3749Z" fill="white"/>
<path d="M33.2347 1.93579H34.4525V3.23213H33.2347V1.93579ZM33.3918 5.69125H34.3189V18.1754H33.3918V5.69125Z" fill="white"/>
<path d="M36.4599 5.69507H37.387L41.7788 16.9654L46.1706 5.69507H47.0702L42.0695 18.3403H41.4331L36.4599 5.69507Z" fill="white"/>
<path d="M47.7027 11.9608C47.7027 8.09923 50.1618 5.42798 53.7091 5.42798C57.2563 5.42798 59.2637 7.83603 59.2637 11.8311V12.1493H48.6298C48.6808 15.3234 50.535 17.6764 53.7366 17.6764C56.62 17.6764 58.0499 16.1955 58.6823 14.5024L59.4248 14.7656C58.7648 16.6983 57.0442 18.4425 53.7366 18.4425C49.9536 18.4425 47.7066 15.7162 47.7066 11.9608H47.7027ZM58.2856 11.4069C58.2581 8.15422 56.4864 6.194 53.7091 6.194C50.9318 6.194 48.8144 8.28386 48.6298 11.4069H58.2856Z" fill="white"/>
<path d="M62.1196 0.348633H63.0192V18.1792H62.1196V0.348633Z" fill="white"/>
<path d="M0.963654 21.7932H12.34V23.4588H2.86888V29.4652H10.0105V31.1308H2.86888V39.3567H0.963654V21.7932Z" fill="white"/>
<path d="M11.7272 33.1148C11.7272 29.2807 14.2414 26.6331 17.9183 26.6331C21.5951 26.6331 24.0543 29.2768 24.0543 33.1148C24.0543 36.9527 21.5401 39.5965 17.8632 39.5965C14.1864 39.5965 11.7272 36.9763 11.7272 33.1148ZM22.204 33.1933V33.0873C22.204 30.1253 20.5659 28.1926 17.9183 28.1926C15.2706 28.1926 13.5814 30.1253 13.5814 33.0873V33.1933C13.5814 36.1553 15.2195 38.033 17.8672 38.033C20.5149 38.033 22.204 36.1278 22.204 33.1933Z" fill="white"/>
<path d="M26.1206 34.6781V26.8765H27.9983V34.576C27.9983 36.8504 28.8979 37.9897 30.8031 37.9897C33.3172 37.9897 34.6371 35.7937 34.6371 32.329V26.8804H36.4874V39.3646H34.6607V36.5087C33.9733 38.52 32.5708 39.6042 30.4024 39.6042C27.6526 39.6042 26.1166 37.805 26.1166 34.6859L26.1206 34.6781Z" fill="white"/>
<path d="M39.5554 26.8726H41.382V29.807C42.042 27.7682 43.4444 26.6055 45.6128 26.6055C48.2566 26.6055 49.9261 28.3771 49.9261 31.5512V39.3528H48.0759V31.6533C48.0759 29.4064 47.0191 28.2396 45.1414 28.2396C42.6548 28.2396 41.4135 30.302 41.4135 33.9514V39.3489H39.5632V26.8647L39.5554 26.8726Z" fill="white"/>
<path d="M52.016 33.1421C52.016 29.1745 54.3454 26.6093 57.7277 26.6093C59.6604 26.6093 61.1925 27.56 62.0921 29.1235V21.53H63.8912V39.3606H62.0921V37.1136C61.22 38.6732 59.6565 39.6278 57.7002 39.6278C54.369 39.6278 52.012 37.1686 52.012 33.146L52.016 33.1421ZM62.1746 33.1932V32.9811C62.1746 30.1252 60.6386 28.1924 58.1009 28.1924C55.5632 28.1924 53.9487 30.0427 53.9487 33.0321V33.2442C53.9487 36.2612 55.5357 38.0329 58.1009 38.0329C60.6661 38.0329 62.1746 36.0216 62.1746 33.1932Z" fill="white"/>
<path d="M66.1657 36.1042C66.1657 33.4054 68.3342 32.718 70.8993 32.1641C72.8321 31.7162 74.3916 31.5277 74.8394 30.7106V30.5535C74.8394 29.0175 73.9124 28.1454 71.7714 28.1454C69.7601 28.1454 68.4127 28.9389 68.3577 30.7656V30.8992H66.48C66.5311 28.0943 68.7034 26.6409 71.7714 26.6409C74.8394 26.6409 76.6111 28.0433 76.6111 31.0052V37.8837L76.6386 39.3647H74.8119V37.1687C73.8338 38.9954 72.1132 39.6554 70.369 39.6554C67.7488 39.6554 66.1618 38.2019 66.1618 36.112L66.1657 36.1042ZM74.8434 34.7568V32.2191C74.1009 32.879 72.5964 33.1187 71.139 33.4643C69.4969 33.8611 68.071 34.3914 68.071 36.0295C68.071 37.3259 68.9705 38.198 70.6636 38.198C72.7535 38.198 74.3916 37.1137 74.8434 34.7607V34.7568Z" fill="white"/>
<path d="M80.2644 36.3948V28.4597H78.0174V26.8726H80.2644V24.2524L82.0636 23.0347V26.8687H85.0255V28.4557H82.0361V36.1788C82.0361 37.2905 82.4328 37.7383 83.5171 37.7658H84.9705V39.3529H83.0928C80.9244 39.3018 80.288 38.3472 80.2605 36.3909L80.2644 36.3948Z" fill="white"/>
<path d="M87.1665 22.5632H89.2563V24.6531H87.1665V22.5632ZM87.2725 26.8765H89.1503V39.3607H87.2725V26.8765Z" fill="white"/>
<path d="M91.4247 33.1148C91.4247 29.2807 93.9389 26.6331 97.6158 26.6331C101.293 26.6331 103.752 29.2768 103.752 33.1148C103.752 36.9527 101.238 39.5965 97.5608 39.5965C93.8839 39.5965 91.4247 36.9763 91.4247 33.1148ZM101.902 33.1933V33.0873C101.902 30.1253 100.263 28.1926 97.6158 28.1926C94.9681 28.1926 93.2789 30.1253 93.2789 33.0873V33.1933C93.2789 36.1553 94.917 38.033 97.5647 38.033C100.212 38.033 101.902 36.1278 101.902 33.1933Z" fill="white"/>
<path d="M106.026 26.8726H107.853V29.807C108.513 27.7682 109.915 26.6055 112.084 26.6055C114.727 26.6055 116.397 28.3771 116.397 31.5512V39.3528H114.547V31.6533C114.547 29.4064 113.49 28.2396 111.612 28.2396C109.126 28.2396 107.884 30.302 107.884 33.9514V39.3489H106.034V26.8647L106.026 26.8726Z" fill="white"/>
</svg>
