<svg width="67" height="67" viewBox="0 0 67 67" fill="none" xmlns="http://www.w3.org/2000/svg">
<path fill-rule="evenodd" clip-rule="evenodd" d="M35.4897 16.6526H53.6931L55.9686 18.9281V28.1663H58.335L60.6105 30.4418V34.8561L58.335 37.1315H55.9686V50.7842L53.6931 53.0596H39.4944L28.1172 65.62L24.2035 63.9817V53.0596H12.8263L10.5509 50.147V37.1315H8.27544L6 34.8561V30.4418L8.27544 28.1663H10.5509V18.2909L12.9628 16.6526H31.1663V11.4646C30.4531 11.0851 29.8537 10.5225 29.4298 9.8347C29.0059 9.14688 28.7728 8.35861 28.7544 7.55087C28.7544 6.34391 29.2338 5.18637 30.0873 4.33292C30.9407 3.47947 32.0983 3 33.3052 3C34.5122 3 35.6697 3.47947 36.5232 4.33292C37.3766 5.18637 37.8561 6.34391 37.8561 7.55087C37.8187 8.33057 37.5814 9.08754 37.167 9.74904C36.7525 10.4105 36.1749 10.9543 35.4897 11.3281V16.6526ZM51.5087 34.8561V21.2035H15.1017V47.8716L26.4789 48.5087H28.7544V58.4751L36.9459 49.1913L38.5387 48.5087H51.5087V34.8561ZM41.8609 37.177C40.1568 38.8853 37.9891 40.0562 35.6262 40.5447V40.4992C33.655 40.8763 31.6216 40.7667 29.7024 40.1798C27.7832 39.5929 26.0362 38.5466 24.6131 37.1315L21.4275 40.3627C22.9748 41.91 24.8179 43.1296 26.843 43.9578C28.8909 44.8134 31.0844 45.2594 33.3052 45.2776C37.7049 45.2507 41.9192 43.5029 45.0465 40.4082L41.8609 37.177ZM26.4334 28.0298H21.8825V32.5807H26.4334V28.0298ZM40.086 28.0298H44.6369V32.5807H40.086V28.0298Z" fill="white"/>
</svg>
