<svg width="26" height="27" viewBox="0 0 26 27" fill="none" xmlns="http://www.w3.org/2000/svg">
<path d="M13 2.90259C7.176 2.90259 2.4375 7.64109 2.4375 13.4651C2.4375 19.2891 7.176 24.0276 13 24.0276C18.824 24.0276 23.5625 19.2891 23.5625 13.4651C23.5625 7.64109 18.824 2.90259 13 2.90259ZM13 4.52759C17.9457 4.52759 21.9375 8.5194 21.9375 13.4651C21.9375 18.4108 17.9457 22.4026 13 22.4026C8.05431 22.4026 4.0625 18.4108 4.0625 13.4651C4.0625 8.5194 8.05431 4.52759 13 4.52759ZM12.1875 8.59009V12.6526H8.125V14.2776H12.1875V18.3401H13.8125V14.2776H17.875V12.6526H13.8125V8.59009H12.1875Z" fill="white"/>
</svg>
