<svg width="26" height="27" viewBox="0 0 26 27" fill="none" xmlns="http://www.w3.org/2000/svg">
<path d="M13 2.44141C7.176 2.44141 2.4375 7.17991 2.4375 13.0039C2.4375 18.8279 7.176 23.5664 13 23.5664C18.824 23.5664 23.5625 18.8279 23.5625 13.0039C23.5625 7.17991 18.824 2.44141 13 2.44141ZM13 4.06641C17.9457 4.06641 21.9375 8.05822 21.9375 13.0039C21.9375 17.9496 17.9457 21.9414 13 21.9414C8.05431 21.9414 4.0625 17.9496 4.0625 13.0039C4.0625 8.05822 8.05431 4.06641 13 4.06641ZM12.1875 8.12891V12.1914H8.125V13.8164H12.1875V17.8789H13.8125V13.8164H17.875V12.1914H13.8125V8.12891H12.1875Z" fill="white"/>
</svg>
