<svg width="34" height="35" viewBox="0 0 34 35" fill="none" xmlns="http://www.w3.org/2000/svg">
<path d="M9.265 7.08724C9.35 8.34807 9.5625 9.58057 9.9025 10.7564L8.2025 12.4564C7.62167 10.7564 7.25333 8.95724 7.12584 7.08724H9.265ZM23.2333 24.1156C24.4375 24.4556 25.67 24.6681 26.9167 24.7531V26.8639C25.0467 26.7364 23.2475 26.3681 21.5333 25.8014L23.2333 24.1156ZM10.625 4.25391H5.66667C4.8875 4.25391 4.25 4.89141 4.25 5.67057C4.25 18.9731 15.0308 29.7539 28.3333 29.7539C29.1125 29.7539 29.75 29.1164 29.75 28.3372V23.3931C29.75 22.6139 29.1125 21.9764 28.3333 21.9764C26.5767 21.9764 24.8625 21.6931 23.2758 21.1689C23.1342 21.1122 22.9783 21.0981 22.8367 21.0981C22.4683 21.0981 22.1142 21.2397 21.8308 21.5089L18.7142 24.6256C14.705 22.5714 11.4183 19.2989 9.37834 15.2897L12.495 12.1731C12.8917 11.7764 13.005 11.2239 12.8492 10.7281C12.325 9.14141 12.0417 7.44141 12.0417 5.67057C12.0417 4.89141 11.4042 4.25391 10.625 4.25391Z" fill="white"/>
</svg>
