<svg width="23" height="23" viewBox="0 0 23 23" fill="none" xmlns="http://www.w3.org/2000/svg">
<path d="M6.91667 10.5834H8.75V12.4167H6.91667V10.5834ZM19.75 6.00004V18.8334C19.75 19.8417 18.925 20.6667 17.9167 20.6667H5.08333C4.5971 20.6667 4.13079 20.4736 3.78697 20.1297C3.44315 19.7859 3.25 19.3196 3.25 18.8334L3.25917 6.00004C3.25917 4.99171 4.06583 4.16671 5.08333 4.16671H6V2.33337H7.83333V4.16671H15.1667V2.33337H17V4.16671H17.9167C18.925 4.16671 19.75 4.99171 19.75 6.00004ZM5.08333 7.83337H17.9167V6.00004H5.08333V7.83337ZM17.9167 18.8334V9.66671H5.08333V18.8334H17.9167ZM14.25 12.4167H16.0833V10.5834H14.25V12.4167ZM10.5833 12.4167H12.4167V10.5834H10.5833V12.4167Z" fill="white"/>
</svg>
