<svg width="23" height="23" viewBox="0 0 23 23" fill="none" xmlns="http://www.w3.org/2000/svg">
<path d="M11.5 2.5625C8.08398 2.5625 5.3125 5.20035 5.3125 8.44922C5.3125 12.1875 9.4375 18.1116 10.9521 20.1578C11.015 20.2441 11.0974 20.3144 11.1926 20.3629C11.2878 20.4114 11.3932 20.4366 11.5 20.4366C11.6068 20.4366 11.7122 20.4114 11.8074 20.3629C11.9026 20.3144 11.985 20.2441 12.0479 20.1578C13.5625 18.1125 17.6875 12.1905 17.6875 8.44922C17.6875 5.20035 14.916 2.5625 11.5 2.5625Z" stroke="white" stroke-width="2.25" stroke-linecap="round" stroke-linejoin="round"/>
<path d="M11.5 10.8125C12.6391 10.8125 13.5625 9.88909 13.5625 8.75C13.5625 7.61091 12.6391 6.6875 11.5 6.6875C10.3609 6.6875 9.4375 7.61091 9.4375 8.75C9.4375 9.88909 10.3609 10.8125 11.5 10.8125Z" stroke="white" stroke-width="2.25" stroke-linecap="round" stroke-linejoin="round"/>
</svg>
