<svg width="223" height="22" viewBox="0 0 223 22" fill="none" xmlns="http://www.w3.org/2000/svg">
<path d="M0.0240631 18.0516L2.89773 14.9465C3.41275 15.4989 4.09945 16.0438 4.95782 16.5737C5.81619 17.1037 6.81637 17.3724 7.96584 17.3724C8.42115 17.3724 8.86153 17.2903 9.29445 17.1186C9.72736 16.9544 10.0856 16.7006 10.3767 16.3797C10.6604 16.0512 10.8097 15.6631 10.8097 15.2078C10.8097 14.4763 10.4514 13.9016 9.7423 13.4911C9.03321 13.0731 7.90613 12.6849 6.36853 12.3043C4.86825 11.9311 3.62175 11.2668 2.63649 10.3188C1.65123 9.37088 1.15861 8.14677 1.15861 6.64649C1.15861 5.54181 1.42731 4.52669 1.95726 3.60861C2.48721 2.69053 3.28587 1.95158 4.35323 1.39178C5.42059 0.831973 6.76413 0.54834 8.37637 0.54834C9.7199 0.54834 10.847 0.720013 11.7651 1.06336C12.6831 1.40671 13.4146 1.78738 13.9744 2.20536C14.5268 2.62335 14.9149 2.95924 15.1314 3.21302L12.5563 6.05683C12.1233 5.72094 11.5486 5.34028 10.8395 4.91482C10.1304 4.48937 9.28699 4.28038 8.32412 4.28038C7.68967 4.28038 7.10748 4.45952 6.5626 4.82526C6.01772 5.191 5.74901 5.63138 5.74901 6.13893C5.74901 6.8107 6.10729 7.35558 6.81637 7.7661C7.52546 8.18409 8.50326 8.52744 9.74976 8.80361C10.7201 9.04246 11.6456 9.39327 12.5488 9.87097C13.4445 10.3412 14.1834 11.0055 14.7582 11.8564C15.3329 12.7073 15.6165 13.812 15.6165 15.1705C15.6165 16.3573 15.2806 17.4097 14.6089 18.3352C13.9371 19.2608 13.0265 19.9923 11.8845 20.5297C10.7425 21.0596 9.45866 21.3283 8.03302 21.3283C6.72681 21.3283 5.57734 21.1716 4.56969 20.8581C3.56204 20.5446 2.68128 20.1341 1.93487 19.6265C1.181 19.1264 0.554016 18.5965 0.0389945 18.0441L0.0240631 18.0516Z" fill="white"/>
<path d="M21.7968 20.8356L16.8555 1.08569H21.6549L24.5585 15.3869L28.0218 1.62311H32.0748L35.568 15.3869L38.4417 1.08569H43.0619L38.0311 20.8356H33.3213L29.9475 7.93026L26.5141 20.8356H21.8042H21.7968Z" fill="white"/>
<path d="M45.5251 20.8356V1.08569H49.996V20.8356H45.5251Z" fill="white"/>
<path d="M59.5277 20.8356L52.2726 1.08569H57.2138L62.0431 15.5063L66.7529 1.08569H71.4926L64.2375 20.8356H59.5277Z" fill="white"/>
<path d="M73.8662 20.8356V1.08569H88.0181V4.99687H78.3372V8.84834H88.0181V12.6401H78.3372V16.9021H88.0181V20.8431H73.8662V20.8356Z" fill="white"/>
<path d="M90.7201 20.8356V1.08569H95.1911V16.8648H104.633V20.8356H90.7201Z" fill="white"/>
<path d="M107.343 20.9775V1.0708H119.278V2.41434H108.776V9.93067H116.979V11.2742H108.776V20.97H107.343V20.9775Z" fill="white"/>
<path d="M122.92 20.9775V1.0708H124.353V20.9775H122.92Z" fill="white"/>
<path d="M129.481 20.9775V1.0708H130.974L143.745 18.8278V1.0708H145.148V20.9775H143.655L130.884 3.45931V20.9775H129.481Z" fill="white"/>
<path d="M148.313 20.9775L156.456 1.0708H157.889L166.033 20.9775H164.391L161.793 14.5584H152.426L149.858 20.9775H148.305H148.313ZM152.97 13.2223H161.263L157.113 2.8995L152.963 13.2223H152.97Z" fill="white"/>
<path d="M169.197 20.9775V1.0708H170.69L183.461 18.8278V1.0708H184.865V20.9775H183.372L170.601 3.45931V20.9775H169.197Z" fill="white"/>
<path d="M204.883 16.9171L205.958 17.6635C205.839 17.865 205.615 18.1636 205.286 18.5741C204.958 18.9846 204.502 19.4101 203.913 19.8579C203.323 20.3058 202.607 20.6865 201.748 20.9925C200.89 21.2985 199.875 21.4553 198.703 21.4553C196.792 21.4553 195.12 21 193.672 20.0819C192.232 19.1638 191.104 17.9247 190.298 16.3498C189.492 14.7749 189.089 12.9985 189.089 11.0055C189.089 9.55005 189.321 8.19905 189.776 6.93016C190.231 5.66873 190.888 4.56405 191.731 3.61611C192.575 2.66817 193.59 1.92923 194.777 1.39181C195.964 0.854399 197.27 0.585693 198.703 0.585693C199.875 0.585693 200.89 0.742438 201.748 1.04847C202.607 1.35449 203.323 1.73516 203.913 2.18301C204.502 2.63085 204.958 3.0563 205.286 3.46683C205.615 3.87735 205.839 4.17591 205.958 4.37744L204.883 5.12385C204.764 4.96711 204.57 4.71333 204.301 4.37744C204.032 4.04156 203.652 3.68329 203.166 3.30262C202.681 2.92195 202.077 2.60099 201.36 2.33229C200.644 2.06358 199.778 1.92923 198.763 1.92923C197.068 1.92923 195.62 2.33229 194.404 3.13841C193.187 3.94453 192.261 5.02682 191.612 6.39275C190.963 7.75867 190.642 9.28881 190.642 11.0055C190.642 12.7223 190.97 14.23 191.627 15.6183C192.284 16.9992 193.224 18.0964 194.448 18.9025C195.672 19.7087 197.135 20.1117 198.852 20.1117C199.785 20.1117 200.606 19.9774 201.315 19.7087C202.024 19.44 202.622 19.119 203.107 18.7383C203.592 18.3577 203.98 17.9994 204.271 17.6635C204.562 17.3276 204.764 17.0738 204.883 16.9171Z" fill="white"/>
<path d="M210.048 20.9775V1.0708H221.983V2.41434H211.481V9.93067H219.684V11.2742H211.481V19.6265H222.76V20.97H210.048V20.9775Z" fill="white"/>
</svg>
