<svg width="32" height="33" viewBox="0 0 32 33" fill="none" xmlns="http://www.w3.org/2000/svg">
<path d="M25.3333 4.80078C26.0406 4.80078 26.7189 5.08173 27.219 5.58183C27.719 6.08193 28 6.7602 28 7.46745V26.1341C28 26.8414 27.719 27.5196 27.219 28.0197C26.7189 28.5198 26.0406 28.8008 25.3333 28.8008H6.66667C5.95942 28.8008 5.28115 28.5198 4.78105 28.0197C4.28095 27.5196 4 26.8414 4 26.1341V7.46745C4 6.7602 4.28095 6.08193 4.78105 5.58183C5.28115 5.08173 5.95942 4.80078 6.66667 4.80078H25.3333ZM24.6667 25.4674V18.4008C24.6667 17.248 24.2087 16.1424 23.3936 15.3272C22.5784 14.5121 21.4728 14.0541 20.32 14.0541C19.1867 14.0541 17.8667 14.7474 17.2267 15.7874V14.3074H13.5067V25.4674H17.2267V18.8941C17.2267 17.8674 18.0533 17.0274 19.08 17.0274C19.5751 17.0274 20.0499 17.2241 20.3999 17.5742C20.75 17.9243 20.9467 18.399 20.9467 18.8941V25.4674H24.6667ZM9.17333 12.2141C9.76742 12.2141 10.3372 11.9781 10.7573 11.558C11.1773 11.138 11.4133 10.5682 11.4133 9.97411C11.4133 8.73411 10.4133 7.72078 9.17333 7.72078C8.57571 7.72078 8.00257 7.95819 7.57999 8.38077C7.1574 8.80335 6.92 9.37649 6.92 9.97411C6.92 11.2141 7.93333 12.2141 9.17333 12.2141ZM11.0267 25.4674V14.3074H7.33333V25.4674H11.0267Z" fill="white"/>
</svg>
