<svg width="2386" height="1299" viewBox="0 0 2386 1299" fill="none" xmlns="http://www.w3.org/2000/svg">
<g opacity="0.7">
<g filter="url(#filter0_f_1_386)">
<path d="M1851.99 611.352C1850.45 570.858 1726.83 558.097 1612.22 547.774C1537.58 541.05 1404.23 520.465 1414.57 547.774C1424.91 575.082 1497.77 605.464 1445.58 634.601C1391.63 664.721 1278.33 655.425 1194.7 663.385C1111.07 671.346 1229.98 731.752 1329.86 745.468C1460.72 763.438 1632.12 677.936 1632.12 677.936C1632.12 677.936 1853.49 650.551 1851.99 611.352Z" fill="url(#paint0_linear_1_386)"/>
</g>
<g opacity="0.6" filter="url(#filter1_f_1_386)">
<path d="M534.008 611.377C535.553 570.87 659.284 558.105 773.999 547.778C848.705 541.053 982.177 520.461 971.83 547.778C961.483 575.095 1100.61 568.345 1206.72 570.876C1312.82 573.407 1009.97 676.663 1093.67 684.626C1177.38 692.589 1237.77 708.199 1000.08 754.553C762.402 800.907 754.077 677.981 754.077 677.981C754.077 677.981 532.511 650.588 534.008 611.377Z" fill="url(#paint1_linear_1_386)"/>
</g>
</g>
<defs>
<filter id="filter0_f_1_386" x="632.418" y="0" width="1753.58" height="1281.95" filterUnits="userSpaceOnUse" color-interpolation-filters="sRGB">
<feFlood flood-opacity="0" result="BackgroundImageFix"/>
<feBlend mode="normal" in="SourceGraphic" in2="BackgroundImageFix" result="shape"/>
<feGaussianBlur stdDeviation="267" result="effect1_foregroundBlur_1_386"/>
</filter>
<filter id="filter1_f_1_386" x="0" y="0" width="1763.55" height="1299" filterUnits="userSpaceOnUse" color-interpolation-filters="sRGB">
<feFlood flood-opacity="0" result="BackgroundImageFix"/>
<feBlend mode="normal" in="SourceGraphic" in2="BackgroundImageFix" result="shape"/>
<feGaussianBlur stdDeviation="267" result="effect1_foregroundBlur_1_386"/>
</filter>
<linearGradient id="paint0_linear_1_386" x1="1759.5" y1="623.5" x2="1397.5" y2="715" gradientUnits="userSpaceOnUse">
<stop stop-color="#89298D"/>
<stop offset="1" stop-color="#2C57A0"/>
</linearGradient>
<linearGradient id="paint1_linear_1_386" x1="692" y1="604" x2="1045.5" y2="658.5" gradientUnits="userSpaceOnUse">
<stop stop-color="#0099A0"/>
<stop offset="1" stop-color="#066AA4"/>
</linearGradient>
</defs>
</svg>
