<svg width="67" height="67" viewBox="0 0 67 67" fill="none" xmlns="http://www.w3.org/2000/svg">
<path d="M57.7351 54.2804L49.4648 44.1519C53.3383 37.7921 54.2805 30.0714 52.0297 22.848C51.8203 22.1675 51.0875 21.8011 50.407 22.0105C49.7266 22.2199 49.334 22.9527 49.5695 23.6332C51.6894 30.3855 50.6949 37.6089 46.8215 43.4976L46.743 43.6023C46.4812 44.0734 46.5074 44.6492 46.8476 45.0679L55.7199 55.9031C55.7199 55.9031 55.8508 56.0601 55.8769 56.0601C56.6098 56.8976 56.6098 58.0753 55.9031 58.939C55.8769 58.9652 55.8769 58.9913 55.8508 58.9913L55.6676 59.1746C54.8301 59.8812 53.6 59.8812 52.7363 59.1222C52.684 59.0699 52.6578 59.0437 52.6055 58.9913L41.7703 50.1453C41.3254 49.7789 40.6973 49.7527 40.2262 50.0667L40.1215 50.1453C30.9875 56.1124 18.7652 54.9085 10.966 47.2663C10.9137 47.1878 10.8875 47.1093 10.8351 47.057C1.72733 38.0015 1.72733 23.2144 10.809 14.1328C19.8906 5.05112 34.6777 5.05112 43.7594 14.1328C43.8117 14.1851 43.8902 14.2374 43.9687 14.2636C43.9949 14.2898 44.0472 14.3421 44.0734 14.3683C44.5183 14.9179 45.3558 14.9964 45.9055 14.5253C46.4551 14.0804 46.5336 13.2429 46.0625 12.6933C45.9578 12.5624 45.8008 12.4054 45.6437 12.2484C35.5676 2.19838 19.1578 2.11987 9.00311 12.1699C8.97694 12.196 8.9246 12.2222 8.89842 12.2746C4.71092 16.4621 2.09374 22.0367 1.49178 27.9253C1.23006 30.4902 1.36092 33.055 1.83202 35.5414C2.82655 40.6449 5.2867 45.2773 8.97694 48.9675C17.4305 57.3949 30.6996 58.939 40.8543 52.7624L50.9043 60.9804C50.9566 61.0328 51.0351 61.1113 51.0875 61.1636C52.0035 61.9488 53.1027 62.3152 54.2019 62.3152C55.3273 62.3152 56.4527 61.9226 57.3687 61.1374L57.8137 60.7187C57.8922 60.6402 57.9445 60.5617 57.9969 60.457C59.384 58.6511 59.3316 56.1386 57.8398 54.3851C57.8137 54.3589 57.7613 54.3066 57.7351 54.2804Z" fill="white"/>
<path d="M65.3773 5.46987C65.1156 5.10347 64.6707 4.89409 64.1996 4.94644L55.7984 5.83628C55.3273 5.88862 54.9347 6.17651 54.7515 6.59526C54.5683 7.01401 54.6207 7.51128 54.8824 7.87769L56.7406 10.4164L27.2187 31.6941C26.9047 31.9035 26.7215 32.2699 26.6953 32.6363L25.9101 42.7125L13.1383 30.2285C12.8765 29.9667 12.5101 29.8359 12.1437 29.8621L8.40114 30.1238C7.6945 30.1761 7.14489 30.7781 7.19724 31.5109C7.24958 32.2175 7.87771 32.7671 8.58435 32.7148L11.7511 32.5054L26.0933 46.5074C26.3289 46.7429 26.6691 46.8738 27.0093 46.8738C27.1664 46.8738 27.3234 46.8476 27.4543 46.7953C27.9254 46.6121 28.2394 46.1933 28.2918 45.696L29.2601 33.4738L58.3371 12.5625L59.9336 14.7609C60.1691 15.1011 60.5617 15.2843 60.9804 15.2843C61.0328 15.2843 61.0851 15.2843 61.1113 15.2843C61.5824 15.232 61.975 14.9441 62.1582 14.5253L65.5605 6.80464C65.7175 6.33355 65.6652 5.86245 65.3773 5.46987ZM60.6664 11.3847L58.3371 8.19175L62.2629 7.773L60.6664 11.3847Z" fill="white"/>
</svg>
