<svg width="67" height="67" viewBox="0 0 67 67" fill="none" xmlns="http://www.w3.org/2000/svg">
<path d="M15.075 54.7167C12.9813 52.623 11.3407 50.2035 10.1533 47.4584C8.96591 44.7132 8.37314 41.875 8.375 38.9438C8.375 36.0125 8.93334 33.1167 10.05 30.2561C11.1667 27.3956 12.9813 24.7082 15.4938 22.1938C17.1222 20.5653 19.135 19.1695 21.5321 18.0063C23.9292 16.8431 26.7674 15.9237 30.0467 15.2481C33.326 14.5744 37.0715 14.1678 41.2832 14.0282C45.4949 13.8886 50.2053 14.0514 55.4146 14.5167C55.7868 19.4487 55.9031 23.9851 55.7635 28.1261C55.624 32.2671 55.2396 36.0014 54.6106 39.3291C53.9834 42.6549 53.0994 45.5619 51.9585 48.0502C50.8176 50.5385 49.4106 52.6211 47.7375 54.298C45.2715 56.7639 42.6539 58.5674 39.8845 59.7082C37.1152 60.8491 34.2891 61.4186 31.4063 61.4167C28.3819 61.4167 25.4274 60.823 22.5427 59.6356C19.658 58.4482 17.1688 56.8086 15.075 54.7167ZM22.8917 53.6001C24.241 54.391 25.6256 54.9614 27.0457 55.3113C28.4657 55.6612 29.9192 55.8352 31.4063 55.8334C33.5465 55.8334 35.6635 55.4025 37.7573 54.5408C39.851 53.6791 41.8517 52.2954 43.7594 50.3896C44.5969 49.5521 45.4465 48.3768 46.3082 46.8638C47.1699 45.3507 47.9143 43.3742 48.5415 40.9343C49.1687 38.4906 49.6451 35.5361 49.9708 32.0707C50.2965 28.6053 50.3431 24.4755 50.1104 19.6813C47.8306 19.5882 45.2604 19.5538 42.3998 19.578C39.5393 19.6022 36.689 19.8227 33.849 20.2396C31.0108 20.6584 28.3122 21.333 25.7531 22.2636C23.1941 23.1941 21.1004 24.4737 19.4719 26.1021C17.3781 28.1959 15.9358 30.2664 15.1448 32.3136C14.3538 34.3608 13.9583 36.3382 13.9583 38.2459C13.9583 40.991 14.4822 43.3993 15.53 45.4707C16.5779 47.5421 17.4963 48.9957 18.2854 49.8313C20.2396 46.1091 22.8219 42.5376 26.0323 39.1169C29.2427 35.6962 32.9882 32.8933 37.2688 30.7084C33.9188 33.6396 30.9996 36.9552 28.5113 40.6551C26.023 44.355 24.1498 48.67 22.8917 53.6001Z" fill="white"/>
</svg>
