<svg width="24" height="24" viewBox="0 0 24 24" fill="none" xmlns="http://www.w3.org/2000/svg">
<path d="M13.3 17.275C13.1 17.075 13.004 16.8333 13.012 16.55C13.02 16.2667 13.1243 16.025 13.325 15.825L16.15 13H5C4.71667 13 4.479 12.904 4.287 12.712C4.095 12.52 3.99934 12.2827 4 12C4 11.7167 4.096 11.479 4.288 11.287C4.48 11.095 4.71734 10.9993 5 11H16.15L13.3 8.14999C13.1 7.94999 13 7.71232 13 7.43699C13 7.16165 13.1 6.92432 13.3 6.72499C13.5 6.52499 13.7377 6.42499 14.013 6.42499C14.2883 6.42499 14.5257 6.52499 14.725 6.72499L19.3 11.3C19.4 11.4 19.471 11.5083 19.513 11.625C19.555 11.7417 19.5757 11.8667 19.575 12C19.575 12.1333 19.554 12.2583 19.512 12.375C19.47 12.4917 19.3993 12.6 19.3 12.7L14.7 17.3C14.5167 17.4833 14.2877 17.575 14.013 17.575C13.7383 17.575 13.5007 17.475 13.3 17.275Z" fill="white"/>
</svg>
