<svg width="25" height="24" viewBox="0 0 25 24" fill="none" xmlns="http://www.w3.org/2000/svg">
<path d="M13.8 17.275C13.6 17.075 13.504 16.8334 13.512 16.55C13.52 16.2667 13.6243 16.025 13.825 15.825L16.65 13H5.5C5.21667 13 4.979 12.904 4.787 12.712C4.595 12.52 4.49934 12.2827 4.5 12C4.5 11.7167 4.596 11.479 4.788 11.287C4.98 11.095 5.21734 10.9994 5.5 11H16.65L13.8 8.15005C13.6 7.95005 13.5 7.71238 13.5 7.43705C13.5 7.16172 13.6 6.92438 13.8 6.72505C14 6.52505 14.2377 6.42505 14.513 6.42505C14.7883 6.42505 15.0257 6.52505 15.225 6.72505L19.8 11.3C19.9 11.4 19.971 11.5084 20.013 11.625C20.055 11.7417 20.0757 11.8667 20.075 12C20.075 12.1334 20.054 12.2584 20.012 12.375C19.97 12.4917 19.8993 12.6 19.8 12.7L15.2 17.3C15.0167 17.4834 14.7877 17.575 14.513 17.575C14.2383 17.575 14.0007 17.475 13.8 17.275Z" fill="white"/>
</svg>
