<svg width="33" height="34" viewBox="0 0 33 34" fill="none" xmlns="http://www.w3.org/2000/svg">
<path d="M16.5 15.8164C15.5883 15.8164 14.714 15.4542 14.0693 14.8096C13.4247 14.1649 13.0625 13.2906 13.0625 12.3789C13.0625 11.4672 13.4247 10.5929 14.0693 9.94823C14.714 9.30357 15.5883 8.94141 16.5 8.94141C17.4117 8.94141 18.286 9.30357 18.9307 9.94823C19.5753 10.5929 19.9375 11.4672 19.9375 12.3789C19.9375 12.8303 19.8486 13.2773 19.6758 13.6944C19.5031 14.1114 19.2499 14.4904 18.9307 14.8096C18.6115 15.1288 18.2325 15.382 17.8155 15.5547C17.3984 15.7275 16.9514 15.8164 16.5 15.8164ZM16.5 2.75391C13.9473 2.75391 11.4991 3.76797 9.6941 5.573C7.88906 7.37804 6.875 9.8262 6.875 12.3789C6.875 19.5977 16.5 30.2539 16.5 30.2539C16.5 30.2539 26.125 19.5977 26.125 12.3789C26.125 9.8262 25.1109 7.37804 23.3059 5.573C21.5009 3.76797 19.0527 2.75391 16.5 2.75391Z" fill="white"/>
</svg>
