<svg width="67" height="67" viewBox="0 0 67 67" fill="none" xmlns="http://www.w3.org/2000/svg">
<path d="M43.2708 39.0833L57.2292 53.0417L53.0417 57.2292L39.0833 43.2708V41.0654L38.3296 40.2838C35.0466 43.1141 30.8554 44.6697 26.5208 44.6667C21.7083 44.6667 17.0928 42.7549 13.6898 39.3519C10.2868 35.9489 8.375 31.3334 8.375 26.5208C8.375 21.7083 10.2868 17.0928 13.6898 13.6898C17.0928 10.2868 21.7083 8.375 26.5208 8.375C31.3334 8.375 35.9489 10.2868 39.3519 13.6898C42.7549 17.0928 44.6667 21.7083 44.6667 26.5208C44.6667 31.0154 43.0196 35.1471 40.2838 38.3296L41.0654 39.0833H43.2708ZM26.5208 12.5625L24.9854 12.6463C24.3154 14.0979 23.2825 16.5546 22.5287 19.5417H30.5129C29.7592 16.5546 28.7263 14.0979 28.0563 12.6463C27.5538 12.5625 27.0513 12.5625 26.5208 12.5625ZM38.6088 19.5417C36.9486 16.6372 34.2898 14.4348 31.1271 13.3442C31.7971 14.8238 32.6625 16.9733 33.3046 19.5417H38.6088ZM14.4329 19.5417H19.7371C20.3792 16.9733 21.2446 14.8238 21.9146 13.3442C18.7519 14.4348 16.0931 16.6372 14.4329 19.5417ZM12.5625 26.5208C12.5625 27.9167 12.7858 29.3962 13.2046 30.7083H19.1788L18.8438 26.5208L19.1788 22.3333H13.2046C12.7858 23.6454 12.5625 25.125 12.5625 26.5208ZM39.8371 30.7083C40.2558 29.3962 40.4792 27.9167 40.4792 26.5208C40.4792 25.125 40.2558 23.6454 39.8371 22.3333H33.8629C34.3074 25.1073 34.3074 27.9344 33.8629 30.7083H39.8371ZM21.9704 22.3333L21.6354 26.5208L21.9704 30.7083H31.0713C31.5158 27.9344 31.5158 25.1073 31.0713 22.3333H21.9704ZM26.5208 40.4792C27.0233 40.4792 27.5258 40.4792 28.0004 40.3954C28.6983 38.9438 29.7592 36.4871 30.5129 33.5H22.5287C23.2825 36.4871 24.3433 38.9438 25.0413 40.3954L26.5208 40.4792ZM38.6088 33.5H33.3046C32.6625 36.0683 31.7971 38.2179 31.1271 39.6975C34.2898 38.6069 36.9486 36.4045 38.6088 33.5ZM14.4329 33.5C16.0931 36.4045 18.7519 38.6069 21.9146 39.6975C21.2446 38.2179 20.3792 36.0683 19.7371 33.5H14.4329Z" fill="white"/>
</svg>
