<svg width="32" height="33" viewBox="0 0 32 33" fill="none" xmlns="http://www.w3.org/2000/svg">
<path d="M22 3.80078H10C8.14409 3.80277 6.36477 4.5409 5.05245 5.85323C3.74012 7.16555 3.00199 8.94488 3 10.8008V22.8008C3.00199 24.6567 3.74012 26.436 5.05245 27.7483C6.36477 29.0607 8.14409 29.7988 10 29.8008H22C23.8559 29.7988 25.6352 29.0607 26.9476 27.7483C28.2599 26.436 28.998 24.6567 29 22.8008V10.8008C28.998 8.94488 28.2599 7.16555 26.9476 5.85323C25.6352 4.5409 23.8559 3.80277 22 3.80078ZM16 22.8008C14.8133 22.8008 13.6533 22.4489 12.6666 21.7896C11.6799 21.1303 10.9108 20.1932 10.4567 19.0969C10.0026 18.0005 9.88378 16.7941 10.1153 15.6302C10.3468 14.4664 10.9182 13.3973 11.7574 12.5581C12.5965 11.719 13.6656 11.1476 14.8295 10.9161C15.9933 10.6846 17.1997 10.8034 18.2961 11.2575C19.3925 11.7116 20.3295 12.4807 20.9888 13.4674C21.6481 14.4541 22 15.6141 22 16.8008C21.9983 18.3916 21.3657 19.9167 20.2408 21.0416C19.116 22.1665 17.5908 22.7991 16 22.8008ZM23.5 10.8008C23.2033 10.8008 22.9133 10.7128 22.6666 10.548C22.42 10.3832 22.2277 10.1489 22.1142 9.87481C22.0007 9.60072 21.9709 9.29912 22.0288 9.00815C22.0867 8.71717 22.2296 8.4499 22.4393 8.24012C22.6491 8.03034 22.9164 7.88748 23.2074 7.8296C23.4983 7.77173 23.7999 7.80143 24.074 7.91496C24.3481 8.02849 24.5824 8.22075 24.7472 8.46743C24.912 8.7141 25 9.00411 25 9.30078C25 9.69861 24.842 10.0801 24.5607 10.3614C24.2794 10.6427 23.8978 10.8008 23.5 10.8008ZM20 16.8008C20 17.5919 19.7654 18.3653 19.3259 19.0231C18.8864 19.6809 18.2616 20.1936 17.5307 20.4963C16.7998 20.799 15.9956 20.8783 15.2196 20.7239C14.4437 20.5696 13.731 20.1886 13.1716 19.6292C12.6122 19.0698 12.2312 18.3571 12.0769 17.5811C11.9225 16.8052 12.0017 16.001 12.3045 15.27C12.6072 14.5391 13.1199 13.9144 13.7777 13.4749C14.4355 13.0354 15.2089 12.8008 16 12.8008C17.0609 12.8008 18.0783 13.2222 18.8284 13.9724C19.5786 14.7225 20 15.7399 20 16.8008Z" fill="white"/>
</svg>
