<svg width="127" height="127" viewBox="0 0 127 127" fill="none" xmlns="http://www.w3.org/2000/svg">
<g id="material-symbols:play-circle" opacity="0.7">
<path id="Vector" d="M50.2708 87.3124L87.3125 63.4999L50.2708 39.6874V87.3124ZM63.5 116.417C56.1799 116.417 49.3007 115.027 42.8625 112.247C36.4243 109.467 30.824 105.697 26.0615 100.938C21.299 96.176 17.5295 90.5756 14.7532 84.1374C11.9768 77.6992 10.5869 70.8201 10.5833 63.4999C10.5833 56.1798 11.9733 49.3006 14.7532 42.8624C17.5331 36.4242 21.3025 30.8239 26.0615 26.0614C30.824 21.2989 36.4243 17.5294 42.8625 14.7531C49.3007 11.9767 56.1799 10.5868 63.5 10.5833C70.8201 10.5833 77.6993 11.9732 84.1375 14.7531C90.5757 17.533 96.1761 21.3024 100.939 26.0614C105.701 30.8239 109.472 36.4242 112.252 42.8624C115.032 49.3006 116.42 56.1798 116.417 63.4999C116.417 70.8201 115.027 77.6992 112.247 84.1374C109.467 90.5756 105.698 96.176 100.939 100.938C96.1761 105.701 90.5757 109.472 84.1375 112.252C77.6993 115.032 70.8201 116.42 63.5 116.417Z" fill="white"/>
</g>
</svg>
