<svg width="22" height="23" viewBox="0 0 22 23" fill="none" xmlns="http://www.w3.org/2000/svg">
<path d="M11 20.6667C5.93726 20.6667 1.83334 16.5628 1.83334 11.5C1.83334 6.43729 5.93726 2.33337 11 2.33337C16.0628 2.33337 20.1667 6.43729 20.1667 11.5C20.1667 16.5628 16.0628 20.6667 11 20.6667ZM11 18.8334C12.9449 18.8334 14.8102 18.0608 16.1855 16.6855C17.5607 15.3102 18.3333 13.445 18.3333 11.5C18.3333 9.55512 17.5607 7.68986 16.1855 6.31459C14.8102 4.93932 12.9449 4.16671 11 4.16671C9.05509 4.16671 7.18983 4.93932 5.81456 6.31459C4.43929 7.68986 3.66668 9.55512 3.66668 11.5C3.66668 13.445 4.43929 15.3102 5.81456 16.6855C7.18983 18.0608 9.05509 18.8334 11 18.8334ZM11.9167 11.5H15.5833V13.3334H10.0833V6.91671H11.9167V11.5Z" fill="white"/>
</svg>
