<svg width="67" height="67" viewBox="0 0 67 67" fill="none" xmlns="http://www.w3.org/2000/svg">
<g clip-path="url(#clip0_101_255)">
<path d="M58.625 50.25C58.6502 51.3653 58.4524 52.4744 58.0431 53.5122C57.6337 54.5499 57.0212 55.4955 56.2415 56.2933C55.4617 57.0911 54.5304 57.725 53.5022 58.158C52.4741 58.5909 51.3698 58.8141 50.2542 58.8143C49.1386 58.8146 48.0343 58.592 47.0059 58.1596C45.9775 57.7272 45.0459 57.0937 44.2657 56.2963C43.4856 55.4989 42.8726 54.5536 42.4628 53.5161C42.0529 52.4785 41.8545 51.3695 41.8792 50.2542C41.9276 48.066 42.8307 45.9836 44.3952 44.4529C45.9597 42.9223 48.0613 42.0649 50.25 42.0643C52.4388 42.0638 54.5408 42.9201 56.1061 44.45C57.6714 45.9799 58.5755 48.0618 58.625 50.25Z" fill="white"/>
<path d="M48.9937 67C45.6437 67 42.2937 66.1625 39.3625 64.0687L13.4 50.25C11.3063 48.575 9.63125 47.7375 7.95625 46.0625C2.93125 41.0375 0 33.9188 0 26.8C0 19.6812 2.93125 12.9812 7.95625 7.95625C12.9812 2.93125 19.6812 0 26.8 0C33.9188 0 40.6188 2.93125 46.0625 7.95625C47.7375 9.63125 48.575 10.8875 50.25 12.9812L64.9062 39.7812C69.0938 46.9 67.8375 55.6937 61.975 61.5562C58.2062 65.325 54.0187 67 48.9937 67ZM26.8 4.1875C20.9375 4.1875 15.075 6.7 10.8875 10.8875C6.7 15.075 4.1875 20.9375 4.1875 26.8C4.1875 33.0812 6.7 38.525 10.8875 42.7125C12.1437 43.9688 13.4 44.8063 15.4938 46.0625L41.875 60.3C44.3875 61.975 46.9 62.3937 49.4125 62.3937C53.1813 62.3937 56.5312 61.1375 59.0438 58.2062C63.65 53.6 64.4875 46.9 61.1375 41.4562L46.4813 14.6562C45.225 12.9812 44.3875 11.725 43.1313 10.4688C38.525 6.7 33.0812 4.1875 26.8 4.1875Z" fill="white"/>
<path d="M46.0625 29.3125V25.125L40.2 23.0312C39.7813 22.1938 39.7812 21.775 39.3625 20.9375L41.875 15.4938L38.9438 12.5625L33.5 15.075C32.6625 14.6562 32.2437 14.6563 31.4062 14.2375L29.3125 8.375H25.125L23.0312 14.2375C22.1938 14.6563 21.775 14.6562 20.9375 15.075L15.4938 12.5625L12.5625 15.4938L15.075 20.9375C14.6562 21.775 14.6563 22.1938 14.2375 23.0312L8.375 25.125V29.3125L14.2375 31.4062C14.6563 32.2437 14.6562 32.6625 15.075 33.5L12.5625 38.9438L15.4938 41.875L20.9375 39.3625C21.775 39.7812 22.1938 40.2 23.0312 40.2L25.125 46.0625H29.3125L31.4062 40.2C32.2437 39.7813 32.6625 39.7812 33.5 39.3625L38.9438 41.875L41.875 38.9438L39.3625 33.5C39.7812 32.6625 40.2 32.2437 40.2 31.4062L46.0625 29.3125ZM27.2188 33.5C23.8687 33.5 20.9375 30.5688 20.9375 27.2188C20.9375 23.8687 23.8687 20.9375 27.2188 20.9375C30.5688 20.9375 33.5 23.8687 33.5 27.2188C33.5 30.5688 30.5688 33.5 27.2188 33.5Z" fill="white"/>
</g>
<defs>
<clipPath id="clip0_101_255">
<rect width="67" height="67" fill="white"/>
</clipPath>
</defs>
</svg>
