<svg width="67" height="56" viewBox="0 0 67 56" fill="none" xmlns="http://www.w3.org/2000/svg">
<path d="M32.1156 55.4483C31.7157 55.4483 31.3255 55.4088 30.9455 55.33C30.5654 55.2512 30.1909 55.1066 29.8217 54.8961L11.6281 44.9582C10.8898 44.5374 10.2965 43.9622 9.84828 43.2328C9.40003 42.5032 9.1759 41.6849 9.1759 40.7778V24.6874L1.18654 20.3494C0.7722 20.1151 0.470846 19.8221 0.282477 19.4705C0.0941586 19.119 0 18.7284 0 18.2987C0 17.8691 0.0941586 17.4785 0.282477 17.1269C0.470846 16.7753 0.7722 16.4824 1.18654 16.248L29.8217 0.63099C30.184 0.420661 30.5562 0.262913 30.9385 0.157748C31.3209 0.0525835 31.7132 0 32.1156 0C32.5181 0 32.9106 0.0525835 33.293 0.157748C33.6754 0.262913 34.0476 0.420661 34.4096 0.63099L65.7344 17.5889C66.1563 17.8518 66.4726 18.1664 66.6835 18.5327C66.8947 18.899 67 19.2943 67 19.7184V40.9354C67 41.6058 66.7713 42.168 66.3138 42.6215C65.8561 43.075 65.2894 43.3016 64.6132 43.3016C63.9367 43.3016 63.3744 43.075 62.9262 42.6215C62.478 42.168 62.2539 41.6058 62.2539 40.9354V21.0593L55.0555 24.6874V40.7778C55.0555 41.6849 54.8314 42.5032 54.3832 43.2328C53.9348 43.9622 53.3417 44.5374 52.6033 44.9582L34.4096 54.8961C34.0406 55.1066 33.6659 55.2512 33.2858 55.33C32.9058 55.4088 32.5158 55.4483 32.1156 55.4483ZM32.1156 31.865L57.0332 18.2987L32.1156 4.96904L7.35655 18.2987L32.1156 31.865ZM32.1156 50.7948L50.3094 40.7778V27.5271L34.4096 36.0453C34.0406 36.2556 33.6714 36.4002 33.3022 36.4792C32.933 36.558 32.5375 36.5975 32.1156 36.5975C31.6938 36.5975 31.3114 36.558 30.9688 36.4792C30.6259 36.4002 30.2699 36.2556 29.9007 36.0453L13.9221 27.3693V40.7778L32.1156 50.7948Z" fill="white"/>
</svg>
