<svg width="67" height="67" viewBox="0 0 67 67" fill="none" xmlns="http://www.w3.org/2000/svg">
<path d="M4.82593 61.1285C3.53902 61.1285 2.41297 60.6459 1.44778 59.6807C0.482593 58.7155 0 57.5894 0 56.3025V16.6495C0 15.3625 0.482593 14.2365 1.44778 13.2713C2.41297 12.3061 3.53902 11.8235 4.82593 11.8235H20.108V4.82593C20.108 3.59264 20.5906 2.47999 21.5558 1.488C22.521 0.495998 23.6471 0 24.934 0H39.4118C40.6987 0 41.8247 0.495998 42.7899 1.488C43.7551 2.47999 44.2377 3.59264 44.2377 4.82593V11.8235H59.5198C60.8067 11.8235 61.9328 12.3061 62.898 13.2713C63.8631 14.2365 64.3457 15.3625 64.3457 16.6495V35.7923C63.595 35.2025 62.8309 34.6663 62.0534 34.1837C61.2759 33.7011 60.4314 33.2453 59.5198 32.8163V16.6495H4.82593V56.3427V56.3025H31.7269C31.917 57.1605 32.1729 57.9916 32.4946 58.7959C32.8163 59.6002 33.1917 60.3778 33.6207 61.1285H4.82593ZM24.934 11.8235H39.4118V4.82593H24.934V11.8235ZM51.4766 67C47.2405 67 43.5942 65.4718 40.5378 62.4154C37.4814 59.3589 35.9532 55.7127 35.9532 51.4766C35.9532 47.2405 37.4814 43.5942 40.5378 40.5378C43.5942 37.4814 47.2405 35.9532 51.4766 35.9532C55.7127 35.9532 59.3589 37.4814 62.4154 40.5378C65.4718 43.5942 67 47.2405 67 51.4766C67 55.7127 65.4718 59.3589 62.4154 62.4154C59.3589 65.4718 55.7127 67 51.4766 67ZM57.4286 59.6002L59.6002 57.4286L52.8439 51.3157V41.3421H49.4658V52.2629L57.4286 59.6002Z" fill="white"/>
</svg>
