<svg width="176" height="47" viewBox="0 0 176 47" fill="none" xmlns="http://www.w3.org/2000/svg">
<path d="M2.66919 46H-0.33081V49H2.66919V46ZM2.66919 39.28L0.609319 37.099L-0.33081 37.9869V39.28H2.66919ZM19.9492 22.96L17.9346 20.737L17.9118 20.7578L17.8893 20.779L19.9492 22.96ZM22.9572 19.632L25.47 21.2708H25.47L22.9572 19.632ZM24.2372 16.944L21.3764 16.0406L21.3545 16.1101L21.336 16.1805L24.2372 16.944ZM22.7652 10.608L20.861 12.9262L20.9058 12.963L20.952 12.9981L22.7652 10.608ZM12.2052 10.224L10.9801 7.48554L10.9664 7.49169L10.9527 7.49797L12.2052 10.224ZM8.17319 13.616L6.54876 16.1381L8.93995 17.6782L10.6052 15.3725L8.17319 13.616ZM0.62119 8.752L-1.87496 7.0879L-3.56558 9.62383L-1.00324 11.2741L0.62119 8.752ZM7.78919 2.672L6.47761 -0.0261068L6.47761 -0.0261059L7.78919 2.672ZM27.1172 2.096L25.89 4.83352L25.9183 4.84618L25.9467 4.85825L27.1172 2.096ZM32.9412 6.64L30.4785 8.35319L30.4909 8.37105L30.5036 8.38872L32.9412 6.64ZM34.4772 18.032L31.5771 17.2643L31.569 17.2947L31.5616 17.3252L34.4772 18.032ZM32.3012 22.512L29.8466 20.7872L29.8308 20.8097L29.8154 20.8324L32.3012 22.512ZM27.5652 27.824L25.5119 25.6368L25.5082 25.6403L27.5652 27.824ZM13.2292 41.328L10.5735 42.7234L12.4108 46.2203L15.2862 43.5117L13.2292 41.328ZM11.2452 37.552V34.552H6.28002L8.58946 38.9474L11.2452 37.552ZM36.5252 37.552H39.5252V34.552H36.5252V37.552ZM36.5252 46V49H39.5252V46H36.5252ZM5.66919 46V39.28H-0.33081V46H5.66919ZM4.72906 41.461L22.0091 25.141L17.8893 20.779L0.609319 37.099L4.72906 41.461ZM21.9637 25.183C23.4242 23.8595 24.6334 22.5536 25.47 21.2708L20.4444 17.9932C20.001 18.6731 19.2049 19.5859 17.9346 20.737L21.9637 25.183ZM25.47 21.2708C26.2213 20.1189 26.818 18.9252 27.1384 17.7075L21.336 16.1805C21.2297 16.5842 20.9731 17.1824 20.4444 17.9932L25.47 21.2708ZM27.0979 17.8474C27.4246 16.813 27.6212 15.7576 27.6212 14.704H21.6212C21.6212 15.0158 21.5618 15.4537 21.3764 16.0406L27.0979 17.8474ZM27.6212 14.704C27.6212 12.1375 26.685 9.81605 24.5784 8.21792L20.952 12.9981C21.3201 13.2773 21.6212 13.6865 21.6212 14.704H27.6212ZM24.6694 8.28982C22.7217 6.68992 20.1503 6.136 17.4532 6.136V12.136C19.4494 12.136 20.4193 12.5634 20.861 12.9262L24.6694 8.28982ZM17.4532 6.136C15.1781 6.136 13.0086 6.57805 10.9801 7.48554L13.4303 12.9625C14.6445 12.4193 15.9736 12.136 17.4532 12.136V6.136ZM10.9527 7.49797C8.86188 8.45861 7.12525 9.94308 5.74115 11.8595L10.6052 15.3725C11.4398 14.2169 12.3912 13.4401 13.4577 12.95L10.9527 7.49797ZM9.79762 11.0939L2.24562 6.22985L-1.00324 11.2741L6.54876 16.1381L9.79762 11.0939ZM3.11734 10.4161C4.49636 8.34757 6.45431 6.65658 9.10077 5.3701L6.47761 -0.0261059C2.98008 1.67409 0.159354 4.03642 -1.87496 7.0879L3.11734 10.4161ZM9.10077 5.3701C11.6987 4.10719 14.7782 3.432 18.4132 3.432V-2.568C14.0268 -2.568 10.0236 -1.74986 6.47761 -0.0261068L9.10077 5.3701ZM18.4132 3.432C21.412 3.432 23.8786 3.93185 25.89 4.83352L28.3444 -0.641532C25.4065 -1.95852 22.0704 -2.568 18.4132 -2.568V3.432ZM25.9467 4.85825C28.0196 5.73657 29.4807 6.91895 30.4785 8.35319L35.4039 4.92681C33.671 2.43571 31.2495 0.588758 28.2876 -0.666258L25.9467 4.85825ZM30.5036 8.38872C31.4991 9.77645 32.0532 11.4914 32.0532 13.68H38.0532C38.0532 10.4072 37.1993 7.42888 35.3788 4.89128L30.5036 8.38872ZM32.0532 13.68C32.0532 14.8627 31.8971 16.0555 31.5771 17.2643L37.3773 18.7997C37.8253 17.1072 38.0532 15.3986 38.0532 13.68H32.0532ZM31.5616 17.3252C31.3329 18.2689 30.8075 19.4198 29.8466 20.7872L34.7558 24.2368C36.0136 22.4469 36.9388 20.6111 37.3927 18.7388L31.5616 17.3252ZM29.8154 20.8324C28.9193 22.1587 27.5128 23.7584 25.5119 25.6368L29.6185 30.0112C31.7989 27.9643 33.5498 26.0226 34.787 24.1916L29.8154 20.8324ZM25.5082 25.6403L11.1722 39.1443L15.2862 43.5117L29.6222 30.0077L25.5082 25.6403ZM15.8849 39.9326L13.9009 36.1566L8.58946 38.9474L10.5735 42.7234L15.8849 39.9326ZM11.2452 40.552H36.5252V34.552H11.2452V40.552ZM33.5252 37.552V46H39.5252V37.552H33.5252ZM36.5252 43H2.66919V49H36.5252V43ZM57.1872 44.08L55.5838 46.6156L55.5972 46.6241L55.6107 46.6324L57.1872 44.08ZM50.3392 36.144L47.6362 37.4454L50.3392 36.144ZM50.3392 11.056L53.0422 12.3574L50.3392 11.056ZM57.1872 3.184L58.7637 5.73639L58.7772 5.72806L58.7906 5.71958L57.1872 3.184ZM76.8992 3.184L75.2788 5.70876L75.3007 5.72276L75.3227 5.73639L76.8992 3.184ZM83.7472 11.056L81.0442 12.3574V12.3574L83.7472 11.056ZM83.7472 36.144L81.0442 34.8426L83.7472 36.144ZM76.8992 44.08L78.4926 46.6219L78.5026 46.6156L76.8992 44.08ZM71.5872 36.528L69.7997 34.1187L69.7807 34.1328L69.7619 34.1472L71.5872 36.528ZM74.6592 31.856L71.8365 30.8398L71.8275 30.865L71.8189 30.8903L74.6592 31.856ZM74.6592 15.344L71.8189 16.3097L71.8275 16.335L71.8365 16.3602L74.6592 15.344ZM71.5872 10.672L69.7619 13.0528L69.7807 13.0672L69.7997 13.0813L71.5872 10.672ZM62.4992 10.672L60.7117 8.2627L60.6927 8.27679L60.6739 8.29118L62.4992 10.672ZM59.4272 15.344L56.6045 14.3278L56.5955 14.353L56.5869 14.3783L59.4272 15.344ZM59.4272 31.856L56.5869 32.8217L56.5955 32.847L56.6045 32.8722L59.4272 31.856ZM62.4992 36.528L60.6739 38.9088L60.6927 38.9232L60.7117 38.9373L62.4992 36.528ZM67.0432 43.768C63.8867 43.768 61.1551 43.0047 58.7637 41.5276L55.6107 46.6324C59.0219 48.7393 62.861 49.768 67.0432 49.768V43.768ZM58.7906 41.5444C56.4184 40.0444 54.4919 37.8535 53.0422 34.8426L47.6362 37.4454C49.5145 41.3465 52.1533 44.4463 55.5838 46.6156L58.7906 41.5444ZM53.0422 34.8426C51.6204 31.8895 50.8432 28.1777 50.8432 23.6H44.8432C44.8432 28.8356 45.73 33.4865 47.6362 37.4454L53.0422 34.8426ZM50.8432 23.6C50.8432 19.0223 51.6204 15.3105 53.0422 12.3574L47.6362 9.75455C45.73 13.7135 44.8432 18.3644 44.8432 23.6H50.8432ZM53.0422 12.3574C54.4897 9.35105 56.4086 7.19098 58.7637 5.73639L55.6107 0.631603C52.1631 2.76101 49.5167 5.84895 47.6362 9.75455L53.0422 12.3574ZM58.7906 5.71958C61.1787 4.20941 63.9006 3.432 67.0432 3.432V-2.568C62.8471 -2.568 58.9983 -1.51074 55.5838 0.648417L58.7906 5.71958ZM67.0432 3.432C70.2361 3.432 72.9482 4.21301 75.2788 5.70876L78.5196 0.659239C75.1328 -1.51435 71.2743 -2.568 67.0432 -2.568V3.432ZM75.3227 5.73639C77.6778 7.19098 79.5967 9.35105 81.0442 12.3574L86.4502 9.75455C84.5697 5.84895 81.9233 2.76101 78.4757 0.631603L75.3227 5.73639ZM81.0442 12.3574C82.466 15.3105 83.2432 19.0223 83.2432 23.6H89.2432C89.2432 18.3644 88.3564 13.7135 86.4502 9.75455L81.0442 12.3574ZM83.2432 23.6C83.2432 28.1777 82.466 31.8895 81.0442 34.8426L86.4502 37.4454C88.3564 33.4865 89.2432 28.8356 89.2432 23.6H83.2432ZM81.0442 34.8426C79.5945 37.8535 77.6679 40.0444 75.2958 41.5444L78.5026 46.6156C81.9331 44.4463 84.5719 41.3465 86.4502 37.4454L81.0442 34.8426ZM75.3058 41.5381C72.9719 43.0012 70.25 43.768 67.0432 43.768V49.768C71.2604 49.768 75.1092 48.7428 78.4926 46.6219L75.3058 41.5381ZM67.0432 41C69.3932 41 71.5635 40.3264 73.4125 38.9088L69.7619 34.1472C69.0509 34.6923 68.1919 35 67.0432 35V41ZM73.3747 38.9373C75.3371 37.4813 76.6484 35.3249 77.4995 32.8217L71.8189 30.8903C71.2193 32.6537 70.4826 33.612 69.7997 34.1187L73.3747 38.9373ZM77.4819 32.8722C78.4095 30.2952 78.8112 27.1649 78.8112 23.6H72.8112C72.8112 26.7764 72.4448 29.1501 71.8365 30.8398L77.4819 32.8722ZM78.8112 23.6C78.8112 20.0351 78.4095 16.9048 77.4819 14.3278L71.8365 16.3602C72.4448 18.0499 72.8112 20.4236 72.8112 23.6H78.8112ZM77.4995 14.3783C76.6484 11.8751 75.3371 9.71867 73.3747 8.2627L69.7997 13.0813C70.4826 13.588 71.2193 14.5463 71.8189 16.3097L77.4995 14.3783ZM73.4125 8.29118C71.5635 6.87364 69.3932 6.2 67.0432 6.2V12.2C68.1919 12.2 69.0509 12.5077 69.7619 13.0528L73.4125 8.29118ZM67.0432 6.2C64.7177 6.2 62.5711 6.88313 60.7117 8.2627L64.2867 13.0813C65.0726 12.4982 65.9553 12.2 67.0432 12.2V6.2ZM60.6739 8.29118C58.7877 9.73729 57.4916 11.8638 56.6045 14.3278L62.2499 16.3602C62.8988 14.5575 63.6507 13.5694 64.3245 13.0528L60.6739 8.29118ZM56.5869 14.3783C55.7172 16.9361 55.3392 20.0472 55.3392 23.6H61.3392C61.3392 20.4115 61.6865 18.0185 62.2675 16.3097L56.5869 14.3783ZM55.3392 23.6C55.3392 27.1528 55.7172 30.2639 56.5869 32.8217L62.2675 30.8903C61.6865 29.1815 61.3392 26.7885 61.3392 23.6H55.3392ZM56.6045 32.8722C57.4916 35.3362 58.7877 37.4627 60.6739 38.9088L64.3245 34.1472C63.6507 33.6306 62.8988 32.6425 62.2499 30.8398L56.6045 32.8722ZM60.7117 38.9373C62.5711 40.3169 64.7177 41 67.0432 41V35C65.9553 35 65.0726 34.7018 64.2867 34.1187L60.7117 38.9373ZM97.6867 46H94.6867V49H97.6867V46ZM97.6867 39.28L95.6268 37.099L94.6867 37.9869V39.28H97.6867ZM114.967 22.96L112.952 20.737L112.929 20.7578L112.907 20.779L114.967 22.96ZM117.975 19.632L120.488 21.2708L117.975 19.632ZM119.255 16.944L116.394 16.0406L116.372 16.1101L116.353 16.1805L119.255 16.944ZM117.783 10.608L115.878 12.9262L115.923 12.963L115.97 12.9981L117.783 10.608ZM107.223 10.224L105.998 7.48554L105.984 7.49169L105.97 7.49797L107.223 10.224ZM103.191 13.616L101.566 16.1381L103.957 17.6782L105.623 15.3725L103.191 13.616ZM95.6387 8.752L93.1425 7.0879L91.4519 9.62383L94.0143 11.2741L95.6387 8.752ZM102.807 2.672L101.495 -0.0261068L101.495 -0.0261059L102.807 2.672ZM122.135 2.096L120.908 4.83352L120.936 4.84618L120.964 4.85825L122.135 2.096ZM127.959 6.64L125.496 8.35319L125.508 8.37105L125.521 8.38872L127.959 6.64ZM129.495 18.032L126.595 17.2643L126.587 17.2947L126.579 17.3252L129.495 18.032ZM127.319 22.512L124.864 20.7872L124.848 20.8097L124.833 20.8324L127.319 22.512ZM122.583 27.824L120.529 25.6368L120.526 25.6403L122.583 27.824ZM108.247 41.328L105.591 42.7234L107.428 46.2203L110.304 43.5117L108.247 41.328ZM106.263 37.552V34.552H101.298L103.607 38.9474L106.263 37.552ZM131.543 37.552H134.543V34.552H131.543V37.552ZM131.543 46V49H134.543V46H131.543ZM100.687 46V39.28H94.6867V46H100.687ZM99.7466 41.461L117.027 25.141L112.907 20.779L95.6268 37.099L99.7466 41.461ZM116.981 25.183C118.442 23.8595 119.651 22.5536 120.488 21.2708L115.462 17.9932C115.018 18.6731 114.222 19.5859 112.952 20.737L116.981 25.183ZM120.488 21.2708C121.239 20.1189 121.835 18.9252 122.156 17.7075L116.353 16.1805C116.247 16.5842 115.991 17.1824 115.462 17.9932L120.488 21.2708ZM122.115 17.8474C122.442 16.813 122.639 15.7576 122.639 14.704H116.639C116.639 15.0158 116.579 15.4537 116.394 16.0406L122.115 17.8474ZM122.639 14.704C122.639 12.1375 121.702 9.81605 119.596 8.21792L115.97 12.9981C116.338 13.2773 116.639 13.6865 116.639 14.704H122.639ZM119.687 8.28982C117.739 6.68992 115.168 6.136 112.471 6.136V12.136C114.467 12.136 115.437 12.5634 115.878 12.9262L119.687 8.28982ZM112.471 6.136C110.196 6.136 108.026 6.57805 105.998 7.48554L108.448 12.9625C109.662 12.4193 110.991 12.136 112.471 12.136V6.136ZM105.97 7.49797C103.879 8.45861 102.143 9.94308 100.759 11.8595L105.623 15.3725C106.457 14.2169 107.409 13.4401 108.475 12.95L105.97 7.49797ZM104.815 11.0939L97.2631 6.22985L94.0143 11.2741L101.566 16.1381L104.815 11.0939ZM98.1348 10.4161C99.5139 8.34757 101.472 6.65658 104.118 5.3701L101.495 -0.0261059C97.9976 1.67409 95.1769 4.03642 93.1425 7.0879L98.1348 10.4161ZM104.118 5.3701C106.716 4.10719 109.796 3.432 113.431 3.432V-2.568C109.044 -2.568 105.041 -1.74986 101.495 -0.0261068L104.118 5.3701ZM113.431 3.432C116.429 3.432 118.896 3.93185 120.908 4.83352L123.362 -0.641532C120.424 -1.95852 117.088 -2.568 113.431 -2.568V3.432ZM120.964 4.85825C123.037 5.73657 124.498 6.91895 125.496 8.35319L130.421 4.92681C128.688 2.43571 126.267 0.588758 123.305 -0.666258L120.964 4.85825ZM125.521 8.38872C126.517 9.77645 127.071 11.4914 127.071 13.68H133.071C133.071 10.4072 132.217 7.42888 130.396 4.89128L125.521 8.38872ZM127.071 13.68C127.071 14.8627 126.915 16.0555 126.595 17.2643L132.395 18.7997C132.843 17.1072 133.071 15.3986 133.071 13.68H127.071ZM126.579 17.3252C126.35 18.2689 125.825 19.4198 124.864 20.7872L129.773 24.2368C131.031 22.4469 131.956 20.6111 132.41 18.7388L126.579 17.3252ZM124.833 20.8324C123.937 22.1587 122.53 23.7584 120.529 25.6368L124.636 30.0112C126.816 27.9643 128.567 26.0226 129.804 24.1916L124.833 20.8324ZM120.526 25.6403L106.19 39.1443L110.304 43.5117L124.64 30.0077L120.526 25.6403ZM110.902 39.9326L108.918 36.1566L103.607 38.9474L105.591 42.7234L110.902 39.9326ZM106.263 40.552H131.543V34.552H106.263V40.552ZM128.543 37.552V46H134.543V37.552H128.543ZM131.543 43H97.6867V49H131.543V43ZM148.109 45.552L147.306 48.4426L147.324 48.4477L147.343 48.4527L148.109 45.552ZM140.301 41.968L137.626 40.6091L136.462 42.9007L138.548 44.4026L140.301 41.968ZM144.333 34.032L146.094 31.6032L143.249 29.5411L141.658 32.6731L144.333 34.032ZM150.285 36.976L149.368 39.8326L150.285 36.976ZM163.277 36.528L164.973 39.0022L163.277 36.528ZM152.397 26.8H149.397V29.8H152.397V26.8ZM152.397 19.952L150.147 17.9671L149.397 18.8177V19.952H152.397ZM164.877 5.808L167.742 4.9188L166.159 -0.180119L162.627 3.82313L164.877 5.808ZM166.029 9.52V12.52H170.101L168.894 8.6308L166.029 9.52ZM142.541 9.52H139.541V12.52H142.541V9.52ZM142.541 1.2V-1.8H139.541V1.2H142.541ZM173.901 1.2H176.901V-1.8H173.901V1.2ZM173.901 7.92L176.155 9.89912L176.901 9.04994V7.92H173.901ZM161.485 22.064L159.993 24.6668L162.121 25.8866L163.739 24.0431L161.485 22.064ZM156.237 19.056V16.056H144.97L154.745 21.6588L156.237 19.056ZM171.725 22.768L169.744 25.0215V25.0215L171.725 22.768ZM173.965 39.408L176.528 40.9662L176.535 40.9552L176.542 40.9442L173.965 39.408ZM167.885 44.72L166.543 42.0367V42.0367L167.885 44.72ZM157.389 43.768C154.538 43.768 151.701 43.3974 148.874 42.6513L147.343 48.4527C150.66 49.328 154.01 49.768 157.389 49.768V43.768ZM148.912 42.6614C146.11 41.8833 143.846 40.8238 142.054 39.5334L138.548 44.4026C141.022 46.1842 143.963 47.514 147.306 48.4426L148.912 42.6614ZM142.975 43.3269L147.007 35.3909L141.658 32.6731L137.626 40.6091L142.975 43.3269ZM142.572 36.4608C144.566 37.9065 146.842 39.0224 149.368 39.8326L151.201 34.1194C149.204 33.4789 147.513 32.6321 146.094 31.6032L142.572 36.4608ZM149.368 39.8326C151.917 40.65 154.508 41.064 157.133 41.064V35.064C155.149 35.064 153.175 34.7526 151.201 34.1194L149.368 39.8326ZM157.133 41.064C160.088 41.064 162.806 40.4884 164.973 39.0022L161.58 34.0538C160.761 34.6156 159.383 35.064 157.133 35.064V41.064ZM164.973 39.0022C167.272 37.4258 168.517 35.0975 168.517 32.304H162.517C162.517 33.0945 162.268 33.5822 161.58 34.0538L164.973 39.0022ZM168.517 32.304C168.517 29.6881 167.438 27.4336 165.32 25.8627L161.745 30.6813C162.273 31.073 162.517 31.5066 162.517 32.304H168.517ZM165.32 25.8627C163.21 24.2973 160.274 23.8 157.133 23.8V29.8C159.88 29.8 161.21 30.284 161.745 30.6813L165.32 25.8627ZM157.133 23.8H152.397V29.8H157.133V23.8ZM155.397 26.8V19.952H149.397V26.8H155.397ZM154.646 21.9369L167.126 7.79286L162.627 3.82313L150.147 17.9671L154.646 21.9369ZM162.011 6.6972L163.163 10.4092L168.894 8.6308L167.742 4.9188L162.011 6.6972ZM166.029 6.52H142.541V12.52H166.029V6.52ZM145.541 9.52V1.2H139.541V9.52H145.541ZM142.541 4.2H173.901V-1.8H142.541V4.2ZM170.901 1.2V7.92H176.901V1.2H170.901ZM171.646 5.94088L159.23 20.0849L163.739 24.0431L176.155 9.89912L171.646 5.94088ZM162.977 19.4612L157.729 16.4532L154.745 21.6588L159.993 24.6668L162.977 19.4612ZM156.237 22.056H159.245V16.056H156.237V22.056ZM159.245 22.056C164.354 22.056 167.683 23.2102 169.744 25.0215L173.705 20.5145C170.134 17.3765 165.144 16.056 159.245 16.056V22.056ZM169.744 25.0215C171.886 26.9038 172.949 29.249 172.949 32.304H178.949C178.949 27.5936 177.195 23.5815 173.705 20.5145L169.744 25.0215ZM172.949 32.304C172.949 34.2659 172.441 36.105 171.388 37.8718L176.542 40.9442C178.134 38.2737 178.949 35.3768 178.949 32.304H172.949ZM171.401 37.8498C170.426 39.4547 168.87 40.8732 166.543 42.0367L169.226 47.4033C172.361 45.8361 174.858 43.7133 176.528 40.9662L171.401 37.8498ZM166.543 42.0367C164.361 43.1278 161.364 43.768 157.389 43.768V49.768C161.947 49.768 165.947 49.0428 169.226 47.4033L166.543 42.0367Z" fill="url(#paint0_linear_8_1147)"/>
<defs>
<linearGradient id="paint0_linear_8_1147" x1="178.398" y1="23" x2="0.398438" y2="23" gradientUnits="userSpaceOnUse">
<stop stop-color="#89298D"/>
<stop offset="1" stop-color="#1F5DA1"/>
</linearGradient>
</defs>
</svg>
